<svg width="118" height="33" viewBox="0 0 118 33" fill="none" xmlns="http://www.w3.org/2000/svg">
<g id="Discord svg" clip-path="url(#clip0_499_1148)">
<g id="Clip path group">
<mask id="mask0_499_1148" style="mask-type:luminance" maskUnits="userSpaceOnUse" x="0" y="4" width="118" height="24">
<g id="clip0">
<path id="Vector" d="M117.801 4.73401H0.300781V27.4576H117.801V4.73401Z" fill="white"/>
</g>
</mask>
<g mask="url(#mask0_499_1148)">
<g id="Group">
<g id="Clip path group_2">
<mask id="mask1_499_1148" style="mask-type:luminance" maskUnits="userSpaceOnUse" x="0" y="4" width="118" height="24">
<g id="clip1">
<path id="Vector_2" d="M117.801 4.73401H0.300781V27.4576H117.801V4.73401Z" fill="white"/>
</g>
</mask>
<g mask="url(#mask1_499_1148)">
<g id="Group_2">
<path id="Vector_3" d="M25.1672 6.63711C23.267 5.74805 21.2353 5.10192 19.1111 4.73401C18.8502 5.20566 18.5454 5.84004 18.3353 6.34468C16.0772 6.0051 13.84 6.0051 11.6234 6.34468C11.4133 5.84004 11.1016 5.20566 10.8384 4.73401C8.71197 5.10192 6.67785 5.75042 4.77765 6.64181C0.944931 12.4336 -0.0940569 18.0814 0.425438 23.6491C2.9675 25.5475 5.43106 26.7007 7.85305 27.4553C8.45106 26.6323 8.98439 25.7574 9.44385 24.8353C8.5688 24.5028 7.73068 24.0925 6.93877 23.6161C7.14886 23.4605 7.35436 23.2978 7.55291 23.1303C12.383 25.3895 17.6311 25.3895 22.4035 23.1303C22.6044 23.2978 22.8099 23.4605 23.0177 23.6161C22.2234 24.0948 21.383 24.5052 20.508 24.8377C20.9674 25.7574 21.4985 26.6346 22.0988 27.4576C24.5231 26.703 26.9889 25.5499 29.531 23.6491C30.1405 17.1948 28.4897 11.5987 25.1672 6.63711ZM10.1019 20.2251C8.65193 20.2251 7.46285 18.8714 7.46285 17.2231C7.46285 15.5747 8.62654 14.2187 10.1019 14.2187C11.5773 14.2187 12.7663 15.5723 12.7409 17.2231C12.7432 18.8714 11.5773 20.2251 10.1019 20.2251ZM19.8546 20.2251C18.4046 20.2251 17.2155 18.8714 17.2155 17.2231C17.2155 15.5747 18.3792 14.2187 19.8546 14.2187C21.3299 14.2187 22.519 15.5723 22.4936 17.2231C22.4936 18.8714 21.3299 20.2251 19.8546 20.2251Z" fill="#C5C9D6"/>
<path id="Vector_4" d="M39.7473 10.531H46.0503C47.5698 10.531 48.8534 10.7739 49.9065 11.2573C50.9568 11.7407 51.7443 12.4152 52.2662 13.2783C52.7877 14.1414 53.0508 15.1295 53.0508 16.2426C53.0508 17.332 52.7784 18.3201 52.2336 19.2044C51.6887 20.0911 50.8598 20.7915 49.7448 21.308C48.6297 21.8244 47.2487 22.0838 45.5981 22.0838H39.7473V10.531ZM45.5333 19.1479C46.5562 19.1479 47.3437 18.8861 47.8929 18.3649C48.4426 17.8414 48.7174 17.1292 48.7174 16.2261C48.7174 15.3889 48.4724 14.7215 47.9831 14.2216C47.4937 13.7216 46.7525 13.4693 45.7618 13.4693H43.7901V19.1479H45.5333Z" fill="#C5C9D6"/>
<path id="Vector_5" d="M62.4878 22.0698C61.615 21.8387 60.8275 21.5038 60.1282 21.0628V18.3226C60.6569 18.74 61.3655 19.0843 62.2544 19.3555C63.1433 19.6243 64.0025 19.7587 64.8334 19.7587C65.2213 19.7587 65.5147 19.7068 65.713 19.6031C65.9118 19.4993 66.0112 19.3743 66.0112 19.2305C66.0112 19.0654 65.9581 18.9286 65.8495 18.8178C65.7408 18.707 65.5308 18.615 65.2193 18.5371L63.2797 18.0915C62.1691 17.8274 61.3816 17.4618 60.9133 16.9925C60.4445 16.5256 60.2111 15.9125 60.2111 15.1531C60.2111 14.5141 60.4143 13.9599 60.8255 13.4859C61.234 13.0119 61.8158 12.6464 62.5707 12.3893C63.326 12.1299 64.2077 12.0002 65.2213 12.0002C66.1263 12.0002 66.9552 12.0993 67.7105 12.2974C68.4654 12.4955 69.0888 12.7478 69.5853 13.0567V15.6484C69.0771 15.3395 68.4952 15.0966 67.8305 14.9126C67.1677 14.731 66.4869 14.6414 65.7847 14.6414C64.771 14.6414 64.2656 14.8183 64.2656 15.1696C64.2656 15.3347 64.3441 15.4574 64.501 15.5399C64.658 15.6224 64.9465 15.7073 65.3646 15.7969L66.9806 16.0941C68.0361 16.2804 68.8232 16.6082 69.3403 17.0751C69.8577 17.542 70.1161 18.233 70.1161 19.1479C70.1161 20.1502 69.6891 20.9449 68.8324 21.5344C67.9757 22.124 66.7613 22.4188 65.1867 22.4188C64.2608 22.4164 63.3606 22.3008 62.4878 22.0698Z" fill="#C5C9D6"/>
<path id="Vector_6" d="M73.9306 21.7229C73.0051 21.2607 72.3054 20.6335 71.839 19.8411C71.3726 19.0487 71.1372 18.1573 71.1372 17.1669C71.1372 16.1765 71.3795 15.2898 71.8643 14.5092C72.3492 13.7286 73.0603 13.1155 73.9979 12.6698C74.935 12.2241 76.0549 12.0024 77.3595 12.0024C78.9755 12.0024 80.3171 12.3491 81.3839 13.0424V16.0633C81.0076 15.7991 80.5686 15.5845 80.0676 15.4195C79.5666 15.2544 79.031 15.1718 78.4584 15.1718C77.4565 15.1718 76.6738 15.3582 76.108 15.7331C75.5423 16.1081 75.2586 16.5962 75.2586 17.2023C75.2586 17.7965 75.533 18.2823 76.0827 18.6644C76.6323 19.044 77.4287 19.235 78.4745 19.235C79.0125 19.235 79.5437 19.1549 80.0676 18.9969C80.5895 18.8365 81.0398 18.6408 81.416 18.4097V21.3315C80.2318 22.0578 78.858 22.4209 77.2947 22.4209C75.9789 22.4162 74.8566 22.1851 73.9306 21.7229Z" fill="#C5C9D6"/>
<path id="Vector_7" d="M85.4151 21.723C84.4823 21.2608 83.7713 20.6288 83.2816 19.8247C82.7922 19.0205 82.5452 18.1244 82.5452 17.134C82.5452 16.1435 82.7898 15.2592 83.2816 14.4834C83.7733 13.7075 84.4799 13.0991 85.4082 12.6581C86.3337 12.2171 87.4399 11.9978 88.7212 11.9978C90.0028 11.9978 91.1086 12.2171 92.0345 12.6581C92.9604 13.0991 93.667 13.7028 94.1519 14.4739C94.6368 15.2451 94.879 16.1294 94.879 17.1316C94.879 18.122 94.6368 19.0182 94.1519 19.8223C93.667 20.6264 92.958 21.2585 92.0252 21.7206C91.0925 22.1829 89.9911 22.414 88.7191 22.414C87.4468 22.414 86.3454 22.1852 85.4151 21.723ZM90.3259 18.7941C90.7187 18.3933 90.917 17.8627 90.917 17.2024C90.917 16.5421 90.7207 16.0162 90.3259 15.6271C89.9336 15.2356 89.3976 15.0399 88.7191 15.0399C88.0286 15.0399 87.4882 15.2356 87.0935 15.6271C86.7011 16.0186 86.5048 16.5421 86.5048 17.2024C86.5048 17.8627 86.7011 18.3933 87.0935 18.7941C87.4862 19.195 88.0286 19.3978 88.7191 19.3978C89.3976 19.3955 89.9336 19.195 90.3259 18.7941Z" fill="#C5C9D6"/>
<path id="Vector_8" d="M104.59 12.6109V16.1765C104.179 15.9006 103.648 15.7638 102.99 15.7638C102.129 15.7638 101.464 16.0303 101.002 16.5632C100.538 17.0962 100.307 17.9263 100.307 19.0488V22.0861H96.3474V12.4293H100.227V15.4997C100.441 14.3772 100.79 13.5495 101.27 13.0141C101.748 12.4812 102.366 12.2147 103.119 12.2147C103.69 12.2147 104.179 12.3468 104.59 12.6109Z" fill="#C5C9D6"/>
<path id="Vector_9" d="M117.746 10.2009V22.0863H113.786V19.9238C113.451 20.7374 112.944 21.3576 112.26 21.782C111.577 22.2042 110.732 22.4164 109.73 22.4164C108.834 22.4164 108.054 22.1947 107.386 21.749C106.719 21.3034 106.204 20.6926 105.842 19.9167C105.481 19.1409 105.299 18.2636 105.299 17.2826C105.288 16.271 105.479 15.363 105.874 14.5589C106.267 13.7547 106.823 13.1275 107.539 12.677C108.254 12.2266 109.072 12.0002 109.988 12.0002C111.875 12.0002 113.14 12.8374 113.786 14.5094V10.2009H117.746ZM113.195 18.7282C113.599 18.3273 113.8 17.8062 113.8 17.1694C113.8 16.5539 113.604 16.0516 113.212 15.6673C112.819 15.2829 112.281 15.0895 111.604 15.0895C110.937 15.0895 110.404 15.2852 110.004 15.6767C109.605 16.0682 109.406 16.5751 109.406 17.2024C109.406 17.8297 109.605 18.3415 110.004 18.7376C110.404 19.1338 110.93 19.3319 111.588 19.3319C112.255 19.3296 112.791 19.1291 113.195 18.7282Z" fill="#C5C9D6"/>
<path id="Vector_10" d="M56.3877 13.4575C57.4778 13.4575 58.3619 12.6466 58.3619 11.6464C58.3619 10.6462 57.4778 9.83533 56.3877 9.83533C55.2972 9.83533 54.4136 10.6462 54.4136 11.6464C54.4136 12.6466 55.2972 13.4575 56.3877 13.4575Z" fill="#C5C9D6"/>
<path id="Vector_11" d="M54.4119 14.705C55.6215 15.2379 57.1224 15.2615 58.3598 14.705V22.138H54.4119V14.705Z" fill="#C5C9D6"/>
</g>
</g>
</g>
</g>
</g>
</g>
</g>
<defs>
<clipPath id="clip0_499_1148">
<rect width="117.5" height="32.1918" fill="white" transform="translate(0.300781)"/>
</clipPath>
</defs>
</svg>
