<svg width="83" height="24" viewBox="0 0 83 24" fill="none" xmlns="http://www.w3.org/2000/svg">
<path id="Vector" d="M34.4378 19.4302H34.4006C34.4173 19.4302 34.4285 19.4488 34.4452 19.4507H34.4563L34.4378 19.432V19.4302ZM34.4452 19.4507C34.2723 19.4526 33.8375 19.5442 33.3784 19.5442C31.9288 19.5442 31.427 18.8713 31.427 17.9927V12.1402H34.382C34.5493 12.1402 34.6794 11.9907 34.6794 11.7851V8.60738C34.6794 8.43915 34.5307 8.28961 34.382 8.28961H31.427V4.34556C31.427 4.19602 31.3341 4.10256 31.1668 4.10256H27.1525C26.9852 4.10256 26.8923 4.19602 26.8923 4.34556V8.40176C26.8923 8.40176 24.8665 8.90645 24.7365 8.92515C24.5878 8.96253 24.4949 9.09338 24.4949 9.24291V11.7851C24.4949 11.9907 24.6435 12.1402 24.8108 12.1402H26.8737V18.2712C26.8737 22.8321 30.0331 23.2994 32.189 23.2994C33.174 23.2994 34.3634 22.9817 34.5493 22.8882C34.6608 22.8508 34.7165 22.72 34.7165 22.5891V19.7853C34.7191 19.7058 34.6931 19.628 34.6432 19.5662C34.5934 19.5044 34.5231 19.4627 34.4452 19.4488V19.4507ZM78.4839 15.3366C78.4839 11.9533 77.1272 11.5047 75.6961 11.6542C74.5811 11.729 73.689 12.2897 73.689 12.2897V18.8694C73.689 18.8694 74.5996 19.5049 75.9563 19.5423C77.8706 19.5984 78.4839 18.9068 78.4839 15.3366ZM83 15.0375C83 21.4489 80.9371 23.2807 77.3316 23.2807C74.2837 23.2807 72.6482 21.7293 72.6482 21.7293C72.6482 21.7293 72.5739 22.5891 72.481 22.7013C72.4252 22.8134 72.3323 22.8508 72.2208 22.8508H69.4702C69.2844 22.8508 69.1171 22.7013 69.1171 22.5331L69.1543 1.76604C69.1543 1.59781 69.303 1.44827 69.4702 1.44827H73.4288C73.5961 1.44827 73.7447 1.59781 73.7447 1.76604V8.81299C73.7447 8.81299 75.2687 7.82231 77.4989 7.82231L77.4803 7.78492C79.7105 7.78492 83 8.62607 83 15.0375ZM66.794 8.28961H62.8912C62.6867 8.28961 62.5752 8.43915 62.5752 8.64476V18.8133C62.5752 18.8133 61.5531 19.5423 60.1592 19.5423C58.7653 19.5423 58.3565 18.9068 58.3565 17.5049V8.62607C58.3565 8.45784 58.2078 8.3083 58.0405 8.3083H54.0634C53.8961 8.3083 53.7474 8.45784 53.7474 8.62607V18.1778C53.7474 22.2901 56.0334 23.3181 59.1742 23.3181C61.7575 23.3181 63.8576 21.8788 63.8576 21.8788C63.8576 21.8788 63.9505 22.6078 64.0063 22.72C64.0434 22.8134 64.1735 22.8882 64.3036 22.8882H66.794C66.9984 22.8882 67.1099 22.7387 67.1099 22.5704L67.1471 8.60738C67.1471 8.43915 66.9984 8.28961 66.794 8.28961ZM22.7479 8.27092H18.7893C18.622 8.27092 18.4734 8.43915 18.4734 8.64476V22.3648C18.4734 22.7387 18.715 22.8695 19.0309 22.8695H22.5992C22.9709 22.8695 23.0638 22.7013 23.0638 22.3648V8.58869C23.0638 8.42046 22.9151 8.27092 22.7479 8.27092ZM20.7965 1.95296C19.3654 1.95296 18.2318 3.09318 18.2318 4.53248C18.2318 5.97178 19.3654 7.112 20.7965 7.112C22.1903 7.112 23.324 5.97178 23.324 4.53248C23.324 3.09318 22.1903 1.95296 20.7965 1.95296ZM51.4429 1.48566H47.5215C47.3542 1.48566 47.2056 1.63519 47.2056 1.80342V9.44853H41.054V1.80342C41.054 1.63519 40.9053 1.48566 40.738 1.48566H36.7794C36.6122 1.48566 36.4635 1.63519 36.4635 1.80342V22.5704C36.4635 22.7387 36.6308 22.8882 36.7794 22.8882H40.738C40.9053 22.8882 41.054 22.7387 41.054 22.5704V13.6917H47.2056L47.1684 22.5704C47.1684 22.7387 47.3171 22.8882 47.4843 22.8882H51.4429C51.6102 22.8882 51.7588 22.7387 51.7588 22.5704V1.80342C51.7588 1.63519 51.6102 1.48566 51.4429 1.48566ZM16.3733 10.6822V21.4115C16.3733 21.4863 16.3547 21.6171 16.2618 21.6545C16.2618 21.6545 13.9386 23.3181 10.1102 23.3181C5.48253 23.3181 0 21.8601 0 12.2524C0 2.64457 4.79489 0.663201 9.47828 0.681893C13.5298 0.681893 15.1652 1.59781 15.4254 1.76604C15.4998 1.8595 15.5369 1.93427 15.5369 2.02773L14.7564 5.35494C14.7564 5.52317 14.5891 5.72878 14.3847 5.67271C13.7156 5.46709 12.712 5.05586 10.3518 5.05586C7.61979 5.05586 4.68339 5.84094 4.68339 12.028C4.68339 18.2152 7.47111 18.9442 9.47828 18.9442C11.1881 18.9442 11.8014 18.7385 11.8014 18.7385V14.4393H9.06941C8.86498 14.4393 8.7163 14.2898 8.7163 14.1216V10.6822C8.7163 10.514 8.86498 10.3644 9.06941 10.3644H16.0202C16.2246 10.3644 16.3733 10.514 16.3733 10.6822Z" fill="#C5C9D6"/>
</svg>
