<svg width="95" height="44" viewBox="0 0 95 44" fill="none" xmlns="http://www.w3.org/2000/svg">
<g id="Reddit svg" clip-path="url(#clip0_411_1648)">
<g id="Artwork">
<g id="Group">
<g id="Group_2">
<path id="Vector" d="M85.085 19.041C86.2038 19.041 87.1107 18.1349 87.1107 17.0171C87.1107 15.8994 86.2038 14.9933 85.085 14.9933C83.9663 14.9933 83.0593 15.8994 83.0593 17.0171C83.0593 18.1349 83.9663 19.041 85.085 19.041Z" fill="#C5C9D6"/>
<path id="Vector_2" d="M56.152 25.6463C57.1457 25.6463 57.719 24.9017 57.6808 24.1761C57.6617 23.7943 57.6235 23.5461 57.5853 23.3551C56.9737 20.7203 54.8334 18.7728 52.2917 18.7728C49.2723 18.7728 46.8262 21.5031 46.8262 24.8635C46.8262 28.2238 49.2723 30.9541 52.2917 30.9541C54.1836 30.9541 55.5405 30.2668 56.5151 29.1785C56.9928 28.6439 56.8973 27.8229 56.324 27.4219C55.8462 27.0974 55.2538 27.2119 54.8143 27.5747C54.3938 27.9375 53.5912 28.663 52.2917 28.663C50.7629 28.663 49.4634 27.3456 49.1767 25.6081H56.152V25.6463ZM52.2726 21.0831C53.6485 21.0831 54.8334 22.1523 55.2729 23.6224H49.2723C49.7118 22.1332 50.8967 21.0831 52.2726 21.0831Z" fill="#C5C9D6"/>
<path id="Vector_3" d="M46.9408 19.9755C46.9408 19.4027 46.5203 18.9445 45.9853 18.8491C44.3227 18.6008 42.7556 19.2118 41.8574 20.3383V20.1856C41.8574 19.4791 41.2841 19.04 40.7108 19.04C40.0802 19.04 39.5642 19.5555 39.5642 20.1856V29.5411C39.5642 30.1521 40.0229 30.6867 40.6344 30.7249C41.3032 30.7631 41.8574 30.2476 41.8574 29.5793V24.7488C41.8574 22.6104 43.4627 20.8538 45.6795 21.102C45.7559 21.102 45.8324 21.102 45.9088 21.102C46.4821 21.0638 46.9408 20.5674 46.9408 19.9755Z" fill="#C5C9D6"/>
<path id="Vector_4" d="M86.2317 21.1981C86.2317 20.568 85.7157 20.0525 85.0851 20.0525C84.4545 20.0525 83.9385 20.568 83.9385 21.1981C83.9385 21.2363 83.9385 29.2171 83.9385 29.5799C83.9385 30.21 84.4545 30.7255 85.0851 30.7255C85.7157 30.7255 86.2317 30.21 86.2317 29.5799C86.2317 29.2362 86.2317 21.2553 86.2317 21.1981Z" fill="#C5C9D6"/>
<path id="Vector_5" d="M69.1853 14.8592C69.1853 14.2291 68.6694 13.7136 68.0387 13.7136C67.4081 13.7136 66.8921 14.2291 66.8921 14.8592V19.957C66.1086 19.1742 65.134 18.7924 63.9682 18.7924C60.9488 18.7924 58.5027 21.5226 58.5027 24.883C58.5027 28.2434 60.9488 30.9737 63.9682 30.9737C65.134 30.9737 66.1277 30.5727 66.9112 29.7899C67.0068 30.3245 67.4845 30.7255 68.0387 30.7255C68.6694 30.7255 69.1853 30.2099 69.1853 29.5799V14.8592ZM63.9873 28.7016C62.2292 28.7016 60.815 27.0023 60.815 24.883C60.815 22.7828 62.2292 21.0644 63.9873 21.0644C65.7455 21.0644 67.1596 22.7637 67.1596 24.883C67.1596 27.0023 65.7264 28.7016 63.9873 28.7016Z" fill="#C5C9D6"/>
<path id="Vector_6" d="M81.1482 14.8592C81.1482 14.2291 80.6322 13.7136 80.0016 13.7136C79.371 13.7136 78.855 14.2291 78.855 14.8592V19.957C78.0715 19.1742 77.0968 18.7924 75.9311 18.7924C72.9117 18.7924 70.4656 21.5226 70.4656 24.883C70.4656 28.2434 72.9117 30.9737 75.9311 30.9737C77.0968 30.9737 78.0906 30.5727 78.8741 29.7899C78.9697 30.3245 79.4474 30.7255 80.0016 30.7255C80.6322 30.7255 81.1482 30.2099 81.1482 29.5799V14.8592ZM75.9311 28.7016C74.173 28.7016 72.7588 27.0023 72.7588 24.883C72.7588 22.7828 74.173 21.0644 75.9311 21.0644C77.6893 21.0644 79.1034 22.7637 79.1034 24.883C79.1034 27.0023 77.6893 28.7016 75.9311 28.7016Z" fill="#C5C9D6"/>
<path id="Vector_7" d="M92.041 29.5996V21.0841H93.0538C93.5889 21.0841 94.0667 20.6831 94.1049 20.1295C94.1431 19.5376 93.6653 19.0412 93.092 19.0412H92.041V17.4373C92.041 16.8264 91.5823 16.2918 90.9708 16.2536C90.3019 16.2154 89.7477 16.7309 89.7477 17.3992V19.0602H88.7922C88.2571 19.0602 87.7794 19.4612 87.7412 20.0149C87.7029 20.6068 88.1807 21.1032 88.754 21.1032H89.7286V29.6187C89.7286 30.2487 90.2446 30.7642 90.8753 30.7642C91.5441 30.7261 92.041 30.2296 92.041 29.5996Z" fill="#C5C9D6"/>
</g>
<g id="Group_3">
<path id="Exclude" fill-rule="evenodd" clip-rule="evenodd" d="M33.1431 21.9999C33.1431 30.8364 25.9732 37.9998 17.1287 37.9998C8.28416 37.9998 1.11426 30.8364 1.11426 21.9999C1.11426 13.1634 8.28416 6 17.1287 6C25.9732 6 33.1431 13.1634 33.1431 21.9999ZM25.48 19.6706C26.7603 19.6706 27.8114 20.7016 27.8114 21.9999C27.8114 22.9546 27.2381 23.7756 26.4355 24.1383C26.4737 24.3674 26.4928 24.6157 26.4928 24.8448C26.4928 28.4533 22.3076 31.3555 17.1479 31.3555C11.9881 31.3555 7.80294 28.4342 7.80294 24.8448C7.80294 24.5966 7.82205 24.3674 7.86027 24.1383C7.05764 23.7756 6.48433 22.9737 6.48433 22.019C6.48433 20.7398 7.51628 19.6897 8.81578 19.6897C9.44642 19.6897 10.0197 19.9379 10.4402 20.3388C12.0645 19.1742 14.3004 18.4295 16.7848 18.3532L17.9696 12.778C17.9887 12.6635 18.0461 12.568 18.1416 12.5107C18.218 12.4534 18.3327 12.4343 18.4474 12.4534L22.3268 13.2744C22.5943 12.7207 23.1676 12.3389 23.8174 12.3389C24.7347 12.3389 25.48 13.0835 25.48 14C25.48 14.9164 24.7347 15.661 23.8174 15.661C22.9192 15.661 22.193 14.9546 22.1548 14.0763L18.6767 13.3317L17.6065 18.3341C20.0526 18.4295 22.2503 19.1742 23.8556 20.3197C24.276 19.9188 24.8493 19.6706 25.48 19.6706ZM13.4596 21.9999C12.5423 21.9999 11.797 22.7445 11.797 23.661C11.797 24.5775 12.5423 25.3412 13.4596 25.3221C14.3769 25.3221 15.1222 24.5775 15.1222 23.661C15.1222 22.7445 14.3769 21.9999 13.4596 21.9999ZM17.1479 29.2934C17.7785 29.2934 19.9571 29.2171 21.1037 28.0715C21.2566 27.8996 21.2566 27.6323 21.1037 27.4605C20.9317 27.2887 20.6642 27.2887 20.4922 27.4605C19.7851 28.186 18.2372 28.4342 17.1479 28.4342C16.0586 28.4342 14.5298 28.186 13.8036 27.4605C13.6316 27.2887 13.364 27.2887 13.192 27.4605C13.02 27.6323 13.02 27.8996 13.192 28.0715C14.3195 29.198 16.4981 29.2934 17.1479 29.2934ZM19.1353 23.6801C19.1353 24.5966 19.8806 25.3412 20.7979 25.3412C21.7152 25.3412 22.4605 24.5775 22.4605 23.6801C22.4605 22.7636 21.7152 22.019 20.7979 22.019C19.8806 22.019 19.1353 22.7636 19.1353 23.6801Z" fill="#C5C9D6"/>
</g>
</g>
</g>
</g>
<defs>
<clipPath id="clip0_411_1648">
<rect width="94.2857" height="44" fill="white" transform="translate(0.467041)"/>
</clipPath>
</defs>
</svg>
