<svg width="168" height="34" viewBox="0 0 168 34" fill="none" xmlns="http://www.w3.org/2000/svg">
<g id="Group 1143326">
<g id="Group">
<path id="Vector" d="M38.4992 20.9389L36.57 20.7681C35.0557 20.6463 34.4697 20.0356 34.4697 19.0096C34.4697 17.7887 35.3977 17.0312 37.1562 17.0312C38.4019 17.0312 39.5007 17.3246 40.3564 17.9839L41.5045 16.8359C40.4288 15.9568 38.8908 15.5419 37.1815 15.5419C34.617 15.5419 32.7607 16.8596 32.7607 19.0586C32.7607 21.0368 34.0066 22.0869 36.3511 22.2824L38.3293 22.4532C39.7212 22.5755 40.332 23.1615 40.332 24.2117C40.332 25.6283 39.1108 26.3361 37.1318 26.3361C35.6416 26.3361 34.3473 25.9454 33.3937 24.9439L32.2212 26.1164C33.5403 27.3863 35.1277 27.8504 37.1549 27.8504C40.0611 27.8504 42.0396 26.5058 42.0396 24.1872C42.0396 21.9395 40.5985 21.1341 38.4979 20.9383L38.4992 20.9389ZM53.5356 15.5413C51.6077 15.5413 50.3932 15.9213 49.3291 17.2686C49.3146 17.2872 50.4828 18.4228 50.4828 18.4228C51.1909 17.4216 51.9723 17.0556 53.5109 17.0556C55.7091 17.0556 56.5884 17.9347 56.5884 19.693V20.8407H52.9746C50.2881 20.8407 48.823 22.2087 48.823 24.3098C48.7948 25.2105 49.1189 26.0867 49.7266 26.7522C50.4839 27.5339 51.4606 27.8513 53.1212 27.8513C54.7331 27.8513 55.6125 27.5339 56.5903 26.5567V27.7044H58.3488V19.5467C58.3488 16.9335 56.7622 15.5419 53.5375 15.5419L53.5356 15.5413ZM56.5895 23.4554C56.5895 24.4572 56.394 25.1411 55.9788 25.5315C55.2218 26.2643 54.3182 26.3383 53.2925 26.3383C51.3874 26.3383 50.5323 25.6786 50.5323 24.2864C50.5323 22.8942 51.4116 22.1619 53.2193 22.1619H56.5895V23.4554ZM65.2352 17.1059C66.3829 17.1059 67.0907 17.4477 67.9949 18.4489C67.9949 18.4489 69.1722 17.3047 69.1625 17.2944C67.9295 15.9754 66.8829 15.5429 65.2362 15.5429C62.2076 15.5429 59.9115 17.5943 59.9115 21.6972C59.9115 25.8002 62.2071 27.8521 65.2362 27.8521C66.8968 27.8521 67.947 27.4121 69.1927 26.0691L67.9959 24.9211C67.0924 25.9225 66.384 26.2888 65.2362 26.2888C64.1367 26.3327 63.0893 25.8182 62.4521 24.9211C61.8903 24.1396 61.6706 23.2115 61.6706 21.6972C61.6706 20.1829 61.8903 19.2549 62.4521 18.4734C63.0892 17.5761 64.1366 17.0616 65.2362 17.1059H65.2352ZM80.296 15.6715H78.1037L72.6553 20.9746L72.6637 10.3148H70.9046V27.7044H72.6634L72.6551 23.3186L74.7879 21.1782L78.8185 27.7044H80.992L76.0061 19.9595L80.296 15.6715ZM88.421 15.3757C86.6192 15.3757 85.4018 16.0778 84.6526 16.8736C83.5524 18.0205 83.2717 19.4014 83.2717 21.6018C83.2717 23.8252 83.5524 25.2053 84.6526 26.3534C85.4018 27.1491 86.6187 27.8515 88.421 27.8515C90.2233 27.8515 91.4642 27.1491 92.2129 26.3534C93.313 25.2064 93.5941 23.8255 93.5941 21.6018C93.5941 19.4017 93.313 18.0205 92.2129 16.8736C91.4642 16.0778 90.2228 15.3757 88.421 15.3757ZM89.849 24.5744C89.4675 24.9429 88.9508 25.1375 88.421 25.1123C87.8982 25.1376 87.3888 24.9425 87.0167 24.5744C86.3845 23.9425 86.3145 22.866 86.3145 21.6018C86.3145 20.3376 86.3845 19.2847 87.0167 18.6528C87.3888 18.2846 87.8982 18.0895 88.421 18.1149C88.9508 18.0895 89.4676 18.2842 89.849 18.6528C90.4807 19.2847 90.5512 20.3378 90.5512 21.6018C90.5512 22.8657 90.4807 23.9414 89.849 24.5744ZM101.696 15.5155L99.239 23.0521L96.7579 15.515H93.5508L98.0453 27.7098H100.433L104.903 15.515L101.696 15.5155ZM110.08 15.3751C106.92 15.3751 104.767 17.622 104.767 21.6012C104.767 26.5403 107.529 27.851 110.407 27.851C112.608 27.851 113.802 27.172 115.042 25.9311L113.193 24.1294C112.421 24.902 111.765 25.2763 110.431 25.2763C108.722 25.2763 107.763 24.1294 107.763 22.5602H115.393V21.2035C115.393 17.8562 113.474 15.3751 110.08 15.3751ZM107.763 20.4777C107.767 20.0263 107.863 19.5805 108.044 19.1669C108.427 18.3929 109.216 17.9032 110.08 17.9032C110.944 17.9032 111.733 18.3929 112.116 19.1669C112.297 19.5807 112.392 20.0264 112.397 20.4777H107.763ZM119.882 16.6859V15.5155H116.909V27.7103H119.952V20.361C119.952 18.816 120.982 18.1136 121.918 18.1136C122.535 18.0922 123.127 18.3568 123.523 18.8305L125.827 16.5221C124.984 15.6793 124.142 15.3751 122.948 15.3751C121.787 15.3614 120.674 15.8372 119.882 16.6859H119.882ZM126.771 14.2443V27.698H129.814V18.0829H132.061V15.7659H129.814V14.4318C129.814 13.7296 130.165 13.3316 130.89 13.3316H132.06V10.7572H130.328C127.846 10.7572 126.77 12.5125 126.77 14.2443H126.771ZM144.587 15.3738C142.786 15.3738 141.568 16.0759 140.819 16.8717C139.719 18.0186 139.438 19.3996 139.438 21.5999C139.438 23.8233 139.719 25.2034 140.819 26.3515C141.568 27.1472 142.785 27.8496 144.587 27.8496C146.39 27.8496 147.631 27.1472 148.379 26.3515C149.479 25.2045 149.76 23.8236 149.76 21.5999C149.76 19.3998 149.479 18.0186 148.379 16.8717C147.63 16.0759 146.389 15.3738 144.587 15.3738ZM146.015 24.5725C145.634 24.941 145.117 25.1356 144.587 25.1104C144.065 25.1357 143.555 24.9406 143.183 24.5725C142.551 23.9406 142.481 22.8641 142.481 21.5999C142.481 20.3357 142.551 19.2828 143.183 18.6509C143.555 18.2828 144.065 18.0877 144.587 18.113C145.117 18.0877 145.634 18.2823 146.015 18.6509C146.647 19.2828 146.718 20.3359 146.718 21.5999C146.718 22.8638 146.647 23.9395 146.015 24.5725ZM164.136 15.5142L162.17 23.0521L159.666 15.5155H157.443L154.961 23.0521L152.995 15.515H149.765L153.51 27.7098H156.015L158.566 20.0563L161.117 27.7098H163.622L167.343 15.515L164.136 15.5142ZM136.549 24.0355V10.7572H133.507V24.2227C133.507 25.9548 134.561 27.7103 137.065 27.7103H138.797V25.1354H137.627C136.855 25.1354 136.551 24.7611 136.551 24.0355H136.549ZM46.9166 17.5784L48.5425 15.9525H45.2132V11.9993H43.4547V24.4806C43.4547 26.2633 44.4804 27.7044 46.532 27.7044H47.7771V26.1901H46.8493C45.726 26.1901 45.2132 25.5305 45.2132 24.4316V17.5784H46.9166Z" fill="#C5C9D6"/>
<path id="Vector_2" fill-rule="evenodd" clip-rule="evenodd" d="M23.7889 21.8143H26.7471V33.6469H0.123535V21.8143H3.0817V30.6888H23.7889V21.8143Z" fill="#C5C9D6"/>
<path id="Vector_3" d="M6.30546 20.9357L20.8341 23.9893L21.4448 21.0849L6.91619 18.03L6.30546 20.9357ZM8.228 13.9789L21.6866 20.247L22.9403 17.5553L9.48146 11.2873L8.228 13.9789ZM11.9521 7.37608L23.362 16.8774L25.2622 14.5956L13.8523 5.09455L11.9521 7.37608ZM19.3171 0.352905L16.9344 2.1251L25.795 14.0384L28.1776 12.2664L19.3171 0.352905ZM6.03979 27.7314H20.8306V24.7732H6.03979V27.7314Z" fill="#C5C9D6"/>
</g>
</g>
</svg>
