<svg width="98" height="67" viewBox="0 0 98 67" fill="none" xmlns="http://www.w3.org/2000/svg">
<g clip-path="url(#clip0_497_216)">
<path d="M96 2H2V64.6327H96V2Z" fill="url(#paint0_radial_497_216)"/>
<path d="M72.5823 57.3019C72.5823 57.3019 72.598 57.3176 72.6136 57.3254C72.6136 57.3254 72.5666 57.2706 72.5823 57.3019Z" fill="#0000FF"/>
<path fill-rule="evenodd" clip-rule="evenodd" d="M49.0078 9.37769L10.0513 34.2365L48.9999 59.1267L87.9251 34.2287L49.0078 9.37769Z" fill="url(#paint1_radial_497_216)"/>
<path fill-rule="evenodd" clip-rule="evenodd" d="M49.0156 50.8954C58.0616 50.8954 65.4472 43.5176 65.4472 34.4638C65.4472 25.41 58.0616 18.04 49.0156 18.04C39.9696 18.04 32.5762 25.4178 32.5762 34.4638C32.5762 43.5098 39.9539 50.8954 49.0156 50.8954Z" fill="#0600B8"/>
<path fill-rule="evenodd" clip-rule="evenodd" d="M33.9783 27.8066C39.2805 27.1957 44.0424 27.3524 48.5145 28.347C52.7595 29.2869 56.746 30.9629 60.6855 33.43C62.2362 34.3934 63.7478 35.5525 65.2907 36.7508C65.1027 37.8708 65.0088 38.3329 64.6876 39.4059C63.8105 38.5208 62.8158 37.7455 61.7976 37.0014C60.756 36.2417 59.683 35.5133 58.5317 34.8555C51.0677 30.6027 41.403 28.9109 33.1011 30.3207C33.3674 29.3339 33.5788 28.7386 33.9783 27.7988V27.8066Z" fill="white"/>
<path fill-rule="evenodd" clip-rule="evenodd" d="M35.5995 30.8296L35.7483 31.2682L36.2182 31.276L35.8501 31.5658L35.9754 32.0122L35.5995 31.7459L35.2079 32.0122L35.3489 31.5658L34.9651 31.276L35.435 31.2682L35.5995 30.8296Z" fill="white"/>
<path fill-rule="evenodd" clip-rule="evenodd" d="M37.0562 37.7844L37.2129 38.223L37.6828 38.2387L37.3069 38.5285L37.4479 38.9749L37.0562 38.7008L36.6725 38.9749L36.8056 38.5285L36.4297 38.2387L36.8996 38.223L37.0562 37.7844Z" fill="white"/>
<path fill-rule="evenodd" clip-rule="evenodd" d="M35.0355 39.437L35.1452 39.7425L35.4663 39.7581L35.2157 39.9461L35.3018 40.2594L35.0355 40.0792L34.7614 40.2594L34.8554 39.9461L34.5969 39.7581L34.9259 39.7425L35.0355 39.437Z" fill="white"/>
<path fill-rule="evenodd" clip-rule="evenodd" d="M38.6617 37.064L38.7478 37.2911L38.9828 37.2989L38.7948 37.4399L38.8653 37.6749L38.6617 37.5417L38.4659 37.6749L38.5364 37.4399L38.3484 37.2989L38.5833 37.2911L38.6617 37.064Z" fill="white"/>
<path fill-rule="evenodd" clip-rule="evenodd" d="M48.1934 39.3901L48.2639 39.6173H48.5067L48.3187 39.7661L48.3892 39.9854L48.1934 39.8601L47.9976 39.9854L48.0681 39.7661L47.8801 39.6173H48.1151L48.1934 39.3901Z" fill="white"/>
<path fill-rule="evenodd" clip-rule="evenodd" d="M40.463 39.5076L40.604 39.8757L40.9956 39.8913L40.6823 40.1341L40.7998 40.5179L40.463 40.2908L40.1419 40.5179L40.2515 40.1341L39.9304 39.8913L40.3377 39.8757L40.463 39.5076Z" fill="white"/>
<path fill-rule="evenodd" clip-rule="evenodd" d="M42.7579 34.5813L42.8832 34.9572H43.2748L42.9615 35.1922L43.0712 35.5681L42.7579 35.3488L42.429 35.5681L42.5464 35.1922L42.2332 34.9572H42.6248L42.7579 34.5813Z" fill="white"/>
<path fill-rule="evenodd" clip-rule="evenodd" d="M47.3632 38.1057L47.4728 38.419L47.8017 38.4347L47.5433 38.6305L47.6373 38.9437L47.3632 38.7636L47.0969 38.9437L47.1908 38.6305L46.9246 38.4347L47.2613 38.419L47.3632 38.1057Z" fill="white"/>
<path fill-rule="evenodd" clip-rule="evenodd" d="M50.911 38.0273L51.0363 38.4033L51.4436 38.4111L51.1225 38.6539L51.2399 39.0377L50.911 38.8105L50.5742 39.0377L50.6917 38.6539L50.3784 38.4111L50.77 38.4033L50.911 38.0273Z" fill="white"/>
<path fill-rule="evenodd" clip-rule="evenodd" d="M49.0158 36.5237L49.1411 36.9074L49.5483 36.9153L49.2272 37.1581L49.3369 37.5418L49.0158 37.3225L48.6868 37.5418L48.7965 37.1581L48.4753 36.9153L48.8748 36.9074L49.0158 36.5237Z" fill="white"/>
<path fill-rule="evenodd" clip-rule="evenodd" d="M53.4878 33.2498L53.5818 33.516L53.8716 33.5317L53.6444 33.7118L53.7228 33.986L53.4878 33.8215L53.2372 33.986L53.3312 33.7118L53.0962 33.5317L53.386 33.516L53.4878 33.2498Z" fill="white"/>
<path fill-rule="evenodd" clip-rule="evenodd" d="M54.13 28.6838L54.2866 29.1303L54.7487 29.1459L54.3728 29.4279L54.5138 29.8743L54.13 29.6158L53.7462 29.8743L53.8715 29.4279L53.5034 29.1459L53.9733 29.1303L54.13 28.6838Z" fill="white"/>
<path fill-rule="evenodd" clip-rule="evenodd" d="M61.2023 41.207L61.312 41.5438L61.6723 41.5516L61.3903 41.7631L61.4843 42.0999L61.2023 41.8962L60.9126 42.0999L61.0065 41.7631L60.7324 41.5516L61.0849 41.5438L61.2023 41.207Z" fill="white"/>
<path fill-rule="evenodd" clip-rule="evenodd" d="M62.8078 39.8914L62.9175 40.2125L63.2778 40.2281L62.988 40.4396L63.0898 40.7842L62.8078 40.5806L62.5102 40.7842L62.612 40.4396L62.3301 40.2281L62.6825 40.2125L62.8078 39.8914Z" fill="white"/>
<path fill-rule="evenodd" clip-rule="evenodd" d="M60.192 42.4524L60.3252 42.8205L60.7246 42.8362L60.4035 43.0711L60.5131 43.4627L60.192 43.2356L59.8552 43.4627L59.9727 43.0711L59.6516 42.8362L60.0589 42.8205L60.192 42.4524Z" fill="white"/>
<path fill-rule="evenodd" clip-rule="evenodd" d="M58.8841 43.408L58.9859 43.6977L59.2914 43.7056L59.0564 43.8935L59.1269 44.1833L58.8841 44.011L58.6256 44.1833L58.7196 43.8935L58.469 43.7056L58.7823 43.6977L58.8841 43.408Z" fill="white"/>
<path fill-rule="evenodd" clip-rule="evenodd" d="M49.0157 41.1914L49.1723 41.6222L49.6344 41.6378L49.2663 41.912L49.3995 42.3584L49.0157 42.0921L48.6319 42.3584L48.7651 41.912L48.4048 41.6378L48.8669 41.6222L49.0157 41.1914Z" fill="white"/>
<path fill-rule="evenodd" clip-rule="evenodd" d="M39.9774 41.1211L40.1027 41.497L40.51 41.5049L40.1889 41.7555L40.3064 42.1393L39.9774 41.9121L39.6485 42.1393L39.7581 41.7555L39.437 41.5049L39.8443 41.497L39.9774 41.1211Z" fill="white"/>
<path fill-rule="evenodd" clip-rule="evenodd" d="M42.421 42.5229L42.5777 42.9615L43.0476 42.9694L42.6795 43.267L42.8126 43.7212L42.421 43.455L42.0294 43.7212L42.1704 43.267L41.7866 42.9694L42.2644 42.9615L42.421 42.5229Z" fill="white"/>
<path fill-rule="evenodd" clip-rule="evenodd" d="M49.0156 47.1282L49.0626 47.2613H49.2114L49.0939 47.3553L49.1331 47.4884L49.0156 47.4101L48.8981 47.4884L48.9373 47.3553L48.8276 47.2613H48.9686L49.0156 47.1282Z" fill="white"/>
<path fill-rule="evenodd" clip-rule="evenodd" d="M55.3282 43.6584L55.4378 43.9404L55.7354 43.9482L55.4926 44.1362L55.5788 44.426L55.3282 44.2537L55.0775 44.426L55.1637 44.1362L54.9209 43.9482L55.2263 43.9404L55.3282 43.6584Z" fill="white"/>
<path fill-rule="evenodd" clip-rule="evenodd" d="M57.1765 43.0791L57.2784 43.3689L57.5838 43.3846L57.341 43.5647L57.4272 43.8623L57.1765 43.69L56.9259 43.8623L57.0121 43.5647L56.7693 43.3846L57.0747 43.3689L57.1765 43.0791Z" fill="white"/>
<path fill-rule="evenodd" clip-rule="evenodd" d="M52.6341 43.2356L52.7359 43.5254H53.0492L52.7985 43.7212L52.8925 44.011L52.6341 43.8308L52.3835 44.011L52.4774 43.7212L52.2268 43.5254H52.5401L52.6341 43.2356Z" fill="white"/>
<path fill-rule="evenodd" clip-rule="evenodd" d="M53.942 44.9978L54.0751 45.3737L54.4746 45.3816L54.1613 45.6244L54.2709 46.0081L53.942 45.7732L53.6131 46.0081L53.7227 45.6244L53.4094 45.3816L53.8089 45.3737L53.942 44.9978Z" fill="white"/>
<path fill-rule="evenodd" clip-rule="evenodd" d="M57.2628 44.5671L57.3881 44.9431L57.7876 44.9587L57.4743 45.1937L57.5839 45.5775L57.2628 45.3503L56.926 45.5775L57.0435 45.1937L56.7224 44.9587L57.1218 44.9431L57.2628 44.5671Z" fill="white"/>
<path fill-rule="evenodd" clip-rule="evenodd" d="M57.2159 46.3684L57.3177 46.6504L57.6153 46.6582L57.3803 46.8462L57.4586 47.1359L57.2159 46.9558L56.9652 47.1359L57.0514 46.8462L56.8086 46.6582L57.114 46.6504L57.2159 46.3684Z" fill="white"/>
<path fill-rule="evenodd" clip-rule="evenodd" d="M60.521 39.4919L60.6854 39.9697L61.1945 39.9854L60.7951 40.2986L60.9439 40.7764L60.521 40.4944L60.1059 40.7764L60.2468 40.2986L59.8474 39.9854L60.3487 39.9697L60.521 39.4919Z" fill="white"/>
<path d="M35.5446 28.1511C35.1765 28.1511 34.8789 28.4957 34.8789 28.9265C34.8789 29.3573 35.1765 29.7019 35.5446 29.7019C35.9127 29.7019 36.1947 29.3573 36.1947 28.9265C36.1947 28.4957 35.9049 28.1511 35.5446 28.1511ZM35.5446 29.3886C35.3253 29.3886 35.1452 29.185 35.1452 28.9265C35.1452 28.668 35.3175 28.4722 35.5446 28.4722C35.7561 28.4722 35.9284 28.6759 35.9284 28.9265C35.9284 29.1771 35.7561 29.3886 35.5446 29.3886Z" fill="url(#paint2_radial_497_216)"/>
<path d="M37.8158 27.9475H37.4634L36.7742 27.9632V28.0024C36.7977 28.5114 36.8133 29.0283 36.8368 29.5374C36.9386 29.5296 37.0483 29.5218 37.1501 29.5139C37.1501 29.326 37.1423 29.138 37.1344 28.9422C37.2676 28.9422 37.3772 28.9344 37.4634 28.9344C37.9646 28.9344 37.8237 28.9735 37.8628 29.4748C37.9646 29.4748 38.0586 29.4669 38.1604 29.4591C38.1604 29.232 38.1604 28.95 37.9411 28.8169C38.3719 28.5428 38.1369 27.9945 37.8158 27.9397V27.9475ZM37.4634 28.6759C37.3067 28.6759 37.1579 28.6759 37.0796 28.6759C37.0796 28.5428 37.0796 28.4018 37.0796 28.2686C37.2128 28.2686 37.3537 28.253 37.4634 28.2451C37.7062 28.2451 37.8628 28.2843 37.855 28.4879C37.855 28.6211 37.6592 28.6602 37.4634 28.6759Z" fill="url(#paint3_radial_497_216)"/>
<path d="M39.4292 27.9083C39.2177 27.8848 38.9749 27.8926 38.7556 27.8926L38.7713 29.412C38.9749 29.412 39.2177 29.4355 39.4292 29.412C39.7816 29.3885 40.0792 29.2476 40.1027 28.7698C40.1575 28.1276 39.8364 27.9474 39.4292 27.9004V27.9083ZM39.4292 29.1301C39.296 29.1457 39.1472 29.1301 39.0297 29.1301L39.0141 28.1824C39.155 28.1824 39.296 28.1824 39.4292 28.1981C39.6876 28.2216 39.8834 28.3312 39.8599 28.7306C39.8286 29.0283 39.6563 29.1066 39.4292 29.1301Z" fill="url(#paint4_radial_497_216)"/>
<path d="M40.6589 29.4199L41.9434 29.4747L41.9512 29.1614L40.9487 29.1223L40.9566 28.809L41.7554 28.8481L41.7711 28.5505L40.9879 28.5192L40.9957 28.2999L41.9591 28.3469L41.9747 28.0179L40.7216 27.9709L40.6589 29.4199Z" fill="url(#paint5_radial_497_216)"/>
<path d="M43.3141 29.1538L43.1183 28.1121L42.7032 28.0964L42.5935 29.608H42.8676L42.9459 28.7152L43.1339 29.6472L43.4002 29.6628L43.7605 28.7152L43.6978 29.702H43.9641L44.0894 28.2139L43.6978 28.1904L43.3141 29.1538Z" fill="url(#paint6_radial_497_216)"/>
<path d="M45.7183 29.882L46.8931 30.0308L46.9244 29.7489L46.0002 29.6314L46.0394 29.3416L46.7756 29.4278L46.8069 29.1536L46.0864 29.0675L46.1099 28.8639L47.0027 28.9735L47.034 28.6759L45.8827 28.5349L45.7183 29.882Z" fill="url(#paint7_radial_497_216)"/>
<path d="M59.2286 33.4377L59.393 33.1323L58.2104 32.4666L57.4429 33.8372L58.649 34.5107L58.8056 34.2209L57.8658 33.6962L58.0224 33.3986L58.7821 33.8137L58.9388 33.5474L58.2026 33.1323L58.3122 32.9286L59.2286 33.4377Z" fill="url(#paint8_radial_497_216)"/>
<path d="M51.3182 29.5531L50.864 29.3965C50.864 29.3965 50.864 29.42 50.8483 29.4356C50.6995 29.9212 50.5429 30.4146 50.3862 30.9002C50.4959 30.9316 50.5899 30.9629 50.6917 30.9864C50.7543 30.7984 50.817 30.6183 50.8718 30.4303C51.0755 30.5008 51.2164 30.5478 51.3182 30.587C51.6237 30.7123 51.4827 30.7514 51.3809 31.1822C51.4749 31.2135 51.5689 31.2448 51.6629 31.2683C51.7412 31.0569 51.8273 30.7906 51.6707 30.5948C52.1719 30.4851 52.1328 29.8899 51.843 29.7333L51.3182 29.5531ZM51.6942 30.2502C51.6472 30.3677 51.4827 30.3598 51.3182 30.3128C51.1538 30.2658 50.9893 30.1954 50.911 30.1719C50.9501 30.0465 51.005 29.9134 51.0441 29.7881C51.1381 29.8194 51.2399 29.8429 51.3182 29.8742C51.5924 29.9526 51.7882 30.0387 51.6942 30.2502Z" fill="url(#paint9_radial_497_216)"/>
<path d="M53.3389 30.2502C53.2684 30.2345 53.2058 30.2267 53.1431 30.2345C52.8612 30.258 52.5949 30.493 52.5009 30.8298C52.3913 31.2449 52.5871 31.6521 52.9395 31.7539C53.01 31.7696 53.0726 31.7696 53.1431 31.7696C53.4251 31.7383 53.6914 31.5033 53.7854 31.1665C53.895 30.7593 53.6992 30.3442 53.3389 30.2502ZM53.1431 31.4485C53.104 31.4485 53.0648 31.4485 53.0256 31.4407C52.822 31.3858 52.7045 31.143 52.7672 30.9002C52.822 30.7123 52.9787 30.5635 53.1431 30.5556C53.1823 30.5478 53.2214 30.5556 53.2528 30.5635C53.4642 30.6183 53.5739 30.8611 53.5112 31.096C53.4564 31.2997 53.3076 31.4328 53.1353 31.4485H53.1431Z" fill="url(#paint10_radial_497_216)"/>
<path d="M63.6379 36.0537C63.5283 35.991 63.3952 35.9753 63.2698 35.991C63.0427 36.0223 62.8156 36.179 62.6903 36.4218C62.4866 36.7977 62.5806 37.252 62.9017 37.4243C63.0192 37.4947 63.1445 37.5026 63.2777 37.4869C63.5048 37.4478 63.7241 37.2911 63.8572 37.0562C64.0609 36.6802 63.9669 36.226 63.6379 36.0537ZM63.6066 36.923C63.5361 37.064 63.403 37.158 63.2698 37.1815C63.1915 37.1893 63.121 37.1815 63.0505 37.1501C62.8547 37.0405 62.8078 36.782 62.9252 36.5627C63.0036 36.4218 63.1289 36.3278 63.2698 36.3043C63.3482 36.2964 63.4186 36.3043 63.4813 36.3356C63.6771 36.4374 63.7319 36.7037 63.6066 36.923Z" fill="url(#paint11_radial_497_216)"/>
<path d="M57.3568 32.0045L56.7694 31.7147L56.4405 31.5581C56.4405 31.5581 56.4248 31.5816 56.417 31.5973C56.1899 32.0594 55.9627 32.5293 55.7278 32.9914C55.8218 33.0384 55.9236 33.0775 56.0176 33.1167C56.1037 32.9444 56.1977 32.7642 56.2839 32.5919C56.5266 32.7094 56.6833 32.7799 56.7694 32.8426C56.9026 32.9365 56.8713 32.9914 56.7694 33.1872C56.7381 33.242 56.699 33.3125 56.6598 33.3986L56.7694 33.4456C56.8243 33.4691 56.8791 33.4926 56.9339 33.5161C57.0357 33.3125 57.1689 33.0619 57.0436 32.8426C57.5605 32.7877 57.6153 32.2003 57.3568 32.0045ZM57.1297 32.5058C57.0592 32.6076 56.9183 32.5841 56.7616 32.5293C56.605 32.4666 56.4405 32.3648 56.3622 32.3256C56.417 32.2082 56.4953 32.075 56.5501 31.9654C56.6285 31.9967 56.699 32.0359 56.7694 32.0594C57.0514 32.1847 57.2629 32.2865 57.1376 32.5058H57.1297Z" fill="url(#paint12_radial_497_216)"/>
<path d="M49.4307 29.0048C49.1566 28.9422 48.9138 28.9187 48.9608 28.9265L48.5378 30.4459C48.6397 30.4694 48.7493 30.4929 48.8511 30.5164C48.8981 30.3284 48.9451 30.1405 48.9999 29.9525C49.1644 30.0073 49.2976 30.0308 49.4307 30.0465C50.1121 30.1248 50.1747 29.7489 50.1591 29.5452C50.1434 29.2476 49.7596 29.091 49.4307 29.0048ZM49.4307 29.7959C49.2741 29.7724 49.1017 29.7019 49.0234 29.6784C49.0548 29.5531 49.0939 29.4121 49.1331 29.2868C49.2427 29.3103 49.3367 29.3338 49.4307 29.3573C49.7048 29.4278 49.8928 29.4982 49.8145 29.7175C49.7753 29.835 49.603 29.835 49.4307 29.7959Z" fill="url(#paint13_radial_497_216)"/>
<path d="M55.3125 31.6442C55.4379 31.699 55.5475 31.7538 55.6728 31.8008C55.759 31.2839 55.3517 31.0333 55.0933 31.0098C54.3101 30.9158 53.8715 32.0827 54.5998 32.4195C54.7878 32.5057 54.9679 32.5135 55.1481 32.443C55.1324 32.4978 55.1089 32.5527 55.0854 32.6075C55.1402 32.631 55.2107 32.6623 55.2812 32.6936C55.383 32.4665 55.4849 32.2316 55.5867 32.0044L55.0228 31.746C54.9914 31.8243 54.9679 31.8869 54.9288 31.9574L55.1716 32.0749C55.0071 32.2316 54.7956 32.2159 54.6468 32.0671C54.5293 31.9418 54.4824 31.746 54.5372 31.5815C54.7251 31.0646 55.4379 31.2291 55.3125 31.6442Z" fill="url(#paint14_radial_497_216)"/>
<path d="M59.8944 33.7198C59.4636 33.9861 59.7456 34.3072 60.0118 34.5187C60.1137 34.5892 60.1685 34.644 60.2076 34.6753C60.239 34.7145 60.2703 34.7536 60.2703 34.7771C60.2781 34.8085 60.2703 34.8398 60.2625 34.8633C60.239 34.9181 60.1998 34.9573 60.1372 34.9651C60.0745 34.9808 60.004 34.9651 59.9179 34.9259C59.8395 34.8868 59.7847 34.8398 59.7612 34.7771C59.7299 34.7145 59.7299 34.6361 59.7534 34.55L59.4009 34.3699C59.1895 34.9964 60.0197 35.4037 60.3643 35.1844C60.4426 35.1374 60.4974 35.0747 60.5288 34.9964C60.5679 34.9181 60.5914 34.8319 60.5836 34.7615C60.5758 34.691 60.5444 34.6205 60.5053 34.5578C60.4504 34.4952 60.3721 34.4168 60.2546 34.3307C60.1372 34.2367 60.0745 34.1741 60.051 34.1271C60.0353 34.0957 60.0353 34.0566 60.051 34.0252C60.1058 33.9234 60.2546 33.9626 60.3408 34.0096C60.4739 34.0722 60.5679 34.2211 60.5288 34.3777L60.8029 34.55C61.077 33.9234 60.1998 33.5553 59.91 33.7355L59.8944 33.7198Z" fill="url(#paint15_radial_497_216)"/>
<path d="M61.5312 34.8084C61.0848 35.059 61.3667 35.388 61.6174 35.6073C61.7114 35.6934 61.774 35.7482 61.7975 35.7717C61.8367 35.8109 61.8602 35.8422 61.868 35.8735C61.868 35.9049 61.868 35.944 61.8602 35.9754C61.8288 36.0145 61.7897 36.0537 61.727 36.0615C61.6644 36.0772 61.586 36.0615 61.5077 36.0145C61.4216 35.9754 61.3746 35.9205 61.3511 35.8579C61.3197 35.7874 61.3354 35.7169 61.3589 35.6229L61.0065 35.4349C60.7715 36.0458 61.586 36.4844 61.9463 36.2808C62.0246 36.2416 62.0795 36.179 62.1108 36.1085C62.1578 36.0223 62.1813 35.944 62.1656 35.8735C62.1578 35.7952 62.1343 35.7247 62.0873 35.6699C62.0481 35.6073 61.962 35.5289 61.8523 35.4349C61.7427 35.3331 61.68 35.2626 61.6565 35.2235C61.6409 35.1922 61.6409 35.153 61.6565 35.1217C61.7113 35.012 61.868 35.0668 61.9385 35.106C62.0716 35.1687 62.1656 35.3253 62.1108 35.4741L62.3771 35.6542C62.6669 35.0355 61.8132 34.6361 61.5155 34.8006L61.5312 34.8084Z" fill="url(#paint16_radial_497_216)"/>
</g>
<rect x="1" y="1" width="96" height="64.6327" rx="9" stroke="white" stroke-width="2"/>
<defs>
<radialGradient id="paint0_radial_497_216" cx="0" cy="0" r="1" gradientUnits="userSpaceOnUse" gradientTransform="translate(55.2186 80.6704) scale(96.796 103.572)">
<stop stop-color="#00B401"/>
<stop offset="0.41" stop-color="#00B401"/>
</radialGradient>
<radialGradient id="paint1_radial_497_216" cx="0" cy="0" r="1" gradientUnits="userSpaceOnUse" gradientTransform="translate(48.9764 34.2522) scale(31.1636 31.1636)">
<stop offset="0.32" stop-color="#EDE560"/>
<stop offset="0.49" stop-color="#FFFF00"/>
<stop offset="0.74" stop-color="#F7EF50"/>
<stop offset="0.8" stop-color="#F6ED57"/>
<stop offset="1" stop-color="#EDE560"/>
</radialGradient>
<radialGradient id="paint2_radial_497_216" cx="0" cy="0" r="1" gradientUnits="userSpaceOnUse" gradientTransform="translate(35.5446 28.9265) scale(0.720547)">
<stop stop-color="#00B401"/>
<stop offset="0.41" stop-color="#00B401"/>
</radialGradient>
<radialGradient id="paint3_radial_497_216" cx="0" cy="0" r="1" gradientUnits="userSpaceOnUse" gradientTransform="translate(37.4712 28.7464) scale(0.751874 0.751875)">
<stop stop-color="#00B401"/>
<stop offset="0.41" stop-color="#00B401"/>
</radialGradient>
<radialGradient id="paint4_radial_497_216" cx="0" cy="0" r="1" gradientUnits="userSpaceOnUse" gradientTransform="translate(39.4292 28.6601) scale(0.720547 0.720546)">
<stop stop-color="#00B401"/>
<stop offset="0.41" stop-color="#00B401"/>
</radialGradient>
<radialGradient id="paint5_radial_497_216" cx="0" cy="0" r="1" gradientUnits="userSpaceOnUse" gradientTransform="translate(41.3168 28.7228) scale(0.704883)">
<stop stop-color="#00B401"/>
<stop offset="0.41" stop-color="#00B401"/>
</radialGradient>
<radialGradient id="paint6_radial_497_216" cx="0" cy="0" r="1" gradientUnits="userSpaceOnUse" gradientTransform="translate(43.3454 28.911) scale(0.775371)">
<stop stop-color="#00B401"/>
<stop offset="0.41" stop-color="#00B401"/>
</radialGradient>
<radialGradient id="paint7_radial_497_216" cx="0" cy="0" r="1" gradientUnits="userSpaceOnUse" gradientTransform="translate(46.3762 29.2868) scale(0.704883)">
<stop stop-color="#00B401"/>
<stop offset="0.41" stop-color="#00B401"/>
</radialGradient>
<radialGradient id="paint8_radial_497_216" cx="0" cy="0" r="1" gradientUnits="userSpaceOnUse" gradientTransform="translate(58.4219 33.4925) scale(1.0025)">
<stop stop-color="#00B401"/>
<stop offset="0.41" stop-color="#00B401"/>
</radialGradient>
<radialGradient id="paint9_radial_497_216" cx="0" cy="0" r="1" gradientUnits="userSpaceOnUse" gradientTransform="translate(51.2243 30.3363) scale(0.885019)">
<stop stop-color="#00B401"/>
<stop offset="0.41" stop-color="#00B401"/>
</radialGradient>
<radialGradient id="paint10_radial_497_216" cx="0" cy="0" r="1" gradientUnits="userSpaceOnUse" gradientTransform="translate(53.1431 31.0021) scale(0.720546)">
<stop stop-color="#00B401"/>
<stop offset="0.41" stop-color="#00B401"/>
</radialGradient>
<radialGradient id="paint11_radial_497_216" cx="0" cy="0" r="1" gradientUnits="userSpaceOnUse" gradientTransform="translate(63.2698 36.7429) scale(0.720548)">
<stop stop-color="#00B401"/>
<stop offset="0.41" stop-color="#00B401"/>
</radialGradient>
<radialGradient id="paint12_radial_497_216" cx="0" cy="0" r="1" gradientUnits="userSpaceOnUse" gradientTransform="translate(56.6206 32.5371) scale(0.932012)">
<stop stop-color="#00B401"/>
<stop offset="0.41" stop-color="#00B401"/>
</radialGradient>
<radialGradient id="paint13_radial_497_216" cx="0" cy="0" r="1" gradientUnits="userSpaceOnUse" gradientTransform="translate(49.3524 29.7254) scale(0.8067 0.806698)">
<stop stop-color="#00B401"/>
<stop offset="0.41" stop-color="#00B401"/>
</radialGradient>
<radialGradient id="paint14_radial_497_216" cx="0" cy="0" r="1" gradientUnits="userSpaceOnUse" gradientTransform="translate(54.9523 31.8478) scale(0.791033)">
<stop stop-color="#00B401"/>
<stop offset="0.41" stop-color="#00B401"/>
</radialGradient>
<radialGradient id="paint15_radial_497_216" cx="0" cy="0" r="1" gradientUnits="userSpaceOnUse" gradientTransform="translate(60.098 34.456) scale(0.759707)">
<stop stop-color="#00B401"/>
<stop offset="0.41" stop-color="#00B401"/>
</radialGradient>
<radialGradient id="paint16_radial_497_216" cx="0" cy="0" r="1" gradientUnits="userSpaceOnUse" gradientTransform="translate(61.7035 35.5524) scale(0.759707)">
<stop stop-color="#00B401"/>
<stop offset="0.41" stop-color="#00B401"/>
</radialGradient>
<clipPath id="clip0_497_216">
<rect x="2" y="2" width="94" height="62.6327" rx="8" fill="white"/>
</clipPath>
</defs>
</svg>
