<svg width="94" height="63" viewBox="0 0 94 63" fill="none" xmlns="http://www.w3.org/2000/svg">
  <g clip-path="url(#clip0_1706_933)">
    <mask id="mask0_1706_933" style="mask-type:alpha" maskUnits="userSpaceOnUse" x="0" y="-3" width="94" height="68">
      <path d="M85.0476 -3H8.95238C4.00812 -3 0 1.00135 0 5.93727V55.0923C0 60.0282 4.00812 64.0295 8.95238 64.0295H85.0476C89.9919 64.0295 94 60.0282 94 55.0923V5.93727C94 1.00135 89.9919 -3 85.0476 -3Z" fill="white"/>
    </mask>
    <g mask="url(#mask0_1706_933)">
      <path d="M85.0476 -3H8.95238C4.00812 -3 0 1.00135 0 5.93727V55.0923C0 60.0282 4.00812 64.0295 8.95238 64.0295H85.0476C89.9919 64.0295 94 60.0282 94 55.0923V5.93727C94 1.00135 89.9919 -3 85.0476 -3Z" fill="#E02600"/>
      <path fill-rule="evenodd" clip-rule="evenodd" d="M24.6102 29.3083L18.0302 32.7626L19.2835 25.4474L13.9658 20.2638L21.3202 19.2048L24.6102 12.5465L27.8957 19.2048L35.2501 20.2638L29.9234 25.4474L31.1857 32.7581L24.6102 29.3083ZM40.2858 10.406H44.762V14.8746H40.2858V10.406ZM44.762 19.3433H49.2382V23.8119H44.762V19.3433ZM44.762 28.2806H49.2382V32.7492H44.762V28.2806ZM40.2858 37.2178H44.762V41.6865H40.2858V37.2178Z" fill="#FFE000"/>
      <path d="M85.0476 -0.765625H8.95232C5.24412 -0.765625 2.23804 2.23539 2.23804 5.93733V55.0923C2.23804 58.7943 5.24412 61.7953 8.95232 61.7953H85.0476C88.7558 61.7953 91.7618 58.7943 91.7618 55.0923V5.93733C91.7618 2.23539 88.7558 -0.765625 85.0476 -0.765625Z" stroke="black" stroke-opacity="0.1" stroke-width="0.396624"/>
    </g>
  </g>
  <rect x="1" y="1" width="92" height="60.6536" rx="7" stroke="#DEE0E3" stroke-width="2"/>
  <defs>
    <clipPath id="clip0_1706_933">
      <rect width="94" height="62.6536" rx="8" fill="white"/>
    </clipPath>
  </defs>
</svg>
