<svg width="98" height="67" viewBox="0 0 98 67" fill="none" xmlns="http://www.w3.org/2000/svg">
  <g clip-path="url(#clip0_1574_2045)">
    <mask id="mask0_1574_2045" style="mask-type:alpha" maskUnits="userSpaceOnUse" x="2" y="-1" width="96" height="68">
      <path d="M88.1333 -1H11.0667C6.05929 -1 2 3.05928 2 8.06667V57.9333C2 62.9407 6.05929 67 11.0667 67H88.1333C93.1407 67 97.2 62.9407 97.2 57.9333V8.06667C97.2 3.05928 93.1407 -1 88.1333 -1Z" fill="white"/>
    </mask>
    <g mask="url(#mask0_1574_2045)">
      <path d="M88.1333 -1H11.0667C6.05929 -1 2 3.05928 2 8.06667V57.9333C2 62.9407 6.05929 67 11.0667 67H88.1333C93.1407 67 97.2 62.9407 97.2 57.9333V8.06667C97.2 3.05928 93.1407 -1 88.1333 -1Z" fill="white"/>
      <path fill-rule="evenodd" clip-rule="evenodd" d="M49.6002 44.3332C55.8562 44.3332 60.9335 39.2558 60.9335 32.9998C60.9335 26.7438 55.8562 21.6665 49.6002 21.6665C43.3442 21.6665 38.2668 26.7438 38.2668 32.9998C38.2668 39.2558 43.3442 44.3332 49.6002 44.3332ZM49.6002 39.7998C53.3538 39.7998 56.4002 36.7534 56.4002 32.9998C56.4002 29.2462 53.3538 26.1998 49.6002 26.1998C45.8466 26.1998 42.8002 29.2462 42.8002 32.9998C42.8002 36.7534 45.8466 39.7998 49.6002 39.7998Z" fill="#00008A"/>
      <path d="M49.6002 35.2665C50.852 35.2665 51.8668 34.2517 51.8668 32.9998C51.8668 31.748 50.852 30.7332 49.6002 30.7332C48.3483 30.7332 47.3335 31.748 47.3335 32.9998C47.3335 34.2517 48.3483 35.2665 49.6002 35.2665Z" fill="#00008A"/>
      <path fill-rule="evenodd" clip-rule="evenodd" d="M2 44.3335H97.2V67.0002H2V44.3335Z" fill="#018900"/>
      <path fill-rule="evenodd" clip-rule="evenodd" d="M2 -1H97.2V21.6667H2V-1Z" fill="#FF991E"/>
    </g>
  </g>
  <rect x="1" y="1" width="96" height="64.6275" rx="9" stroke="#DEE0E3" stroke-width="2"/>
  <defs>
    <clipPath id="clip0_1574_2045">
      <rect x="2" y="2" width="94" height="62.6275" rx="8" fill="white"/>
    </clipPath>
  </defs>
</svg>
