<svg width="95" height="63" viewBox="0 0 95 63" fill="none" xmlns="http://www.w3.org/2000/svg">
<g clip-path="url(#clip0_497_202)">
<path d="M94.75 0H0.75V62.6536H94.75V0Z" fill="#F2F2F2"/>
<path fill-rule="evenodd" clip-rule="evenodd" d="M0.75 0H94.75V62.6536H0.75L51.7152 31.3151L0.75 0Z" fill="#E10E00"/>
<path fill-rule="evenodd" clip-rule="evenodd" d="M0.75 0H94.75V31.3151H51.7152L0.75 0Z" fill="#000DB4"/>
<path fill-rule="evenodd" clip-rule="evenodd" d="M6.31287 52.5512L5.18778 50.0198L4.62523 52.7309L1.85938 53.0278L4.27364 54.403L3.71109 57.1141L5.76595 55.2468L8.1724 56.6219L7.03168 54.0982L9.07873 52.2387L6.31287 52.5512Z" fill="#FBD116"/>
<path fill-rule="evenodd" clip-rule="evenodd" d="M4.64086 9.28991L5.28935 11.9854L6.35193 9.43836L9.10998 9.67276L7.01605 7.86792L8.09427 5.30521L5.71907 6.75064L3.61733 4.9458L4.25801 7.63352L1.875 9.07114L4.64086 9.28991Z" fill="#FBD116"/>
<path fill-rule="evenodd" clip-rule="evenodd" d="M45.871 30.5024L45.91 27.7209L44.2458 29.9555L41.6128 29.0804L43.2379 31.3306L41.5894 33.5574L44.238 32.7214L45.8553 34.9715L45.8631 32.1979L48.5196 31.3697L45.871 30.5024Z" fill="#FBD116"/>
<path fill-rule="evenodd" clip-rule="evenodd" d="M25.6975 30.6978C25.6818 30.5181 25.6662 30.354 25.6271 30.19L30.0103 29.3774L29.1743 28.6352L25.5021 29.6352C25.3459 29.0493 25.1271 28.4945 24.8302 27.9945L28.2289 26.1271L28.4086 24.9552L24.5489 27.5413C24.4552 27.4085 24.3614 27.2757 24.2598 27.1428L28.4555 23.8926V22.1659L26.5569 22.2284L23.3379 26.1896C23.2129 26.0803 23.0722 25.9709 22.9394 25.8693L25.5256 22.2596L24.4239 22.2909L22.4784 25.549C21.9003 25.1896 21.2674 24.9239 20.6033 24.752L21.6112 21.0173L20.9002 20.0719L20.0876 24.6348C19.9235 24.6036 19.7673 24.5801 19.5954 24.5645L20.1658 19.2984L18.9078 18.103L17.6499 19.5016L18.275 24.5645C18.0953 24.5801 17.9234 24.6036 17.7671 24.627L16.9546 20.2829L16.2123 21.1111L17.2046 24.752C16.5561 24.9161 15.9545 25.1739 15.3919 25.5099L13.3918 22.1815L12.2901 22.1502L14.9231 25.8224C14.7903 25.9162 14.6419 26.0177 14.5168 26.1271L11.2431 22.119L9.34454 22.0565V23.7832L13.5949 27.0569C13.4933 27.1819 13.3918 27.3225 13.298 27.4554L9.39924 24.8458L9.58675 26.0177L13.0089 27.8929C12.6964 28.4164 12.4464 29.018 12.2745 29.6274L8.68043 28.643L7.84442 29.393L12.1573 30.19C12.126 30.3619 12.0948 30.5337 12.0791 30.6978L7.07092 30.0962L5.65674 31.3619L6.86778 32.5964L12.0791 32.0495C12.0948 32.2136 12.1182 32.3777 12.1495 32.5417L7.64128 33.3387L8.59448 34.0497L12.2667 33.0652C12.4073 33.6668 12.6495 34.2372 12.9542 34.7685L9.64144 36.5655L9.5555 37.6672L13.2589 35.2451C13.3527 35.3857 13.4621 35.5264 13.5558 35.6592L9.47737 38.7063L9.34454 40.5893L11.0713 40.6518L14.4934 36.6046C14.6184 36.7061 14.7512 36.8077 14.8841 36.9093L12.1495 40.6518L13.3293 40.5111L15.3294 37.1984C15.892 37.5421 16.5248 37.8078 17.1889 37.9797L16.2045 41.5737L16.9467 42.3863L17.7515 38.0969C17.9078 38.1281 18.0796 38.1516 18.2593 38.1672L17.6421 43.1676L18.9 44.574L20.1579 43.3786L19.5954 38.1594C19.7673 38.1438 19.9235 38.1281 20.0876 38.0891L20.8924 42.6051L21.6034 41.6597L20.6111 37.9719C21.283 37.8 21.9081 37.5187 22.4863 37.1671L24.4864 40.4799L25.6584 40.6205L22.9238 36.8702C23.0566 36.7843 23.1894 36.6671 23.3145 36.5577L26.7366 40.6205L28.4633 40.558L28.3227 38.6672L24.2364 35.6045C24.338 35.4795 24.4474 35.3388 24.5411 35.1904L28.2602 37.6203L28.1664 36.5264L24.838 34.706C25.1349 34.1903 25.3615 33.6278 25.51 33.034L29.2603 34.0419L30.2135 33.3309L25.6271 32.5183C25.6584 32.3542 25.6818 32.1901 25.6975 32.0261L30.9948 32.5886L32.198 31.3541L30.7838 30.0806L25.6897 30.7056L25.6975 30.6978Z" fill="#FBD116"/>
</g>
<rect x="1.75" y="1" width="92" height="60.6536" rx="7" stroke="white" stroke-width="2"/>
<defs>
<clipPath id="clip0_497_202">
<rect x="0.75" width="94" height="62.6536" rx="8" fill="white"/>
</clipPath>
</defs>
</svg>
