<svg width="98" height="67" viewBox="0 0 98 67" fill="none" xmlns="http://www.w3.org/2000/svg">
<g clip-path="url(#clip0_497_192)">
<path d="M96 2H2V33.2552H96V2Z" fill="#E10E00"/>
<path d="M96 33.1145H2V64.6509H96V33.1145Z" fill="#F2F2F2"/>
<path fill-rule="evenodd" clip-rule="evenodd" d="M19.0454 25.4433C17.108 23.4513 15.8191 20.7796 15.8191 17.5299C15.8191 14.4676 17.0377 12.0538 18.7798 10.0852C19.9515 8.74936 21.2717 7.63227 23.131 6.98388C16.7018 5.78867 9.76489 10.7336 9.76489 17.7252C9.76489 24.7168 17.1315 29.5601 22.9435 28.2087C21.4983 27.5837 20.2015 26.5916 19.0532 25.4355L19.0454 25.4433Z" fill="#F1F2F2"/>
<path fill-rule="evenodd" clip-rule="evenodd" d="M29.9508 11.3274L31.6929 10.0931H29.5134L28.8337 8.15576L28.1619 10.0931H25.9902L27.7245 11.3274L27.0683 13.2178L28.8337 12.0304L30.5836 13.2178L29.9508 11.3274Z" fill="#F1F2F2"/>
<path fill-rule="evenodd" clip-rule="evenodd" d="M25.4746 21.7015L24.7871 19.7642L24.1231 21.7015H21.9358L23.67 22.928L23.0294 24.8184L24.7871 23.6232L26.5448 24.8262L25.8964 22.928L27.6463 21.7015H25.4746Z" fill="#F1F2F2"/>
<path fill-rule="evenodd" clip-rule="evenodd" d="M33.4504 21.7015L32.7708 19.7642L32.0911 21.7015H29.9116L31.6459 22.928L31.0131 24.8184L32.7708 23.6232L34.5206 24.8262L33.8722 22.928L35.6299 21.7015H33.4504Z" fill="#F1F2F2"/>
<path fill-rule="evenodd" clip-rule="evenodd" d="M38.0518 14.6473H35.8801L35.1926 12.7021L34.5208 14.6473H32.3491L34.0755 15.8738L33.4428 17.7642L35.1926 16.569L36.9503 17.7642L36.3019 15.8738L38.0518 14.6473Z" fill="#F1F2F2"/>
<path fill-rule="evenodd" clip-rule="evenodd" d="M23.0998 14.6473L22.4202 12.7021L21.7484 14.6473H19.5688L21.3109 15.8738L20.6625 17.7642L22.4202 16.569L24.17 17.7642L23.5373 15.8738L25.2793 14.6473H23.0998Z" fill="#F1F2F2"/>
</g>
<rect x="1" y="1" width="96" height="64.6432" rx="9" stroke="white" stroke-width="2"/>
<defs>
<clipPath id="clip0_497_192">
<rect x="2" y="2" width="94" height="62.6432" rx="8" fill="white"/>
</clipPath>
</defs>
</svg>
