<svg width="93" height="63" viewBox="0 0 93 63" fill="none" xmlns="http://www.w3.org/2000/svg">
  <g clip-path="url(#clip0_1787_264)">
    <mask id="mask0_1787_264" style="mask-type:alpha" maskUnits="userSpaceOnUse" x="0" y="-2" width="93" height="67">
      <path d="M84.1429 -2H8.85714C3.96548 -2 0 1.99959 0 6.93333V56.0667C0 61.0004 3.96548 65 8.85714 65H84.1429C89.0345 65 93 61.0004 93 56.0667V6.93333C93 1.99959 89.0345 -2 84.1429 -2Z" fill="white"/>
    </mask>
    <g mask="url(#mask0_1787_264)">
      <path d="M84.1429 -2H8.85714C3.96548 -2 0 1.99959 0 6.93333V56.0667C0 61.0004 3.96548 65 8.85714 65H84.1429C89.0345 65 93 61.0004 93 56.0667V6.93333C93 1.99959 89.0345 -2 84.1429 -2Z" fill="#E70B17"/>
      <path fill-rule="evenodd" clip-rule="evenodd" d="M62.0088 36.6456L56.8628 39.3703L57.846 33.5949L53.6831 29.4989L59.4402 28.6503L62.0088 23.3975L64.5774 28.6547L70.3345 29.5034L66.1717 33.5904L67.1548 39.3658" fill="white"/>
      <path fill-rule="evenodd" clip-rule="evenodd" d="M42.0714 47.1334C50.6318 47.1334 57.5714 40.1341 57.5714 31.5C57.5714 22.866 50.6318 15.8667 42.0714 15.8667C33.511 15.8667 26.5714 22.866 26.5714 31.5C26.5714 40.1341 33.511 47.1334 42.0714 47.1334ZM46.5 42.6667C52.6114 42.6667 57.5714 37.664 57.5714 31.5C57.5714 25.336 52.6114 20.3334 46.5 20.3334C40.3886 20.3334 35.4286 25.336 35.4286 31.5C35.4286 37.664 40.3886 42.6667 46.5 42.6667Z" fill="white"/>
      <path d="M84.1428 0.233398H8.85709C5.18834 0.233398 2.21423 3.23309 2.21423 6.9334V56.0667C2.21423 59.767 5.18834 62.7667 8.85709 62.7667H84.1428C87.8115 62.7667 90.7857 59.767 90.7857 56.0667V6.9334C90.7857 3.23309 87.8115 0.233398 84.1428 0.233398Z" stroke="black" stroke-opacity="0.1"/>
    </g>
  </g>
  <defs>
    <clipPath id="clip0_1787_264">
      <rect width="93" height="67" fill="white" transform="translate(0 -2)"/>
    </clipPath>
  </defs>
</svg>
