<svg width="98" height="67" viewBox="0 0 98 67" fill="none" xmlns="http://www.w3.org/2000/svg">
<g clip-path="url(#clip0_497_140)">
<path d="M96 45.5857H2V50.4452H96V45.5857Z" fill="#F1F2F2"/>
<path d="M96 6.77271H46.5544V11.6322H96V6.77271Z" fill="#F1F2F2"/>
<path d="M96.0077 16.4839H46.5701V21.3355H96.0077V16.4839Z" fill="#F1F2F2"/>
<path d="M96.0077 26.1714H46.5701V31.0309H96.0077V26.1714Z" fill="#F1F2F2"/>
<path d="M96 35.8904H2V40.742H96V35.8904Z" fill="#F1F2F2"/>
<path d="M96 55.2969H2V60.1485H96V55.2969Z" fill="#F1F2F2"/>
<path d="M96 50.4451H2V55.2967H96V50.4451Z" fill="#E10E00"/>
<path d="M96 11.6323H46.5544V16.4839H96V11.6323Z" fill="#E10E00"/>
<path d="M96 2H46.5544V6.77273H96V2Z" fill="#E10E00"/>
<path d="M96 21.3354H46.5544V26.1792H96V21.3354Z" fill="#E10E00"/>
<path d="M96 31.0386H46.5544V35.8981H96V31.0386Z" fill="#E10E00"/>
<path d="M96 40.7419H2V45.5857H96V40.7419Z" fill="#E10E00"/>
<path d="M96 60.1484H2V65.0001H96V60.1484Z" fill="#E10E00"/>
<path d="M46.5545 2H2V35.8903H46.5545V2Z" fill="#000D7F"/>
<path fill-rule="evenodd" clip-rule="evenodd" d="M5.43646 4.56396L5.83749 5.84195L7.14283 5.82617L6.08913 6.61505L6.49016 7.90093L5.42859 7.10416L4.37489 7.90093L4.77592 6.61505L3.71436 5.82617L5.02756 5.84195L5.42073 4.56396H5.43646ZM35.3255 4.56396L35.7266 5.84195L37.0319 5.82617L35.9782 6.61505L36.3792 7.90093L35.3177 7.10416L34.264 7.90093L34.665 6.61505L33.6113 5.82617L34.9166 5.84195L35.3098 4.56396H35.3255ZM42.7644 4.56396L43.1654 5.84195L44.4865 5.82617L43.417 6.61505L43.826 7.90093L42.7644 7.10416L41.7107 7.90093L42.1196 6.61505L41.0501 5.82617L42.3555 5.84195L42.7565 4.56396H42.7644ZM20.3692 4.56396L20.7702 5.84195L22.0756 5.82617L21.014 6.61505L21.4229 7.90093L20.3613 7.10416L19.3076 7.90093L19.7087 6.61505L18.6471 5.82617L19.9524 5.84195L20.3535 4.56396H20.3692ZM12.8753 4.56396L13.2763 5.84195L14.5817 5.82617L13.5201 6.61505L13.929 7.90093L12.8674 7.10416L11.8059 7.90093L12.2226 6.61505L11.1532 5.82617L12.4585 5.84195L12.8596 4.56396H12.8753ZM27.8159 4.56396L28.2091 5.84195L29.5144 5.82617L28.4529 6.61505L28.8618 7.90093L27.808 7.10416L26.7465 7.90093L27.1475 6.61505L26.0859 5.82617L27.3834 5.84195L27.8002 4.56396H27.8159Z" fill="#F1F2F2"/>
<path fill-rule="evenodd" clip-rule="evenodd" d="M5.43646 10.9065L5.83749 12.1924H7.14283L6.08913 12.9813L6.49016 14.2513L5.42859 13.4625L4.37489 14.2513L4.77592 12.9813L3.71436 12.1924H5.02756L5.42073 10.9065H5.43646ZM35.3255 10.9065L35.7266 12.1924H37.0319L35.9782 12.9813L36.3792 14.2513L35.3177 13.4625L34.264 14.2513L34.665 12.9813L33.6113 12.1924H34.9166L35.3098 10.9065H35.3255ZM42.7644 10.9065L43.1654 12.1924H44.4865L43.417 12.9813L43.826 14.2513L42.7644 13.4625L41.7107 14.2513L42.1196 12.9813L41.0501 12.1924H42.3555L42.7565 10.9065H42.7644ZM20.3692 10.9065L20.7702 12.1924H22.0756L21.014 12.9813L21.4229 14.2513L20.3613 13.4625L19.3076 14.2513L19.7087 12.9813L18.6471 12.1924H19.9524L20.3535 10.9065H20.3692ZM12.8753 10.9065L13.2763 12.1924H14.5817L13.5201 12.9813L13.929 14.2513L12.8674 13.4625L11.8059 14.2513L12.2226 12.9813L11.1532 12.1924H12.4585L12.8596 10.9065H12.8753ZM27.8159 10.9065L28.2091 12.1924H29.5144L28.4529 12.9813L28.8618 14.2513L27.808 13.4625L26.7465 14.2513L27.1475 12.9813L26.0859 12.1924H27.3834L27.8002 10.9065H27.8159Z" fill="#F1F2F2"/>
<path fill-rule="evenodd" clip-rule="evenodd" d="M5.43646 17.178L5.83749 18.456H7.14283L6.08913 19.237L6.49016 20.5228L5.42859 19.7261L4.37489 20.5228L4.77592 19.237L3.71436 18.4481H5.02756L5.42073 17.178H5.43646ZM35.3255 17.178L35.7266 18.456H37.0319L35.9782 19.237L36.3792 20.5228L35.3177 19.7261L34.264 20.5228L34.665 19.237L33.6113 18.4481H34.9166L35.3098 17.178H35.3255ZM42.7644 17.178L43.1654 18.456H44.4865L43.417 19.237L43.826 20.5228L42.7644 19.7261L41.7107 20.5228L42.1196 19.237L41.0501 18.4481H42.3555L42.7565 17.178H42.7644ZM20.3692 17.178L20.7702 18.456H22.0756L21.014 19.237L21.4229 20.5228L20.3613 19.7261L19.3076 20.5228L19.7087 19.237L18.6471 18.4481H19.9524L20.3535 17.178H20.3692ZM12.8753 17.178L13.2763 18.456H14.5817L13.5201 19.237L13.929 20.5228L12.8674 19.7261L11.8059 20.5228L12.2226 19.237L11.1532 18.4481H12.4585L12.8596 17.178H12.8753ZM27.8159 17.178L28.2091 18.456H29.5144L28.4529 19.237L28.8618 20.5228L27.808 19.7261L26.7465 20.5228L27.1475 19.237L26.0859 18.4481H27.3834L27.8002 17.178H27.8159Z" fill="#F1F2F2"/>
<path fill-rule="evenodd" clip-rule="evenodd" d="M5.43646 23.5601L5.83749 24.838H7.14283L6.08913 25.6348L6.49016 26.897L5.42859 26.1081L4.37489 26.897L4.77592 25.6348L3.71436 24.838H5.02756L5.42073 23.5601H5.43646ZM35.3255 23.5601L35.7266 24.838H37.0319L35.9782 25.6348L36.3792 26.897L35.3177 26.1081L34.264 26.897L34.665 25.6348L33.6113 24.838H34.9166L35.3098 23.5601H35.3255ZM42.7644 23.5601L43.1654 24.838H44.4865L43.417 25.6348L43.826 26.897L42.7644 26.1081L41.7107 26.897L42.1196 25.6348L41.0501 24.838H42.3555L42.7565 23.5601H42.7644ZM20.3692 23.5601L20.7702 24.838H22.0756L21.014 25.6348L21.4229 26.897L20.3613 26.1081L19.3076 26.897L19.7087 25.6348L18.6471 24.838H19.9524L20.3535 23.5601H20.3692ZM12.8753 23.5601L13.2763 24.838H14.5817L13.5201 25.6348L13.929 26.897L12.8674 26.1081L11.8059 26.897L12.2226 25.6348L11.1532 24.838H12.4585L12.8596 23.5601H12.8753ZM27.8159 23.5601L28.2091 24.838H29.5144L28.4529 25.6348L28.8618 26.897L27.808 26.1081L26.7465 26.897L27.1475 25.6348L26.0859 24.838H27.3834L27.8002 23.5601H27.8159Z" fill="#F1F2F2"/>
<path fill-rule="evenodd" clip-rule="evenodd" d="M5.43646 29.9026L5.83749 31.1885H7.14283L6.08913 31.9616L6.49016 33.2474L5.42859 32.4507L4.37489 33.2474L4.77592 31.9616L3.71436 31.1885H5.02756L5.42073 29.9026H5.43646ZM35.3255 29.9026L35.7266 31.1885H37.0319L35.9782 31.9616L36.3792 33.2474L35.3177 32.4507L34.264 33.2474L34.665 31.9616L33.6113 31.1885H34.9166L35.3098 29.9026H35.3255ZM42.7644 29.9026L43.1654 31.1885H44.4865L43.417 31.9616L43.826 33.2474L42.7644 32.4507L41.7107 33.2474L42.1196 31.9616L41.0501 31.1885H42.3555L42.7565 29.9026H42.7644ZM20.3692 29.9026L20.7702 31.1885H22.0756L21.014 31.9616L21.4229 33.2474L20.3613 32.4507L19.3076 33.2474L19.7087 31.9616L18.6471 31.1885H19.9524L20.3535 29.9026H20.3692ZM12.8753 29.9026L13.2763 31.1885H14.5817L13.5201 31.9616L13.929 33.2474L12.8674 32.4507L11.8059 33.2474L12.2226 31.9616L11.1532 31.1885H12.4585L12.8596 29.9026H12.8753ZM27.8159 29.9026L28.2091 31.1885H29.5144L28.4529 31.9616L28.8618 33.2474L27.808 32.4507L26.7465 33.2474L27.1475 31.9616L26.0859 31.1885H27.3834L27.8002 29.9026H27.8159Z" fill="#F1F2F2"/>
<path fill-rule="evenodd" clip-rule="evenodd" d="M31.496 26.7708L31.897 28.0566L33.2023 28.0408L32.1408 28.8297L32.5654 30.1077L31.496 29.3188L30.4423 30.1077L30.8433 28.8297L29.7817 28.0408L31.1028 28.0566L31.496 26.7708Z" fill="#F1F2F2"/>
<path fill-rule="evenodd" clip-rule="evenodd" d="M16.5553 26.7708L16.9642 28.0566L18.2695 28.0408L17.2079 28.8297L17.6168 30.1077L16.5553 29.3188L15.5015 30.1077L15.9104 28.8297L14.8489 28.0408L16.1542 28.0566L16.5553 26.7708Z" fill="#F1F2F2"/>
<path fill-rule="evenodd" clip-rule="evenodd" d="M24.0491 26.7708L24.4659 28.0566L25.7712 28.0408L24.7097 28.8297L25.1107 30.1077L24.0491 29.3188L23.0033 30.1077L23.4122 28.8297L22.3428 28.0408L23.6481 28.0566L24.0491 26.7708Z" fill="#F1F2F2"/>
<path fill-rule="evenodd" clip-rule="evenodd" d="M39.0133 26.7708L39.4143 28.0566L40.7275 28.0408L39.666 28.8297L40.0592 30.1077L39.0133 29.3188L37.9517 30.1077L38.3606 28.8297L37.2991 28.0408L38.6123 28.0566L39.0133 26.7708Z" fill="#F1F2F2"/>
<path fill-rule="evenodd" clip-rule="evenodd" d="M9.11648 26.7708L9.52538 28.0566L10.8386 28.0408L9.76915 28.8297L10.178 30.1077L9.11648 29.3188L8.05491 30.1077L8.46381 28.8297L7.41797 28.0408L8.71544 28.0566L9.11648 26.7708Z" fill="#F1F2F2"/>
<path fill-rule="evenodd" clip-rule="evenodd" d="M31.496 20.4282L31.897 21.7141H33.2023L32.1408 22.4872L32.5654 23.7652L31.496 22.9763L30.4423 23.7652L30.8433 22.4872L29.7817 21.7141H31.1028L31.496 20.4282Z" fill="#F1F2F2"/>
<path fill-rule="evenodd" clip-rule="evenodd" d="M16.5553 20.4282L16.9642 21.7141H18.2695L17.2079 22.4872L17.6168 23.7652L16.5553 22.9763L15.5015 23.7652L15.9104 22.4872L14.8489 21.7141H16.1542L16.5553 20.4282Z" fill="#F1F2F2"/>
<path fill-rule="evenodd" clip-rule="evenodd" d="M24.0491 20.4282L24.4659 21.7141H25.7712L24.7097 22.4872L25.1107 23.7652L24.0491 22.9763L23.0033 23.7652L23.4122 22.4872L22.3428 21.7141H23.6481L24.0491 20.4282Z" fill="#F1F2F2"/>
<path fill-rule="evenodd" clip-rule="evenodd" d="M39.0133 20.4282L39.4143 21.7141H40.7275L39.666 22.4872L40.0592 23.7652L39.0133 22.9763L37.9517 23.7652L38.3606 22.4872L37.2991 21.7141H38.6123L39.0133 20.4282Z" fill="#F1F2F2"/>
<path fill-rule="evenodd" clip-rule="evenodd" d="M9.11648 20.4282L9.52538 21.7141H10.8386L9.76915 22.4872L10.178 23.7652L9.11648 22.9763L8.05491 23.7652L8.46381 22.4872L7.41797 21.7141H8.71544L9.11648 20.4282Z" fill="#F1F2F2"/>
<path fill-rule="evenodd" clip-rule="evenodd" d="M31.496 14.0779L31.897 15.3559H33.2023L32.1408 16.1447L32.5654 17.4227L31.496 16.626L30.4423 17.4227L30.8433 16.1447L29.7817 15.3559H31.1028L31.496 14.0779Z" fill="#F1F2F2"/>
<path fill-rule="evenodd" clip-rule="evenodd" d="M16.5553 14.0779L16.9642 15.3559H18.2695L17.2079 16.1447L17.6168 17.4227L16.5553 16.626L15.5015 17.4227L15.9104 16.1447L14.8489 15.3559H16.1542L16.5553 14.0779Z" fill="#F1F2F2"/>
<path fill-rule="evenodd" clip-rule="evenodd" d="M24.0491 14.0779L24.4659 15.3559H25.7712L24.7097 16.1447L25.1107 17.4227L24.0491 16.626L23.0033 17.4227L23.4122 16.1447L22.3428 15.3559H23.6481L24.0491 14.0779Z" fill="#F1F2F2"/>
<path fill-rule="evenodd" clip-rule="evenodd" d="M39.0133 14.0779L39.4143 15.3559H40.7275L39.666 16.1447L40.0592 17.4227L39.0133 16.626L37.9517 17.4227L38.3606 16.1447L37.2991 15.3559H38.6123L39.0133 14.0779Z" fill="#F1F2F2"/>
<path fill-rule="evenodd" clip-rule="evenodd" d="M9.11648 14.0779L9.52538 15.3559H10.8386L9.76915 16.1447L10.178 17.4227L9.11648 16.626L8.05491 17.4227L8.46381 16.1447L7.41797 15.3559H8.71544L9.11648 14.0779Z" fill="#F1F2F2"/>
<path fill-rule="evenodd" clip-rule="evenodd" d="M31.496 7.74316L31.897 9.02115H33.2023L32.1408 9.80214L32.5654 11.0801L31.496 10.2834L30.4423 11.0801L30.8433 9.80214L29.7817 9.02115H31.1028L31.496 7.74316Z" fill="#F1F2F2"/>
<path fill-rule="evenodd" clip-rule="evenodd" d="M16.5553 7.74316L16.9642 9.02115H18.2695L17.2079 9.80214L17.6168 11.0801L16.5553 10.2834L15.5015 11.0801L15.9104 9.80214L14.8489 9.02115H16.1542L16.5553 7.74316Z" fill="#F1F2F2"/>
<path fill-rule="evenodd" clip-rule="evenodd" d="M24.0491 7.74316L24.4659 9.02115H25.7712L24.7097 9.80214L25.1107 11.0801L24.0491 10.2834L23.0033 11.0801L23.4122 9.80214L22.3428 9.02115H23.6481L24.0491 7.74316Z" fill="#F1F2F2"/>
<path fill-rule="evenodd" clip-rule="evenodd" d="M39.0133 7.74316L39.4143 9.02115H40.7275L39.666 9.80214L40.0592 11.0801L39.0133 10.2834L37.9517 11.0801L38.3606 9.80214L37.2991 9.02115H38.6123L39.0133 7.74316Z" fill="#F1F2F2"/>
<path fill-rule="evenodd" clip-rule="evenodd" d="M9.11648 7.74316L9.52538 9.02115H10.8386L9.76915 9.80214L10.178 11.0801L9.11648 10.2834L8.05491 11.0801L8.46381 9.80214L7.41797 9.02115H8.71544L9.11648 7.74316Z" fill="#F1F2F2"/>
</g>
<rect x="1" y="1" width="96" height="65" rx="9" stroke="white" stroke-width="2"/>
<defs>
<clipPath id="clip0_497_140">
<rect x="2" y="2" width="94" height="63" rx="8" fill="white"/>
</clipPath>
</defs>
</svg>
