<svg width="174" height="185" viewBox="0 0 174 185" fill="none" xmlns="http://www.w3.org/2000/svg">
<path d="M155.223 141.35C158.28 141.35 160.758 138.872 160.758 135.815C160.758 132.758 158.28 130.28 155.223 130.28C152.166 130.28 149.688 132.758 149.688 135.815C149.688 138.872 152.166 141.35 155.223 141.35Z" fill="#62FCC1"/>
<path d="M169.717 53.1752C171.805 53.1752 173.497 51.4829 173.497 49.3953C173.497 47.3078 171.805 45.6155 169.717 45.6155C167.63 45.6155 165.938 47.3078 165.938 49.3953C165.938 51.4829 167.63 53.1752 169.717 53.1752Z" fill="#252939"/>
<path d="M34.5953 36.0709C36.6828 36.0709 38.3751 34.3786 38.3751 32.2911C38.3751 30.2035 36.6828 28.5112 34.5953 28.5112C32.5077 28.5112 30.8154 30.2035 30.8154 32.2911C30.8154 34.3786 32.5077 36.0709 34.5953 36.0709Z" fill="#62FCC1"/>
<path d="M30.9938 135.768C34.8707 135.768 38.0136 132.625 38.0136 128.748C38.0136 124.871 34.8707 121.728 30.9938 121.728C27.117 121.728 23.9741 124.871 23.9741 128.748C23.9741 132.625 27.117 135.768 30.9938 135.768Z" fill="#252939"/>
<path d="M98.8905 149.417C136.689 149.417 167.333 118.773 167.333 80.8397C167.333 42.9062 136.554 12.2625 98.8905 12.2625C61.092 12.2625 30.4482 42.9062 30.4482 80.8397C30.4482 118.773 61.092 149.417 98.8905 149.417Z" fill="#252939"/>
<g filter="url(#filter0_d_5_1305)">
<path d="M147.712 57.9764L141.108 81.0903L139.221 87.537L122.711 145.558C121.453 150.275 116.422 152.948 111.705 151.69L83.7163 143.671L54.9419 135.337C50.2248 134.079 47.5517 129.048 48.8096 124.331L70.5084 48.0705L73.8103 36.7494C74.911 32.9757 77.584 29.831 81.0432 28.1013L113.277 12.6921C118.151 10.3335 123.969 12.0631 126.957 16.623L146.139 46.6553C148.184 49.9573 148.813 54.0455 147.712 57.9764Z" fill="url(#paint0_linear_5_1305)"/>
</g>
<g filter="url(#filter1_d_5_1305)">
<path d="M66.2623 139.74L24.5944 98.0719C21.1352 94.6127 21.1352 88.9521 24.5944 85.4929L89.0617 21.0256C91.892 18.1954 95.6657 16.7802 99.5966 16.9375L135.132 19.1388C140.478 19.4533 144.881 23.6987 145.195 29.202L147.397 64.7376C147.711 68.6685 146.139 72.5994 143.309 75.2725L78.8413 139.74C75.382 143.199 69.7215 143.199 66.2623 139.74Z" fill="url(#paint1_linear_5_1305)"/>
</g>
<path d="M130.814 48.7323C134.989 44.5568 134.989 37.787 130.814 33.6115C126.638 29.436 119.868 29.436 115.693 33.6115C111.517 37.787 111.517 44.5568 115.693 48.7323C119.868 52.9078 126.638 52.9078 130.814 48.7323Z" fill="#393E4D"/>
<path d="M45.3503 93.8264C44.5641 93.8264 43.7779 93.512 43.149 92.883C41.8911 91.6251 41.8911 89.7383 43.149 88.4804L84.0307 47.5987C85.2886 46.3408 87.1754 46.3408 88.4333 47.5987C89.6912 48.8566 89.6912 50.7434 88.4333 52.0013L47.7089 92.883C47.0799 93.512 46.2937 93.8264 45.3503 93.8264Z" fill="#393E4D"/>
<path d="M56.3562 104.676C55.57 104.676 54.7838 104.361 54.1548 103.732C52.897 102.474 52.897 100.588 54.1548 99.3297L94.8793 58.6053C96.1372 57.3474 98.024 57.3474 99.2819 58.6053C100.54 59.8632 100.54 61.75 99.2819 63.0079L58.5575 103.732C57.9285 104.361 57.1424 104.676 56.3562 104.676Z" fill="#393E4D"/>
<path d="M71.6086 119.928C70.8224 119.928 70.0362 119.613 69.4073 118.984C68.1494 117.727 68.1494 115.84 69.4073 114.582L82.9297 101.059C84.1876 99.8015 86.0744 99.8015 87.3323 101.059C88.5902 102.317 88.5902 104.204 87.3323 105.462L73.8099 118.984C73.181 119.613 72.3948 119.928 71.6086 119.928Z" fill="#393E4D"/>
<path d="M160.447 25.1139C160.447 34.2336 155.101 42.5672 146.611 46.1837L145.982 44.6113V42.8817C152.743 39.5797 157.145 32.6613 157.145 25.1139C157.145 14.2645 148.34 5.30198 137.334 5.30198C126.484 5.30198 117.522 14.1073 117.522 25.1139C117.522 27.3152 117.836 29.3593 118.622 31.4034C120.824 37.8501 126.17 42.8817 132.931 44.4541L132.616 46.0264L131.673 47.5988C124.283 45.712 118.465 40.3659 115.792 33.4475C114.849 30.9317 114.22 28.1014 114.22 25.2711C114.377 12.3777 124.597 2 137.334 2C150.227 2 160.447 12.3777 160.447 25.1139Z" fill="url(#paint2_linear_5_1305)"/>
<defs>
<filter id="filter0_d_5_1305" x="26.4995" y="0.63916" width="143.748" height="184.361" filterUnits="userSpaceOnUse" color-interpolation-filters="sRGB">
<feFlood flood-opacity="0" result="BackgroundImageFix"/>
<feColorMatrix in="SourceAlpha" type="matrix" values="0 0 0 0 0 0 0 0 0 0 0 0 0 0 0 0 0 0 127 0" result="hardAlpha"/>
<feOffset dy="11"/>
<feGaussianBlur stdDeviation="11"/>
<feColorMatrix type="matrix" values="0 0 0 0 0 0 0 0 0 0 0 0 0 0 0 0 0 0 0.27 0"/>
<feBlend mode="normal" in2="BackgroundImageFix" result="effect1_dropShadow_5_1305"/>
<feBlend mode="normal" in="SourceGraphic" in2="effect1_dropShadow_5_1305" result="shape"/>
</filter>
<filter id="filter1_d_5_1305" x="0" y="5.92566" width="169.437" height="169.408" filterUnits="userSpaceOnUse" color-interpolation-filters="sRGB">
<feFlood flood-opacity="0" result="BackgroundImageFix"/>
<feColorMatrix in="SourceAlpha" type="matrix" values="0 0 0 0 0 0 0 0 0 0 0 0 0 0 0 0 0 0 127 0" result="hardAlpha"/>
<feOffset dy="11"/>
<feGaussianBlur stdDeviation="11"/>
<feColorMatrix type="matrix" values="0 0 0 0 0 0 0 0 0 0 0 0 0 0 0 0 0 0 0.27 0"/>
<feBlend mode="normal" in2="BackgroundImageFix" result="effect1_dropShadow_5_1305"/>
<feBlend mode="normal" in="SourceGraphic" in2="effect1_dropShadow_5_1305" result="shape"/>
</filter>
<linearGradient id="paint0_linear_5_1305" x1="98.3411" y1="8.39248" x2="98.3411" y2="153.513" gradientUnits="userSpaceOnUse">
<stop stop-color="#5C6479"/>
<stop offset="0.9964" stop-color="#5C6479"/>
</linearGradient>
<linearGradient id="paint1_linear_5_1305" x1="84.6773" y1="14.0248" x2="84.6773" y2="143.686" gradientUnits="userSpaceOnUse">
<stop stop-color="#5C6479"/>
<stop offset="0.9964" stop-color="#5C6479"/>
</linearGradient>
<linearGradient id="paint2_linear_5_1305" x1="124.824" y1="13.9697" x2="144.309" y2="47.4135" gradientUnits="userSpaceOnUse">
<stop stop-color="#E3EAF7"/>
<stop offset="1" stop-color="#ADB6C8"/>
</linearGradient>
</defs>
</svg>
