<svg width="65" height="65" viewBox="0 0 65 65" fill="none" xmlns="http://www.w3.org/2000/svg">
<rect width="65" height="65" rx="11" fill="#202435"/>
<g clip-path="url(#clip0_1_191)">
<mask id="mask0_1_191" style="mask-type:luminance" maskUnits="userSpaceOnUse" x="16" y="17" width="32" height="32">
<path d="M48 17H16V49H48V17Z" fill="white"/>
</mask>
<g mask="url(#mask0_1_191)">
<path d="M37.5188 48.1383C35.2694 48.1383 33.0028 47.242 30.7792 45.4666C29.0642 44.0963 26.5562 41.7263 24.3672 38.1841L24.2207 37.9514C21.9109 34.4955 20.7905 31.2291 20.2562 29.1004C18.6101 22.4814 22.0057 19.4736 23.5398 18.4825C24.1345 18.0947 24.9532 17.8706 25.7203 17.8706C26.0133 17.8706 26.3063 17.9051 26.5907 17.9654C26.9872 18.043 27.2371 18.1033 27.5387 18.1809C28.8832 18.4739 29.7019 19.2409 29.9346 20.4561C30.0036 20.8009 30.2104 21.7058 30.4259 22.628C30.6844 23.7225 30.9257 24.7481 30.9861 25.1187C31.1498 26.0581 30.7965 27.3767 29.6244 28.2127C29.0642 28.6177 28.685 28.9108 28.4264 29.1176C28.2885 29.2296 28.1765 29.3158 28.0989 29.3761C28.0989 29.3761 27.737 29.876 28.1248 30.9705C28.5126 32.0565 29.4089 33.6595 29.926 34.461C30.4431 35.2625 31.5377 36.7449 32.3564 37.5464C32.9597 38.141 33.4509 38.2272 33.6922 38.2272C33.7957 38.2272 33.8474 38.21 33.8474 38.21C33.8905 38.1841 34.0111 38.1238 34.1663 38.0376C34.4593 37.8911 34.8902 37.667 35.4849 37.3223C36.002 37.0293 36.5794 36.8655 37.1654 36.8655C37.7946 36.8655 38.3979 37.0465 38.8633 37.3654C39.1735 37.5808 40.0095 38.2272 40.8972 38.9081C41.647 39.4855 42.3796 40.0543 42.6726 40.2611C43.6809 40.9765 44.0429 42.0365 43.7413 43.4155C43.6896 43.6913 43.6378 43.9412 43.543 44.3549C43.2931 45.5614 42.483 46.4578 41.8107 46.8887C40.9317 47.4575 39.4666 48.1383 37.5274 48.1383H37.5188Z" fill="#62FCC1"/>
<path d="M25.7204 18.7324C25.9358 18.7324 26.1685 18.7582 26.4012 18.8099C26.7977 18.8875 27.039 18.9478 27.3234 19.0168C28.4869 19.2667 28.9436 19.87 29.0815 20.6112C29.228 21.361 30.0209 24.6015 30.133 25.2651C30.245 25.9287 29.9778 26.8939 29.116 27.5059C28.2542 28.1178 27.8146 28.497 27.5733 28.6693C27.332 28.8417 26.746 29.7294 27.2975 31.2462C27.7285 32.4442 28.6851 34.1334 29.185 34.909C29.6848 35.6847 30.8311 37.2618 31.736 38.1495C32.4944 38.8907 33.2011 39.0717 33.6665 39.0717C33.9164 39.0717 34.106 39.02 34.1922 38.9683C34.4508 38.8218 34.9765 38.5805 35.89 38.0547C36.3037 37.8134 36.7433 37.7186 37.1397 37.7186C37.6223 37.7186 38.0533 37.8565 38.3549 38.0634C38.9065 38.4426 41.5351 40.511 42.147 40.9505C42.7675 41.39 43.1209 42.0537 42.8709 43.2171C42.8192 43.5102 42.7675 43.7515 42.6813 44.1393C42.4745 45.1476 41.785 45.8544 41.3282 46.1474C40.3544 46.7765 39.053 47.2592 37.5103 47.2592C35.7263 47.2592 33.6062 46.6128 31.3137 44.7771C27.401 41.6572 25.2895 38.0116 25.0137 37.5893C24.7465 37.167 22.2989 33.7369 21.0837 28.8762C19.7565 23.5673 21.8938 20.5422 23.9967 19.1977C24.3501 18.9737 24.9792 18.7237 25.7118 18.7237M25.7118 17.0001C24.3759 17.0001 23.4193 17.5258 23.0659 17.7499C17.8518 21.1196 18.9636 27.4455 19.429 29.3071C19.9805 31.5048 21.1354 34.8746 23.5141 38.4339L23.583 38.5374L23.652 38.6408C25.9014 42.2864 28.4869 44.734 30.2623 46.1388C32.6409 48.0348 35.0885 49.0001 37.5362 49.0001C39.6821 49.0001 41.3024 48.2503 42.2849 47.6211C43.095 47.0954 44.0775 46.0181 44.3878 44.5357C44.4826 44.1307 44.5343 43.8721 44.586 43.5705C45.0686 41.2952 43.9051 40.0887 43.1639 39.563C42.9054 39.3733 42.1125 38.7701 41.423 38.2357C40.3371 37.3997 39.6563 36.874 39.346 36.6586C38.7427 36.2449 37.9585 36.0122 37.1569 36.0122C36.4158 36.0122 35.6918 36.2104 35.0454 36.581C34.468 36.9171 34.0543 37.124 33.7613 37.2791C33.701 37.3049 33.6493 37.3308 33.6062 37.3566C33.4941 37.3308 33.2614 37.236 32.9512 36.9343C32.1841 36.1845 31.1241 34.7367 30.6415 33.9955C30.1674 33.2543 29.2884 31.6858 28.9264 30.6774C28.7799 30.2723 28.7885 30.0224 28.8144 29.9104C28.8575 29.8759 28.9005 29.8414 28.9523 29.7983C29.2108 29.5915 29.5728 29.3071 30.1157 28.9193C31.5981 27.8678 32.0463 26.1786 31.8308 24.9721C31.7705 24.6101 31.5722 23.7741 31.262 22.4383C31.0638 21.585 30.8311 20.6112 30.7707 20.2923C30.607 19.4046 29.9865 17.8447 27.7198 17.3362C27.4182 17.2586 27.1596 17.1983 26.7373 17.1121C26.4357 17.0432 26.0737 17.0001 25.7204 17.0001H25.7118Z" fill="#202435"/>
</g>
</g>
<defs>
<clipPath id="clip0_1_191">
<rect width="32" height="32" fill="white" transform="translate(16 17)"/>
</clipPath>
</defs>
</svg>
