<svg width="65" height="66" viewBox="0 0 65 66" fill="none" xmlns="http://www.w3.org/2000/svg">
<rect y="0.5" width="65" height="65" rx="11" fill="#202435"/>
<path fill-rule="evenodd" clip-rule="evenodd" d="M32 45.8333C37.891 45.8333 42.6666 41.0577 42.6666 35.1667C42.6666 29.2756 37.891 24.5 32 24.5C26.1089 24.5 21.3333 29.2756 21.3333 35.1667C21.3333 41.0577 26.1089 45.8333 32 45.8333ZM32 29.8333C31.2636 29.8333 30.6666 30.4303 30.6666 31.1667V35.1667C30.6666 35.9031 31.2636 36.5 32 36.5C32.7364 36.5 33.3333 35.9031 33.3333 35.1667V31.1667C33.3333 30.4303 32.7364 29.8333 32 29.8333Z" fill="#62FCC1"/>
<path fill-rule="evenodd" clip-rule="evenodd" d="M30.6666 19.1667C29.9302 19.1667 29.3333 19.7636 29.3333 20.5C29.3333 21.2364 29.9302 21.8334 30.6666 21.8334H33.3333C34.0697 21.8334 34.6666 21.2364 34.6666 20.5C34.6666 19.7636 34.0697 19.1667 33.3333 19.1667H30.6666ZM40.8 21.7667C40.2109 21.3249 39.3752 21.4442 38.9333 22.0334C38.4914 22.6225 38.6109 23.4582 39.2 23.9L40.5333 24.9C41.1224 25.3418 41.9581 25.2225 42.4 24.6334C42.8418 24.0442 42.7224 23.2085 42.1333 22.7667L40.8 21.7667Z" fill="#62FCC1"/>
</svg>
