<svg width="65" height="65" viewBox="0 0 65 65" fill="none" xmlns="http://www.w3.org/2000/svg">
<rect width="65" height="65" rx="11" fill="#202435"/>
<circle cx="32.5" cy="32.5" r="14.5" fill="#62FCC1"/>
<path d="M33.7021 42.5378V40.004C36.6133 39.5346 38.1841 37.7182 38.1841 35.4765C38.1841 33.2347 36.993 31.8853 33.9787 30.85C31.8049 30.086 30.9182 29.547 30.9182 28.7586C30.9182 28.0704 31.4471 27.3554 33.0932 27.3554C34.8957 27.3554 36.0762 27.9071 36.7152 28.2058L36.7395 28.2171L37.5 25.4376C36.6121 25.044 35.4743 24.6748 33.8003 24.6259V22.4612H31.3222V24.7983C28.6159 25.2897 27.0415 26.9862 27.0415 29.1779C27.0415 31.5638 28.8901 32.7935 31.6012 33.6809C33.4971 34.2969 34.3074 34.8568 34.3074 35.8199C34.3074 36.7831 33.3224 37.3466 31.8547 37.3466C30.2062 37.3466 28.7166 36.8296 27.6528 36.2637L26.8911 39.1422C27.8542 39.6593 29.499 40.1274 31.196 40.2007V42.5378H33.7021Z" fill="#202435"/>
</svg>
