<svg width="55" height="69" viewBox="0 0 55 69" fill="none" xmlns="http://www.w3.org/2000/svg">
<path d="M5.12261 0.0130372C8.98212 0.361998 13.2601 0.763268 17.5463 1.11107C18.8613 1.21375 20.1815 1.232 21.4988 1.16573C22.7776 1.10525 23.3798 1.4705 23.2635 2.89194C22.7718 8.84753 22.9008 14.8438 22.1557 20.7831C22.0394 21.6637 22.5823 22.0825 23.1008 22.5803C30.7593 29.9364 38.4164 37.2944 46.0718 44.6543C47.6714 46.1909 49.2733 47.7264 50.909 49.2247C52.2365 50.4414 52.5469 52.2489 53.5641 53.6378C53.8194 54.107 54.1146 54.5534 54.4465 54.9719C55.28 55.7618 55.1196 56.3516 54.3163 57.046C53.9408 57.3006 53.6535 57.6653 53.494 58.0901C53.3345 58.5149 53.3107 58.9788 53.4258 59.4177C53.4874 59.8056 53.4579 60.2026 53.3396 60.5771C53.2214 60.9516 53.0177 61.2933 52.7446 61.5754C52.3385 62.1009 52.1387 62.757 52.1828 63.4198C52.2269 64.0826 52.5119 64.7063 52.9841 65.1732C53.8652 66.3213 53.6246 66.8774 52.1226 67.0845C50.2481 67.4383 48.3535 67.6753 46.4496 67.794C44.4201 67.8901 42.4 68.1308 40.4046 68.5141C38.5981 68.7944 37.6146 68.0487 37.5123 66.2493C37.3112 62.7469 34.6316 61.4429 32.138 59.9493C31.8904 59.8016 31.3626 59.818 31.3243 59.6679C30.8325 57.6754 29.2852 57.8241 27.7612 57.7462C27.2217 57.6538 26.7384 57.3574 26.4115 56.9181C24.8549 54.8709 22.5858 54.6707 20.3305 54.5404C18.832 54.4543 18.1415 53.9948 18.3542 52.3489C18.6484 50.0481 17.351 48.2696 15.9374 46.7005C14.2809 44.8614 13.4148 42.5199 11.8082 40.6622C11.1874 39.9445 11.6211 39.1152 12.0895 38.5115C12.8882 37.482 12.5138 36.8133 11.5222 36.4178C9.575 35.6489 9.20536 34.0634 9.08097 32.2442C9.01703 31.3136 9.28093 31.2357 9.93426 31.7545C10.2272 31.9871 10.5155 32.286 10.8468 31.9382C11.1781 31.5904 10.8003 31.259 10.6573 30.9717C10.4469 30.5506 10.1726 29.8957 9.84358 29.8434C7.54996 29.4793 6.69315 27.895 6.08517 25.9187C5.88986 25.2848 5.20632 24.8066 4.77387 24.2378C3.73261 23.1856 3.07297 21.8153 2.89992 20.3447C2.66742 17.3878 3.16263 13.9156 0.342394 11.5682C-0.25862 11.0669 0.0320096 10.2969 0.448186 9.76068C0.941667 9.19411 1.31249 8.53138 1.53718 7.81425C1.76187 7.09712 1.83555 6.34112 1.75366 5.59405C1.70843 5.29738 1.7725 4.99434 1.93388 4.74139C2.15847 4.52004 2.3351 4.25479 2.4527 3.96213C2.5703 3.66947 2.62632 3.35576 2.61738 3.04046C2.60843 2.72516 2.53469 2.41509 2.40069 2.12958C2.26669 1.84406 2.0753 1.58924 1.83852 1.38099C1.14102 0.585362 1.5398 0.0618099 2.53607 0.016445C3.25566 -0.0184511 3.97638 0.0130372 5.12261 0.0130372Z" fill="#62FCC1"/>
<path d="M51.9779 38.2222H51.0517H29.6342H28.708V37.296V22.3036V21.3774H29.6342H30.8503V18.5559C30.8503 13.3211 35.109 9.06238 40.3438 9.06238C45.578 9.06238 49.8364 13.3211 49.8364 18.5559V21.3774H51.0517H51.9779V22.3036V37.296V38.2222ZM35.38 21.3774H45.3067V18.5559C45.3067 15.8189 43.0803 13.5921 40.3438 13.5921C37.6067 13.5921 35.38 15.8189 35.38 18.5559V21.3774Z" fill="#62FCC1"/>
<path d="M51.055 37.296V22.3036H48.9136V18.5559C48.9136 13.8313 45.07 9.98859 40.3471 9.98859C35.6225 9.98859 31.7798 13.8313 31.7798 18.5559V22.3036H29.6375V37.296H51.055ZM40.3471 12.666C43.5938 12.666 46.2362 15.3075 46.2362 18.5559V22.3036H34.4572V18.5559C34.4572 15.3075 37.0987 12.666 40.3471 12.666ZM52.9074 39.1484H27.7852V20.4512H29.9274V18.5559C29.9274 12.8105 34.6017 8.13623 40.3471 8.13623C46.0921 8.13623 50.7659 12.8105 50.7659 18.5559V20.4512H52.9074V39.1484ZM36.3095 20.4512H44.3838V18.5559C44.3838 16.3296 42.573 14.5183 40.3471 14.5183C38.1208 14.5183 36.3095 16.3296 36.3095 18.5559V20.4512Z" fill="#202435"/>
</svg>
