<svg width="135" height="75" viewBox="0 0 135 75" fill="none" xmlns="http://www.w3.org/2000/svg">
<path d="M36.0762 22.6534H29.2324C29.1074 21.768 28.8522 20.9816 28.4668 20.2941C28.0814 19.5961 27.5866 19.0024 26.9824 18.5128C26.3783 18.0232 25.6803 17.6482 24.8887 17.3878C24.1074 17.1274 23.2585 16.9972 22.3418 16.9972C20.6855 16.9972 19.2428 17.4087 18.0137 18.2316C16.7845 19.0441 15.8314 20.2316 15.1543 21.7941C14.4772 23.3462 14.1387 25.2316 14.1387 27.4503C14.1387 29.7316 14.4772 31.6482 15.1543 33.2003C15.8418 34.7524 16.8001 35.9243 18.0293 36.7159C19.2585 37.5076 20.6803 37.9034 22.2949 37.9034C23.2012 37.9034 24.0397 37.7837 24.8105 37.5441C25.5918 37.3045 26.2845 36.9555 26.8887 36.4972C27.4928 36.0284 27.9928 35.4607 28.3887 34.7941C28.7949 34.1274 29.0762 33.367 29.2324 32.5128L36.0762 32.5441C35.8991 34.0128 35.4564 35.4295 34.748 36.7941C34.0501 38.1482 33.1074 39.3618 31.9199 40.4347C30.7428 41.4972 29.3366 42.3409 27.7012 42.9659C26.0762 43.5805 24.2376 43.8878 22.1855 43.8878C19.3314 43.8878 16.7793 43.242 14.5293 41.9503C12.2897 40.6587 10.5189 38.7889 9.2168 36.3409C7.92513 33.893 7.2793 30.9295 7.2793 27.4503C7.2793 23.9607 7.93555 20.992 9.24805 18.5441C10.5605 16.0961 12.3418 14.2316 14.5918 12.9503C16.8418 11.6587 19.373 11.0128 22.1855 11.0128C24.0397 11.0128 25.7585 11.2732 27.3418 11.7941C28.9355 12.3149 30.347 13.0753 31.5762 14.0753C32.8053 15.0649 33.8053 16.2784 34.5762 17.7159C35.3574 19.1534 35.8574 20.7993 36.0762 22.6534ZM69.1621 22.6534H62.3184C62.1934 21.768 61.9382 20.9816 61.5527 20.2941C61.1673 19.5961 60.6725 19.0024 60.0684 18.5128C59.4642 18.0232 58.7663 17.6482 57.9746 17.3878C57.1934 17.1274 56.3444 16.9972 55.4277 16.9972C53.7715 16.9972 52.3288 17.4087 51.0996 18.2316C49.8704 19.0441 48.9173 20.2316 48.2402 21.7941C47.5632 23.3462 47.2246 25.2316 47.2246 27.4503C47.2246 29.7316 47.5632 31.6482 48.2402 33.2003C48.9277 34.7524 49.8861 35.9243 51.1152 36.7159C52.3444 37.5076 53.7663 37.9034 55.3809 37.9034C56.2871 37.9034 57.1257 37.7837 57.8965 37.5441C58.6777 37.3045 59.3704 36.9555 59.9746 36.4972C60.5788 36.0284 61.0788 35.4607 61.4746 34.7941C61.8809 34.1274 62.1621 33.367 62.3184 32.5128L69.1621 32.5441C68.985 34.0128 68.5423 35.4295 67.834 36.7941C67.1361 38.1482 66.1934 39.3618 65.0059 40.4347C63.8288 41.4972 62.4225 42.3409 60.7871 42.9659C59.1621 43.5805 57.3236 43.8878 55.2715 43.8878C52.4173 43.8878 49.8652 43.242 47.6152 41.9503C45.3757 40.6587 43.6048 38.7889 42.3027 36.3409C41.0111 33.893 40.3652 30.9295 40.3652 27.4503C40.3652 23.9607 41.0215 20.992 42.334 18.5441C43.6465 16.0961 45.4277 14.2316 47.6777 12.9503C49.9277 11.6587 52.459 11.0128 55.2715 11.0128C57.1257 11.0128 58.8444 11.2732 60.4277 11.7941C62.0215 12.3149 63.4329 13.0753 64.6621 14.0753C65.8913 15.0649 66.8913 16.2784 67.6621 17.7159C68.4434 19.1534 68.9434 20.7993 69.1621 22.6534ZM74.0137 43.4503V11.4503H86.6387C89.0658 11.4503 91.1335 11.9139 92.8418 12.8409C94.5501 13.7576 95.8522 15.0336 96.748 16.6691C97.6543 18.2941 98.1074 20.1691 98.1074 22.2941C98.1074 24.4191 97.6491 26.2941 96.7324 27.9191C95.8158 29.5441 94.4876 30.8097 92.748 31.7159C91.0189 32.6222 88.9251 33.0753 86.4668 33.0753H78.4199V27.6534H85.373C86.6751 27.6534 87.748 27.4295 88.5918 26.9816C89.446 26.5232 90.0814 25.893 90.498 25.0909C90.9251 24.2784 91.1387 23.3462 91.1387 22.2941C91.1387 21.2316 90.9251 20.3045 90.498 19.5128C90.0814 18.7107 89.446 18.0909 88.5918 17.6534C87.7376 17.2055 86.6543 16.9816 85.3418 16.9816H80.7793V43.4503H74.0137ZM104.322 43.4503H97.0723L108.119 11.4503H116.838L127.869 43.4503H120.619L112.604 18.7628H112.354L104.322 43.4503ZM103.869 30.8722H120.994V36.1534H103.869V30.8722Z" fill="white"/>
<path d="M19.786 58.0965H17.9448C17.8359 57.5669 17.6454 57.1017 17.3732 56.7008C17.1059 56.2999 16.7792 55.9633 16.3932 55.6911C16.0121 55.4139 15.5889 55.206 15.1237 55.0675C14.6584 54.9289 14.1734 54.8596 13.6685 54.8596C12.7479 54.8596 11.914 55.0922 11.1666 55.5574C10.4242 56.0227 9.83273 56.7082 9.39223 57.6139C8.95668 58.5197 8.73891 59.6308 8.73891 60.9474C8.73891 62.2639 8.95668 63.3751 9.39223 64.2808C9.83273 65.1865 10.4242 65.872 11.1666 66.3373C11.914 66.8025 12.7479 67.0352 13.6685 67.0352C14.1734 67.0352 14.6584 66.9659 15.1237 66.8273C15.5889 66.6887 16.0121 66.4833 16.3932 66.2111C16.7792 65.9339 17.1059 65.5949 17.3732 65.194C17.6454 64.7881 17.8359 64.3229 17.9448 63.7982H19.786C19.6474 64.5753 19.395 65.2707 19.0288 65.8844C18.6625 66.4981 18.2072 67.0203 17.6627 67.4509C17.1183 67.8766 16.507 68.2007 15.829 68.4235C15.1558 68.6462 14.4357 68.7576 13.6685 68.7576C12.3718 68.7576 11.2186 68.4408 10.2089 67.8073C9.1992 67.1737 8.40482 66.2729 7.82574 65.1049C7.24665 63.9368 6.95711 62.551 6.95711 60.9474C6.95711 59.3438 7.24665 57.9579 7.82574 56.7899C8.40482 55.6218 9.1992 54.721 10.2089 54.0875C11.2186 53.4539 12.3718 53.1372 13.6685 53.1372C14.4357 53.1372 15.1558 53.2485 15.829 53.4713C16.507 53.694 17.1183 54.0207 17.6627 54.4513C18.2072 54.8769 18.6625 55.3966 19.0288 56.0103C19.395 56.6191 19.6474 57.3145 19.786 58.0965ZM35.5901 60.9474C35.5901 62.551 35.3006 63.9368 34.7215 65.1049C34.1424 66.2729 33.3481 67.1737 32.3384 67.8073C31.3287 68.4408 30.1755 68.7576 28.8787 68.7576C27.582 68.7576 26.4288 68.4408 25.4191 67.8073C24.4094 67.1737 23.615 66.2729 23.0359 65.1049C22.4568 63.9368 22.1673 62.551 22.1673 60.9474C22.1673 59.3438 22.4568 57.9579 23.0359 56.7899C23.615 55.6218 24.4094 54.721 25.4191 54.0875C26.4288 53.4539 27.582 53.1372 28.8787 53.1372C30.1755 53.1372 31.3287 53.4539 32.3384 54.0875C33.3481 54.721 34.1424 55.6218 34.7215 56.7899C35.3006 57.9579 35.5901 59.3438 35.5901 60.9474ZM33.8084 60.9474C33.8084 59.6308 33.5881 58.5197 33.1476 57.6139C32.7121 56.7082 32.1206 56.0227 31.3732 55.5574C30.6308 55.0922 29.7993 54.8596 28.8787 54.8596C27.9581 54.8596 27.1242 55.0922 26.3768 55.5574C25.6344 56.0227 25.0429 56.7082 24.6024 57.6139C24.1669 58.5197 23.9491 59.6308 23.9491 60.9474C23.9491 62.2639 24.1669 63.3751 24.6024 64.2808C25.0429 65.1865 25.6344 65.872 26.3768 66.3373C27.1242 66.8025 27.9581 67.0352 28.8787 67.0352C29.7993 67.0352 30.6308 66.8025 31.3732 66.3373C32.1206 65.872 32.7121 65.1865 33.1476 64.2808C33.5881 63.3751 33.8084 62.2639 33.8084 60.9474ZM38.686 53.3451H40.8836L46.0507 65.9661H46.2289L51.3961 53.3451H53.5937V68.5497H51.8713V56.9977H51.7228L46.9713 68.5497H45.3083L40.5569 56.9977H40.4084V68.5497H38.686V53.3451ZM57.2853 68.5497V53.3451H62.4228C63.6156 53.3451 64.5907 53.5604 65.3479 53.991C66.1101 54.4166 66.6744 54.9932 67.0406 55.7208C67.4069 56.4483 67.59 57.26 67.59 58.1559C67.59 59.0517 67.4069 59.8659 67.0406 60.5984C66.6793 61.3309 66.12 61.915 65.3628 62.3505C64.6055 62.7811 63.6354 62.9964 62.4525 62.9964H58.7701V61.3631H62.3931C63.2098 61.3631 63.8656 61.2221 64.3605 60.9399C64.8555 60.6578 65.2143 60.2767 65.437 59.7966C65.6647 59.3116 65.7785 58.7647 65.7785 58.1559C65.7785 57.5471 65.6647 57.0027 65.437 56.5226C65.2143 56.0425 64.853 55.6663 64.3531 55.3941C63.8532 55.1169 63.19 54.9784 62.3634 54.9784H59.1265V68.5497H57.2853ZM70.556 68.5497V53.3451H72.3971V66.9164H79.4649V68.5497H70.556ZM84.157 53.3451V68.5497H82.3158V53.3451H84.157ZM88.4722 68.5497H86.542L92.1249 53.3451H94.0255L99.6084 68.5497H97.6782L93.1346 55.7505H93.0158L88.4722 68.5497ZM89.185 62.6104H96.9655V64.2437H89.185V62.6104ZM114.034 53.3451V68.5497H112.252L103.966 56.6117H103.818V68.5497H101.977V53.3451H103.759L112.074 65.3128H112.222V53.3451H114.034ZM116.886 54.9784V53.3451H128.29V54.9784H123.509V68.5497H121.667V54.9784H116.886Z" fill="white"/>
</svg>
