<svg width="26" height="27" viewBox="0 0 26 27" fill="none" xmlns="http://www.w3.org/2000/svg">
<path fill-rule="evenodd" clip-rule="evenodd" d="M4.54073 5.14073C5.26169 4.41976 6.43061 4.41976 7.15158 5.14073L21.4593 19.4484C22.1802 20.1694 22.1802 21.3383 21.4593 22.0593C20.7383 22.7802 19.5694 22.7802 18.8484 22.0593L4.54073 7.75159C3.81976 7.03062 3.81976 5.8617 4.54073 5.14073Z" fill="#A4A9BB"/>
<path fill-rule="evenodd" clip-rule="evenodd" d="M21.4593 5.14073C20.7383 4.41976 19.5694 4.41976 18.8484 5.14073L4.54073 19.4484C3.81976 20.1694 3.81976 21.3383 4.54073 22.0593C5.26169 22.7802 6.43061 22.7802 7.15158 22.0593L21.4593 7.75159C22.1802 7.03062 22.1802 5.8617 21.4593 5.14073Z" fill="#A4A9BB"/>
</svg>
