<svg width="20" height="30" viewBox="0 0 20 30" fill="none" xmlns="http://www.w3.org/2000/svg">
<path fill-rule="evenodd" clip-rule="evenodd" d="M12.6667 1.66659C12.6667 1.22592 12.3783 0.837187 11.9564 0.709493C11.5347 0.581787 11.0791 0.745227 10.8347 1.11188L0.167944 17.1119C-0.0366155 17.4187 -0.0556955 17.8133 0.118331 18.1385C0.292344 18.4637 0.631198 18.6666 0.999998 18.6666H6.66667V28.3333C6.66667 28.7739 6.95506 29.1626 7.37693 29.2903C7.79866 29.4181 8.25426 29.2546 8.49866 28.8879L19.1653 12.8879C19.37 12.5811 19.3891 12.1865 19.2151 11.8614C19.0409 11.5362 18.7021 11.3333 18.3333 11.3333H12.6667V1.66659Z" fill="#62FCC1"/>
</svg>
