<svg width="65" height="66" viewBox="0 0 65 66" fill="none" xmlns="http://www.w3.org/2000/svg">
<rect y="0.5" width="65" height="65" rx="11" fill="#202435"/>
<path fill-rule="evenodd" clip-rule="evenodd" d="M44.8771 21.5C46.0495 21.5 47 22.4505 47 23.6229V39.014C47 39.1972 46.9768 39.3751 46.9331 39.5447H46.9995L46.9997 45.25L40.0411 41.1369H18.8715C17.6991 41.1369 16.7486 40.1864 16.7486 39.014V23.6229C16.7486 22.4505 17.6991 21.5 18.8715 21.5H44.8771Z" fill="#62FCC1"/>
<path d="M33.5829 35.9983L23 35.9983L23 34.298L33.5829 34.298L33.5829 35.9983Z" fill="#202435"/>
<path d="M30.186 27.967L23 27.967L23 26.1705L30.186 26.1705L30.186 27.967Z" fill="#202435"/>
<path d="M40.6319 31.9131L23.1173 31.9131L23.1173 30.2128L40.6319 30.2128L40.6319 31.9131Z" fill="#202435"/>
</svg>
