<svg width="26" height="26" viewBox="0 0 26 26" fill="none" xmlns="http://www.w3.org/2000/svg">
<path fill-rule="evenodd" clip-rule="evenodd" d="M0.498081 0.135093C0.806387 -0.0438266 1.18664 -0.0451067 1.49613 0.13176L5.66667 2.51492L9.8372 0.13176C10.1446 -0.04392 10.522 -0.04392 10.8295 0.13176L15 2.51492L19.1705 0.13176C19.48 -0.0451067 19.8603 -0.0438266 20.1685 0.135093C20.4769 0.314013 20.6667 0.643533 20.6667 1V12H25C25.5523 12 26 12.4477 26 13V22.3333C26 24.3584 24.3584 26 22.3333 26H9H8.92684C7.10339 26 5.63363 26 4.47767 25.8447C3.27752 25.6833 2.26703 25.3381 1.46447 24.5356C0.661907 23.7329 0.316721 22.7225 0.155361 21.5224C-5.27302e-05 20.3664 -2.59681e-05 18.8967 6.98604e-07 17.0732V17V1C6.98604e-07 0.643533 0.189761 0.314013 0.498081 0.135093ZM22.3333 24C23.2539 24 24 23.2539 24 22.3333V14H20.6667V22.3333C20.6667 23.2539 21.4128 24 22.3333 24ZM6.33333 8C5.78105 8 5.33333 8.44772 5.33333 9C5.33333 9.55228 5.78105 10 6.33333 10H11.6667C12.2189 10 12.6667 9.55228 12.6667 9C12.6667 8.44772 12.2189 8 11.6667 8H6.33333ZM5.33333 14.3333C5.33333 13.7811 5.78105 13.3333 6.33333 13.3333H14.3333C14.8856 13.3333 15.3333 13.7811 15.3333 14.3333C15.3333 14.8856 14.8856 15.3333 14.3333 15.3333H6.33333C5.78105 15.3333 5.33333 14.8856 5.33333 14.3333ZM6.33333 18.6667C5.78105 18.6667 5.33333 19.1144 5.33333 19.6667C5.33333 20.2189 5.78105 20.6667 6.33333 20.6667H14.3333C14.8856 20.6667 15.3333 20.2189 15.3333 19.6667C15.3333 19.1144 14.8856 18.6667 14.3333 18.6667H6.33333Z" fill="#62FCC1"/>
</svg>
