<?xml version="1.0" encoding="UTF-8"?>
<svg width="42px" height="31px" viewBox="0 0 42 31" version="1.1" xmlns="http://www.w3.org/2000/svg" xmlns:xlink="http://www.w3.org/1999/xlink">
    <!-- Generator: Sketch 48.1 (47250) - http://www.bohemiancoding.com/sketch -->
    <title>logoicon</title>
    <desc>Created with Sketch.</desc>
    <defs></defs>
    <g id="Home-Page" stroke="none" stroke-width="1" fill="none" fill-rule="evenodd" transform="translate(-679.000000, -1754.000000)">
        <g id="Footer" transform="translate(1.000000, 80.000000)" fill="#41B787">
            <g id="Group-3" transform="translate(579.000000, 1674.000000)">
                <g id="logoicon" transform="translate(99.000000, 0.000000)">
                    <path d="M15.7887099,19 L8.21090923,19 C7.5424142,19 7,19.447625 7,19.9993709 C7,20.5520604 7.5424142,21 8.21090923,21 L15.7887099,21 C16.4572049,21 17,20.5520604 17,19.9993709 C17,19.447625 16.4572049,19 15.7887099,19" id="Fill-11"></path>
                    <path d="M6,19.9992137 C6,19.4475546 5.490293,19 4.86130812,19 L2.13905008,19 C1.51006519,19 1,19.4475546 1,19.9992137 C1,20.5518163 1.51006519,21 2.13905008,21 L4.86130812,21 C5.490293,21 6,20.5518163 6,19.9992137" id="Fill-12"></path>
                    <path d="M9,10 C9,9.44762504 8.48553868,9 7.85032538,9 L6.14931309,9 C5.51446132,9 5,9.44762504 5,10 C5,10.552375 5.51446132,11 6.14931309,11 L7.85032538,11 C8.48553868,11 9,10.552375 9,10" id="Fill-13"></path>
                    <path d="M10.1882668,5 C9.53173071,5 9,5.44762504 9,6 C9,6.55237496 9.53173071,7 10.1882668,7 L13.8121069,7 C14.4682693,7 15,6.55237496 15,6 C15,5.44762504 14.4682693,5 13.8121069,5 L10.1882668,5 Z" id="Fill-14"></path>
                    <path d="M2.1506155,7 L6.84902245,7 C7.48479363,7 8,6.55237496 8,6 C8,5.44762504 7.48479363,5 6.84902245,5 L2.1506155,5 C1.51520637,5 1,5.44762504 1,6 C1,6.55237496 1.51520637,7 2.1506155,7" id="Fill-15"></path>
                    <path d="M16.2471557,2 L17.7528443,2 C18.4417419,2 19,1.55237496 19,1 C19,0.447625039 18.4417419,0 17.7528443,0 L16.2471557,0 C15.5582581,0 15,0.447625039 15,1 C15,1.55237496 15.5582581,2 16.2471557,2" id="Fill-16"></path>
                    <path d="M12.8506869,11 C13.4855387,11 14,10.552375 14,10 C14,9.44762504 13.4855387,9 12.8506869,9 L11.1496746,9 C10.5144613,9 10,9.44762504 10,10 C10,10.552375 10.5144613,11 11.1496746,11 L12.8506869,11 Z" id="Fill-17"></path>
                    <path d="M13.7867956,14 L10.2132044,14 C9.54306068,14 9,14.4477659 9,14.9996853 C9,15.5525488 9.54306068,16 10.2132044,16 L13.7867956,16 C14.4569393,16 15,15.5525488 15,14.9996853 C15,14.4477659 14.4569393,14 13.7867956,14" id="Fill-18"></path>
                    <path d="M13,24.9998427 C13,25.5518163 13.5317307,26 14.1882668,26 L17.8121069,26 C18.4682693,26 19,25.5518163 19,24.9998427 C19,24.4472401 18.4682693,24 17.8121069,24 L14.1882668,24 C13.5317307,24 13,24.4472401 13,24.9998427" id="Fill-19"></path>
                    <path d="M9.26638971,2 L13.7336103,2 C14.4331323,2 15,1.55237496 15,1 C15,0.447625039 14.4331323,0 13.7336103,0 L9.26638971,0 C8.56686774,0 8,0.447625039 8,1 C8,1.55237496 8.56686774,2 9.26638971,2" id="Fill-20"></path>
                    <path d="M8,14.9995281 C8,14.4480101 7.44842289,14 6.76776976,14 L1.23223024,14 C0.551577111,14 0,14.4480101 0,14.9995281 C0,15.5523045 0.551577111,16 1.23223024,16 L6.76776976,16 C7.44842289,16 8,15.5523045 8,14.9995281" id="Fill-21"></path>
                    <path d="M10.8330198,24 L5.16698022,24 C4.52236957,24 4,24.4473105 4,25 C4,25.5520604 4.52236957,26 5.16698022,26 L10.8330198,26 C11.4776304,26 12,25.5520604 12,25 C12,24.4473105 11.4776304,24 10.8330198,24" id="Fill-22"></path>
                    <path d="M41.8077189,16.8408162 C41.5877103,16.5033624 41.339694,16.1839062 41.1145261,15.8487022 C40.9136808,15.5491183 40.7360525,15.2330366 40.5374183,14.9330777 C40.2949298,14.5671279 40.0410171,14.2083021 39.7922638,13.8468516 C39.62348,13.6027601 39.4226347,13.3755413 39.2932829,13.1119524 C39.1174972,12.7550013 39.1495587,12.356431 39.3260815,12.0159776 C39.7635189,11.1719684 39.7078719,10.3230847 39.4399553,9.45507874 C39.1956242,8.66206246 38.9767212,7.86079731 38.7088046,7.07640485 C38.4677902,6.37337623 38.2090867,5.67297225 37.8976844,4.99993952 C37.5951266,4.34565422 37.1540039,3.7776071 36.6539175,3.25605361 C36.1040804,2.68238225 35.477959,2.20957207 34.8142481,1.79562883 C34.1604874,1.38768475 33.4761392,1.03223348 32.7542017,0.751771934 C32.0794351,0.489682866 31.3895591,0.298834031 30.6830995,0.172851303 C30.2898849,0.101986018 29.8881943,0.0697404388 29.4887148,0.0442439343 C29.2193241,0.0277461961 28.9503019,0.0116234065 28.6812798,0 C29.2406985,0.089987663 29.6696598,0.578545683 29.6696598,1.17321416 C29.6696598,1.83162389 29.1456194,2.36517574 28.4984921,2.36517574 L19.4202838,2.36517574 C19.3900649,2.38992235 19.3583719,2.41316916 19.3285215,2.43791577 C18.6161655,2.90997605 17.8065193,3.6988679 17.0812651,4.74909891 L26.9131039,4.74909891 C27.5598627,4.74909891 28.0846402,5.28302571 28.0846402,5.94143545 C28.0846402,6.59984518 27.5598627,7.13339703 26.9131039,7.13339703 L15.8179664,7.13339703 C15.5305181,7.86604659 15.302402,8.6631873 15.1594149,9.51732021 L21.9284549,9.51732021 C22.5755822,9.51732021 23.1003596,10.0508721 23.1003596,10.7092818 C23.1003596,11.3676915 22.5755822,11.9012434 21.9284549,11.9012434 L15.0002128,11.9012434 C15.0009498,11.9192409 14.9994757,11.9361136 15.0002128,11.9533612 C15.0344855,12.8536128 15.1347239,13.6143835 15.2843444,14.2855415 L27.3243762,14.2855415 C27.9715035,14.2855415 28.496281,14.8190934 28.496281,15.4763782 C28.496281,16.1351629 27.9715035,16.6687148 27.3243762,16.6687148 L16.1481635,16.6687148 C16.5513282,17.4688551 17.0204587,18.2041293 17.4895891,19.0530129 L22.7240971,19.0530129 C23.3712244,19.0530129 23.8960019,19.5865647 23.8960019,20.2442246 C23.8960019,20.9030093 23.3712244,21.437311 22.7240971,21.437311 L18.5929485,21.437311 C18.5970023,21.4474346 18.601056,21.4575582 18.6051098,21.4676819 C18.9050879,22.2873195 19.0919294,23.0803358 19.2021179,23.8212342 L28.7100246,23.8212342 C29.3575204,23.8212342 29.8819294,24.3544111 29.8819294,25.0131958 C29.8819294,25.6712306 29.3575204,26.2055323 28.7100246,26.2055323 L19.3045674,26.2055323 C19.3041989,26.2115315 19.3041989,26.2182806 19.3038304,26.2242797 L19.3204139,26.2242797 C19.2515,27.6198384 18.9677369,28.5290888 18.945994,28.5973294 L23.8167694,28.5973294 C24.4638966,28.5973294 24.9883056,29.1305063 24.9883056,29.7896659 C24.9883056,30.4473258 24.4638966,30.9816275 23.8167694,30.9816275 L18.1315571,30.9816275 C18.1286089,30.9880016 18.1256607,30.9932509 18.1227125,31 L32.5994218,31 C32.6550688,30.6902925 32.7018713,30.3730859 32.7700482,30.0607538 C32.869918,29.6044413 32.8909239,29.1462541 32.8599679,28.6828177 C32.8338027,28.2962457 32.9963216,27.9985365 33.2701346,27.7409468 C33.8295533,27.214144 34.5301165,27.1429038 35.2369446,27.0930356 C35.8833348,27.0472919 36.5319362,27.0251699 37.1790635,26.981301 C37.5991803,26.9531798 38.0063988,26.8594427 38.3789761,26.6475967 C38.9877769,26.3003943 39.3684617,25.7900893 39.4712798,25.0739374 C39.5424048,24.5801301 39.4956023,24.0896974 39.3375057,23.6352597 C39.2162615,23.2869324 39.3157629,23.0315924 39.467226,22.7601297 C39.5357714,22.6367716 39.6363783,22.5321609 39.7167164,22.414802 C39.9820534,22.0293548 39.944464,21.6517816 39.6054223,21.3053291 C39.7233499,21.2074675 39.8364866,21.1036068 39.9569938,21.0113694 C40.2226992,20.8096471 40.3140931,20.5209366 40.3177783,20.2086045 C40.3188839,20.0631244 40.2315438,19.9172694 40.1899006,19.7699146 C40.1449408,19.6094366 40.0863455,19.4500835 40.0716046,19.285856 C40.0443338,18.9900215 40.148626,18.8756622 40.4334947,18.8104212 C40.814548,18.724183 41.1790177,18.5888265 41.4918942,18.3432352 C41.8320414,18.0773966 42.0708447,17.7526912 41.9809249,17.2858802 C41.950706,17.1314013 41.8921108,16.9720482 41.8077189,16.8408162" id="Fill-23"></path>
                    <path d="M16.8120329,29 L13.1879671,29 C12.5313901,29 12,29.4473105 12,30.0003146 C12,30.5520604 12.5313901,31 13.1879671,31 L16.8120329,31 C17.4682362,31 18,30.5520604 18,30.0003146 C18,29.4473105 17.4682362,29 16.8120329,29" id="Fill-24"></path>
                    <path d="M9.83338687,29 L4.16698022,29 C3.52236957,29 3,29.4473105 3,30.0003146 C3,30.5520604 3.52236957,31 4.16698022,31 L9.83338687,31 C10.4779975,31 11,30.5520604 11,30.0003146 C11,29.4473105 10.4779975,29 9.83338687,29" id="Fill-25"></path>
                </g>
            </g>
        </g>
    </g>
</svg>