<svg width="135" height="75" viewBox="0 0 135 75" fill="none" xmlns="http://www.w3.org/2000/svg">
<path d="M29.5762 21.7941C29.3574 21.0337 29.0501 20.3618 28.6543 19.7784C28.2585 19.1847 27.7741 18.6847 27.2012 18.2784C26.6387 17.8618 25.9928 17.5441 25.2637 17.3253C24.5449 17.1066 23.748 16.9972 22.873 16.9972C21.2376 16.9972 19.8001 17.4034 18.5605 18.2159C17.3314 19.0284 16.373 20.2107 15.6855 21.7628C14.998 23.3045 14.6543 25.1899 14.6543 27.4191C14.6543 29.6482 14.9928 31.5441 15.6699 33.1066C16.347 34.6691 17.3053 35.8618 18.5449 36.6847C19.7845 37.4972 21.248 37.9034 22.9355 37.9034C24.4668 37.9034 25.7741 37.6326 26.8574 37.0909C27.9512 36.5389 28.7845 35.7628 29.3574 34.7628C29.9408 33.7628 30.2324 32.5805 30.2324 31.2159L31.6074 31.4191H23.3574V26.3253H36.748V30.3566C36.748 33.1691 36.1543 35.5857 34.9668 37.6066C33.7793 39.617 32.1439 41.1691 30.0605 42.2628C27.9772 43.3462 25.5918 43.8878 22.9043 43.8878C19.9043 43.8878 17.2689 43.2264 14.998 41.9034C12.7272 40.5701 10.9564 38.6795 9.68555 36.2316C8.42513 33.7732 7.79492 30.8566 7.79492 27.4816C7.79492 24.8878 8.16992 22.5753 8.91992 20.5441C9.68034 18.5024 10.7428 16.7732 12.1074 15.3566C13.472 13.9399 15.0605 12.8618 16.873 12.1222C18.6855 11.3826 20.6491 11.0128 22.7637 11.0128C24.5762 11.0128 26.2637 11.2784 27.8262 11.8097C29.3887 12.3305 30.7741 13.0701 31.9824 14.0284C33.2012 14.9868 34.196 16.1274 34.9668 17.4503C35.7376 18.7628 36.2324 20.2107 36.4512 21.7941H29.5762ZM53.1738 43.4503H41.8301V11.4503H53.2676C56.4863 11.4503 59.2572 12.0909 61.5801 13.3722C63.903 14.643 65.6895 16.4711 66.9395 18.8566C68.1999 21.242 68.8301 24.0962 68.8301 27.4191C68.8301 30.7524 68.1999 33.617 66.9395 36.0128C65.6895 38.4087 63.8926 40.2472 61.5488 41.5284C59.2155 42.8097 56.4238 43.4503 53.1738 43.4503ZM48.5957 37.6534H52.8926C54.8926 37.6534 56.5749 37.2993 57.9395 36.5909C59.3145 35.8722 60.3457 34.7628 61.0332 33.2628C61.7311 31.7524 62.0801 29.8045 62.0801 27.4191C62.0801 25.0545 61.7311 23.1222 61.0332 21.6222C60.3457 20.1222 59.3197 19.018 57.9551 18.3097C56.5905 17.6014 54.9082 17.2472 52.9082 17.2472H48.5957V37.6534ZM73.8418 43.4503V11.4503H86.4668C88.8939 11.4503 90.9616 11.9139 92.6699 12.8409C94.3783 13.7576 95.6803 15.0336 96.5762 16.6691C97.4824 18.2941 97.9355 20.1691 97.9355 22.2941C97.9355 24.4191 97.4772 26.2941 96.5605 27.9191C95.6439 29.5441 94.3158 30.8097 92.5762 31.7159C90.847 32.6222 88.7533 33.0753 86.2949 33.0753H78.248V27.6534H85.2012C86.5033 27.6534 87.5762 27.4295 88.4199 26.9816C89.2741 26.5232 89.9095 25.893 90.3262 25.0909C90.7533 24.2784 90.9668 23.3462 90.9668 22.2941C90.9668 21.2316 90.7533 20.3045 90.3262 19.5128C89.9095 18.7107 89.2741 18.0909 88.4199 17.6534C87.5658 17.2055 86.4824 16.9816 85.1699 16.9816H80.6074V43.4503H73.8418ZM102.33 43.4503V11.4503H114.955C117.372 11.4503 119.434 11.8826 121.143 12.7472C122.861 13.6014 124.169 14.8149 125.064 16.3878C125.971 17.9503 126.424 19.7889 126.424 21.9034C126.424 24.0284 125.965 25.8566 125.049 27.3878C124.132 28.9086 122.804 30.0753 121.064 30.8878C119.335 31.7003 117.242 32.1066 114.783 32.1066H106.33V26.6691H113.689C114.981 26.6691 116.054 26.492 116.908 26.1378C117.762 25.7837 118.398 25.2524 118.814 24.5441C119.242 23.8357 119.455 22.9555 119.455 21.9034C119.455 20.8409 119.242 19.9451 118.814 19.2159C118.398 18.4868 117.757 17.9347 116.893 17.5597C116.038 17.1743 114.96 16.9816 113.658 16.9816H109.096V43.4503H102.33ZM119.611 28.8878L127.564 43.4503H120.096L112.314 28.8878H119.611Z" fill="#0D0F17"/>
<path d="M19.786 58.0965H17.9448C17.8359 57.5669 17.6454 57.1017 17.3732 56.7008C17.1059 56.2999 16.7792 55.9633 16.3932 55.6911C16.0121 55.4139 15.5889 55.206 15.1237 55.0675C14.6584 54.9289 14.1734 54.8596 13.6685 54.8596C12.7479 54.8596 11.914 55.0922 11.1666 55.5574C10.4242 56.0227 9.83273 56.7082 9.39223 57.6139C8.95668 58.5197 8.73891 59.6308 8.73891 60.9474C8.73891 62.2639 8.95668 63.3751 9.39223 64.2808C9.83273 65.1865 10.4242 65.872 11.1666 66.3373C11.914 66.8025 12.7479 67.0352 13.6685 67.0352C14.1734 67.0352 14.6584 66.9659 15.1237 66.8273C15.5889 66.6887 16.0121 66.4833 16.3932 66.2111C16.7792 65.9339 17.1059 65.5949 17.3732 65.194C17.6454 64.7881 17.8359 64.3229 17.9448 63.7982H19.786C19.6474 64.5753 19.395 65.2707 19.0288 65.8844C18.6625 66.4981 18.2072 67.0203 17.6627 67.4509C17.1183 67.8766 16.507 68.2007 15.829 68.4235C15.1558 68.6462 14.4357 68.7576 13.6685 68.7576C12.3718 68.7576 11.2186 68.4408 10.2089 67.8073C9.1992 67.1737 8.40482 66.2729 7.82574 65.1049C7.24665 63.9368 6.95711 62.551 6.95711 60.9474C6.95711 59.3438 7.24665 57.9579 7.82574 56.7899C8.40482 55.6218 9.1992 54.721 10.2089 54.0875C11.2186 53.4539 12.3718 53.1372 13.6685 53.1372C14.4357 53.1372 15.1558 53.2485 15.829 53.4713C16.507 53.694 17.1183 54.0207 17.6627 54.4513C18.2072 54.8769 18.6625 55.3966 19.0288 56.0103C19.395 56.6191 19.6474 57.3145 19.786 58.0965ZM35.5901 60.9474C35.5901 62.551 35.3006 63.9368 34.7215 65.1049C34.1424 66.2729 33.3481 67.1737 32.3384 67.8073C31.3287 68.4408 30.1755 68.7576 28.8787 68.7576C27.582 68.7576 26.4288 68.4408 25.4191 67.8073C24.4094 67.1737 23.615 66.2729 23.0359 65.1049C22.4568 63.9368 22.1673 62.551 22.1673 60.9474C22.1673 59.3438 22.4568 57.9579 23.0359 56.7899C23.615 55.6218 24.4094 54.721 25.4191 54.0875C26.4288 53.4539 27.582 53.1372 28.8787 53.1372C30.1755 53.1372 31.3287 53.4539 32.3384 54.0875C33.3481 54.721 34.1424 55.6218 34.7215 56.7899C35.3006 57.9579 35.5901 59.3438 35.5901 60.9474ZM33.8084 60.9474C33.8084 59.6308 33.5881 58.5197 33.1476 57.6139C32.7121 56.7082 32.1206 56.0227 31.3732 55.5574C30.6308 55.0922 29.7993 54.8596 28.8787 54.8596C27.9581 54.8596 27.1242 55.0922 26.3768 55.5574C25.6344 56.0227 25.0429 56.7082 24.6024 57.6139C24.1669 58.5197 23.9491 59.6308 23.9491 60.9474C23.9491 62.2639 24.1669 63.3751 24.6024 64.2808C25.0429 65.1865 25.6344 65.872 26.3768 66.3373C27.1242 66.8025 27.9581 67.0352 28.8787 67.0352C29.7993 67.0352 30.6308 66.8025 31.3732 66.3373C32.1206 65.872 32.7121 65.1865 33.1476 64.2808C33.5881 63.3751 33.8084 62.2639 33.8084 60.9474ZM38.686 53.3451H40.8836L46.0507 65.9661H46.2289L51.3961 53.3451H53.5937V68.5497H51.8713V56.9977H51.7228L46.9713 68.5497H45.3083L40.5569 56.9977H40.4084V68.5497H38.686V53.3451ZM57.2853 68.5497V53.3451H62.4228C63.6156 53.3451 64.5907 53.5604 65.3479 53.991C66.1101 54.4166 66.6744 54.9932 67.0406 55.7208C67.4069 56.4483 67.59 57.26 67.59 58.1559C67.59 59.0517 67.4069 59.8659 67.0406 60.5984C66.6793 61.3309 66.12 61.915 65.3628 62.3505C64.6055 62.7811 63.6354 62.9964 62.4525 62.9964H58.7701V61.3631H62.3931C63.2098 61.3631 63.8656 61.2221 64.3605 60.9399C64.8555 60.6578 65.2143 60.2767 65.437 59.7966C65.6647 59.3116 65.7785 58.7647 65.7785 58.1559C65.7785 57.5471 65.6647 57.0027 65.437 56.5226C65.2143 56.0425 64.853 55.6663 64.3531 55.3941C63.8532 55.1169 63.19 54.9784 62.3634 54.9784H59.1265V68.5497H57.2853ZM70.556 68.5497V53.3451H72.3971V66.9164H79.4649V68.5497H70.556ZM84.157 53.3451V68.5497H82.3158V53.3451H84.157ZM88.4722 68.5497H86.542L92.1249 53.3451H94.0255L99.6084 68.5497H97.6782L93.1346 55.7505H93.0158L88.4722 68.5497ZM89.185 62.6104H96.9655V64.2437H89.185V62.6104ZM114.034 53.3451V68.5497H112.252L103.966 56.6117H103.818V68.5497H101.977V53.3451H103.759L112.074 65.3128H112.222V53.3451H114.034ZM116.886 54.9784V53.3451H128.29V54.9784H123.509V68.5497H121.667V54.9784H116.886Z" fill="#0D0F17"/>
</svg>
