<svg width="69" height="69" viewBox="0 0 69 69" fill="none" xmlns="http://www.w3.org/2000/svg">
<path d="M34.5211 0.000244141L35.6386 3.61801H39.2564L36.3293 5.85436L37.4469 9.47212L34.5198 7.23578L31.5934 9.47212L32.7116 5.85436L29.7852 3.61801H33.4029L34.5211 0.000244141Z" fill="#0099A5"/>
<path d="M34.5211 59.5353L35.6386 63.1543H39.2564L36.3293 65.3907L37.4469 69.0078L34.5198 66.7714L31.5934 69.0078L32.7116 65.3907L29.7852 63.1543H33.4029L34.5211 59.5353Z" fill="#0099A5"/>
<path d="M49.3922 5.41235L50.5097 9.03012H54.1281L51.2011 11.2665L52.3192 14.8836L49.3928 12.6472L46.4658 14.8836L47.5827 11.2671L44.6562 9.03012H48.2747L49.3922 5.41235Z" fill="#0099A5"/>
<path d="M61.426 44.3589L62.5429 47.9779H66.1607L63.2336 50.2143L64.3524 53.8308L61.4254 51.5944L58.4983 53.8308L59.6165 50.2143L56.6895 47.9779H60.3079L61.426 44.3589Z" fill="#0099A5"/>
<path d="M64.2643 29.7703L65.3818 33.388H69.0002L66.0731 35.6244L67.1913 39.2428L64.2649 37.0064L61.3378 39.2428L62.456 35.6237L59.5283 33.388H63.1454L64.2643 29.7703Z" fill="#0099A5"/>
<path d="M4.73658 29.7703L5.85411 33.388H9.47188L6.54482 35.6244L7.66363 39.2428L4.73722 37.0064L1.80952 39.2428L2.92769 35.6244L0 33.388H3.61841L4.73658 29.7703Z" fill="#0099A5"/>
<path d="M7.18287 44.3589L8.3004 47.9779H11.9182L8.99175 50.2143L10.1086 53.8308L7.18287 51.5944L4.25581 53.8308L5.37398 50.2143L2.44629 47.9779H6.06469L7.18287 44.3589Z" fill="#0099A5"/>
<path d="M61.426 14.7869L62.5429 18.4059H66.1607L63.2336 20.6423L64.3524 24.2587L61.4254 22.0224L58.4983 24.2587L59.6165 20.6423L56.6895 18.4059H60.3079L61.426 14.7869Z" fill="#0099A5"/>
<path d="M8.45338 14.7869L9.57091 18.4059H13.1887L10.2623 20.6423L11.3792 24.2587L8.45338 22.0224L5.52632 24.2587L6.64449 20.6423L3.7168 18.4059H7.3352L8.45338 14.7869Z" fill="#0099A5"/>
<path d="M52.0846 56.8284L53.2021 60.4455H56.8205L53.8928 62.6818L55.0116 66.299L52.0852 64.0626L49.1575 66.299L50.2757 62.6825L47.3486 60.4455H50.967L52.0846 56.8284Z" fill="#0099A5"/>
<path d="M19.607 5.41235L20.7239 9.03012H24.3423L21.4153 11.2665L22.5341 14.8836L19.607 12.6472L16.6806 14.8836L17.7988 11.2665L14.8711 9.03012H18.4889L19.607 5.41235Z" fill="#0099A5"/>
<path d="M16.915 56.8284L18.0332 60.4474H21.6516L18.7245 62.6838L19.8427 66.3015L16.9156 64.0652L13.9892 66.3015L15.1074 62.6838L12.1797 60.4474H15.7968L16.915 56.8284Z" fill="#0099A5"/>
<path d="M44.1179 33.5428H24.9492V46.9609H44.1179V33.5428Z" fill="#0099A5"/>
<path d="M29.2525 36.8957H26.8564V30.1866C26.8565 28.6702 27.3062 27.1879 28.1488 25.927C28.9913 24.6662 30.1887 23.6835 31.5897 23.1032C32.9907 22.5229 34.5324 22.371 36.0197 22.6668C37.507 22.9627 38.8731 23.6929 39.9454 24.7651C40.6597 25.4754 41.2259 26.3203 41.6114 27.2509C41.9969 28.1815 42.1941 29.1794 42.1914 30.1866V36.8957H39.7953V30.1866C39.7953 28.7886 39.2399 27.4478 38.2513 26.4592C37.2628 25.4706 35.922 24.9153 34.5239 24.9153C33.1259 24.9153 31.7851 25.4706 30.7965 26.4592C29.8079 27.4478 29.2525 28.7886 29.2525 30.1866V36.8957Z" fill="#0099A5"/>
</svg>
