<svg width="30" height="29" viewBox="0 0 30 29" fill="none" xmlns="http://www.w3.org/2000/svg">
<g id="Frame" clip-path="url(#clip0_407_548)">
<path id="Vector" d="M29.7919 14.8258C29.7905 13.9068 29.712 12.9894 29.5573 12.0829H15.6067V17.5325H23.5943C23.4188 18.41 23.0664 19.2445 22.5577 19.9873C22.0489 20.73 21.3941 21.3661 20.6314 21.8583V25.4833H25.3968C26.8491 24.1057 27.9906 22.4457 28.7475 20.6101C29.5045 18.7745 29.8603 16.8041 29.7919 14.8258Z" fill="#4285F4"/>
<path id="Vector_2" d="M15.607 28.9985C19.2094 29.093 22.7122 27.8349 25.3971 25.4823L20.6317 21.8573C19.1368 22.8039 17.3872 23.292 15.607 23.259C13.7491 23.2344 11.9463 22.6374 10.4547 21.5529C8.96317 20.4683 7.85876 18.9512 7.29838 17.2173H2.36011V20.951C3.58567 23.365 5.47447 25.3968 7.81445 26.8183C10.1544 28.2399 12.8529 28.9949 15.607 28.9985Z" fill="#34A853"/>
<path id="Vector_3" d="M7.29876 17.2656C6.67324 15.4717 6.67324 13.5254 7.29876 11.7314V7.99768H2.36049C1.31324 10.0114 0.767334 12.2389 0.767334 14.4985C0.767334 16.7581 1.31324 18.9856 2.36049 20.9993L7.29876 17.2656Z" fill="#FBBC05"/>
<path id="Vector_4" d="M15.6075 5.73772C17.7189 5.70435 19.7589 6.48566 21.2865 7.91272L25.5087 3.78022C22.8414 1.31492 19.3006 -0.0409735 15.6322 -0.00186235C12.8833 -0.00267003 10.1884 0.745096 7.84889 2.15779C5.50943 3.57048 3.61767 5.59238 2.38525 7.9973L7.32352 11.7311C7.89108 10.01 8.99541 8.50625 10.4813 7.43123C11.9672 6.35621 13.7599 5.76396 15.6075 5.73772Z" fill="#EA4335"/>
</g>
<defs>
<clipPath id="clip0_407_548">
<rect width="29" height="29" fill="white" transform="translate(0.79248)"/>
</clipPath>
</defs>
</svg>
