<svg width="65" height="65" viewBox="0 0 65 65" fill="none" xmlns="http://www.w3.org/2000/svg">
<rect width="65" height="65" rx="11" fill="#202435"/>
<path fill-rule="evenodd" clip-rule="evenodd" d="M30.6156 36.6748L27.6546 33.7138L25.4919 35.8765L30.6156 41.0001L32.7782 38.8374L39.4529 32.1627L37.2903 30.0001L30.6156 36.6748Z" fill="#62FCC1"/>
<path d="M46.45 17H18.55C17.6199 17 17 17.6199 17 18.55V46.45C17 47.225 17.6199 48 18.55 48H46.45C47.225 48 48 47.225 48 46.45V18.55C48 17.6199 47.225 17 46.45 17ZM44.9 44.9H20.1V26.3H44.9V44.9Z" fill="#62FCC1"/>
<circle cx="21.9999" cy="21.9999" r="2" fill="#202435"/>
<circle cx="28" cy="21.9999" r="2" fill="#202435"/>
<circle cx="34" cy="21.9999" r="2" fill="#202435"/>
</svg>
