<svg width="57" height="51" viewBox="0 0 57 51" fill="none" xmlns="http://www.w3.org/2000/svg">
<g clip-path="url(#clip0_1_316)">
<path d="M28.5275 10.837L49.2902 25.5228C49.4499 25.6358 49.5454 25.8194 49.5454 26.0151V50.3969C49.5454 50.73 49.2755 50.9999 48.9424 50.9999H34.8258C34.4927 50.9999 34.2228 50.73 34.2228 50.3969V37.3172H22.137V50.3969C22.137 50.73 21.867 50.9999 21.5339 50.9999H7.41662C7.08353 50.9999 6.81357 50.73 6.81357 50.3969V26.0153C6.81357 25.8196 6.90839 25.636 7.06829 25.523L27.831 10.837C28.0398 10.6895 28.3187 10.6895 28.5275 10.837Z" fill="#62FCC1"/>
<path d="M55.1354 18.4146L46.1614 12.0674V3.70228C46.1614 3.24291 45.7889 2.87039 45.3292 2.87039H40.3103C39.8509 2.87039 39.4787 3.24291 39.4787 3.70228V7.34046L29.8525 0.531941C28.8505 -0.176825 27.5087 -0.176825 26.507 0.531941L1.22388 18.4146C-0.0826233 19.3384 -0.392255 21.1467 0.53156 22.4527C1.45659 23.7601 3.26406 24.0676 4.56959 23.145L28.1797 6.44518L51.7897 23.145C52.2979 23.5044 52.8811 23.6767 53.4605 23.6767C54.3688 23.6767 55.2629 23.2507 55.8277 22.4524C56.7515 21.1464 56.4419 19.3382 55.1354 18.4144V18.4146Z" fill="#62FCC1"/>
</g>
<defs>
<clipPath id="clip0_1_316">
<rect width="56.3603" height="51" fill="white"/>
</clipPath>
</defs>
</svg>
