<svg width="26" height="28" viewBox="0 0 26 28" fill="none" xmlns="http://www.w3.org/2000/svg">
<path fill-rule="evenodd" clip-rule="evenodd" d="M19.1947 3.12027C20.9088 4.77558 22 7.21725 22 10.3581C22 13.6899 20.5165 16.575 18.8524 18.7694L18.7885 18.8538C18.0409 19.8399 17.3599 20.7386 16.5052 21.3559C15.5599 22.0387 14.4753 22.3387 13.0003 22.3387C11.5252 22.3387 10.4405 22.0389 9.49519 21.3561C8.64059 20.7387 7.95937 19.8401 7.21183 18.8541L7.14787 18.7697C5.48363 16.5751 4 13.6901 4 10.3581C4 7.21724 5.09125 4.77555 6.80533 3.12024C8.50735 1.4766 10.7633 0.666748 13 0.666748C15.2367 0.666748 17.4927 1.47663 19.1947 3.12027ZM4.58383 19.7301C4.80392 20.2366 4.57172 20.8257 4.06519 21.0457C3.29497 21.3804 2.74677 21.7333 2.40613 22.0655C2.06824 22.395 2 22.6349 2 22.7808C2 22.9483 2.09413 23.2483 2.58228 23.6541C3.06447 24.055 3.82217 24.4607 4.84641 24.8209C6.8858 25.538 9.76848 26.0001 13 26.0001C16.2315 26.0001 19.1141 25.538 21.1536 24.8209C22.1779 24.4607 22.9355 24.055 23.4177 23.6541C23.9059 23.2483 24 22.9483 24 22.7808C24 22.6349 23.9317 22.395 23.5939 22.0655C23.2532 21.7333 22.7051 21.3804 21.9348 21.0457C21.4283 20.8257 21.1961 20.2366 21.4161 19.7301C21.6363 19.2235 22.2253 18.9913 22.7319 19.2114C23.6293 19.6014 24.4145 20.0722 24.9903 20.6337C25.5688 21.198 26 21.9219 26 22.7808C26 23.7783 25.4225 24.5883 24.6963 25.1921C23.964 25.8009 22.9643 26.3042 21.8169 26.7077C19.5132 27.5177 16.3959 28.0001 13 28.0001C9.60411 28.0001 6.48677 27.5177 4.18301 26.7077C3.03569 26.3042 2.03604 25.8009 1.30376 25.1921C0.57744 24.5883 0 23.7783 0 22.7808C0 21.9219 0.431227 21.198 1.00973 20.6337C1.58549 20.0722 2.37063 19.6014 3.26815 19.2114C3.77468 18.9913 4.36373 19.2235 4.58383 19.7301ZM15.6667 9.66675C15.6667 11.1395 14.4728 12.3334 13 12.3334C11.5272 12.3334 10.3333 11.1395 10.3333 9.66675C10.3333 8.19399 11.5272 7.00008 13 7.00008C14.4728 7.00008 15.6667 8.19399 15.6667 9.66675Z" fill="#62FCC1"/>
</svg>
