<svg width="98" height="20" viewBox="0 0 98 20" fill="none" xmlns="http://www.w3.org/2000/svg">
<mask id="mask0_2322_1049" style="mask-type:luminance" maskUnits="userSpaceOnUse" x="7" y="2" width="83" height="17">
<path d="M90 2H7V18.21H90V2Z" fill="white"/>
</mask>
<g mask="url(#mask0_2322_1049)">
<path d="M35.7941 15.1377V3.47992H37.9363V15.1377H35.7941Z" fill="white"/>
<path d="M39.8885 15.1377V3.47992H44.4892C45.4233 3.47992 46.2013 3.66547 46.8212 4.03867C47.4411 4.41186 47.905 4.8947 48.2149 5.48718C48.5249 6.08177 48.6788 6.69744 48.6788 7.33842C48.6788 7.97938 48.5249 8.59716 48.2149 9.18968C47.905 9.78215 47.4411 10.2692 46.8212 10.6466C46.2013 11.024 45.4233 11.2138 44.4892 11.2138H42.0308V15.1355H39.8885V15.1377ZM44.4724 5.33959H42.0308V9.35625H44.4724C44.9341 9.35625 45.3179 9.25924 45.6215 9.06528C45.9251 8.87127 46.1549 8.61828 46.3068 8.30832C46.4586 7.99837 46.5345 7.68001 46.5345 7.35528C46.5345 7.03059 46.4586 6.69956 46.3068 6.39383C46.1549 6.09021 45.9251 5.83719 45.6215 5.63689C45.3158 5.43658 44.9341 5.33748 44.4724 5.33748V5.33959Z" fill="white"/>
<path d="M50.0801 15.1377V3.47992H54.6175C55.4567 3.47992 56.1735 3.63594 56.7681 3.94378C57.3606 4.25373 57.8139 4.67331 58.1239 5.20465C58.4338 5.73598 58.5877 6.33057 58.5877 6.99263C58.5877 7.73905 58.3874 8.4032 57.9889 8.98514C57.5904 9.56707 57.0127 9.99089 56.2558 10.2523L58.9336 15.1355H56.5552L54.0651 10.5033H52.2223V15.1355H50.0801V15.1377ZM54.5859 5.33959H52.2223V8.75741H54.5859C55.1847 8.75741 55.6422 8.58663 55.9564 8.24509C56.2705 7.90349 56.4287 7.50286 56.4287 7.03902C56.4287 6.57515 56.2705 6.17876 55.9564 5.8414C55.6422 5.50616 55.1847 5.33748 54.5859 5.33748V5.33959Z" fill="white"/>
<path d="M63.9612 15.2958C63.0482 15.2958 62.2701 15.0913 61.6295 14.6822C60.9883 14.2732 60.5032 13.7397 60.1723 13.084C59.8413 12.4283 59.6769 11.7219 59.6769 10.965C59.6769 10.2081 59.8413 9.50169 60.1723 8.84599C60.5032 8.19023 60.9883 7.6568 61.6295 7.24777C62.2701 6.83871 63.0482 6.63419 63.9612 6.63419C64.8742 6.63419 65.6648 6.83871 66.2998 7.24777C66.9342 7.6568 67.4172 8.19023 67.7481 8.84599C68.0791 9.50169 68.2435 10.2081 68.2435 10.965C68.2435 11.7219 68.0791 12.4283 67.7481 13.084C67.4172 13.7397 66.9342 14.2732 66.2998 14.6822C65.6648 15.0913 64.8846 15.2958 63.9612 15.2958ZM63.9612 13.5479C64.4333 13.5479 64.8301 13.4277 65.1502 13.1852C65.4708 12.9428 65.7157 12.6265 65.8822 12.2322C66.0508 11.8379 66.1353 11.4162 66.1353 10.965C66.1353 10.5138 66.0508 10.0773 65.8822 9.68937C65.7136 9.3014 65.4708 8.98511 65.1502 8.74478C64.8301 8.50231 64.4333 8.38212 63.9612 8.38212C63.4892 8.38212 63.1053 8.50231 62.7806 8.74478C62.4537 8.98724 62.2068 9.3014 62.0403 9.68937C61.8717 10.0773 61.7872 10.5032 61.7872 10.965C61.7872 11.4268 61.8717 11.84 62.0403 12.2322C62.2089 12.6265 62.4558 12.9448 62.7806 13.1852C63.1053 13.4277 63.4996 13.5479 63.9612 13.5479Z" fill="white"/>
<path d="M69.8356 18.2097C69.5617 18.2097 69.2536 18.1886 68.906 18.1464V16.4301C69.2198 16.4617 69.4834 16.4765 69.6945 16.4765C70.2298 16.4765 70.6729 16.3901 71.0246 16.2172C71.3768 16.0443 71.674 15.7217 71.9147 15.2494L68.7794 6.79019H70.9068L73.0026 12.7445L75.0667 6.79019H77.1941L74.1391 14.9352C73.7195 16.0485 73.1774 16.8729 72.5155 17.4084C71.8535 17.944 70.9618 18.2118 69.8377 18.2118L69.8356 18.2097Z" fill="white"/>
<path d="M81.3379 6.63013C81.8738 6.63013 82.3142 6.71658 82.6623 6.88947C83.0078 7.06236 83.2822 7.25212 83.4804 7.45666C83.6806 7.66115 83.8155 7.82772 83.8891 7.95212H83.9841V6.78616H86.0798V15.1378H83.9841V13.9719H83.8891C83.8155 14.0983 83.6785 14.2649 83.4804 14.4758C83.2801 14.6866 83.0078 14.8743 82.6623 15.0429C82.3163 15.2116 81.8738 15.296 81.3379 15.296C80.718 15.296 80.1785 15.1716 79.7148 14.9248C79.2531 14.6782 78.8671 14.3471 78.5569 13.9318C78.2472 13.5164 78.0153 13.0525 77.8633 12.5381C77.7114 12.0236 77.6356 11.4986 77.6356 10.963C77.6356 10.4275 77.7114 9.90246 77.8633 9.38802C78.0153 8.87352 78.2472 8.40966 78.5569 7.99429C78.8671 7.57893 79.2531 7.24792 79.7148 7.00122C80.1765 6.75453 80.718 6.63013 81.3379 6.63013ZM81.8904 8.34642C81.4183 8.34642 81.022 8.47502 80.7014 8.73227C80.3808 8.98952 80.1427 9.3184 79.9845 9.71691C79.8263 10.1154 79.7485 10.5308 79.7485 10.9609C79.7485 11.3911 79.8263 11.8064 79.9845 12.2049C80.1427 12.6034 80.3808 12.9323 80.7014 13.1896C81.022 13.4468 81.4183 13.5754 81.8904 13.5754C82.363 13.5754 82.7572 13.4468 83.0711 13.1896C83.3854 12.9323 83.6215 12.6034 83.7797 12.2049C83.9379 11.8064 84.0157 11.3911 84.0157 10.9609C84.0157 10.5308 83.9379 10.1154 83.7797 9.71691C83.6215 9.3184 83.3854 8.98952 83.0711 8.73227C82.7552 8.47502 82.363 8.34642 81.8904 8.34642Z" fill="white"/>
<path d="M87.9083 15.1377L87.9249 3.16583H90.0041V15.1377H87.9083Z" fill="white"/>
<path d="M18.7002 15.138L26.6534 4.45433C26.8853 4.14228 27.3787 4.30674 27.3787 4.6947V15.138H18.7002Z" fill="#27D9E5" fill-opacity="0.65"/>
<path d="M15.6785 15.138L7.72532 4.45433C7.49338 4.14228 7 4.30674 7 4.6947V15.138H15.6785Z" fill="#27D9E5" fill-opacity="0.65"/>
<path d="M17.1902 13.116L18.6957 15.1381H27.3805L17.8354 2.32488C17.5128 1.89264 16.8655 1.89264 16.5429 2.32488L7 15.1381H15.6848L17.1902 13.116Z" fill="#27D9E5" fill-opacity="0.9"/>
</g>
</svg>
