<svg width="98" height="20" viewBox="0 0 98 20" fill="none" xmlns="http://www.w3.org/2000/svg">
<mask id="mask0_2322_2117" style="mask-type:luminance" maskUnits="userSpaceOnUse" x="7" y="2" width="83" height="17">
<path d="M90 2H7V18.21H90V2Z" fill="white"/>
</mask>
<g mask="url(#mask0_2322_2117)">
<path d="M35.7942 15.1377V3.47992H37.9364V15.1377H35.7942Z" fill="#001A52"/>
<path d="M39.8884 15.1377V3.47992H44.4891C45.4232 3.47992 46.2012 3.66547 46.8211 4.03867C47.441 4.41186 47.9049 4.8947 48.2148 5.48718C48.5247 6.08177 48.6786 6.69744 48.6786 7.33842C48.6786 7.97938 48.5247 8.59716 48.2148 9.18968C47.9049 9.78215 47.441 10.2692 46.8211 10.6466C46.2012 11.024 45.4232 11.2138 44.4891 11.2138H42.0307V15.1355H39.8884V15.1377ZM44.4723 5.33959H42.0307V9.35625H44.4723C44.934 9.35625 45.3178 9.25924 45.6214 9.06528C45.925 8.87127 46.1548 8.61828 46.3067 8.30832C46.4584 7.99837 46.5343 7.68001 46.5343 7.35528C46.5343 7.03059 46.4584 6.69956 46.3067 6.39383C46.1548 6.09021 45.925 5.83719 45.6214 5.63689C45.3156 5.43658 44.934 5.33748 44.4723 5.33748V5.33959Z" fill="#001A52"/>
<path d="M50.0801 15.1377V3.47992H54.6175C55.4567 3.47992 56.1735 3.63594 56.7681 3.94378C57.3606 4.25373 57.8139 4.67331 58.1239 5.20465C58.4338 5.73598 58.5877 6.33057 58.5877 6.99263C58.5877 7.73905 58.3874 8.4032 57.9889 8.98514C57.5904 9.56707 57.0127 9.99089 56.2558 10.2523L58.9336 15.1355H56.5552L54.0651 10.5033H52.2223V15.1355H50.0801V15.1377ZM54.5859 5.33959H52.2223V8.75741H54.5859C55.1847 8.75741 55.6422 8.58663 55.9564 8.24509C56.2705 7.90349 56.4287 7.50286 56.4287 7.03902C56.4287 6.57515 56.2705 6.17876 55.9564 5.8414C55.6422 5.50616 55.1847 5.33748 54.5859 5.33748V5.33959Z" fill="#001A52"/>
<path d="M63.9614 15.2958C63.0484 15.2958 62.2702 15.0913 61.6296 14.6822C60.9884 14.2732 60.5034 13.7397 60.1724 13.084C59.8414 12.4283 59.677 11.7219 59.677 10.965C59.677 10.2081 59.8414 9.50169 60.1724 8.84599C60.5034 8.19023 60.9884 7.6568 61.6296 7.24777C62.2702 6.83871 63.0484 6.63419 63.9614 6.63419C64.8744 6.63419 65.6649 6.83871 66.2999 7.24777C66.9343 7.6568 67.4173 8.19023 67.7482 8.84599C68.0792 9.50169 68.2436 10.2081 68.2436 10.965C68.2436 11.7219 68.0792 12.4283 67.7482 13.084C67.4173 13.7397 66.9343 14.2732 66.2999 14.6822C65.6649 15.0913 64.8847 15.2958 63.9614 15.2958ZM63.9614 13.5479C64.4334 13.5479 64.8303 13.4277 65.1503 13.1852C65.4709 12.9428 65.7158 12.6265 65.8823 12.2322C66.0509 11.8379 66.1354 11.4162 66.1354 10.965C66.1354 10.5138 66.0509 10.0773 65.8823 9.68937C65.7137 9.3014 65.4709 8.98511 65.1503 8.74478C64.8303 8.50231 64.4334 8.38212 63.9614 8.38212C63.4893 8.38212 63.1054 8.50231 62.7807 8.74478C62.4539 8.98724 62.2069 9.3014 62.0404 9.68937C61.8718 10.0773 61.7873 10.5032 61.7873 10.965C61.7873 11.4268 61.8718 11.84 62.0404 12.2322C62.209 12.6265 62.4559 12.9448 62.7807 13.1852C63.1054 13.4277 63.4997 13.5479 63.9614 13.5479Z" fill="#001A52"/>
<path d="M69.8355 18.2097C69.5616 18.2097 69.2534 18.1886 68.9059 18.1464V16.4301C69.2197 16.4617 69.4832 16.4765 69.6944 16.4765C70.2297 16.4765 70.6727 16.3901 71.0244 16.2172C71.3767 16.0443 71.6739 15.7217 71.9146 15.2494L68.7793 6.79019H70.9067L73.0024 12.7445L75.0665 6.79019H77.1939L74.139 14.9352C73.7193 16.0485 73.1773 16.8729 72.5153 17.4084C71.8534 17.944 70.9617 18.2118 69.8375 18.2118L69.8355 18.2097Z" fill="#001A52"/>
<path d="M81.3381 6.63013C81.8739 6.63013 82.3143 6.71658 82.6624 6.88947C83.0079 7.06236 83.2823 7.25212 83.4805 7.45666C83.6807 7.66115 83.8156 7.82772 83.8893 7.95212H83.9842V6.78616H86.08V15.1378H83.9842V13.9719H83.8893C83.8156 14.0983 83.6787 14.2649 83.4805 14.4758C83.2803 14.6866 83.0079 14.8743 82.6624 15.0429C82.3164 15.2116 81.8739 15.296 81.3381 15.296C80.7182 15.296 80.1787 15.1716 79.7149 14.9248C79.2532 14.6782 78.8673 14.3471 78.557 13.9318C78.2473 13.5164 78.0155 13.0525 77.8635 12.5381C77.7115 12.0236 77.6357 11.4986 77.6357 10.963C77.6357 10.4275 77.7115 9.90246 77.8635 9.38802C78.0155 8.87352 78.2473 8.40966 78.557 7.99429C78.8673 7.57893 79.2532 7.24792 79.7149 7.00122C80.1766 6.75453 80.7182 6.63013 81.3381 6.63013ZM81.8905 8.34642C81.4185 8.34642 81.0221 8.47502 80.7016 8.73227C80.381 8.98952 80.1429 9.3184 79.9846 9.71691C79.8264 10.1154 79.7486 10.5308 79.7486 10.9609C79.7486 11.3911 79.8264 11.8064 79.9846 12.2049C80.1429 12.6034 80.381 12.9323 80.7016 13.1896C81.0221 13.4468 81.4185 13.5754 81.8905 13.5754C82.3631 13.5754 82.7574 13.4468 83.0712 13.1896C83.3856 12.9323 83.6216 12.6034 83.7798 12.2049C83.938 11.8064 84.0158 11.3911 84.0158 10.9609C84.0158 10.5308 83.938 10.1154 83.7798 9.71691C83.6216 9.3184 83.3856 8.98952 83.0712 8.73227C82.7553 8.47502 82.3631 8.34642 81.8905 8.34642Z" fill="#001A52"/>
<path d="M87.9082 15.1377L87.9248 3.16583H90.004V15.1377H87.9082Z" fill="#001A52"/>
<path d="M18.7002 15.138L26.6534 4.45433C26.8853 4.14228 27.3787 4.30674 27.3787 4.6947V15.138H18.7002Z" fill="#27D9E5" fill-opacity="0.65"/>
<path d="M15.6785 15.138L7.72532 4.45433C7.49338 4.14228 7 4.30674 7 4.6947V15.138H15.6785Z" fill="#27D9E5" fill-opacity="0.65"/>
<path d="M17.1902 13.116L18.6957 15.1381H27.3805L17.8354 2.32488C17.5128 1.89264 16.8655 1.89264 16.5429 2.32488L7 15.1381H15.6848L17.1902 13.116Z" fill="#27D9E5" fill-opacity="0.9"/>
</g>
</svg>
