<svg width="26" height="26" viewBox="0 0 26 26" fill="none" xmlns="http://www.w3.org/2000/svg">
<path fill-rule="evenodd" clip-rule="evenodd" d="M11.6135 2.66741C12.1221 2.18324 12.5891 2 13 2C13.4109 2 13.8779 2.18324 14.3865 2.66741C14.9005 3.15649 15.4088 3.91145 15.8575 4.92085C16.1199 5.51128 16.3551 6.17367 16.5567 6.89577C15.4235 6.74604 14.2296 6.66667 13 6.66667C11.7704 6.66667 10.5765 6.74604 9.44333 6.89577C9.64488 6.17367 9.88016 5.51128 10.1426 4.92085C10.5912 3.91145 11.0995 3.15649 11.6135 2.66741ZM7.28249 7.28249C7.55007 6.11551 7.89844 5.04573 8.31495 4.10859C8.53184 3.62057 8.77068 3.16073 9.03121 2.73775C6.14855 3.85333 3.85333 6.14855 2.73775 9.03121C3.16073 8.77068 3.62057 8.53184 4.10857 8.31495C5.04573 7.89844 6.11551 7.55007 7.28249 7.28249ZM2 13C2 13.0003 2 13.0005 2 13.0007C2.00021 13.4116 2.18352 13.8781 2.66741 14.3865C3.15649 14.9005 3.91145 15.4088 4.92085 15.8575C5.51128 16.1199 6.17367 16.3551 6.89577 16.5567C6.74604 15.4235 6.66667 14.2296 6.66667 13C6.66667 11.7704 6.74604 10.5765 6.89577 9.44333C6.17367 9.64488 5.51128 9.88016 4.92085 10.1426C3.91145 10.5912 3.15649 11.0995 2.66741 11.6135C2.18324 12.1221 2 12.5891 2 13ZM8.98537 17.0147C8.78055 15.7737 8.66667 14.4215 8.66667 13C8.66667 11.5785 8.78055 10.2262 8.98537 8.98537C10.2262 8.78055 11.5785 8.66667 13 8.66667C14.4215 8.66667 15.7737 8.78055 17.0147 8.98537C17.2195 10.2262 17.3333 11.5785 17.3333 13C17.3333 14.4215 17.2195 15.7737 17.0147 17.0147C15.7737 17.2195 14.4215 17.3333 13 17.3333C11.5785 17.3333 10.2262 17.2195 8.98537 17.0147ZM7.28249 18.7175C6.11551 18.45 5.04573 18.1016 4.10859 17.6851C3.62057 17.4681 3.16073 17.2293 2.73775 16.9688C3.85333 19.8515 6.14855 22.1467 9.03123 23.2623C8.77068 22.8393 8.53184 22.3795 8.31495 21.8915C7.89844 20.9543 7.55007 19.8845 7.28249 18.7175ZM9.44333 19.1043C10.5765 19.254 11.7704 19.3333 13 19.3333C14.2296 19.3333 15.4235 19.254 16.5567 19.1043C16.3551 19.8264 16.1199 20.4887 15.8575 21.0792C15.4088 22.0885 14.9005 22.8435 14.3865 23.3325C13.8779 23.8168 13.4109 24 13 24C12.5891 24 12.1221 23.8168 11.6135 23.3325C11.0995 22.8435 10.5912 22.0885 10.1426 21.0792C9.88016 20.4887 9.64488 19.8264 9.44333 19.1043ZM18.7175 18.7175C18.45 19.8845 18.1016 20.9543 17.6851 21.8915C17.4681 22.3795 17.2293 22.8393 16.9688 23.2623C19.8515 22.1467 22.1467 19.8515 23.2623 16.9688C22.8393 17.2293 22.3795 17.4681 21.8915 17.6851C20.9543 18.1016 19.8845 18.45 18.7175 18.7175ZM26 13C26 5.82029 20.1797 0 13 0C5.82029 0 0 5.82029 0 13C0 20.1797 5.82029 26 13 26C20.1797 26 26 20.1797 26 13ZM23.2623 9.03123C22.8393 8.77068 22.3795 8.53184 21.8915 8.31495C20.9543 7.89844 19.8845 7.55007 18.7175 7.28249C18.45 6.11551 18.1016 5.04573 17.6851 4.10859C17.4681 3.62057 17.2293 3.16073 16.9688 2.73775C19.8515 3.85333 22.1467 6.14855 23.2623 9.03123ZM19.1043 9.44333C19.8264 9.64488 20.4887 9.88016 21.0792 10.1426C22.0885 10.5912 22.8435 11.0995 23.3325 11.6135C23.8168 12.1221 24 12.5891 24 13C24 13.4109 23.8168 13.8779 23.3325 14.3865C22.8435 14.9005 22.0885 15.4088 21.0792 15.8575C20.4887 16.1199 19.8264 16.3551 19.1043 16.5567C19.254 15.4235 19.3333 14.2296 19.3333 13C19.3333 11.7704 19.254 10.5765 19.1043 9.44333Z" fill="#62FCC1"/>
</svg>
