<svg width="195" height="28" viewBox="0 0 195 28" fill="none" xmlns="http://www.w3.org/2000/svg">
<path d="M44.4248 20.2868C43.7226 20.2999 43.0213 20.2298 42.3355 20.0779C41.8339 19.9626 41.3694 19.7231 40.9845 19.3814C40.6425 19.0486 40.4012 18.6263 40.2881 18.1627C40.1357 17.5574 40.0654 16.9343 40.0791 16.3102V12.6888C40.0661 12.0671 40.1363 11.4464 40.2881 10.8433C40.4003 10.3774 40.6417 9.95257 40.9845 9.6176C41.3692 9.27567 41.8338 9.03616 42.3355 8.92117C43.0213 8.76953 43.7226 8.69941 44.4248 8.71225H48.8123C49.5284 8.69688 50.2438 8.76702 50.9433 8.92117C51.4475 9.03507 51.9147 9.27464 52.3013 9.6176C52.6441 9.95257 52.8855 10.3774 52.9978 10.8433C53.1495 11.4464 53.2198 12.0671 53.2067 12.6888V16.3102C53.2204 16.9343 53.1501 17.5574 52.9978 18.1627C52.8843 18.6261 52.643 19.0484 52.3013 19.3814C51.9145 19.7242 51.4474 19.9637 50.9433 20.0779C50.2438 20.2322 49.5284 20.3024 48.8123 20.2868H44.4248ZM50.6578 12.8211C50.6651 12.5191 50.6347 12.2173 50.5673 11.9228C50.5167 11.7054 50.4085 11.5057 50.2539 11.3447C50.0876 11.1875 49.8798 11.0811 49.6549 11.0383C49.3454 10.9769 49.0302 10.9489 48.7148 10.9547H44.5711C44.2394 10.9477 43.9079 10.9757 43.5821 11.0383C43.3573 11.0811 43.1495 11.1875 42.9832 11.3447C42.8288 11.5038 42.7246 11.7048 42.6838 11.9228C42.6275 12.2188 42.6018 12.5198 42.6071 12.8211V16.2266C42.602 16.5349 42.6276 16.8428 42.6838 17.1459C42.7217 17.3648 42.8263 17.5667 42.9832 17.724C43.1513 17.8746 43.3592 17.9737 43.5821 18.0095C43.9079 18.0733 44.2391 18.1059 44.5711 18.107H48.7496C49.0647 18.1119 49.3796 18.0862 49.6898 18.0304C49.9133 18.0006 50.1218 17.9012 50.2856 17.7462C50.4494 17.5911 50.5601 17.3884 50.6021 17.1668C50.6693 16.8652 50.6997 16.5565 50.6926 16.2475L50.6578 12.8211Z" fill="#0D0F17"/>
<path d="M59.4536 20.2868C58.7514 20.2999 58.0501 20.2298 57.3644 20.0779C56.8628 19.9626 56.3982 19.7231 56.0133 19.3814C55.6714 19.0486 55.43 18.6263 55.3169 18.1627C55.1645 17.5574 55.0942 16.9343 55.1079 16.3102V15.0845C55.0945 14.4582 55.1648 13.8328 55.3169 13.2251C55.4288 12.759 55.6702 12.3341 56.0133 11.9994C56.398 11.6574 56.8627 11.4179 57.3644 11.3029C58.0501 11.1512 58.7514 11.0811 59.4536 11.094H66.0905V13.2599H59.5442C59.2171 13.2531 58.8903 13.2811 58.5692 13.3434C58.3456 13.3857 58.1382 13.4894 57.9702 13.6429C57.8124 13.8032 57.7057 14.0069 57.6638 14.2279C57.602 14.535 57.574 14.8479 57.5802 15.1611V16.2475C57.5743 16.5515 57.6023 16.8552 57.6638 17.1529C57.708 17.3731 57.8144 17.5761 57.9702 17.7379C58.1372 17.8955 58.3445 18.004 58.5692 18.0513C58.8895 18.1196 59.2167 18.1499 59.5442 18.1418H66.1114V20.2729L59.4536 20.2868Z" fill="#0D0F17"/>
<path d="M72.2887 20.2868C71.5865 20.2999 70.8852 20.2298 70.1994 20.0779C69.6978 19.9626 69.2333 19.7231 68.8484 19.3814C68.5067 19.0484 68.2655 18.6261 68.152 18.1627C67.9996 17.5574 67.9293 16.9343 67.943 16.3102V11.1428H70.485V16.2893C70.4768 16.611 70.5144 16.9323 70.5964 17.2434C70.6553 17.4613 70.7763 17.6573 70.9446 17.8075C71.1279 17.9541 71.3464 18.0502 71.5783 18.0861C71.9003 18.1415 72.2267 18.1672 72.5533 18.1627H75.1928C75.5333 18.1676 75.8736 18.142 76.2096 18.0861C76.4422 18.0525 76.6612 17.9562 76.8433 17.8075C77.0047 17.6562 77.1164 17.4595 77.1637 17.2434C77.2321 16.9302 77.2625 16.6098 77.2542 16.2893V11.1428H79.7613V16.359C79.775 16.983 79.7047 17.6061 79.5524 18.2115C79.4392 18.675 79.1979 19.0974 78.856 19.4302C78.4591 19.7779 77.9794 20.0177 77.4631 20.1266C76.7612 20.2805 76.0435 20.3507 75.3251 20.3355L72.2887 20.2868Z" fill="#0D0F17"/>
<path d="M81.6486 20.2868V8.14813H84.2254V20.2868H81.6486Z" fill="#0D0F17"/>
<path d="M90.5698 20.2868C89.8676 20.2999 89.1663 20.2298 88.4806 20.0779C87.979 19.9626 87.5144 19.7231 87.1295 19.3814C86.7873 19.0488 86.5459 18.6264 86.4331 18.1627C86.2807 17.5574 86.2105 16.9343 86.2241 16.3102V11.1428H88.7661V16.2893C88.7579 16.611 88.7954 16.9323 88.8775 17.2434C88.9364 17.4613 89.0574 17.6573 89.2257 17.8075C89.409 17.9541 89.6275 18.0502 89.8595 18.0861C90.1814 18.1415 90.5078 18.1672 90.8345 18.1627H93.4739C93.8144 18.1676 94.1547 18.142 94.4907 18.0861C94.7233 18.0525 94.9424 17.9562 95.1244 17.8075C95.2858 17.6562 95.3975 17.4595 95.4448 17.2434C95.5131 16.9302 95.5435 16.6098 95.5353 16.2893V11.1428H98.0424V16.359C98.0561 16.983 97.9859 17.6061 97.8335 18.2115C97.7204 18.675 97.479 19.0974 97.1371 19.4302C96.7404 19.7781 96.2606 20.018 95.7442 20.1266C95.0423 20.2805 94.3247 20.3506 93.6062 20.3355L90.5698 20.2868Z" fill="#0D0F17"/>
<path d="M110.731 17.8493C110.738 18.2334 110.699 18.617 110.613 18.9915C110.543 19.2862 110.379 19.5503 110.146 19.7436C109.868 19.9549 109.543 20.0959 109.199 20.1545C108.682 20.2488 108.157 20.2908 107.632 20.2798H99.7347V18.302H107.305C107.549 18.3234 107.793 18.2647 108.001 18.1349C108.078 18.0486 108.136 17.9468 108.171 17.8363C108.206 17.7258 108.217 17.6092 108.203 17.4941V17.1877C108.203 16.8488 108.138 16.6375 108.008 16.554C107.805 16.4535 107.579 16.4102 107.354 16.4286H102.207C101.782 16.4399 101.357 16.3883 100.946 16.2754C100.658 16.1939 100.398 16.0349 100.194 15.8158C100.009 15.6017 99.884 15.3421 99.8322 15.0636C99.7663 14.7147 99.736 14.3601 99.7416 14.0051V13.3086C99.7342 12.9654 99.7764 12.623 99.867 12.2919C99.9384 12.0252 100.083 11.784 100.285 11.5954C100.508 11.4036 100.777 11.2718 101.065 11.2124C101.474 11.1416 101.89 11.1182 102.304 11.1428H110.731V13.0231H102.917C102.729 13.0046 102.539 13.0513 102.381 13.1554C102.321 13.2203 102.275 13.2975 102.248 13.3816C102.22 13.4658 102.211 13.5549 102.221 13.6429V14.0677C102.205 14.1662 102.211 14.2668 102.237 14.363C102.263 14.4591 102.31 14.5484 102.374 14.6249C102.514 14.7284 102.688 14.7757 102.862 14.7572H107.841C108.326 14.7471 108.81 14.7962 109.283 14.9035C109.61 14.9774 109.913 15.1358 110.16 15.3631C110.382 15.5866 110.534 15.8696 110.599 16.1779C110.684 16.5807 110.724 16.9919 110.717 17.4036L110.731 17.8493Z" fill="#0D0F17"/>
<path fill-rule="evenodd" clip-rule="evenodd" d="M17.0275 1.0516C17.0239 1.32808 16.9115 1.59199 16.7147 1.7862C16.5178 1.98041 16.2525 2.08929 15.9759 2.08927H14.7085C14.5704 2.08927 14.4336 2.06207 14.306 2.00922C14.1784 1.95637 14.0625 1.87891 13.9649 1.78126C13.8672 1.68361 13.7898 1.56769 13.7369 1.4401C13.6841 1.31251 13.6569 1.17577 13.6569 1.03767C13.6605 0.76119 13.7729 0.497276 13.9697 0.303065C14.1666 0.108855 14.432 -2.42467e-05 14.7085 4.05017e-09H15.9759C16.2548 4.05017e-09 16.5223 0.110793 16.7195 0.308006C16.9167 0.505219 17.0275 0.772697 17.0275 1.0516ZM13.2851 5.98212C13.4873 5.7916 13.606 5.52878 13.6151 5.25107L13.5872 5.23018C13.5872 5.09208 13.56 4.95534 13.5071 4.82775C13.4543 4.70016 13.3768 4.58424 13.2792 4.48659C13.1815 4.38894 13.0656 4.31148 12.938 4.25863C12.8104 4.20578 12.6737 4.17858 12.5356 4.17858H9.35991C9.22065 4.17488 9.08204 4.19888 8.95214 4.2492C8.82224 4.29952 8.70362 4.37514 8.60319 4.47169C8.50276 4.56823 8.42251 4.68377 8.36711 4.81158C8.31171 4.9394 8.28225 5.07695 8.28046 5.21625C8.28046 5.49515 8.39125 5.76263 8.58846 5.95984C8.78567 6.15706 9.05315 6.26785 9.33205 6.26785H12.5356C12.8134 6.27536 13.0828 6.17263 13.2851 5.98212ZM8.29443 9.4505C8.29443 9.7294 8.18364 9.99688 7.98643 10.1941C7.78922 10.3913 7.52174 10.5021 7.24284 10.5021H5.68981C5.41091 10.5021 5.14343 10.3913 4.94622 10.1941C4.74901 9.99688 4.63821 9.7294 4.63821 9.4505C4.63821 9.17159 4.74901 8.90412 4.94622 8.7069C5.14343 8.50969 5.41091 8.3989 5.68981 8.3989H7.24284C7.52174 8.3989 7.78922 8.50969 7.98643 8.7069C8.18364 8.90412 8.29443 9.17159 8.29443 9.4505ZM15.1959 17.8494C15.1959 17.9875 15.1687 18.1242 15.1159 18.2518C15.063 18.3794 14.9856 18.4953 14.8879 18.593C14.7903 18.6906 14.6743 18.7681 14.5467 18.8209C14.4192 18.8738 14.2824 18.901 14.1443 18.901H7.57009C7.29118 18.901 7.02371 18.7902 6.82649 18.593C6.62928 18.3958 6.51849 18.1283 6.51849 17.8494C6.51849 17.5705 6.62928 17.303 6.82649 17.1058C7.02371 16.9086 7.29118 16.7978 7.57009 16.7978H14.1443C14.2824 16.7978 14.4192 16.825 14.5467 16.8778C14.6743 16.9307 14.7903 17.0082 14.8879 17.1058C14.9856 17.2035 15.063 17.3194 15.1159 17.447C15.1687 17.5746 15.1959 17.7113 15.1959 17.8494ZM12.4087 10.1941C12.6059 9.99688 12.7167 9.7294 12.7167 9.4505H12.7097C12.7097 9.3124 12.6825 9.17565 12.6296 9.04807C12.5768 8.92048 12.4993 8.80455 12.4017 8.7069C12.304 8.60925 12.1881 8.53179 12.0605 8.47895C11.9329 8.4261 11.7962 8.3989 11.6581 8.3989H10.1051C9.82617 8.3989 9.55869 8.50969 9.36148 8.7069C9.16427 8.90412 9.05347 9.17159 9.05347 9.4505C9.05347 9.58918 9.0809 9.7265 9.13418 9.85454C9.18746 9.98258 9.26555 10.0988 9.36394 10.1966C9.46233 10.2943 9.57908 10.3716 9.70747 10.4241C9.83586 10.4765 9.97335 10.503 10.112 10.5021H11.6651C11.944 10.5021 12.2114 10.3913 12.4087 10.1941ZM12.9326 13.65C12.9326 13.9289 12.8218 14.1963 12.6246 14.3936C12.4273 14.5908 12.1599 14.7016 11.881 14.7016H8.78885C8.50994 14.7016 8.24247 14.5908 8.04525 14.3936C7.84804 14.1963 7.73725 13.9289 7.73725 13.65C7.73725 13.5119 7.76445 13.3751 7.8173 13.2475C7.87014 13.1199 7.9476 13.004 8.04525 12.9064C8.1429 12.8087 8.25883 12.7313 8.38642 12.6784C8.514 12.6256 8.65075 12.5984 8.78885 12.5984H11.881C12.0191 12.5984 12.1558 12.6256 12.2834 12.6784C12.411 12.7313 12.5269 12.8087 12.6246 12.9064C12.7222 13.004 12.7997 13.1199 12.8525 13.2475C12.9054 13.3751 12.9326 13.5119 12.9326 13.65ZM16.4061 22.7923C16.6034 22.595 16.7141 22.3276 16.7141 22.0487C16.7141 21.7698 16.6034 21.5023 16.4061 21.3051C16.2089 21.1079 15.9415 20.9971 15.6626 20.9971H12.459C12.1801 20.9971 11.9126 21.1079 11.7154 21.3051C11.5182 21.5023 11.4074 21.7698 11.4074 22.0487C11.4074 22.3276 11.5182 22.595 11.7154 22.7923C11.9126 22.9895 12.1801 23.1003 12.459 23.1003H15.6626C15.9415 23.1003 16.2089 22.9895 16.4061 22.7923ZM12.9117 1.0516C12.9098 1.1903 12.8806 1.32726 12.8256 1.45462C12.7707 1.58197 12.6911 1.69719 12.5914 1.79364C12.4917 1.89009 12.3739 1.96587 12.2448 2.0166C12.1157 2.06734 11.9778 2.09204 11.8392 2.08927H8.16205C7.88315 2.08927 7.61567 1.97848 7.41846 1.78126C7.22125 1.58405 7.11045 1.31657 7.11045 1.03767C7.11412 0.76119 7.22652 0.497276 7.42334 0.303065C7.62016 0.108855 7.88555 -2.42467e-05 8.16205 4.05017e-09H11.8392C12.1181 4.05017e-09 12.3855 0.110793 12.5828 0.308006C12.78 0.505219 12.8908 0.772697 12.8908 1.0516H12.9117ZM6.50997 14.3936C6.70719 14.1963 6.81798 13.9289 6.81798 13.65C6.81798 13.5119 6.79078 13.3751 6.73793 13.2475C6.68508 13.1199 6.60762 13.004 6.50997 12.9064C6.41232 12.8087 6.2964 12.7313 6.16881 12.6784C6.04122 12.6256 5.90448 12.5984 5.76638 12.5984H1.0516C0.913501 12.5984 0.776755 12.6256 0.649169 12.6784C0.521583 12.7313 0.405656 12.8087 0.308006 12.9064C0.210356 13.004 0.132896 13.1199 0.0800482 13.2475C0.0272004 13.3751 0 13.5119 0 13.65C0 13.9289 0.110793 14.1963 0.308006 14.3936C0.505219 14.5908 0.772697 14.7016 1.0516 14.7016H5.76638C6.04528 14.7016 6.31276 14.5908 6.50997 14.3936ZM10.5787 22.0487C10.5787 22.3276 10.4679 22.595 10.2707 22.7923C10.0735 22.9895 9.80597 23.1003 9.52707 23.1003H4.42926C4.15036 23.1003 3.88288 22.9895 3.68566 22.7923C3.48845 22.595 3.37766 22.3276 3.37766 22.0487C3.37766 21.7698 3.48845 21.5023 3.68566 21.3051C3.88288 21.1079 4.15036 20.9971 4.42926 20.9971H9.52707C9.80597 20.9971 10.0735 21.1079 10.2707 21.3051C10.4679 21.5023 10.5787 21.7698 10.5787 22.0487ZM20.9804 27.2928C20.9515 27.2987 20.9222 27.3033 20.8927 27.3067L15.7949 27.2928H20.9804ZM28.7692 27.2928H20.9804C21.2026 27.2479 21.4052 27.1321 21.557 26.9617C21.7286 26.7691 21.8234 26.5201 21.8234 26.2621C21.8234 26.0041 21.7286 25.7551 21.557 25.5625C21.3854 25.3699 21.1489 25.2471 20.8927 25.2175H16.5331C16.7293 24.5373 16.8416 23.8356 16.8673 23.1282H25.2801C25.4274 23.1452 25.5767 23.1309 25.7181 23.0862C25.8595 23.0415 25.9898 22.9674 26.1005 22.8687C26.2112 22.7701 26.2999 22.6491 26.3605 22.5138C26.4212 22.3785 26.4526 22.2319 26.4526 22.0836C26.4526 21.9353 26.4212 21.7887 26.3605 21.6533C26.2999 21.518 26.2112 21.3971 26.1005 21.2984C25.9898 21.1998 25.8595 21.1256 25.7181 21.0809C25.5767 21.0362 25.4274 21.0219 25.2801 21.0389H16.7629C16.6571 20.3258 16.4774 19.6256 16.2266 18.9497H19.9177C20.065 18.9667 20.2142 18.9524 20.3556 18.9077C20.497 18.8629 20.6274 18.7888 20.7381 18.6902C20.8488 18.5915 20.9374 18.4706 20.9981 18.3353C21.0587 18.1999 21.0901 18.0533 21.0901 17.905C21.0901 17.7567 21.0587 17.6101 20.9981 17.4748C20.9374 17.3395 20.8488 17.2185 20.7381 17.1199C20.6274 17.0212 20.497 16.9471 20.3556 16.9024C20.2142 16.8577 20.065 16.8434 19.9177 16.8604H15.2238C15.0503 16.551 14.8756 16.2584 14.7047 15.9721L14.7046 15.9721L14.7046 15.972L14.7045 15.9719C14.4639 15.5688 14.2307 15.1783 14.019 14.7711H24.0405C24.1878 14.7882 24.3371 14.7739 24.4785 14.7291C24.6198 14.6844 24.7502 14.6103 24.8609 14.5116C24.9716 14.413 25.0602 14.292 25.1209 14.1567C25.1816 14.0214 25.2129 13.8748 25.2129 13.7265C25.2129 13.5782 25.1816 13.4316 25.1209 13.2963C25.0602 13.1609 24.9716 13.04 24.8609 12.9413C24.7502 12.8427 24.6198 12.7686 24.4785 12.7239C24.3371 12.6791 24.1878 12.6648 24.0405 12.6819H13.232C13.0825 12.0065 12.9963 11.3187 12.9743 10.6274V10.5787H19.1864C19.3337 10.5957 19.483 10.5814 19.6244 10.5367C19.7658 10.4919 19.8961 10.4178 20.0068 10.3192C20.1175 10.2205 20.2062 10.0996 20.2668 9.96426C20.3275 9.82894 20.3589 9.68232 20.3589 9.53403C20.3589 9.38573 20.3275 9.23912 20.2668 9.1038C20.2062 8.96848 20.1175 8.84753 20.0068 8.74888C19.8961 8.65023 19.7658 8.57611 19.6244 8.53139C19.483 8.48667 19.3337 8.47235 19.1864 8.48939H13.1415C13.2651 7.77417 13.4635 7.07391 13.7334 6.40013H23.6784C23.8257 6.41716 23.9749 6.40285 24.1163 6.35813C24.2577 6.31341 24.388 6.23929 24.4988 6.14064C24.6095 6.04199 24.6981 5.92103 24.7587 5.78572C24.8194 5.6504 24.8508 5.50379 24.8508 5.35549C24.8508 5.2072 24.8194 5.06058 24.7587 4.92526C24.6981 4.78995 24.6095 4.66899 24.4988 4.57034C24.388 4.47169 24.2577 4.39757 24.1163 4.35285C23.9749 4.30813 23.8257 4.29382 23.6784 4.31086H14.8616C15.4014 3.5147 16.0838 2.82526 16.8743 2.2773L16.9579 2.08927H25.0712C25.3483 2.11143 25.6228 2.02263 25.8343 1.8424C26.0459 1.66216 26.1772 1.40526 26.1994 1.1282C26.2216 0.851151 26.1328 0.576639 25.9525 0.36506C25.7723 0.15348 25.5154 0.0221643 25.2383 4.05017e-09L25.9348 0.0417854C26.2941 0.0589155 26.6521 0.096116 27.0073 0.153213C27.6573 0.271299 28.2942 0.453251 28.9085 0.696423C29.5508 0.945154 30.1686 1.2529 30.754 1.6157C31.3555 1.97499 31.91 2.40778 32.4045 2.90408C32.8594 3.3512 33.2361 3.87145 33.5188 4.44318C33.7825 5.04125 34.0149 5.6526 34.2152 6.27477C34.3844 6.77218 34.5357 7.2696 34.6871 7.76701C34.7476 7.96602 34.8082 8.16503 34.8699 8.36404C35.0166 8.71982 35.088 9.10214 35.0796 9.4869C35.0713 9.87166 34.9832 10.2505 34.8211 10.5996C34.743 10.7489 34.7022 10.915 34.7022 11.0836C34.7022 11.2521 34.743 11.4182 34.8211 11.5676C34.9535 11.7942 35.1024 12.0107 35.2668 12.2153C35.4897 12.5356 35.7195 12.849 35.9633 13.1694C36.1078 13.3593 36.1984 13.515 36.2861 13.6654C36.3462 13.7687 36.4049 13.8695 36.4786 13.9772C36.5595 14.0955 36.653 14.2235 36.749 14.355L36.7491 14.3552L36.7492 14.3553L36.7494 14.3556C36.8681 14.5182 36.9907 14.6861 37.0984 14.8477C37.1733 14.9671 37.2252 15.0993 37.2516 15.2377C37.2812 15.4194 37.2551 15.6057 37.1768 15.7723C37.0985 15.9388 36.9716 16.0778 36.8129 16.1709C36.5315 16.3763 36.208 16.5166 35.8658 16.5818C35.6081 16.6375 35.5175 16.742 35.5384 16.9997C35.5602 17.1442 35.5952 17.2864 35.6429 17.4245C35.6976 17.5488 35.7351 17.68 35.7543 17.8145C35.7598 17.9476 35.7336 18.0802 35.6779 18.2012C35.6222 18.3223 35.5386 18.4284 35.434 18.5109C35.3678 18.5605 35.3066 18.6126 35.2459 18.6642C35.2044 18.6995 35.1631 18.7346 35.1206 18.7686C35.262 18.8855 35.3516 19.0535 35.3698 19.236C35.3881 19.4186 35.3335 19.601 35.2181 19.7436C35.189 19.7873 35.1562 19.8285 35.1233 19.8699C35.0776 19.9274 35.0317 19.9852 34.9952 20.05C34.9033 20.1565 34.8393 20.2842 34.8089 20.4215C34.7785 20.5589 34.7827 20.7016 34.8211 20.837C34.9634 21.2435 35.0041 21.6786 34.9395 22.1045C34.9016 22.399 34.7923 22.6798 34.6211 22.9226C34.45 23.1653 34.2222 23.3626 33.9576 23.4973C33.6264 23.6736 33.2599 23.7736 32.8851 23.7898C32.5961 23.8107 32.3053 23.8246 32.0145 23.8386C31.7238 23.8525 31.433 23.8664 31.144 23.8873C30.5075 23.8623 29.8829 24.0648 29.3821 24.4584C29.2593 24.5574 29.1618 24.6842 29.0977 24.8283C29.0335 24.9723 29.0045 25.1296 29.013 25.2871C29.038 25.6817 29.0075 26.0779 28.9224 26.4641C28.8773 26.6644 28.8431 26.8648 28.8092 27.0625C28.796 27.1397 28.7829 27.2165 28.7692 27.2928ZM15.7182 26.2621C15.7182 26.4002 15.691 26.5369 15.6382 26.6645C15.5853 26.7921 15.5079 26.908 15.4102 27.0057C15.3126 27.1033 15.1967 27.1808 15.0691 27.2336C14.9415 27.2865 14.8047 27.3137 14.6666 27.3137H11.4631C11.1903 27.3046 10.9317 27.1898 10.7419 26.9936C10.5522 26.7974 10.4462 26.535 10.4463 26.2621C10.4463 25.9832 10.5571 25.7157 10.7543 25.5185C10.9515 25.3213 11.219 25.2105 11.4979 25.2105H14.7015C14.9804 25.2105 15.2478 25.3213 15.4451 25.5185C15.6423 25.7157 15.7531 25.9832 15.7531 26.2621H15.7182ZM9.29565 27.0057C9.49286 26.8084 9.60366 26.541 9.60366 26.2621H9.63151C9.63151 25.9832 9.52072 25.7157 9.32351 25.5185C9.12629 25.3213 8.85882 25.2105 8.57991 25.2105H3.4821C3.2032 25.2105 2.93572 25.3213 2.73851 25.5185C2.54129 25.7157 2.4305 25.9832 2.4305 26.2621C2.4305 26.541 2.54129 26.8084 2.73851 27.0057C2.93572 27.2029 3.2032 27.3137 3.4821 27.3137H8.55206C8.83096 27.3137 9.09844 27.2029 9.29565 27.0057Z" fill="url(#paint0_linear)"/>
<path fill-rule="evenodd" clip-rule="evenodd" d="M120.544 16.9997V20.2868H117.981V8.78886H127.181C127.882 8.77366 128.583 8.83909 129.27 8.98386C129.76 9.08391 130.217 9.30408 130.6 9.62457C130.937 9.93645 131.178 10.3373 131.297 10.7806C131.448 11.3411 131.518 11.9204 131.506 12.5008V13.4967C131.519 14.0698 131.451 14.642 131.304 15.196C131.187 15.6185 130.944 15.9952 130.607 16.2754C130.219 16.5696 129.765 16.7634 129.284 16.8395C128.594 16.9576 127.895 17.0112 127.195 16.9997H120.544ZM128.936 12.5983C128.962 12.3721 128.94 12.1428 128.872 11.9256C128.804 11.7084 128.69 11.508 128.539 11.3378C128.123 11.0775 127.634 10.9602 127.146 11.0035H120.572V14.9313H127.181C127.666 14.9764 128.154 14.8667 128.574 14.6179C128.723 14.4554 128.836 14.2622 128.903 14.0516C128.971 13.8411 128.991 13.6185 128.964 13.3992L128.936 12.5983ZM133.1 20.2867V14.9939C133.087 14.4002 133.167 13.808 133.337 13.2389C133.477 12.782 133.737 12.3709 134.089 12.0481C134.469 11.7143 134.922 11.4756 135.412 11.3516C136.057 11.1946 136.72 11.122 137.383 11.1357H139.02V13.1763H137.453C137.158 13.1703 136.864 13.1983 136.575 13.2598C136.365 13.3024 136.17 13.4011 136.011 13.5454C135.859 13.6986 135.753 13.8917 135.705 14.1025C135.638 14.3947 135.607 14.6942 135.614 14.9939V20.2728L133.1 20.2867ZM142.467 20.0779C143.153 20.2302 143.854 20.3004 144.556 20.2869L147.642 20.3008C148.344 20.3135 149.045 20.2434 149.731 20.0919C150.233 19.9775 150.698 19.7379 151.082 19.3954C151.423 19.0648 151.664 18.6449 151.778 18.1837C151.931 17.5807 152.001 16.9599 151.987 16.3382V15.1264C152 14.5023 151.93 13.8794 151.778 13.2739C151.665 12.8063 151.424 12.3795 151.082 12.0412C150.699 11.697 150.233 11.4572 149.731 11.3448C149.045 11.1934 148.344 11.1232 147.642 11.1359H144.556C143.854 11.1225 143.153 11.1926 142.467 11.3448C141.965 11.4595 141.501 11.699 141.116 12.0412C140.774 12.3736 140.532 12.7961 140.42 13.26C140.267 13.8653 140.197 14.4884 140.211 15.1124V16.3242C140.197 16.946 140.267 17.5668 140.42 18.1697C140.533 18.6311 140.775 19.0511 141.116 19.3815C141.5 19.7239 141.965 19.9635 142.467 20.0779ZM149.404 14.2558C149.471 14.5645 149.501 14.8801 149.494 15.196V16.2755C149.502 16.5891 149.471 16.9024 149.404 17.2087C149.354 17.4292 149.237 17.6288 149.069 17.7797C148.867 17.9374 148.627 18.0384 148.373 18.0722C148.005 18.1346 147.632 18.1626 147.259 18.1558H144.884C144.515 18.1627 144.147 18.1347 143.783 18.0722C143.529 18.039 143.289 17.938 143.087 17.7797C142.919 17.6285 142.802 17.429 142.753 17.2087C142.685 16.9024 142.655 16.5891 142.662 16.2755V15.196C142.655 14.8802 142.685 14.5646 142.753 14.2558C142.8 14.0305 142.917 13.8258 143.087 13.6709C143.289 13.5136 143.529 13.4148 143.783 13.3853C144.147 13.3289 144.515 13.3033 144.884 13.3087H147.259C147.631 13.3034 148.004 13.329 148.373 13.3853C148.627 13.4148 148.868 13.5136 149.069 13.6709C149.239 13.8258 149.356 14.0305 149.404 14.2558Z" fill="url(#paint1_linear)"/>
<path d="M161.814 20.2868L158.729 16.9857L155.595 20.2868H152.517L157.252 15.5372L152.851 11.1428H155.866L158.833 14.2279L161.863 11.1428H164.899L160.33 15.6068L164.948 20.2729L161.814 20.2868Z" fill="#0D0F17"/>
<path d="M166.94 10.6274C166.692 10.659 166.441 10.5915 166.243 10.4394C166.172 10.3592 166.118 10.2653 166.084 10.1635C166.051 10.0617 166.039 9.95416 166.048 9.84741V8.87242C166.038 8.76779 166.051 8.6623 166.084 8.56274C166.118 8.46319 166.172 8.37177 166.243 8.29439C166.445 8.15054 166.694 8.08834 166.94 8.12028H167.768C168.014 8.09171 168.261 8.15361 168.465 8.29439C168.536 8.37177 168.59 8.46319 168.623 8.56274C168.657 8.6623 168.669 8.76779 168.66 8.87242V9.84741C168.669 9.95416 168.657 10.0617 168.623 10.1635C168.59 10.2653 168.536 10.3592 168.465 10.4394C168.265 10.5881 168.016 10.6554 167.768 10.6274H166.94ZM166.083 20.2868V11.3865H168.646V20.2868H166.083Z" fill="#0D0F17"/>
<path d="M173.054 16.6445V17.0624C173.047 17.2965 173.07 17.5306 173.124 17.7588C173.16 17.9141 173.245 18.0535 173.368 18.1557C173.506 18.2606 173.669 18.3278 173.841 18.3507C174.083 18.387 174.328 18.4033 174.572 18.3995H182.463V20.3077H174.593C173.145 20.3077 172.112 20.0314 171.494 19.4789C171.159 19.1299 170.903 18.713 170.743 18.2564C170.584 17.7998 170.524 17.3142 170.568 16.8325V14.7433C170.556 14.1775 170.622 13.6129 170.763 13.0649C170.879 12.6384 171.122 12.2572 171.459 11.9715C171.83 11.672 172.267 11.4665 172.734 11.3726C173.393 11.2355 174.066 11.1724 174.739 11.1845H179.155C179.704 11.1727 180.252 11.236 180.784 11.3726C181.14 11.4594 181.474 11.6182 181.766 11.8392C182.013 12.0499 182.196 12.3247 182.296 12.6331C182.4 12.9571 182.451 13.2957 182.449 13.636V16.6445H173.054ZM179.928 13.8588C179.943 13.7416 179.927 13.6227 179.883 13.513C179.84 13.4034 179.769 13.3067 179.677 13.232C179.429 13.1095 179.152 13.0566 178.876 13.0788H174.698C174.432 13.0757 174.167 13.0896 173.904 13.1206C173.718 13.138 173.539 13.2053 173.388 13.3156C173.251 13.4285 173.154 13.5822 173.11 13.7543C173.047 14.007 173.019 14.2671 173.026 14.5274V15.0149H179.9L179.928 13.8588Z" fill="#0D0F17"/>
<path d="M194.998 17.8563C195.005 18.2381 194.965 18.6193 194.88 18.9914C194.81 19.2862 194.647 19.5503 194.413 19.7436C194.136 19.9551 193.811 20.0961 193.466 20.1545C192.952 20.2485 192.429 20.2904 191.906 20.2798H184.058V18.3159H191.593C191.837 18.3373 192.081 18.2786 192.289 18.1488C192.367 18.0627 192.425 17.961 192.46 17.8504C192.495 17.7399 192.506 17.6231 192.491 17.5081V17.2016C192.491 16.8627 192.426 16.6515 192.296 16.5679C192.096 16.468 191.872 16.4247 191.649 16.4425H186.523C186.1 16.454 185.677 16.4024 185.269 16.2893C184.982 16.2101 184.722 16.0535 184.517 15.8366C184.332 15.6227 184.207 15.363 184.155 15.0845C184.089 14.7379 184.059 14.3856 184.065 14.0329V13.3365C184.058 12.9956 184.1 12.6556 184.19 12.3267C184.259 12.0607 184.401 11.8194 184.601 11.6303C184.823 11.442 185.089 11.3127 185.374 11.2542C185.79 11.1669 186.216 11.1295 186.641 11.1428H194.998V13.044H187.226C187.04 13.0271 186.853 13.0737 186.697 13.1763C186.637 13.2412 186.591 13.3183 186.563 13.4025C186.536 13.4867 186.527 13.5758 186.537 13.6638V14.0817C186.526 14.1746 186.534 14.2687 186.56 14.3584C186.587 14.4481 186.631 14.5317 186.69 14.604C186.83 14.7075 187.004 14.7548 187.178 14.7363H192.129C192.612 14.7265 193.093 14.7756 193.564 14.8826C193.891 14.9542 194.193 15.1102 194.441 15.3352C194.662 15.5571 194.814 15.8374 194.88 16.1431C194.969 16.5595 195.009 16.9849 194.998 17.4106V17.8563Z" fill="#0D0F17"/>
<defs>
<linearGradient id="paint0_linear" x1="0" y1="13.9285" x2="37.6068" y2="13.9285" gradientUnits="userSpaceOnUse">
<stop stop-color="#41B787"/>
<stop offset="1" stop-color="#0099A5"/>
</linearGradient>
<linearGradient id="paint1_linear" x1="117.695" y1="20.1962" x2="151.82" y2="20.1962" gradientUnits="userSpaceOnUse">
<stop stop-color="#41B787"/>
<stop offset="1" stop-color="#0099A5"/>
</linearGradient>
</defs>
</svg>
