<svg width="98" height="20" viewBox="0 0 98 20" fill="none" xmlns="http://www.w3.org/2000/svg">
<path d="M86.2356 15.7601C86.0469 15.8128 85.8523 15.8396 85.6571 15.8397C85.333 15.8361 85.0141 15.763 84.7212 15.6255C84.4277 15.4879 84.1681 15.289 83.9585 15.0423C83.8765 14.9363 83.773 14.8486 83.6552 14.7845C83.5374 14.7205 83.4079 14.6815 83.2745 14.6701C83.1411 14.6587 83.0064 14.6751 82.8795 14.7183C82.7526 14.7614 82.6361 14.8305 82.5372 14.921C82.3354 15.1071 82.2124 15.3632 82.1929 15.6371C82.1734 15.911 82.2593 16.1819 82.4331 16.3945C82.8092 16.8541 83.2791 17.2277 83.8114 17.4906C84.3444 17.7534 84.9269 17.8993 85.5198 17.9184C86.1133 17.9376 86.7042 17.8295 87.2515 17.6015C87.8001 17.3735 88.2928 17.0309 88.6982 16.5965C88.3702 16.2913 87.9811 16.0591 87.5567 15.9152C87.1318 15.7713 86.6821 15.719 86.2356 15.7618" fill="#0060FA"/>
<path d="M20.4773 14.0158C18.2739 14.0158 16.4603 12.0907 16.4603 9.73967V6.48572C16.4603 5.92352 16.8841 5.46353 17.4095 5.46353C17.9519 5.46353 18.4773 5.92352 18.4773 6.48572V9.73967C18.4773 10.9663 19.4943 11.9544 20.4773 11.9544C21.6298 11.9544 22.4943 10.9663 22.4943 9.73967V6.62201C22.4943 6.04277 23.0875 5.59982 23.5451 5.59982C24.0705 5.59982 24.5112 6.04277 24.5112 6.62201V9.73967C24.5112 12.0907 22.6976 14.0158 20.4773 14.0158Z" fill="#0060FA"/>
<path d="M29.8959 5.4636C29.1332 5.4636 28.4383 5.68507 27.8282 6.07691C27.6925 5.66804 27.3196 5.37842 26.879 5.37842C26.3196 5.37842 25.8621 5.8384 25.8621 6.4006V12.9085C25.8621 13.4707 26.3196 13.9307 26.879 13.9307C27.4383 13.9307 27.8959 13.4707 27.8959 12.9085V10.0124C27.8959 8.83683 28.5739 7.50797 29.8959 7.50797C30.9637 7.50797 31.8451 8.47902 31.8451 9.68865V12.9085C31.8451 13.4707 32.2858 13.9307 32.862 13.9307C33.4214 13.9307 33.8621 13.4707 33.8621 12.9085V9.68865C33.8621 7.35465 32.0824 5.4636 29.8959 5.4636Z" fill="#0060FA"/>
<path d="M42.385 5.44653C41.8256 5.44653 41.4866 5.88948 41.4866 6.41761V6.50279C40.7579 5.90652 39.9104 5.51468 38.8934 5.51468C36.6222 5.51468 34.7917 7.37167 34.7917 9.63753C34.7917 11.9033 36.6222 13.7433 38.8934 13.7433C39.9104 13.7433 40.7579 13.3685 41.4866 12.7381V12.9426C41.4866 13.4707 41.8256 13.9136 42.385 13.9136C42.9443 13.9136 43.368 13.4707 43.368 12.9426V6.41761C43.368 5.88948 42.9443 5.44653 42.385 5.44653ZM38.8934 11.75C37.724 11.75 36.7579 10.813 36.7579 9.63753C36.7579 8.462 37.724 7.50794 38.8934 7.50794C40.046 7.50794 41.0121 8.462 41.0121 9.63753C41.0121 10.813 40.046 11.75 38.8934 11.75Z" fill="#0060FA"/>
<path d="M49.8612 1H45.9968C45.4713 1.03408 45.0476 1.57924 45.0476 2.10737V12.9255C45.0476 13.4877 45.4883 13.9307 46.0476 13.9307C46.607 13.9307 47.0476 13.4877 47.0476 12.9255V8.64935H49.7256C51.8273 8.64935 53.59 6.92865 53.59 4.91838C53.59 2.78883 51.8781 1 49.8612 1ZM49.7256 6.62202H47.0476V3.02733H49.8612C50.7595 3.02733 51.573 3.93027 51.573 4.91838C51.573 5.82132 50.7087 6.62202 49.7256 6.62202Z" fill="#0060FA"/>
<path d="M61.6276 6.60506C60.8648 5.88952 59.8818 5.48065 58.831 5.48065C58.0513 5.48065 57.3055 5.71916 56.6784 6.111C56.5428 5.70212 56.1699 5.41251 55.7123 5.41251C55.1529 5.41251 54.6953 5.85545 54.6953 6.41765V12.9426C54.6953 13.5048 55.1529 13.9648 55.7123 13.9648C56.2716 13.9648 56.7292 13.5048 56.7292 12.9426V9.7227C56.7292 8.51313 57.6784 7.52504 58.831 7.52504C59.3563 7.52504 59.8648 7.72945 60.2377 8.08726C60.6614 8.47903 61.2885 8.445 61.6784 8.0361C62.0683 7.62721 62.0344 6.97987 61.6276 6.60506Z" fill="#0060FA"/>
<path d="M66.7087 13.9307C64.3697 13.9307 62.4545 12.0226 62.4545 9.65455C62.4545 7.30356 64.3697 5.37842 66.7087 5.37842C69.0477 5.37842 70.9629 7.30356 70.9799 9.6716C70.9629 12.0226 69.0477 13.9307 66.7087 13.9307ZM66.7087 7.47387C65.5053 7.47387 64.5392 8.44498 64.5392 9.65455C64.5392 10.8642 65.5053 11.8352 66.7087 11.8352C67.9121 11.8352 68.8782 10.8642 68.8782 9.65455C68.8782 8.44498 67.9121 7.47387 66.7087 7.47387Z" fill="#0060FA"/>
<path d="M77.5299 9.70563L79.9541 7.16715C80.3439 6.7583 80.327 6.12795 79.9372 5.75315C79.5298 5.36131 78.9031 5.37835 78.5302 5.77018L76.1405 8.25749L73.8015 5.80426C73.4117 5.41242 72.7843 5.39539 72.3945 5.78722C71.9878 6.16203 71.9878 6.79237 72.3607 7.20125L74.7673 9.70563L72.3776 12.193C71.9878 12.5847 72.0047 13.2151 72.3945 13.6069C72.5976 13.7944 72.852 13.8796 73.0896 13.8796C73.3603 13.8796 73.6147 13.7773 73.8015 13.5729L76.1405 11.1367L78.5133 13.6069C78.7163 13.8114 78.9708 13.9136 79.2252 13.9136C79.479 13.9136 79.7335 13.8284 79.9196 13.641C80.3094 13.2492 80.327 12.6188 79.9541 12.227L77.5299 9.70563Z" fill="#0060FA"/>
<path d="M86.0775 13.7668C86.7576 13.764 87.4246 13.5837 88.0123 13.244V13.9351C88.0123 14.4144 87.86 14.8814 87.5763 15.2693C88.1014 15.7337 88.7841 15.9832 89.4863 15.9675C89.8234 15.3422 89.9992 14.6442 89.9998 13.9351V6.56539C90.0024 6.43391 89.9796 6.30313 89.9308 6.18074C89.8827 6.05839 89.8098 5.94689 89.7174 5.8528C89.6249 5.7587 89.5143 5.68393 89.3926 5.63293C89.2703 5.58188 89.1395 5.55557 89.0067 5.55557C88.8746 5.55557 88.7431 5.58188 88.6214 5.63293C88.4997 5.68393 88.3891 5.7587 88.2967 5.8528C88.2043 5.94689 88.1314 6.05839 88.0826 6.18074C88.0344 6.30313 88.011 6.43391 88.0142 6.56539V9.61749C88.0422 9.88581 88.0136 10.157 87.9303 10.4135C87.8457 10.6701 87.709 10.9062 87.5274 11.1066C87.3459 11.3071 87.124 11.4674 86.8753 11.5771C86.6274 11.6868 86.3593 11.7436 86.0872 11.7436C85.8159 11.7436 85.5477 11.6868 85.2998 11.5771C85.0518 11.4674 84.8299 11.3071 84.6477 11.1066C84.4668 10.9062 84.3294 10.6701 84.2455 10.4135C84.1615 10.157 84.1329 9.88581 84.1615 9.61749V6.5995C84.1655 6.46833 84.1433 6.33759 84.0958 6.21512C84.0483 6.09266 83.9767 5.98092 83.885 5.8866C83.7932 5.79223 83.6832 5.71722 83.5615 5.66598C83.4398 5.61478 83.309 5.58835 83.1769 5.58835C83.0448 5.58835 82.914 5.61478 82.7923 5.66598C82.6706 5.71722 82.5606 5.79223 82.4688 5.8866C82.3771 5.98092 82.3055 6.09266 82.258 6.21512C82.2105 6.33759 82.1883 6.46833 82.1929 6.5995V9.61808C82.1565 10.6797 82.5456 11.7123 83.2739 12.4898C84.0021 13.2673 85.0108 13.7265 86.0794 13.7668" fill="#0060FA"/>
<path d="M8.97619 13.3651C8.728 13.3651 8.47982 13.2673 8.29782 13.0881C8.11582 12.9089 8 12.6645 8 12.4039V5.07281C8.94546 5.07281 9.69553 5.70295 9.95238 5.94555V4.7819C9.47729 4.7819 8.59091 4.49098 8 3.90915V1.96118C8 1.42357 8.44673 1 8.97619 1C9.52219 1 9.95238 1.42357 9.95238 1.96118V4.7819V5.94555V11.4264L14.8168 11.3775H14.8333C15.3628 11.3775 15.793 11.8011 15.8095 12.3224C15.8095 12.86 15.3793 13.2999 14.8333 13.2999L8.99273 13.3651H8.97619Z" fill="#0060FA"/>
</svg>
