<svg width="14" height="12" viewBox="0 0 14 12" fill="none" xmlns="http://www.w3.org/2000/svg">
<path fill-rule="evenodd" clip-rule="evenodd" d="M1.11439 1.44779C0.333344 2.22885 0.333344 3.48592 0.333344 6.00008C0.333344 8.51421 0.333344 9.77135 1.11439 10.5523C1.89544 11.3334 3.15252 11.3334 5.66668 11.3334H8.33334C10.8475 11.3334 12.1046 11.3334 12.8856 10.5523C13.6667 9.77135 13.6667 8.51421 13.6667 6.00008C13.6667 3.48592 13.6667 2.22885 12.8856 1.44779C12.1046 0.666748 10.8475 0.666748 8.33334 0.666748H5.66668C3.15252 0.666748 1.89544 0.666748 1.11439 1.44779ZM3.27736 2.91739C3.0476 2.76421 2.73716 2.8263 2.58398 3.05606C2.43081 3.28583 2.4929 3.59626 2.72266 3.74944L6.72268 6.41608C6.89061 6.52808 7.10941 6.52808 7.27734 6.41608L11.2773 3.74944C11.5071 3.59626 11.5692 3.28583 11.416 3.05606C11.2629 2.8263 10.9524 2.76421 10.7227 2.91739L7.00001 5.39915L3.27736 2.91739Z" fill="#A4A9BB"/>
</svg>
