<svg width="32" height="32" viewBox="0 0 32 32" fill="none" xmlns="http://www.w3.org/2000/svg">
<path d="M18.6666 8C17.9302 8 17.3333 8.59696 17.3333 9.33333C17.3333 10.0697 17.9302 10.6667 18.6666 10.6667H26.6666C27.403 10.6667 28 10.0697 28 9.33333C28 8.59696 27.403 8 26.6666 8H18.6666Z" fill="#62FCC1"/>
<path d="M18.6666 21.3333C17.9302 21.3333 17.3333 21.9302 17.3333 22.6666C17.3333 23.403 17.9302 23.9999 18.6666 23.9999H26.6666C27.403 23.9999 28 23.403 28 22.6666C28 21.9302 27.403 21.3333 26.6666 21.3333H18.6666Z" fill="#62FCC1"/>
<path d="M4.29065 5.45603C4 6.02645 4 6.7732 4 8.26667V10.4C4 11.8935 4 12.6402 4.29065 13.2106C4.54631 13.7124 4.95425 14.1204 5.45603 14.376C6.02645 14.6667 6.7732 14.6667 8.26667 14.6667H10.4C11.8935 14.6667 12.6402 14.6667 13.2106 14.376C13.7124 14.1204 14.1204 13.7124 14.376 13.2106C14.6667 12.6402 14.6667 11.8935 14.6667 10.4V8.26667C14.6667 6.7732 14.6667 6.02645 14.376 5.45603C14.1204 4.95425 13.7124 4.54631 13.2106 4.29065C12.6402 4 11.8935 4 10.4 4H8.26667C6.7732 4 6.02645 4 5.45603 4.29065C4.95425 4.54631 4.54631 4.95425 4.29065 5.45603Z" fill="#62FCC1"/>
<path d="M4.29065 18.7893C4 19.3597 4 20.1065 4 21.5999V23.7333C4 25.2267 4 25.9735 4.29065 26.5439C4.54631 27.0457 4.95425 27.4537 5.45603 27.7093C6.02645 27.9999 6.7732 27.9999 8.26667 27.9999H10.4C11.8935 27.9999 12.6402 27.9999 13.2106 27.7093C13.7124 27.4537 14.1204 27.0457 14.376 26.5439C14.6667 25.9735 14.6667 25.2267 14.6667 23.7333V21.5999C14.6667 20.1065 14.6667 19.3597 14.376 18.7893C14.1204 18.2875 13.7124 17.8795 13.2106 17.6239C12.6402 17.3333 11.8935 17.3333 10.4 17.3333H8.26667C6.7732 17.3333 6.02645 17.3333 5.45603 17.6239C4.95425 17.8795 4.54631 18.2875 4.29065 18.7893Z" fill="#62FCC1"/>
</svg>
