<svg width="88" height="88" viewBox="0 0 88 88" fill="none" xmlns="http://www.w3.org/2000/svg">
<g clip-path="url(#clip0_1_314)">
<path d="M44.5275 29.837L65.2902 44.5228C65.4499 44.6358 65.5454 44.8194 65.5454 45.0151V69.3969C65.5454 69.73 65.2755 69.9999 64.9424 69.9999H50.8258C50.4927 69.9999 50.2228 69.73 50.2228 69.3969V56.3172H38.137V69.3969C38.137 69.73 37.867 69.9999 37.5339 69.9999H23.4166C23.0835 69.9999 22.8136 69.73 22.8136 69.3969V45.0153C22.8136 44.8196 22.9084 44.636 23.0683 44.523L43.831 29.837C44.0398 29.6895 44.3187 29.6895 44.5275 29.837Z" fill="#62FCC1"/>
<path d="M71.1354 37.4146L62.1614 31.0674V22.7023C62.1614 22.2429 61.7889 21.8704 61.3292 21.8704H56.3103C55.8509 21.8704 55.4787 22.2429 55.4787 22.7023V26.3405L45.8525 19.5319C44.8505 18.8232 43.5087 18.8232 42.507 19.5319L17.2239 37.4146C15.9174 38.3384 15.6077 40.1467 16.5316 41.4527C17.4566 42.7601 19.2641 43.0676 20.5696 42.145L44.1797 25.4452L67.7897 42.145C68.2979 42.5044 68.8811 42.6767 69.4605 42.6767C70.3688 42.6767 71.2629 42.2507 71.8277 41.4524C72.7515 40.1464 72.4419 38.3382 71.1354 37.4144V37.4146Z" fill="#62FCC1"/>
</g>
<defs>
<clipPath id="clip0_1_314">
<rect width="56.3603" height="51" fill="white" transform="translate(16 19)"/>
</clipPath>
</defs>
</svg>
