<svg width="88" height="88" viewBox="0 0 88 88" fill="none" xmlns="http://www.w3.org/2000/svg">
<path d="M15 20.3787C15 19.065 16.065 18 17.3787 18H70.504C71.8177 18 72.8828 19.065 72.8828 20.3787V31.0017C72.8828 32.3155 71.8177 33.3805 70.504 33.3805H17.3787C16.065 33.3805 15 32.3155 15 31.0017V20.3787Z" fill="#62FCC1"/>
<path fill-rule="evenodd" clip-rule="evenodd" d="M42.3559 24.7099L65.1151 24.7099C65.7719 24.7099 66.3044 25.2424 66.3044 25.8993C66.3044 26.5562 65.7719 27.0887 65.1151 27.0887L42.356 27.0887C41.6991 27.0887 41.1666 26.5562 41.1666 25.8993C41.1666 25.2424 41.6991 24.7099 42.3559 24.7099Z" fill="#151824"/>
<path fill-rule="evenodd" clip-rule="evenodd" d="M31.65 26.0236C31.65 26.6805 31.1175 27.213 30.4606 27.213L29.6677 27.213C29.0108 27.213 28.4783 26.6805 28.4783 26.0236C28.4783 25.3667 29.0108 24.8342 29.6677 24.8342L30.4606 24.8342C31.1175 24.8342 31.65 25.3667 31.65 26.0236Z" fill="#151824"/>
<path fill-rule="evenodd" clip-rule="evenodd" d="M37.2019 26.0236C37.2019 26.6805 36.6694 27.213 36.0125 27.213L35.2196 27.213C34.5627 27.213 34.0302 26.6805 34.0302 26.0236C34.0302 25.3667 34.5627 24.8342 35.2196 24.8342L36.0125 24.8342C36.6694 24.8342 37.2019 25.3667 37.2019 26.0236Z" fill="#151824"/>
<path fill-rule="evenodd" clip-rule="evenodd" d="M26.1008 26.0236C26.1008 26.6805 25.5683 27.213 24.9115 27.213L24.1185 27.213C23.4617 27.213 22.9292 26.6805 22.9292 26.0236C22.9292 25.3667 23.4617 24.8342 24.1185 24.8342L24.9115 24.8342C25.5683 24.8342 26.1008 25.3667 26.1008 26.0236Z" fill="#151824"/>
<path d="M14.9998 38.6148C14.9998 37.3011 16.0648 36.2361 17.3785 36.2361H70.5038C71.8175 36.2361 72.8825 37.3011 72.8825 38.6148V49.2378C72.8825 50.5516 71.8175 51.6165 70.5038 51.6165H17.3785C16.0648 51.6165 14.9998 50.5515 14.9998 49.2378V38.6148Z" fill="#62FCC1"/>
<path fill-rule="evenodd" clip-rule="evenodd" d="M42.3557 42.9469L65.1148 42.9469C65.7717 42.9469 66.3042 43.4794 66.3042 44.1362C66.3042 44.7931 65.7717 45.3256 65.1148 45.3256L42.3557 45.3256C41.6988 45.3256 41.1663 44.7931 41.1663 44.1363C41.1663 43.4794 41.6988 42.9469 42.3557 42.9469Z" fill="#151824"/>
<path fill-rule="evenodd" clip-rule="evenodd" d="M31.6497 44.2605C31.6497 44.9174 31.1172 45.4499 30.4603 45.4499L29.6674 45.4499C29.0106 45.4499 28.4781 44.9174 28.4781 44.2605C28.4781 43.6036 29.0106 43.0711 29.6674 43.0711L30.4603 43.0711C31.1172 43.0711 31.6497 43.6036 31.6497 44.2605Z" fill="#151824"/>
<path fill-rule="evenodd" clip-rule="evenodd" d="M37.2016 44.2605C37.2016 44.9174 36.6691 45.4499 36.0123 45.4499L35.2193 45.4499C34.5625 45.4499 34.03 44.9174 34.03 44.2605C34.03 43.6036 34.5625 43.0711 35.2193 43.0711L36.0123 43.0711C36.6691 43.0711 37.2016 43.6036 37.2016 44.2605Z" fill="#151824"/>
<path fill-rule="evenodd" clip-rule="evenodd" d="M26.1006 44.2605C26.1006 44.9174 25.5681 45.4499 24.9112 45.4499L24.1183 45.4499C23.4614 45.4499 22.9289 44.9174 22.9289 44.2605C22.9289 43.6036 23.4614 43.0711 24.1183 43.0711L24.9112 43.0711C25.5681 43.0711 26.1006 43.6036 26.1006 44.2605Z" fill="#151824"/>
<path d="M14.9998 56.8526C14.9998 55.5388 16.0648 54.4738 17.3785 54.4738H70.5038C71.8175 54.4738 72.8825 55.5388 72.8825 56.8526V67.4755C72.8825 68.7893 71.8175 69.8543 70.5038 69.8543H17.3785C16.0648 69.8543 14.9998 68.7893 14.9998 67.4755V56.8526Z" fill="#62FCC1"/>
<path fill-rule="evenodd" clip-rule="evenodd" d="M42.3557 61.1845L65.1148 61.1845C65.7717 61.1845 66.3042 61.717 66.3042 62.3738C66.3042 63.0307 65.7717 63.5632 65.1148 63.5632L42.3557 63.5632C41.6988 63.5632 41.1663 63.0307 41.1663 62.3739C41.1663 61.717 41.6988 61.1845 42.3557 61.1845Z" fill="#151824"/>
<path fill-rule="evenodd" clip-rule="evenodd" d="M31.6497 62.4981C31.6497 63.155 31.1172 63.6875 30.4603 63.6875L29.6674 63.6875C29.0106 63.6875 28.4781 63.155 28.4781 62.4981C28.4781 61.8413 29.0106 61.3088 29.6674 61.3088L30.4603 61.3088C31.1172 61.3088 31.6497 61.8413 31.6497 62.4981Z" fill="#151824"/>
<path fill-rule="evenodd" clip-rule="evenodd" d="M37.2016 62.4981C37.2016 63.155 36.6691 63.6875 36.0123 63.6875L35.2193 63.6875C34.5625 63.6875 34.03 63.155 34.03 62.4981C34.03 61.8413 34.5625 61.3088 35.2193 61.3088L36.0123 61.3088C36.6691 61.3088 37.2016 61.8413 37.2016 62.4981Z" fill="#151824"/>
<path fill-rule="evenodd" clip-rule="evenodd" d="M26.1006 62.4981C26.1006 63.155 25.5681 63.6875 24.9112 63.6875L24.1183 63.6875C23.4614 63.6875 22.9289 63.155 22.9289 62.4981C22.9289 61.8413 23.4614 61.3088 24.1183 61.3088L24.9112 61.3088C25.5681 61.3088 26.1006 61.8413 26.1006 62.4981Z" fill="#151824"/>
</svg>
