<svg width="166" height="24" viewBox="0 0 166 24" fill="none" xmlns="http://www.w3.org/2000/svg">
<path d="M37.8171 17.375C37.2193 17.3862 36.6222 17.3262 36.0385 17.1961C35.6115 17.0974 35.216 16.8922 34.8883 16.5996C34.5973 16.3145 34.3918 15.9528 34.2955 15.5558C34.1658 15.0373 34.106 14.5037 34.1176 13.9692V10.8675C34.1065 10.335 34.1663 9.8034 34.2955 9.28687C34.3911 8.88783 34.5966 8.52398 34.8883 8.23709C35.2159 7.94423 35.6114 7.7391 36.0385 7.64062C36.6223 7.51074 37.2193 7.45068 37.8171 7.46167H41.552C42.1617 7.44851 42.7707 7.50859 43.3662 7.64062C43.7954 7.73816 44.1931 7.94335 44.5223 8.23709C44.814 8.52398 45.0195 8.88783 45.1151 9.28687C45.2443 9.8034 45.3041 10.335 45.293 10.8675V13.9692C45.3046 14.5037 45.2448 15.0373 45.1151 15.5558C45.0185 15.9527 44.8131 16.3143 44.5223 16.5996C44.1929 16.8931 43.7953 17.0983 43.3662 17.1961C42.7707 17.3283 42.1617 17.3883 41.552 17.375H37.8171ZM43.1231 10.9809C43.1293 10.7221 43.1034 10.4637 43.046 10.2114C43.003 10.0252 42.9109 9.85419 42.7793 9.71633C42.6377 9.58165 42.4608 9.49057 42.2694 9.45389C42.0059 9.40128 41.7376 9.37728 41.469 9.38231H37.9416C37.6592 9.37626 37.377 9.40025 37.0997 9.45389C36.9083 9.49057 36.7314 9.58165 36.5898 9.71633C36.4584 9.85257 36.3697 10.0248 36.3349 10.2114C36.287 10.465 36.2652 10.7228 36.2697 10.9809V13.8976C36.2653 14.1616 36.2872 14.4253 36.3349 14.6849C36.3672 14.8724 36.4563 15.0453 36.5898 15.18C36.733 15.309 36.91 15.3939 37.0997 15.4246C37.3771 15.4792 37.6589 15.5071 37.9416 15.5081H41.4987C41.767 15.5123 42.035 15.4903 42.299 15.4425C42.4894 15.417 42.6668 15.3318 42.8063 15.199C42.9457 15.0662 43.04 14.8926 43.0757 14.7028C43.1329 14.4445 43.1588 14.1801 43.1528 13.9155L43.1231 10.9809Z" fill="white"/>
<path d="M50.6129 17.375C50.0151 17.3863 49.4181 17.3262 48.8343 17.1961C48.4073 17.0974 48.0118 16.8923 47.6842 16.5996C47.3931 16.3146 47.1877 15.9528 47.0913 15.5558C46.9616 15.0373 46.9018 14.5037 46.9135 13.9692V12.9194C46.9021 12.3829 46.9619 11.8474 47.0913 11.3268C47.1866 10.9277 47.3921 10.5637 47.6842 10.277C48.0117 9.98418 48.4072 9.77905 48.8343 9.68057C49.4181 9.55063 50.0151 9.49057 50.6129 9.50162H56.2628V11.3566H50.69C50.4116 11.3508 50.1333 11.3748 49.86 11.4282C49.6696 11.4645 49.4931 11.5533 49.3501 11.6847C49.2157 11.822 49.1249 11.9964 49.0893 12.1857C49.0367 12.4488 49.0128 12.7168 49.0181 12.985V13.9155C49.013 14.1758 49.0369 14.4359 49.0893 14.6909C49.1269 14.8796 49.2174 15.0534 49.3501 15.192C49.4923 15.327 49.6687 15.4198 49.86 15.4604C50.1327 15.5189 50.4112 15.5449 50.69 15.5379H56.2806V17.3631L50.6129 17.375Z" fill="white"/>
<path d="M61.5383 17.3751C60.9405 17.3863 60.3435 17.3262 59.7597 17.1961C59.3327 17.0974 58.9373 16.8923 58.6096 16.5996C58.3188 16.3144 58.1134 15.9527 58.0167 15.5558C57.8871 15.0374 57.8272 14.5037 57.8389 13.9692V9.5434H60.0028V13.9513C59.9959 14.2268 60.0278 14.502 60.0977 14.7685C60.1478 14.955 60.2508 15.1229 60.3941 15.2516C60.5501 15.3772 60.7361 15.4594 60.9336 15.4902C61.2077 15.5377 61.4855 15.5596 61.7636 15.5558H64.0105C64.3004 15.5601 64.5901 15.5381 64.8761 15.4902C65.0741 15.4614 65.2606 15.3789 65.4156 15.2516C65.553 15.122 65.6481 14.9536 65.6883 14.7685C65.7466 14.5002 65.7725 14.2258 65.7654 13.9513V9.5434H67.8997V14.011C67.9113 14.5455 67.8515 15.0791 67.7218 15.5976C67.6255 15.9946 67.42 16.3563 67.1289 16.6414C66.7911 16.9392 66.3827 17.1446 65.9432 17.2379C65.3457 17.3697 64.7348 17.4298 64.1232 17.4168L61.5383 17.3751Z" fill="white"/>
<path d="M69.5068 17.3749V6.97839H71.7004V17.3749H69.5068Z" fill="white"/>
<path d="M77.1003 17.3751C76.5025 17.3863 75.9054 17.3262 75.3217 17.1961C74.8947 17.0974 74.4992 16.8923 74.1716 16.5996C73.8802 16.3148 73.6747 15.953 73.5787 15.5558C73.449 15.0374 73.3892 14.5037 73.4008 13.9692V9.5434H75.5648V13.9513C75.5578 14.2268 75.5897 14.502 75.6596 14.7685C75.7098 14.955 75.8127 15.1229 75.956 15.2516C76.1121 15.3772 76.2981 15.4594 76.4955 15.4902C76.7696 15.5377 77.0475 15.5597 77.3255 15.5558H79.5725C79.8624 15.5601 80.152 15.5381 80.438 15.4902C80.6361 15.4614 80.8225 15.3789 80.9775 15.2516C81.1149 15.122 81.21 14.9536 81.2503 14.7685C81.3084 14.5002 81.3343 14.2258 81.3273 13.9513V9.5434H83.4616V14.011C83.4733 14.5455 83.4134 15.0791 83.2837 15.5976C83.1874 15.9946 82.982 16.3563 82.6909 16.6414C82.3531 16.9394 81.9448 17.1448 81.5052 17.2379C80.9076 17.3696 80.2967 17.4297 79.6851 17.4168L77.1003 17.3751Z" fill="white"/>
<path d="M94.2668 15.2874C94.2729 15.6164 94.239 15.9448 94.166 16.2656C94.1068 16.5181 93.9673 16.7442 93.7688 16.9098C93.5322 17.0908 93.2556 17.2115 92.9625 17.2617C92.5226 17.3425 92.0757 17.3785 91.6286 17.3691H84.9056V15.6751H91.35C91.5578 15.6934 91.7659 15.6432 91.9428 15.5319C92.0086 15.458 92.058 15.3708 92.0876 15.2762C92.1173 15.1816 92.1265 15.0817 92.1148 14.9832V14.7207C92.1148 14.4304 92.0594 14.2495 91.9488 14.1779C91.7761 14.0919 91.5835 14.0548 91.3915 14.0706H87.0103C86.6481 14.0803 86.2865 14.0361 85.9372 13.9394C85.692 13.8695 85.4705 13.7334 85.2969 13.5457C85.1391 13.3623 85.0327 13.14 84.9886 12.9015C84.9325 12.6027 84.9067 12.2989 84.9116 11.9949V11.3984C84.9052 11.1044 84.9411 10.8111 85.0183 10.5275C85.0791 10.2992 85.2023 10.0925 85.374 9.93107C85.5641 9.76679 85.7926 9.65389 86.038 9.60301C86.3863 9.54235 86.7404 9.52234 87.0933 9.54336H94.2668V11.1538H87.615C87.4544 11.138 87.2933 11.178 87.1585 11.2672C87.1071 11.3227 87.0683 11.3888 87.0448 11.4609C87.0212 11.533 87.0135 11.6093 87.0221 11.6847V12.0485C87.0087 12.1328 87.0133 12.2191 87.0358 12.3014C87.0583 12.3837 87.0981 12.4602 87.1526 12.5257C87.2719 12.6144 87.42 12.6549 87.5676 12.639H91.8065C92.2191 12.6304 92.6312 12.6724 93.0337 12.7643C93.3126 12.8276 93.5701 12.9633 93.7807 13.158C93.9696 13.3494 94.0993 13.5918 94.1542 13.8558C94.2271 14.2008 94.2609 14.553 94.255 14.9056L94.2668 15.2874Z" fill="white"/>
<path fill-rule="evenodd" clip-rule="evenodd" d="M14.4974 0.900671C14.4943 1.13747 14.3986 1.36351 14.2311 1.52984C14.0635 1.69618 13.8376 1.78943 13.6022 1.78941H12.5232C12.4057 1.78941 12.2892 1.76612 12.1806 1.72085C12.072 1.67559 11.9733 1.60925 11.8902 1.52561C11.8071 1.44198 11.7411 1.34269 11.6961 1.23341C11.6512 1.12414 11.628 1.00702 11.628 0.888741C11.6311 0.651942 11.7268 0.425906 11.8944 0.259569C12.0619 0.0932317 12.2878 -2.07702e-05 12.5232 3.47063e-09H13.6022C13.8396 3.47063e-09 14.0673 0.0948918 14.2352 0.2638C14.4031 0.432709 14.4974 0.661798 14.4974 0.900671ZM11.3063 5.1236C11.4785 4.96043 11.5795 4.73533 11.5872 4.49748L11.5635 4.47958C11.5635 4.3613 11.5404 4.24418 11.4954 4.13491C11.4504 4.02564 11.3844 3.92635 11.3013 3.84271C11.2182 3.75908 11.1195 3.69273 11.0109 3.64747C10.9023 3.60221 10.7859 3.57891 10.6683 3.57891H7.96489C7.84634 3.57574 7.72834 3.5963 7.61776 3.6394C7.50717 3.68249 7.4062 3.74726 7.3207 3.82995C7.23521 3.91264 7.16689 4.01159 7.11973 4.12106C7.07256 4.23054 7.04749 4.34835 7.04596 4.46765C7.04596 4.70653 7.14028 4.93562 7.30816 5.10452C7.47605 5.27343 7.70375 5.36832 7.94117 5.36832H10.6683C10.9048 5.37476 11.1341 5.28677 11.3063 5.1236ZM7.05952 8.09413C7.05952 8.333 6.9652 8.56209 6.79732 8.731C6.62943 8.89991 6.40173 8.9948 6.1643 8.9948H4.84224C4.60481 8.9948 4.37711 8.89991 4.20923 8.731C4.04134 8.56209 3.94702 8.333 3.94702 8.09413C3.94702 7.85526 4.04134 7.62617 4.20923 7.45726C4.37711 7.28835 4.60481 7.19346 4.84224 7.19346H6.1643C6.40173 7.19346 6.62943 7.28835 6.79732 7.45726C6.9652 7.62617 7.05952 7.85526 7.05952 8.09413ZM12.9367 15.2875C12.9367 15.4058 12.9136 15.5229 12.8686 15.6322C12.8236 15.7415 12.7576 15.8408 12.6745 15.9244C12.5914 16.008 12.4927 16.0744 12.3841 16.1196C12.2755 16.1649 12.1591 16.1882 12.0415 16.1882H6.44494C6.20752 16.1882 5.97981 16.0933 5.81193 15.9244C5.64404 15.7555 5.54973 15.5264 5.54973 15.2875C5.54973 15.0487 5.64404 14.8196 5.81193 14.6507C5.97981 14.4817 6.20752 14.3869 6.44494 14.3869H12.0415C12.1591 14.3869 12.2755 14.4102 12.3841 14.4554C12.4927 14.5007 12.5914 14.567 12.6745 14.6507C12.7576 14.7343 12.8236 14.8336 12.8686 14.9429C12.9136 15.0521 12.9367 15.1692 12.9367 15.2875ZM10.561 8.731C10.7289 8.56209 10.8232 8.333 10.8232 8.09413H10.8173C10.8173 7.97585 10.7942 7.85873 10.7492 7.74946C10.7042 7.64018 10.6382 7.54089 10.5551 7.45726C10.472 7.37362 10.3733 7.30728 10.2647 7.26202C10.1561 7.21676 10.0397 7.19346 9.9221 7.19346H8.60004C8.36261 7.19346 8.13491 7.28835 7.96702 7.45726C7.79914 7.62617 7.70482 7.85526 7.70482 8.09413C7.70482 8.21291 7.72817 8.33052 7.77353 8.44019C7.81889 8.54985 7.88536 8.6494 7.96912 8.73312C8.05288 8.81683 8.15226 8.88305 8.26156 8.92796C8.37086 8.97287 8.48791 8.99559 8.60596 8.9948H9.92803C10.1655 8.9948 10.3932 8.89991 10.561 8.731ZM11.0099 11.6907C11.0099 11.9296 10.9156 12.1587 10.7477 12.3276C10.5798 12.4965 10.3521 12.5914 10.1147 12.5914H7.48238C7.24495 12.5914 7.01725 12.4965 6.84937 12.3276C6.68148 12.1587 6.58717 11.9296 6.58717 11.6907C6.58717 11.5725 6.61032 11.4553 6.65531 11.3461C6.7003 11.2368 6.76624 11.1375 6.84937 11.0539C6.9325 10.9702 7.03118 10.9039 7.1398 10.8586C7.24841 10.8134 7.36482 10.7901 7.48238 10.7901H10.1147C10.2322 10.7901 10.3486 10.8134 10.4572 10.8586C10.5659 10.9039 10.6645 10.9702 10.7477 11.0539C10.8308 11.1375 10.8967 11.2368 10.9417 11.3461C10.9867 11.4553 11.0099 11.5725 11.0099 11.6907ZM13.9675 19.5209C14.1353 19.352 14.2297 19.1229 14.2297 18.8841C14.2297 18.6452 14.1353 18.4161 13.9675 18.2472C13.7996 18.0783 13.5719 17.9834 13.3345 17.9834H10.6073C10.3699 17.9834 10.1422 18.0783 9.97431 18.2472C9.80642 18.4161 9.7121 18.6452 9.7121 18.8841C9.7121 19.1229 9.80642 19.352 9.97431 19.5209C10.1422 19.6898 10.3699 19.7847 10.6073 19.7847H13.3345C13.5719 19.7847 13.7996 19.6898 13.9675 19.5209ZM10.9928 0.900671C10.9913 1.01946 10.9664 1.13677 10.9196 1.24585C10.8728 1.35492 10.805 1.4536 10.7201 1.53621C10.6353 1.61882 10.535 1.68372 10.4251 1.72718C10.3152 1.77063 10.1979 1.79178 10.0798 1.78941H6.94952C6.71209 1.78941 6.48439 1.69452 6.31651 1.52561C6.14862 1.3567 6.05431 1.12761 6.05431 0.888741C6.05742 0.651942 6.15311 0.425906 6.32066 0.259569C6.48821 0.0932317 6.71413 -2.07702e-05 6.94952 3.47063e-09H10.0798C10.3172 3.47063e-09 10.5449 0.0948918 10.7128 0.2638C10.8807 0.432709 10.975 0.661798 10.975 0.900671H10.9928ZM5.54186 12.3276C5.70974 12.1587 5.80406 11.9296 5.80406 11.6907C5.80406 11.5725 5.7809 11.4553 5.73591 11.3461C5.69093 11.2368 5.62498 11.1375 5.54186 11.0539C5.45873 10.9702 5.36004 10.9039 5.25143 10.8586C5.14282 10.8134 5.02641 10.7901 4.90885 10.7901H0.895212C0.777651 10.7901 0.661241 10.8134 0.552629 10.8586C0.444017 10.9039 0.34533 10.9702 0.262202 11.0539C0.179073 11.1375 0.113133 11.2368 0.068144 11.3461C0.0231553 11.4553 0 11.5725 0 11.6907C0 11.9296 0.0943167 12.1587 0.262202 12.3276C0.430086 12.4965 0.657787 12.5914 0.895212 12.5914H4.90885C5.14627 12.5914 5.37397 12.4965 5.54186 12.3276ZM9.00509 18.8841C9.00509 19.1229 8.91077 19.352 8.74289 19.5209C8.575 19.6898 8.3473 19.7847 8.10988 19.7847H3.77017C3.53275 19.7847 3.30505 19.6898 3.13716 19.5209C2.96928 19.352 2.87496 19.1229 2.87496 18.8841C2.87496 18.6452 2.96928 18.4161 3.13716 18.2472C3.30505 18.0783 3.53275 17.9834 3.77017 17.9834H8.10988C8.3473 17.9834 8.575 18.0783 8.74289 18.2472C8.91077 18.4161 9.00509 18.6452 9.00509 18.8841ZM17.8563 23.3757C17.8316 23.3807 17.8067 23.3847 17.7816 23.3876L13.4419 23.3757H17.8563ZM24.4868 23.3757H17.8563C18.0454 23.3372 18.2178 23.238 18.3471 23.0921C18.4932 22.9271 18.5739 22.7139 18.5739 22.4929C18.5739 22.272 18.4932 22.0587 18.3471 21.8937C18.201 21.7288 17.9997 21.6236 17.7816 21.5982H14.0703C14.2373 21.0156 14.3329 20.4147 14.3549 19.8088H21.5166C21.642 19.8234 21.769 19.8111 21.8894 19.7728C22.0097 19.7345 22.1207 19.671 22.215 19.5865C22.3092 19.5021 22.3846 19.3985 22.4363 19.2826C22.4879 19.1667 22.5146 19.0411 22.5146 18.9141C22.5146 18.7871 22.4879 18.6615 22.4363 18.5456C22.3846 18.4297 22.3092 18.3261 22.215 18.2416C22.1207 18.1571 22.0097 18.0936 21.8894 18.0553C21.769 18.017 21.642 18.0048 21.5166 18.0194H14.2659C14.1759 17.4086 14.0229 16.8089 13.8094 16.23H16.9516C17.077 16.2446 17.204 16.2323 17.3244 16.194C17.4448 16.1557 17.5557 16.0922 17.65 16.0077C17.7442 15.9232 17.8196 15.8196 17.8713 15.7037C17.9229 15.5878 17.9496 15.4623 17.9496 15.3353C17.9496 15.2082 17.9229 15.0827 17.8713 14.9668C17.8196 14.8509 17.7442 14.7473 17.65 14.6628C17.5557 14.5783 17.4448 14.5148 17.3244 14.4765C17.204 14.4382 17.077 14.426 16.9516 14.4406H12.9557C12.808 14.1755 12.6593 13.9249 12.5138 13.6797C12.3089 13.3344 12.1104 12.9999 11.9301 12.6511H20.4613C20.5867 12.6657 20.7137 12.6535 20.8341 12.6152C20.9545 12.5769 21.0654 12.5134 21.1597 12.4289C21.2539 12.3444 21.3294 12.2408 21.381 12.1249C21.4326 12.009 21.4593 11.8834 21.4593 11.7564C21.4593 11.6294 21.4326 11.5039 21.381 11.388C21.3294 11.2721 21.2539 11.1685 21.1597 11.084C21.0654 10.9995 20.9545 10.936 20.8341 10.8977C20.7137 10.8594 20.5867 10.8471 20.4613 10.8617H11.2602C11.1329 10.2833 11.0595 9.69425 11.0408 9.10214V9.06039H16.3291C16.4545 9.07498 16.5815 9.06273 16.7019 9.02442C16.8223 8.98612 16.9332 8.92264 17.0275 8.83815C17.1217 8.75365 17.1971 8.65006 17.2488 8.53416C17.3004 8.41827 17.3271 8.29269 17.3271 8.16568C17.3271 8.03867 17.3004 7.9131 17.2488 7.7972C17.1971 7.68131 17.1217 7.57771 17.0275 7.49322C16.9332 7.40873 16.8223 7.34525 16.7019 7.30694C16.5815 7.26864 16.4545 7.25638 16.3291 7.27098H11.1831C11.2884 6.65841 11.4573 6.05865 11.687 5.48156H20.153C20.2784 5.49616 20.4055 5.4839 20.5258 5.4456C20.6462 5.4073 20.7571 5.34382 20.8514 5.25932C20.9456 5.17483 21.0211 5.07123 21.0727 4.95534C21.1244 4.83944 21.1511 4.71387 21.1511 4.58686C21.1511 4.45985 21.1244 4.33427 21.0727 4.21838C21.0211 4.10248 20.9456 3.99889 20.8514 3.9144C20.7571 3.8299 20.6462 3.76642 20.5258 3.72812C20.4055 3.68982 20.2784 3.67756 20.153 3.69215H12.6474C13.1069 3.01027 13.6878 2.41977 14.3608 1.95046L14.4319 1.78941H21.3387C21.5746 1.8084 21.8082 1.73234 21.9884 1.57797C22.1685 1.4236 22.2803 1.20357 22.2991 0.966282C22.318 0.728992 22.2424 0.493879 22.089 0.312666C21.9355 0.131452 21.7168 0.0189833 21.481 0L22.0738 0.0357882C22.3797 0.0504598 22.6845 0.0823212 22.9868 0.131224C23.5402 0.232362 24.0824 0.388199 24.6053 0.596471C25.1521 0.809503 25.678 1.07308 26.1764 1.38381C26.6885 1.69154 27.1605 2.06221 27.5815 2.48728C27.9687 2.87023 28.2893 3.31581 28.53 3.80548C28.7545 4.31772 28.9524 4.84133 29.1229 5.3742C29.2669 5.80026 29.3957 6.22631 29.5246 6.65237C29.5761 6.82278 29.6277 6.9932 29.6802 7.16361C29.8051 7.46833 29.8659 7.79578 29.8588 8.12532C29.8516 8.45486 29.7767 8.77933 29.6387 9.07828C29.5722 9.20623 29.5375 9.34846 29.5375 9.49283C29.5375 9.63721 29.5722 9.77944 29.6387 9.90738C29.7513 10.1015 29.8782 10.2869 30.0181 10.4621C30.2078 10.7365 30.4035 11.0049 30.611 11.2793C30.734 11.4419 30.8112 11.5753 30.8858 11.7041C30.937 11.7926 30.9869 11.8789 31.0497 11.9712C31.1186 12.0725 31.1981 12.1821 31.2799 12.2948L31.28 12.2949C31.3811 12.4343 31.4855 12.5783 31.5773 12.7168C31.641 12.819 31.6853 12.9323 31.7078 13.0508C31.7329 13.2064 31.7107 13.366 31.644 13.5086C31.5774 13.6512 31.4694 13.7703 31.3343 13.85C31.0947 14.0259 30.8193 14.1461 30.528 14.202C30.3086 14.2497 30.2315 14.3392 30.2493 14.5598C30.2679 14.6836 30.2976 14.8054 30.3383 14.9237C30.3849 15.0302 30.4168 15.1425 30.4331 15.2577C30.4378 15.3718 30.4155 15.4853 30.3681 15.589C30.3207 15.6926 30.2495 15.7835 30.1604 15.8542C30.1041 15.8967 30.052 15.9412 30.0003 15.9854C29.9649 16.0157 29.9298 16.0458 29.8936 16.0749C30.014 16.175 30.0902 16.3189 30.1058 16.4752C30.1213 16.6316 30.0749 16.7878 29.9766 16.9099C29.9518 16.9473 29.9239 16.9827 29.896 17.0181L29.8959 17.0181L29.8959 17.0181C29.857 17.0674 29.8179 17.1169 29.7869 17.1724C29.7087 17.2636 29.6542 17.3729 29.6283 17.4906C29.6024 17.6082 29.606 17.7305 29.6387 17.8464C29.7598 18.1946 29.7944 18.5673 29.7395 18.932C29.7071 19.1843 29.6141 19.4248 29.4684 19.6327C29.3228 19.8406 29.1289 20.0095 28.9035 20.1249C28.6216 20.2759 28.3096 20.3615 27.9905 20.3754C27.7445 20.3933 27.497 20.4053 27.2494 20.4172C27.0019 20.4291 26.7544 20.441 26.5084 20.4589C25.9666 20.4375 25.4348 20.6109 25.0085 20.948C24.904 21.0329 24.821 21.1415 24.7664 21.2649C24.7117 21.3883 24.687 21.523 24.6943 21.6579C24.7156 21.9958 24.6896 22.3352 24.6172 22.6659C24.5788 22.8375 24.5496 23.0091 24.5208 23.1785C24.5096 23.2446 24.4984 23.3104 24.4868 23.3757ZM13.3823 22.4927C13.3823 22.6109 13.3592 22.7281 13.3142 22.8373C13.2692 22.9466 13.2032 23.0459 13.1201 23.1295C13.037 23.2132 12.9383 23.2795 12.8297 23.3248C12.7211 23.37 12.6047 23.3933 12.4871 23.3933H9.75996C9.52771 23.3856 9.30755 23.2873 9.14603 23.1192C8.9845 22.9511 8.89426 22.7264 8.89439 22.4927C8.89439 22.2538 8.98871 22.0247 9.15659 21.8558C9.32448 21.6869 9.55218 21.592 9.7896 21.592H12.5167C12.7542 21.592 12.9819 21.6869 13.1497 21.8558C13.3176 22.0247 13.412 22.2538 13.412 22.4927H13.3823ZM7.91446 23.1295C8.08235 22.9606 8.17666 22.7315 8.17666 22.4927H8.20038C8.20038 22.2538 8.10606 22.0247 7.93818 21.8558C7.77029 21.6869 7.54259 21.592 7.30517 21.592H2.96546C2.72804 21.592 2.50034 21.6869 2.33245 21.8558C2.16457 22.0247 2.07025 22.2538 2.07025 22.4927C2.07025 22.7315 2.16457 22.9606 2.33245 23.1295C2.50034 23.2984 2.72804 23.3933 2.96546 23.3933H7.28145C7.51888 23.3933 7.74658 23.2984 7.91446 23.1295Z" fill="url(#paint0_linear_2322_645)"/>
<path fill-rule="evenodd" clip-rule="evenodd" d="M102.618 14.5597V17.375H100.436V7.52729H108.268C108.865 7.51427 109.462 7.57031 110.046 7.69431C110.463 7.78 110.852 7.96856 111.179 8.24306C111.465 8.51018 111.671 8.85346 111.771 9.2332C111.9 9.71326 111.96 10.2094 111.949 10.7065V11.5594C111.961 12.0503 111.903 12.5404 111.777 13.0148C111.678 13.3767 111.471 13.6994 111.184 13.9394C110.854 14.1914 110.467 14.3573 110.058 14.4225C109.471 14.5236 108.875 14.5695 108.279 14.5597H102.618ZM109.762 10.79C109.784 10.5962 109.766 10.3999 109.707 10.2138C109.649 10.0278 109.552 9.8562 109.424 9.71038C109.07 9.4875 108.654 9.38697 108.238 9.42407H102.641V12.7882H108.268C108.681 12.8268 109.096 12.7328 109.453 12.5198C109.581 12.3806 109.677 12.215 109.734 12.0348C109.791 11.8545 109.809 11.6637 109.785 11.4759L109.762 10.79ZM113.307 17.375V12.8418C113.296 12.3333 113.364 11.8261 113.508 11.3387C113.628 10.9474 113.849 10.5953 114.149 10.3188C114.472 10.0329 114.858 9.8285 115.275 9.72229C115.824 9.58779 116.388 9.52564 116.953 9.53738H118.346V11.285H117.012C116.761 11.2799 116.511 11.3039 116.265 11.3566C116.086 11.3931 115.92 11.4776 115.785 11.6012C115.655 11.7324 115.565 11.8978 115.524 12.0783C115.467 12.3286 115.441 12.5851 115.447 12.8418V17.3631L113.307 17.375ZM121.28 17.1962C121.864 17.3266 122.461 17.3867 123.059 17.3751L125.685 17.387C126.283 17.3979 126.88 17.3379 127.464 17.2081C127.891 17.1101 128.286 16.9049 128.614 16.6116C128.904 16.3284 129.109 15.9688 129.207 15.5738C129.336 15.0573 129.396 14.5256 129.384 13.9931V12.9553C129.395 12.4208 129.336 11.8872 129.207 11.3686C129.11 10.9682 128.905 10.6026 128.614 10.3129C128.288 10.0181 127.891 9.81267 127.464 9.71642C126.88 9.58671 126.283 9.52665 125.685 9.53748H123.059C122.461 9.52603 121.864 9.5861 121.28 9.71642C120.853 9.81466 120.457 10.0198 120.13 10.3129C119.838 10.5976 119.633 10.9594 119.537 11.3567C119.407 11.8752 119.348 12.4088 119.359 12.9433V13.9812C119.347 14.5137 119.407 15.0454 119.537 15.5618C119.634 15.957 119.839 16.3167 120.13 16.5997C120.457 16.893 120.853 17.0982 121.28 17.1962ZM127.185 12.2097C127.242 12.4741 127.268 12.7444 127.262 13.0149V13.9394C127.268 14.208 127.243 14.4764 127.185 14.7387C127.143 14.9275 127.043 15.0985 126.9 15.2278C126.728 15.3628 126.524 15.4493 126.307 15.4783C125.994 15.5318 125.677 15.5557 125.359 15.5499H123.337C123.023 15.5558 122.71 15.5318 122.401 15.4783C122.184 15.4499 121.979 15.3634 121.808 15.2278C121.665 15.0983 121.565 14.9274 121.523 14.7387C121.466 14.4764 121.44 14.208 121.446 13.9394V13.0149C121.44 12.7444 121.466 12.4741 121.523 12.2097C121.563 12.0167 121.663 11.8413 121.808 11.7086C121.979 11.5739 122.184 11.4893 122.401 11.4641C122.71 11.4158 123.024 11.3938 123.337 11.3985H125.359C125.676 11.3939 125.994 11.4158 126.307 11.4641C126.524 11.4893 126.729 11.5739 126.9 11.7086C127.045 11.8413 127.145 12.0167 127.185 12.2097Z" fill="url(#paint1_linear_2322_645)"/>
<path d="M137.751 17.3751L135.125 14.5478L132.457 17.3751H129.836L133.868 13.3071L130.121 9.5434H132.688L135.214 12.1858L137.793 9.5434H140.377L136.488 13.3668L140.419 17.3631L137.751 17.3751Z" fill="white"/>
<path d="M142.113 9.10188C141.902 9.12898 141.689 9.07109 141.52 8.94083C141.46 8.87215 141.414 8.79175 141.385 8.70457C141.356 8.61739 141.346 8.52526 141.354 8.43383V7.59877C141.346 7.50916 141.356 7.41882 141.385 7.33355C141.414 7.24828 141.46 7.16998 141.52 7.1037C141.692 6.9805 141.904 6.92723 142.113 6.95458H142.818C143.027 6.93012 143.238 6.98313 143.411 7.1037C143.472 7.16998 143.518 7.24828 143.546 7.33355C143.575 7.41882 143.585 7.50916 143.577 7.59877V8.43383C143.585 8.52526 143.575 8.61739 143.546 8.70457C143.518 8.79175 143.472 8.87215 143.411 8.94083C143.241 9.06824 143.029 9.12582 142.818 9.10188H142.113ZM141.384 17.3749V9.75203H143.565V17.3749H141.384Z" fill="white"/>
<path d="M147.318 14.2553V14.6132C147.312 14.8137 147.332 15.0142 147.377 15.2096C147.408 15.3427 147.481 15.4621 147.585 15.5496C147.703 15.6395 147.841 15.697 147.988 15.7166C148.194 15.7477 148.402 15.7616 148.61 15.7584H155.328V17.3927H148.628C147.395 17.3927 146.516 17.1561 145.99 16.6829C145.705 16.384 145.487 16.0269 145.351 15.6358C145.215 15.2448 145.164 14.8289 145.202 14.4163V12.6269C145.192 12.1424 145.247 11.6588 145.368 11.1894C145.467 10.8242 145.673 10.4977 145.96 10.253C146.276 9.99645 146.648 9.82046 147.045 9.74C147.607 9.62258 148.179 9.56857 148.753 9.57896H152.511C152.979 9.56882 153.446 9.623 153.899 9.74C154.202 9.81438 154.486 9.95039 154.735 10.1396C154.944 10.3201 155.1 10.5554 155.185 10.8196C155.274 11.0971 155.318 11.3871 155.316 11.6785V14.2553H147.318ZM153.17 11.8694C153.182 11.7691 153.169 11.6671 153.132 11.5732C153.094 11.4793 153.034 11.3965 152.956 11.3326C152.745 11.2277 152.509 11.1823 152.274 11.2014H148.717C148.491 11.1987 148.266 11.2106 148.041 11.2371C147.883 11.252 147.731 11.3097 147.603 11.4042C147.486 11.5009 147.403 11.6325 147.365 11.7799C147.312 11.9963 147.288 12.2191 147.294 12.442V12.8595H153.146L153.17 11.8694Z" fill="white"/>
<path d="M165.999 15.2934C166.004 15.6204 165.971 15.9468 165.898 16.2656C165.839 16.5181 165.699 16.7442 165.501 16.9098C165.264 17.091 164.987 17.2117 164.694 17.2617C164.256 17.3422 163.811 17.3782 163.366 17.3691H156.685V15.687H163.1C163.307 15.7054 163.515 15.6551 163.692 15.5439C163.759 15.4702 163.808 15.383 163.838 15.2883C163.867 15.1937 163.877 15.0937 163.864 14.9951V14.7327C163.864 14.4424 163.809 14.2615 163.698 14.1899C163.528 14.1044 163.337 14.0673 163.147 14.0825H158.784C158.423 14.0923 158.064 14.0481 157.716 13.9513C157.472 13.8834 157.25 13.7493 157.076 13.5636C156.918 13.3804 156.812 13.158 156.768 12.9194C156.712 12.6226 156.686 12.3208 156.691 12.0187V11.4223C156.685 11.1303 156.721 10.8391 156.798 10.5574C156.856 10.3296 156.978 10.1229 157.147 9.96092C157.336 9.79969 157.563 9.68892 157.805 9.63882C158.16 9.5641 158.522 9.53206 158.884 9.54339H165.999V11.1718H159.382C159.224 11.1573 159.065 11.1972 158.932 11.2851C158.88 11.3406 158.842 11.4067 158.818 11.4788C158.795 11.5509 158.787 11.6272 158.795 11.7026V12.0605C158.786 12.1401 158.793 12.2207 158.815 12.2975C158.838 12.3744 158.875 12.4459 158.926 12.5078C159.045 12.5965 159.193 12.637 159.341 12.6212H163.556C163.967 12.6128 164.377 12.6548 164.777 12.7464C165.056 12.8078 165.313 12.9414 165.524 13.1341C165.712 13.3241 165.842 13.5642 165.898 13.826C165.974 14.1827 166.007 14.547 165.999 14.9116V15.2934Z" fill="white"/>
<defs>
<linearGradient id="paint0_linear_2322_645" x1="0" y1="11.9293" x2="32.0102" y2="11.9293" gradientUnits="userSpaceOnUse">
<stop stop-color="#41B787"/>
<stop offset="1" stop-color="#0099A5"/>
</linearGradient>
<linearGradient id="paint1_linear_2322_645" x1="100.193" y1="17.2974" x2="129.242" y2="17.2975" gradientUnits="userSpaceOnUse">
<stop stop-color="#41B787"/>
<stop offset="1" stop-color="#0099A5"/>
</linearGradient>
</defs>
</svg>
