<svg width="166" height="30" viewBox="0 0 166 30" fill="none" xmlns="http://www.w3.org/2000/svg">
<path d="M37.8171 18.375C37.2193 18.3862 36.6222 18.3262 36.0385 18.1961C35.6115 18.0974 35.216 17.8922 34.8883 17.5996C34.5973 17.3145 34.3918 16.9528 34.2955 16.5558C34.1658 16.0373 34.106 15.5037 34.1176 14.9692V11.8675C34.1065 11.335 34.1663 10.8034 34.2955 10.2869C34.3911 9.88783 34.5966 9.52398 34.8883 9.23709C35.2159 8.94423 35.6114 8.7391 36.0385 8.64062C36.6223 8.51074 37.2193 8.45068 37.8171 8.46167H41.552C42.1617 8.44851 42.7707 8.50859 43.3662 8.64062C43.7954 8.73816 44.1931 8.94335 44.5223 9.23709C44.814 9.52398 45.0195 9.88783 45.1151 10.2869C45.2443 10.8034 45.3041 11.335 45.293 11.8675V14.9692C45.3046 15.5037 45.2448 16.0373 45.1151 16.5558C45.0185 16.9527 44.8131 17.3143 44.5223 17.5996C44.1929 17.8931 43.7953 18.0983 43.3662 18.1961C42.7707 18.3283 42.1617 18.3883 41.552 18.375H37.8171ZM43.1231 11.9809C43.1293 11.7221 43.1034 11.4637 43.046 11.2114C43.003 11.0252 42.9109 10.8542 42.7793 10.7163C42.6377 10.5816 42.4608 10.4906 42.2694 10.4539C42.0059 10.4013 41.7376 10.3773 41.469 10.3823H37.9416C37.6592 10.3763 37.377 10.4003 37.0997 10.4539C36.9083 10.4906 36.7314 10.5816 36.5898 10.7163C36.4584 10.8526 36.3697 11.0248 36.3349 11.2114C36.287 11.465 36.2652 11.7228 36.2697 11.9809V14.8976C36.2653 15.1616 36.2872 15.4253 36.3349 15.6849C36.3672 15.8724 36.4563 16.0453 36.5898 16.18C36.733 16.309 36.91 16.3939 37.0997 16.4246C37.3771 16.4792 37.6589 16.5071 37.9416 16.5081H41.4987C41.767 16.5123 42.035 16.4903 42.299 16.4425C42.4894 16.417 42.6668 16.3318 42.8063 16.199C42.9457 16.0662 43.04 15.8926 43.0757 15.7028C43.1329 15.4445 43.1588 15.1801 43.1528 14.9155L43.1231 11.9809Z" fill="#0D0F17"/>
<path d="M50.613 18.375C50.0152 18.3863 49.4181 18.3262 48.8344 18.1961C48.4074 18.0974 48.0119 17.8923 47.6843 17.5996C47.3932 17.3146 47.1877 16.9528 47.0914 16.5558C46.9617 16.0373 46.9019 15.5037 46.9135 14.9692V13.9194C46.9021 13.3829 46.9619 12.8474 47.0914 12.3268C47.1867 11.9277 47.3922 11.5637 47.6843 11.277C48.0118 10.9842 48.4073 10.7791 48.8344 10.6806C49.4182 10.5506 50.0152 10.4906 50.613 10.5016H56.2629V12.3566H50.69C50.4116 12.3508 50.1334 12.3748 49.86 12.4282C49.6697 12.4645 49.4932 12.5533 49.3502 12.6847C49.2158 12.822 49.125 12.9964 49.0893 13.1857C49.0367 13.4488 49.0129 13.7168 49.0182 13.985V14.9155C49.0131 15.1758 49.037 15.4359 49.0893 15.6909C49.127 15.8796 49.2175 16.0534 49.3502 16.192C49.4923 16.327 49.6688 16.4198 49.86 16.4604C50.1327 16.5189 50.4113 16.5449 50.69 16.5379H56.2807V18.3631L50.613 18.375Z" fill="#0D0F17"/>
<path d="M61.5383 18.3751C60.9405 18.3863 60.3434 18.3262 59.7597 18.1961C59.3327 18.0974 58.9372 17.8923 58.6095 17.5996C58.3187 17.3144 58.1133 16.9527 58.0167 16.5558C57.887 16.0374 57.8272 15.5037 57.8388 14.9692V10.5434H60.0028V14.9513C59.9958 15.2268 60.0278 15.502 60.0976 15.7685C60.1477 15.955 60.2507 16.1229 60.394 16.2516C60.5501 16.3772 60.7361 16.4594 60.9335 16.4902C61.2076 16.5377 61.4855 16.5596 61.7635 16.5558H64.0105C64.3004 16.5601 64.59 16.5381 64.876 16.4902C65.074 16.4614 65.2605 16.3789 65.4155 16.2516C65.5529 16.122 65.648 15.9536 65.6882 15.7685C65.7465 15.5002 65.7724 15.2258 65.7653 14.9513V10.5434H67.8996V15.011C67.9112 15.5455 67.8514 16.0791 67.7217 16.5976C67.6254 16.9946 67.42 17.3563 67.1289 17.6414C66.791 17.9392 66.3827 18.1446 65.9432 18.2379C65.3456 18.3697 64.7347 18.4298 64.1231 18.4168L61.5383 18.3751Z" fill="#0D0F17"/>
<path d="M69.5068 18.3749V7.97839H71.7004V18.3749H69.5068Z" fill="#0D0F17"/>
<path d="M77.1003 18.3751C76.5025 18.3863 75.9054 18.3262 75.3217 18.1961C74.8947 18.0974 74.4992 17.8923 74.1716 17.5996C73.8802 17.3148 73.6747 16.953 73.5787 16.5558C73.449 16.0374 73.3892 15.5037 73.4008 14.9692V10.5434H75.5648V14.9513C75.5578 15.2268 75.5897 15.502 75.6596 15.7685C75.7098 15.955 75.8127 16.1229 75.956 16.2516C76.1121 16.3772 76.2981 16.4594 76.4955 16.4902C76.7696 16.5377 77.0475 16.5597 77.3255 16.5558H79.5725C79.8624 16.5601 80.152 16.5381 80.438 16.4902C80.6361 16.4614 80.8225 16.3789 80.9775 16.2516C81.1149 16.122 81.21 15.9536 81.2503 15.7685C81.3084 15.5002 81.3343 15.2258 81.3273 14.9513V10.5434H83.4616V15.011C83.4733 15.5455 83.4134 16.0791 83.2837 16.5976C83.1874 16.9946 82.982 17.3563 82.6909 17.6414C82.3531 17.9394 81.9448 18.1448 81.5052 18.2379C80.9076 18.3696 80.2967 18.4297 79.6851 18.4168L77.1003 18.3751Z" fill="#0D0F17"/>
<path d="M94.2667 16.2874C94.2727 16.6164 94.2389 16.9448 94.1659 17.2656C94.1067 17.5181 93.9672 17.7442 93.7687 17.9098C93.5321 18.0908 93.2555 18.2115 92.9624 18.2617C92.5225 18.3425 92.0756 18.3785 91.6285 18.3691H84.9055V16.6751H91.3499C91.5577 16.6934 91.7658 16.6432 91.9427 16.5319C92.0085 16.458 92.0578 16.3708 92.0875 16.2762C92.1171 16.1816 92.1264 16.0817 92.1146 15.9832V15.7207C92.1146 15.4304 92.0593 15.2495 91.9486 15.1779C91.776 15.0919 91.5834 15.0548 91.3913 15.0706H87.0101C86.648 15.0803 86.2864 15.0361 85.9371 14.9394C85.6919 14.8695 85.4704 14.7334 85.2968 14.5457C85.139 14.3623 85.0326 14.14 84.9885 13.9015C84.9324 13.6027 84.9066 13.2989 84.9114 12.9949V12.3984C84.9051 12.1044 84.941 11.8111 85.0182 11.5275C85.079 11.2992 85.2022 11.0925 85.3739 10.9311C85.5639 10.7668 85.7924 10.6539 86.0379 10.603C86.3862 10.5424 86.7403 10.5223 87.0931 10.5434H94.2667V12.1538H87.6149C87.4543 12.138 87.2932 12.178 87.1584 12.2672C87.107 12.3227 87.0682 12.3888 87.0447 12.4609C87.0211 12.533 87.0134 12.6093 87.022 12.6847V13.0485C87.0085 13.1328 87.0132 13.2191 87.0357 13.3014C87.0582 13.3837 87.098 13.4602 87.1524 13.5257C87.2718 13.6144 87.4199 13.6549 87.5674 13.639H91.8064C92.219 13.6304 92.6311 13.6724 93.0336 13.7643C93.3125 13.8276 93.57 13.9633 93.7806 14.158C93.9695 14.3494 94.0992 14.5918 94.1541 14.8558C94.2269 15.2008 94.2608 15.553 94.2548 15.9056L94.2667 16.2874Z" fill="#0D0F17"/>
<path fill-rule="evenodd" clip-rule="evenodd" d="M14.4974 1.90067C14.4943 2.13747 14.3986 2.36351 14.2311 2.52984C14.0635 2.69618 13.8376 2.78943 13.6022 2.78941H12.5232C12.4057 2.78941 12.2892 2.76612 12.1806 2.72085C12.072 2.67559 11.9733 2.60925 11.8902 2.52561C11.8071 2.44198 11.7411 2.34269 11.6961 2.23341C11.6512 2.12414 11.628 2.00702 11.628 1.88874C11.6311 1.65194 11.7268 1.42591 11.8944 1.25957C12.0619 1.09323 12.2878 0.999979 12.5232 1H13.6022C13.8396 1 14.0673 1.09489 14.2352 1.2638C14.4031 1.43271 14.4974 1.6618 14.4974 1.90067ZM11.3063 6.1236C11.4785 5.96043 11.5795 5.73533 11.5872 5.49748L11.5635 5.47958C11.5635 5.3613 11.5404 5.24418 11.4954 5.13491C11.4504 5.02564 11.3844 4.92635 11.3013 4.84271C11.2182 4.75908 11.1195 4.69273 11.0109 4.64747C10.9023 4.60221 10.7859 4.57891 10.6683 4.57891H7.96489C7.84634 4.57574 7.72834 4.5963 7.61776 4.6394C7.50717 4.68249 7.4062 4.74726 7.3207 4.82995C7.23521 4.91264 7.16689 5.01159 7.11973 5.12106C7.07256 5.23054 7.04749 5.34835 7.04596 5.46765C7.04596 5.70653 7.14028 5.93562 7.30816 6.10452C7.47605 6.27343 7.70375 6.36832 7.94117 6.36832H10.6683C10.9048 6.37476 11.1341 6.28677 11.3063 6.1236ZM7.05952 9.09413C7.05952 9.333 6.9652 9.56209 6.79732 9.731C6.62943 9.89991 6.40173 9.9948 6.1643 9.9948H4.84224C4.60481 9.9948 4.37711 9.89991 4.20923 9.731C4.04134 9.56209 3.94702 9.333 3.94702 9.09413C3.94702 8.85526 4.04134 8.62617 4.20923 8.45726C4.37711 8.28835 4.60481 8.19346 4.84224 8.19346H6.1643C6.40173 8.19346 6.62943 8.28835 6.79732 8.45726C6.9652 8.62617 7.05952 8.85526 7.05952 9.09413ZM12.9367 16.2875C12.9367 16.4058 12.9136 16.5229 12.8686 16.6322C12.8236 16.7415 12.7576 16.8408 12.6745 16.9244C12.5914 17.008 12.4927 17.0744 12.3841 17.1196C12.2755 17.1649 12.1591 17.1882 12.0415 17.1882H6.44494C6.20752 17.1882 5.97981 17.0933 5.81193 16.9244C5.64404 16.7555 5.54973 16.5264 5.54973 16.2875C5.54973 16.0487 5.64404 15.8196 5.81193 15.6507C5.97981 15.4817 6.20752 15.3869 6.44494 15.3869H12.0415C12.1591 15.3869 12.2755 15.4102 12.3841 15.4554C12.4927 15.5007 12.5914 15.567 12.6745 15.6507C12.7576 15.7343 12.8236 15.8336 12.8686 15.9429C12.9136 16.0521 12.9367 16.1692 12.9367 16.2875ZM10.561 9.731C10.7289 9.56209 10.8232 9.333 10.8232 9.09413H10.8173C10.8173 8.97585 10.7942 8.85873 10.7492 8.74946C10.7042 8.64018 10.6382 8.54089 10.5551 8.45726C10.472 8.37362 10.3733 8.30728 10.2647 8.26202C10.1561 8.21676 10.0397 8.19346 9.9221 8.19346H8.60004C8.36261 8.19346 8.13491 8.28835 7.96702 8.45726C7.79914 8.62617 7.70482 8.85526 7.70482 9.09413C7.70482 9.21291 7.72817 9.33052 7.77353 9.44019C7.81889 9.54985 7.88536 9.6494 7.96912 9.73312C8.05288 9.81683 8.15226 9.88305 8.26156 9.92796C8.37086 9.97287 8.48791 9.99559 8.60596 9.9948H9.92803C10.1655 9.9948 10.3932 9.89991 10.561 9.731ZM11.0099 12.6907C11.0099 12.9296 10.9156 13.1587 10.7477 13.3276C10.5798 13.4965 10.3521 13.5914 10.1147 13.5914H7.48238C7.24495 13.5914 7.01725 13.4965 6.84937 13.3276C6.68148 13.1587 6.58717 12.9296 6.58717 12.6907C6.58717 12.5725 6.61032 12.4553 6.65531 12.3461C6.7003 12.2368 6.76624 12.1375 6.84937 12.0539C6.9325 11.9702 7.03118 11.9039 7.1398 11.8586C7.24841 11.8134 7.36482 11.7901 7.48238 11.7901H10.1147C10.2322 11.7901 10.3486 11.8134 10.4572 11.8586C10.5659 11.9039 10.6645 11.9702 10.7477 12.0539C10.8308 12.1375 10.8967 12.2368 10.9417 12.3461C10.9867 12.4553 11.0099 12.5725 11.0099 12.6907ZM13.9675 20.5209C14.1353 20.352 14.2297 20.1229 14.2297 19.8841C14.2297 19.6452 14.1353 19.4161 13.9675 19.2472C13.7996 19.0783 13.5719 18.9834 13.3345 18.9834H10.6073C10.3699 18.9834 10.1422 19.0783 9.97431 19.2472C9.80642 19.4161 9.7121 19.6452 9.7121 19.8841C9.7121 20.1229 9.80642 20.352 9.97431 20.5209C10.1422 20.6898 10.3699 20.7847 10.6073 20.7847H13.3345C13.5719 20.7847 13.7996 20.6898 13.9675 20.5209ZM10.9928 1.90067C10.9913 2.01946 10.9664 2.13677 10.9196 2.24585C10.8728 2.35492 10.805 2.4536 10.7201 2.53621C10.6353 2.61882 10.535 2.68372 10.4251 2.72718C10.3152 2.77063 10.1979 2.79178 10.0798 2.78941H6.94952C6.71209 2.78941 6.48439 2.69452 6.31651 2.52561C6.14862 2.3567 6.05431 2.12761 6.05431 1.88874C6.05742 1.65194 6.15311 1.42591 6.32066 1.25957C6.48821 1.09323 6.71413 0.999979 6.94952 1H10.0798C10.3172 1 10.5449 1.09489 10.7128 1.2638C10.8807 1.43271 10.975 1.6618 10.975 1.90067H10.9928ZM5.54186 13.3276C5.70974 13.1587 5.80406 12.9296 5.80406 12.6907C5.80406 12.5725 5.7809 12.4553 5.73591 12.3461C5.69093 12.2368 5.62498 12.1375 5.54186 12.0539C5.45873 11.9702 5.36004 11.9039 5.25143 11.8586C5.14282 11.8134 5.02641 11.7901 4.90885 11.7901H0.895212C0.777651 11.7901 0.661241 11.8134 0.552629 11.8586C0.444017 11.9039 0.34533 11.9702 0.262202 12.0539C0.179073 12.1375 0.113133 12.2368 0.068144 12.3461C0.0231553 12.4553 0 12.5725 0 12.6907C0 12.9296 0.0943167 13.1587 0.262202 13.3276C0.430086 13.4965 0.657787 13.5914 0.895212 13.5914H4.90885C5.14627 13.5914 5.37397 13.4965 5.54186 13.3276ZM9.00509 19.8841C9.00509 20.1229 8.91077 20.352 8.74289 20.5209C8.575 20.6898 8.3473 20.7847 8.10988 20.7847H3.77017C3.53275 20.7847 3.30505 20.6898 3.13716 20.5209C2.96928 20.352 2.87496 20.1229 2.87496 19.8841C2.87496 19.6452 2.96928 19.4161 3.13716 19.2472C3.30505 19.0783 3.53275 18.9834 3.77017 18.9834H8.10988C8.3473 18.9834 8.575 19.0783 8.74289 19.2472C8.91077 19.4161 9.00509 19.6452 9.00509 19.8841ZM17.8563 24.3757C17.8316 24.3807 17.8067 24.3847 17.7816 24.3876L13.4419 24.3757H17.8563ZM24.4868 24.3757H17.8563C18.0454 24.3372 18.2178 24.238 18.3471 24.0921C18.4932 23.9271 18.5739 23.7139 18.5739 23.4929C18.5739 23.272 18.4932 23.0587 18.3471 22.8937C18.201 22.7288 17.9997 22.6236 17.7816 22.5982H14.0703C14.2373 22.0156 14.3329 21.4147 14.3549 20.8088H21.5166C21.642 20.8234 21.769 20.8111 21.8894 20.7728C22.0097 20.7345 22.1207 20.671 22.215 20.5865C22.3092 20.5021 22.3846 20.3985 22.4363 20.2826C22.4879 20.1667 22.5146 20.0411 22.5146 19.9141C22.5146 19.7871 22.4879 19.6615 22.4363 19.5456C22.3846 19.4297 22.3092 19.3261 22.215 19.2416C22.1207 19.1571 22.0097 19.0936 21.8894 19.0553C21.769 19.017 21.642 19.0048 21.5166 19.0194H14.2659C14.1759 18.4086 14.0229 17.8089 13.8094 17.23H16.9516C17.077 17.2446 17.204 17.2323 17.3244 17.194C17.4448 17.1557 17.5557 17.0922 17.65 17.0077C17.7442 16.9232 17.8196 16.8196 17.8713 16.7037C17.9229 16.5878 17.9496 16.4623 17.9496 16.3353C17.9496 16.2082 17.9229 16.0827 17.8713 15.9668C17.8196 15.8509 17.7442 15.7473 17.65 15.6628C17.5557 15.5783 17.4448 15.5148 17.3244 15.4765C17.204 15.4382 17.077 15.426 16.9516 15.4406H12.9557C12.808 15.1755 12.6593 14.9249 12.5138 14.6797C12.3089 14.3344 12.1104 13.9999 11.9301 13.6511H20.4613C20.5867 13.6657 20.7137 13.6535 20.8341 13.6152C20.9545 13.5769 21.0654 13.5134 21.1597 13.4289C21.2539 13.3444 21.3294 13.2408 21.381 13.1249C21.4326 13.009 21.4593 12.8834 21.4593 12.7564C21.4593 12.6294 21.4326 12.5039 21.381 12.388C21.3294 12.2721 21.2539 12.1685 21.1597 12.084C21.0654 11.9995 20.9545 11.936 20.8341 11.8977C20.7137 11.8594 20.5867 11.8471 20.4613 11.8617H11.2602C11.1329 11.2833 11.0595 10.6943 11.0408 10.1021V10.0604H16.3291C16.4545 10.075 16.5815 10.0627 16.7019 10.0244C16.8223 9.98612 16.9332 9.92264 17.0275 9.83815C17.1217 9.75365 17.1971 9.65006 17.2488 9.53416C17.3004 9.41827 17.3271 9.29269 17.3271 9.16568C17.3271 9.03867 17.3004 8.9131 17.2488 8.7972C17.1971 8.68131 17.1217 8.57771 17.0275 8.49322C16.9332 8.40873 16.8223 8.34525 16.7019 8.30694C16.5815 8.26864 16.4545 8.25638 16.3291 8.27098H11.1831C11.2884 7.65841 11.4573 7.05865 11.687 6.48156H20.153C20.2784 6.49616 20.4055 6.4839 20.5258 6.4456C20.6462 6.4073 20.7571 6.34382 20.8514 6.25932C20.9456 6.17483 21.0211 6.07123 21.0727 5.95534C21.1244 5.83944 21.1511 5.71387 21.1511 5.58686C21.1511 5.45985 21.1244 5.33427 21.0727 5.21838C21.0211 5.10248 20.9456 4.99889 20.8514 4.9144C20.7571 4.8299 20.6462 4.76642 20.5258 4.72812C20.4055 4.68982 20.2784 4.67756 20.153 4.69215H12.6474C13.1069 4.01027 13.6878 3.41977 14.3608 2.95046L14.4319 2.78941H21.3387C21.5746 2.8084 21.8082 2.73234 21.9884 2.57797C22.1685 2.4236 22.2803 2.20357 22.2991 1.96628C22.318 1.72899 22.2424 1.49388 22.089 1.31267C21.9355 1.13145 21.7168 1.01898 21.481 1L22.0738 1.03579C22.3797 1.05046 22.6845 1.08232 22.9868 1.13122C23.5402 1.23236 24.0824 1.3882 24.6053 1.59647C25.1521 1.8095 25.678 2.07308 26.1764 2.38381C26.6885 2.69154 27.1605 3.06221 27.5815 3.48728C27.9687 3.87023 28.2893 4.31581 28.53 4.80548C28.7545 5.31772 28.9524 5.84133 29.1229 6.3742C29.2669 6.80026 29.3957 7.22631 29.5246 7.65237C29.5761 7.82278 29.6277 7.9932 29.6802 8.16361C29.8051 8.46833 29.8659 8.79578 29.8588 9.12532C29.8516 9.45486 29.7767 9.77933 29.6387 10.0783C29.5722 10.2062 29.5375 10.3485 29.5375 10.4928C29.5375 10.6372 29.5722 10.7794 29.6387 10.9074C29.7513 11.1015 29.8782 11.2869 30.0181 11.4621C30.2078 11.7365 30.4035 12.0049 30.611 12.2793C30.734 12.4419 30.8112 12.5753 30.8858 12.7041C30.937 12.7926 30.9869 12.8789 31.0497 12.9712C31.1186 13.0725 31.1981 13.1821 31.2799 13.2948L31.28 13.2949C31.3811 13.4343 31.4855 13.5783 31.5773 13.7168C31.641 13.819 31.6853 13.9323 31.7078 14.0508C31.7329 14.2064 31.7107 14.366 31.644 14.5086C31.5774 14.6512 31.4694 14.7703 31.3343 14.85C31.0947 15.0259 30.8193 15.1461 30.528 15.202C30.3086 15.2497 30.2315 15.3392 30.2493 15.5598C30.2679 15.6836 30.2976 15.8054 30.3383 15.9237C30.3849 16.0302 30.4168 16.1425 30.4331 16.2577C30.4378 16.3718 30.4155 16.4853 30.3681 16.589C30.3207 16.6926 30.2495 16.7835 30.1604 16.8542C30.1041 16.8967 30.052 16.9412 30.0003 16.9854C29.9649 17.0157 29.9298 17.0458 29.8936 17.0749C30.014 17.175 30.0902 17.3189 30.1058 17.4752C30.1213 17.6316 30.0749 17.7878 29.9766 17.9099C29.9518 17.9473 29.9239 17.9827 29.896 18.0181L29.8959 18.0181L29.8959 18.0181C29.857 18.0674 29.8179 18.1169 29.7869 18.1724C29.7087 18.2636 29.6542 18.3729 29.6283 18.4906C29.6024 18.6082 29.606 18.7305 29.6387 18.8464C29.7598 19.1946 29.7944 19.5673 29.7395 19.932C29.7071 20.1843 29.6141 20.4248 29.4684 20.6327C29.3228 20.8406 29.1289 21.0095 28.9035 21.1249C28.6216 21.2759 28.3096 21.3615 27.9905 21.3754C27.7445 21.3933 27.497 21.4053 27.2494 21.4172C27.0019 21.4291 26.7544 21.441 26.5084 21.4589C25.9666 21.4375 25.4348 21.6109 25.0085 21.948C24.904 22.0329 24.821 22.1415 24.7664 22.2649C24.7117 22.3883 24.687 22.523 24.6943 22.6579C24.7156 22.9958 24.6896 23.3352 24.6172 23.6659C24.5788 23.8375 24.5496 24.0091 24.5208 24.1785C24.5096 24.2446 24.4984 24.3104 24.4868 24.3757ZM13.3823 23.4927C13.3823 23.6109 13.3592 23.7281 13.3142 23.8373C13.2692 23.9466 13.2032 24.0459 13.1201 24.1295C13.037 24.2132 12.9383 24.2795 12.8297 24.3248C12.7211 24.37 12.6047 24.3933 12.4871 24.3933H9.75996C9.52771 24.3856 9.30755 24.2873 9.14603 24.1192C8.9845 23.9511 8.89426 23.7264 8.89439 23.4927C8.89439 23.2538 8.98871 23.0247 9.15659 22.8558C9.32448 22.6869 9.55218 22.592 9.7896 22.592H12.5167C12.7542 22.592 12.9819 22.6869 13.1497 22.8558C13.3176 23.0247 13.412 23.2538 13.412 23.4927H13.3823ZM7.91446 24.1295C8.08235 23.9606 8.17666 23.7315 8.17666 23.4927H8.20038C8.20038 23.2538 8.10606 23.0247 7.93818 22.8558C7.77029 22.6869 7.54259 22.592 7.30517 22.592H2.96546C2.72804 22.592 2.50034 22.6869 2.33245 22.8558C2.16457 23.0247 2.07025 23.2538 2.07025 23.4927C2.07025 23.7315 2.16457 23.9606 2.33245 24.1295C2.50034 24.2984 2.72804 24.3933 2.96546 24.3933H7.28145C7.51888 24.3933 7.74658 24.2984 7.91446 24.1295Z" fill="url(#paint0_linear_2322_1988)"/>
<path fill-rule="evenodd" clip-rule="evenodd" d="M102.618 15.5597V18.375H100.436V8.52729H108.268C108.865 8.51427 109.462 8.57031 110.046 8.69431C110.463 8.78 110.852 8.96856 111.179 9.24306C111.465 9.51018 111.671 9.85346 111.771 10.2332C111.9 10.7133 111.96 11.2094 111.949 11.7065V12.5594C111.961 13.0503 111.903 13.5404 111.777 14.0148C111.678 14.3767 111.471 14.6994 111.185 14.9394C110.854 15.1914 110.467 15.3573 110.058 15.4225C109.471 15.5236 108.875 15.5695 108.28 15.5597H102.618ZM109.762 11.79C109.784 11.5962 109.766 11.3999 109.707 11.2138C109.649 11.0278 109.553 10.8562 109.424 10.7104C109.07 10.4875 108.654 10.387 108.238 10.4241H102.641V13.7882H108.268C108.681 13.8268 109.096 13.7328 109.453 13.5198C109.581 13.3806 109.677 13.215 109.734 13.0348C109.791 12.8545 109.809 12.6637 109.785 12.4759L109.762 11.79ZM113.307 18.375V13.8418C113.296 13.3333 113.364 12.8261 113.508 12.3387C113.628 11.9474 113.849 11.5953 114.149 11.3188C114.472 11.0329 114.858 10.8285 115.275 10.7223C115.824 10.5878 116.388 10.5256 116.953 10.5374H118.346V12.285H117.012C116.761 12.2799 116.511 12.3039 116.265 12.3566C116.086 12.3931 115.92 12.4776 115.785 12.6012C115.655 12.7324 115.565 12.8978 115.524 13.0783C115.467 13.3286 115.441 13.5851 115.447 13.8418V18.3631L113.307 18.375ZM121.28 18.1962C121.864 18.3266 122.461 18.3867 123.059 18.3751L125.685 18.387C126.283 18.3979 126.88 18.3379 127.464 18.2081C127.891 18.1101 128.287 17.9049 128.614 17.6116C128.904 17.3284 129.11 16.9688 129.207 16.5738C129.336 16.0573 129.396 15.5256 129.384 14.9931V13.9553C129.396 13.4208 129.336 12.8872 129.207 12.3686C129.11 11.9682 128.905 11.6026 128.614 11.3129C128.288 11.0181 127.891 10.8127 127.464 10.7164C126.88 10.5867 126.283 10.5266 125.685 10.5375H123.059C122.461 10.526 121.864 10.5861 121.28 10.7164C120.853 10.8147 120.457 11.0198 120.13 11.3129C119.838 11.5976 119.633 11.9594 119.537 12.3567C119.407 12.8752 119.348 13.4088 119.359 13.9433V14.9812C119.347 15.5137 119.407 16.0454 119.537 16.5618C119.634 16.957 119.839 17.3167 120.13 17.5997C120.457 17.893 120.853 18.0982 121.28 18.1962ZM127.185 13.2097C127.242 13.4741 127.268 13.7444 127.262 14.0149V14.9394C127.269 15.208 127.243 15.4764 127.185 15.7387C127.143 15.9275 127.043 16.0985 126.9 16.2278C126.728 16.3628 126.524 16.4493 126.308 16.4783C125.994 16.5318 125.677 16.5557 125.359 16.5499H123.337C123.024 16.5558 122.71 16.5318 122.401 16.4783C122.184 16.4499 121.979 16.3634 121.808 16.2278C121.665 16.0983 121.566 15.9274 121.523 15.7387C121.466 15.4764 121.44 15.208 121.446 14.9394V14.0149C121.44 13.7444 121.466 13.4741 121.523 13.2097C121.563 13.0167 121.663 12.8413 121.808 12.7086C121.979 12.5739 122.184 12.4893 122.401 12.4641C122.71 12.4158 123.024 12.3938 123.337 12.3985H125.359C125.676 12.3939 125.994 12.4158 126.308 12.4641C126.524 12.4893 126.729 12.5739 126.9 12.7086C127.045 12.8413 127.145 13.0167 127.185 13.2097Z" fill="url(#paint1_linear_2322_1988)"/>
<path d="M137.751 18.3751L135.125 15.5478L132.457 18.3751H129.836L133.868 14.3071L130.121 10.5434H132.688L135.214 13.1858L137.793 10.5434H140.377L136.488 14.3668L140.419 18.3631L137.751 18.3751Z" fill="#0D0F17"/>
<path d="M142.113 10.1019C141.902 10.129 141.689 10.0711 141.52 9.94083C141.46 9.87215 141.414 9.79175 141.385 9.70457C141.356 9.61739 141.346 9.52526 141.354 9.43383V8.59877C141.346 8.50916 141.356 8.41882 141.385 8.33355C141.414 8.24828 141.46 8.16998 141.52 8.1037C141.692 7.9805 141.904 7.92723 142.113 7.95458H142.818C143.027 7.93012 143.238 7.98313 143.411 8.1037C143.472 8.16998 143.518 8.24828 143.546 8.33355C143.575 8.41882 143.585 8.50916 143.577 8.59877V9.43383C143.585 9.52526 143.575 9.61739 143.546 9.70457C143.518 9.79175 143.472 9.87215 143.411 9.94083C143.241 10.0682 143.029 10.1258 142.818 10.1019H142.113ZM141.384 18.3749V10.752H143.565V18.3749H141.384Z" fill="#0D0F17"/>
<path d="M147.318 15.2553V15.6132C147.312 15.8137 147.332 16.0142 147.377 16.2096C147.408 16.3427 147.481 16.4621 147.585 16.5496C147.703 16.6395 147.842 16.697 147.988 16.7166C148.194 16.7477 148.402 16.7616 148.611 16.7584H155.328V18.3927H148.628C147.395 18.3927 146.516 18.1561 145.99 17.6829C145.705 17.384 145.487 17.0269 145.351 16.6358C145.215 16.2448 145.164 15.8289 145.202 15.4163V13.6269C145.192 13.1424 145.248 12.6588 145.368 12.1894C145.467 11.8242 145.673 11.4977 145.961 11.253C146.276 10.9965 146.648 10.8205 147.045 10.74C147.607 10.6226 148.18 10.5686 148.753 10.579H152.512C152.979 10.5688 153.446 10.623 153.899 10.74C154.202 10.8144 154.486 10.9504 154.735 11.1396C154.945 11.3201 155.1 11.5554 155.185 11.8196C155.274 12.0971 155.318 12.3871 155.316 12.6785V15.2553H147.318ZM153.17 12.8694C153.182 12.7691 153.169 12.6671 153.132 12.5732C153.095 12.4793 153.034 12.3965 152.956 12.3326C152.745 12.2277 152.509 12.1823 152.274 12.2014H148.717C148.492 12.1987 148.266 12.2106 148.041 12.2371C147.883 12.252 147.731 12.3097 147.603 12.4042C147.486 12.5009 147.403 12.6325 147.366 12.7799C147.312 12.9963 147.288 13.2191 147.294 13.442V13.8595H153.146L153.17 12.8694Z" fill="#0D0F17"/>
<path d="M165.999 16.2934C166.004 16.6204 165.97 16.9468 165.898 17.2656C165.839 17.5181 165.699 17.7442 165.501 17.9098C165.264 18.091 164.987 18.2117 164.694 18.2617C164.256 18.3422 163.811 18.3782 163.366 18.3691H156.685V16.687H163.099C163.307 16.7054 163.515 16.6551 163.692 16.5439C163.758 16.4702 163.808 16.383 163.838 16.2883C163.867 16.1937 163.876 16.0937 163.864 15.9951V15.7327C163.864 15.4424 163.809 15.2615 163.698 15.1899C163.528 15.1044 163.337 15.0673 163.147 15.0825H158.784C158.423 15.0923 158.064 15.0481 157.716 14.9513C157.472 14.8834 157.25 14.7493 157.076 14.5636C156.918 14.3804 156.812 14.158 156.768 13.9194C156.712 13.6226 156.686 13.3208 156.691 13.0187V12.4223C156.685 12.1303 156.721 11.8391 156.797 11.5574C156.856 11.3296 156.977 11.1229 157.147 10.9609C157.336 10.7997 157.563 10.6889 157.805 10.6388C158.16 10.5641 158.522 10.5321 158.884 10.5434H165.999V12.1718H159.382C159.224 12.1573 159.065 12.1972 158.932 12.2851C158.88 12.3406 158.842 12.4067 158.818 12.4788C158.794 12.5509 158.787 12.6272 158.795 12.7026V13.0605C158.786 13.1401 158.793 13.2207 158.815 13.2975C158.838 13.3744 158.875 13.4459 158.926 13.5078C159.045 13.5965 159.193 13.637 159.341 13.6212H163.556C163.967 13.6128 164.377 13.6548 164.777 13.7464C165.056 13.8078 165.313 13.9414 165.524 14.1341C165.712 14.3241 165.842 14.5642 165.898 14.826C165.974 15.1827 166.007 15.547 165.999 15.9116V16.2934Z" fill="#0D0F17"/>
<defs>
<linearGradient id="paint0_linear_2322_1988" x1="0" y1="12.9293" x2="32.0102" y2="12.9293" gradientUnits="userSpaceOnUse">
<stop stop-color="#41B787"/>
<stop offset="1" stop-color="#0099A5"/>
</linearGradient>
<linearGradient id="paint1_linear_2322_1988" x1="100.193" y1="18.2974" x2="129.242" y2="18.2975" gradientUnits="userSpaceOnUse">
<stop stop-color="#41B787"/>
<stop offset="1" stop-color="#0099A5"/>
</linearGradient>
</defs>
</svg>
