<svg width="24" height="24" viewBox="0 0 24 24" fill="none" xmlns="http://www.w3.org/2000/svg">
<path fill-rule="evenodd" clip-rule="evenodd" d="M20.4427 3.55764C19.9094 3.02435 19.1945 3.09225 18.6323 3.22915C18.0587 3.36883 17.3236 3.66291 16.4461 4.01394V4.01395L16.3889 4.03683L6.96843 7.80501L6.91261 7.82733L6.91258 7.82734C5.68782 8.31723 4.69915 8.71268 4.03036 9.0828C3.69079 9.27073 3.37127 9.48476 3.13775 9.74744C2.88655 10.03 2.71188 10.3984 2.75235 10.8392C2.79282 11.2799 3.03165 11.6104 3.3301 11.8425C3.60756 12.0583 3.96071 12.2105 4.32882 12.3335C5.05384 12.5756 6.09801 12.7845 7.39154 13.0431L7.45045 13.0549L8.23831 13.2125C8.88805 13.3424 9.31654 13.4292 9.63912 13.531C9.94421 13.6273 10.0861 13.7174 10.1845 13.8158C10.283 13.9143 10.3731 14.0561 10.4694 14.3612C10.5712 14.6838 10.6579 15.1123 10.7879 15.762L10.9454 16.5499L10.9572 16.6088C11.2159 17.9023 11.4247 18.9465 11.6669 19.6715C11.7898 20.0396 11.9421 20.3928 12.1579 20.6702C12.39 20.9687 12.7204 21.2075 13.1612 21.248C13.6019 21.2884 13.9703 21.1138 14.2529 20.8626C14.5156 20.629 14.7296 20.3095 14.9175 19.97C15.2877 19.3012 15.6831 18.3125 16.173 17.0878V17.0877L16.1953 17.0319L19.9635 7.61146L19.9864 7.55431V7.55426C20.3374 6.67678 20.6315 5.94166 20.7712 5.36807C20.9081 4.80583 20.976 4.09093 20.4427 3.55764Z" fill="#62FCC1"/>
</svg>
