<svg width="24" height="24" viewBox="0 0 24 24" fill="none" xmlns="http://www.w3.org/2000/svg">
<path fill-rule="evenodd" clip-rule="evenodd" d="M20.4427 3.55758C19.9094 3.02429 19.1945 3.09219 18.6323 3.22909C18.0587 3.36877 17.3236 3.66285 16.4461 4.01388V4.01389L16.3889 4.03677L6.96843 7.80495L6.91261 7.82727L6.91258 7.82728C5.68782 8.31717 4.69915 8.71262 4.03036 9.08274C3.69079 9.27067 3.37127 9.4847 3.13775 9.74738C2.88655 10.0299 2.71188 10.3983 2.75235 10.8391C2.79282 11.2798 3.03165 11.6103 3.3301 11.8424C3.60756 12.0582 3.96071 12.2104 4.32882 12.3334C5.05384 12.5755 6.09801 12.7844 7.39154 13.043L7.45045 13.0548L8.23831 13.2124C8.88805 13.3423 9.31654 13.4291 9.63912 13.5309C9.94421 13.6272 10.0861 13.7173 10.1845 13.8157C10.283 13.9142 10.3731 14.056 10.4694 14.3611C10.5712 14.6837 10.6579 15.1122 10.7879 15.7619L10.9454 16.5498L10.9572 16.6087C11.2159 17.9022 11.4247 18.9464 11.6669 19.6714C11.7898 20.0395 11.9421 20.3927 12.1579 20.6701C12.39 20.9686 12.7204 21.2074 13.1612 21.2479C13.6019 21.2883 13.9703 21.1137 14.2529 20.8625C14.5156 20.6289 14.7296 20.3094 14.9175 19.9699C15.2877 19.3011 15.6831 18.3124 16.173 17.0877V17.0876L16.1953 17.0318L19.9635 7.6114L19.9864 7.55425V7.5542C20.3374 6.67672 20.6315 5.9416 20.7712 5.36801C20.9081 4.80577 20.976 4.09087 20.4427 3.55758Z" fill="#0099A5"/>
</svg>
