<svg width="57" height="51" viewBox="0 0 89 88" fill="none" xmlns="http://www.w3.org/2000/svg">
<g clip-path="url(#clip0_1_323)">
<path d="M45.0275 29.837L65.7902 44.5228C65.9499 44.6358 66.0454 44.8194 66.0454 45.0151V69.3969C66.0454 69.73 65.7755 69.9999 65.4424 69.9999H51.3258C50.9927 69.9999 50.7228 69.73 50.7228 69.3969V56.3172H38.6369V69.3969C38.6369 69.73 38.367 69.9999 38.0339 69.9999H23.9166C23.5835 69.9999 23.3136 69.73 23.3136 69.3969V45.0153C23.3136 44.8196 23.4084 44.636 23.5683 44.523L44.331 29.837C44.5398 29.6895 44.8187 29.6895 45.0275 29.837Z" fill="#62FCC1"/>
<path d="M71.6354 37.4146L62.6614 31.0674V22.7023C62.6614 22.2429 62.2888 21.8704 61.8292 21.8704H56.8103C56.3509 21.8704 55.9786 22.2429 55.9786 22.7023V26.3405L46.3525 19.5319C45.3505 18.8232 44.0087 18.8232 43.007 19.5319L17.7239 37.4146C16.4174 38.3384 16.1077 40.1467 17.0315 41.4527C17.9566 42.7601 19.764 43.0676 21.0696 42.145L44.6797 25.4452L68.2896 42.145C68.7979 42.5044 69.3811 42.6767 69.9605 42.6767C70.8688 42.6767 71.7628 42.2507 72.3277 41.4524C73.2515 40.1464 72.9419 38.3382 71.6354 37.4144V37.4146Z" fill="#62FCC1"/>
</g>
<rect x="35.5" y="55" width="20" height="15" fill="#62FCC1"/>
<path d="M34.6997 61.7465H31.3823V47.169H34.6997V61.7465Z" fill="#151824"/>
<path d="M47.2337 57.3099C47.2337 58.7042 46.5989 59.9718 45.575 60.7958C44.5716 61.6197 43.261 62 41.7457 62C39.698 62 37.8755 60.9014 36.7287 59.8028L38.3669 57.3099C39.3908 58.4085 40.9676 59.1479 42.0529 59.1479C43.1177 59.1479 43.9368 58.6197 43.9368 57.6479C43.9368 56.6549 42.8924 56.2746 42.2781 56.0423C41.6638 55.8099 40.599 55.4296 40.128 55.2183C39.7799 55.0493 39.0632 54.7746 38.4488 54.162C37.8345 53.5704 37.343 52.7254 37.343 51.3521C37.343 49.9577 37.9983 48.8592 38.8174 48.162C39.616 47.4648 40.9061 47 42.5443 47C44.1825 47 46.0665 47.8028 47.0289 48.7958L45.616 51.1831C44.7969 50.338 43.5273 49.7042 42.4624 49.7042C41.3976 49.7042 40.6194 50.1268 40.6194 51.0141C40.6194 51.9014 41.4181 52.2394 42.0529 52.493C42.6672 52.7465 43.7115 53.1268 44.1621 53.3169C44.5511 53.4648 45.4931 53.8451 46.1279 54.5C46.7217 55.1127 47.2337 56 47.2337 57.3099Z" fill="#151824"/>
<path d="M59.6176 51.7535C59.6176 53.3169 59.0852 54.4366 58.1432 55.2606C57.2013 56.0634 55.9112 56.3592 54.4573 56.3592H52.7167V61.7465H49.3993V47.169H54.4573C55.9112 47.169 57.2013 47.4648 58.1432 48.2676C59.0852 49.0704 59.6176 50.1901 59.6176 51.7535ZM56.2593 51.7535C56.2593 51.0141 55.9726 50.507 55.5835 50.2113C55.174 49.9155 54.703 49.8099 53.9863 49.8099H52.6962V53.7183H53.9863C54.703 53.7183 55.174 53.6127 55.5835 53.3169C55.9726 53.0211 56.2593 52.493 56.2593 51.7535Z" fill="#151824"/>
<defs>
<clipPath id="clip0_1_323">
<rect width="56.3603" height="51" fill="white" transform="translate(16.5 19)"/>
</clipPath>
</defs>
</svg>
