<svg width="32" height="32" viewBox="0 0 32 32" fill="none" xmlns="http://www.w3.org/2000/svg">
<path fill-rule="evenodd" clip-rule="evenodd" d="M11.6667 1.33325C11.6667 0.780967 11.219 0.333252 10.6667 0.333252C10.1144 0.333252 9.66668 0.780967 9.66668 1.33325V3.01208C8.70758 3.03664 7.97166 3.11004 7.32066 3.32824C5.4375 3.95941 3.95949 5.43741 3.32833 7.32057C2.99924 8.30242 2.99953 9.47741 2.99997 11.3199L3.00001 11.5293V17.3333V17.4085C2.99998 19.8589 2.99997 21.7997 3.20418 23.3186C3.41436 24.8818 3.85718 26.1471 4.855 27.145C5.85281 28.1427 7.11808 28.5855 8.68132 28.7958C10.2002 28.9999 12.141 28.9999 14.5914 28.9999H14.6667H17.3334H17.4087C19.859 28.9999 21.7998 28.9999 23.3187 28.7958C24.8819 28.5855 26.1472 28.1427 27.145 27.145C28.1428 26.1471 28.5856 24.8818 28.7959 23.3186C29 21.7997 29 19.8589 29 17.4086V17.4085V17.3333V14.6666V14.5914V14.5913C29 12.141 29 10.2002 28.7959 8.68122C28.5856 7.118 28.1428 5.85273 27.145 4.8549C26.1472 3.85709 24.8819 3.41427 23.3187 3.20409C23.0082 3.16235 22.6799 3.12913 22.3334 3.10271V1.33325C22.3334 0.780967 21.8856 0.333252 21.3334 0.333252C20.7811 0.333252 20.3334 0.780967 20.3334 1.33325V3.01688C19.4507 2.99991 18.4782 2.99991 17.4086 2.99992H17.3334H11.6667V1.33325ZM9.33336 9.66658C8.78108 9.66658 8.33336 10.1143 8.33336 10.6666C8.33336 11.2189 8.78108 11.6666 9.33336 11.6666H22.6667C23.219 11.6666 23.6667 11.2189 23.6667 10.6666C23.6667 10.1143 23.219 9.66658 22.6667 9.66658H9.33336ZM19 22.6666C19 22.1143 19.4478 21.6666 20 21.6666H22.6667C23.219 21.6666 23.6667 22.1143 23.6667 22.6666C23.6667 23.2189 23.219 23.6666 22.6667 23.6666H20C19.4478 23.6666 19 23.2189 19 22.6666Z" fill="#62FCC1"/>
</svg>
