<svg width="20" height="29" viewBox="0 0 20 29" fill="none" xmlns="http://www.w3.org/2000/svg">
<path fill-rule="evenodd" clip-rule="evenodd" d="M9.99999 0.666748C4.84534 0.666748 0.666656 4.84543 0.666656 10.0001C0.666656 12.9607 2.04519 15.5994 4.19542 17.3093L2.35046 27.1491C2.28322 27.5077 2.41659 27.8745 2.69847 28.1061C2.98035 28.3377 3.36598 28.3974 3.70471 28.2619L9.99999 25.7438L16.2953 28.2619C16.634 28.3974 17.0196 28.3377 17.3015 28.1061C17.5833 27.8745 17.7168 27.5077 17.6496 27.1491L15.8045 17.3093C17.9548 15.5994 19.3333 12.9607 19.3333 10.0001C19.3333 4.84543 15.1547 0.666748 9.99999 0.666748ZM13.9824 18.4435C12.7745 19.0142 11.4245 19.3334 9.99999 19.3334C8.57546 19.3334 7.22546 19.0142 6.01759 18.4435L4.65156 25.7291L9.62866 23.7382C9.86706 23.6429 10.1329 23.6429 10.3713 23.7382L15.3484 25.7291L13.9824 18.4435Z" fill="#62FCC1"/>
</svg>
