<svg xmlns="http://www.w3.org/2000/svg" width="57" height="51" viewBox="0 0 57 51" fill="none">
  <g clip-path="url(#clip0_664_5)">
    <path d="M28.5276 10.837L49.2904 25.5228C49.45 25.6358 49.5456 25.8194 49.5456 26.0151V50.3969C49.5456 50.73 49.2756 50.9999 48.9425 50.9999H34.826C34.4929 50.9999 34.2229 50.73 34.2229 50.3969V37.3172H22.1371V50.3969C22.1371 50.73 21.8672 50.9999 21.5341 50.9999H7.41678C7.08368 50.9999 6.81372 50.73 6.81372 50.3969V26.0153C6.81372 25.8196 6.90855 25.636 7.06844 25.523L27.8312 10.837C28.04 10.6895 28.3189 10.6895 28.5276 10.837Z" fill="#62FCC1"/>
    <path d="M55.1354 18.4146L46.1614 12.0674V3.70228C46.1614 3.24291 45.7889 2.87039 45.3293 2.87039H40.3103C39.851 2.87039 39.4787 3.24291 39.4787 3.70228V7.34046L29.8525 0.531941C28.8506 -0.176825 27.5088 -0.176825 26.507 0.531941L1.22391 18.4146C-0.0825928 19.3384 -0.392225 21.1467 0.531591 22.4527C1.45662 23.7601 3.26409 24.0676 4.56963 23.145L28.1798 6.44518L51.7897 23.145C52.2979 23.5044 52.8811 23.6767 53.4605 23.6767C54.3688 23.6767 55.2629 23.2507 55.8277 22.4524C56.7515 21.1464 56.4419 19.3382 55.1354 18.4144V18.4146Z" fill="#62FCC1"/>
  </g>
  <defs>
    <clipPath id="clip0_664_5">
      <rect width="56.3603" height="51" fill="white"/>
    </clipPath>
  </defs>
</svg>
