<svg width="110" height="14" viewBox="0 0 110 14" fill="none" xmlns="http://www.w3.org/2000/svg">
<g clip-path="url(#clip0_2322_2234)">
<path d="M65.1587 4.41553C65.1597 5.44071 65.1597 6.43641 65.1587 7.40159C65.1576 8.67201 66.5164 8.43624 67.3764 8.20573C67.4164 8.19415 67.4385 8.20994 67.4437 8.25099L67.61 9.74981C67.6153 9.79296 67.5879 9.83401 67.5458 9.84559C66.9606 10.0108 66.3091 10.0982 65.5902 10.1066C64.0851 10.1256 63.1904 9.16039 63.1883 7.71209C63.1862 6.61113 63.1851 5.51017 63.1851 4.41027C63.1851 4.37448 63.1672 4.35659 63.1304 4.35659H62.0284C61.9758 4.35659 61.9495 4.33028 61.9495 4.27765V2.8304C61.9495 2.77778 61.9758 2.75146 62.0284 2.75146H63.1336C63.1683 2.75146 63.1862 2.73357 63.1862 2.69884V0.409561C63.1862 0.380089 63.2094 0.356934 63.2388 0.356934H65.0018C65.0366 0.356934 65.0545 0.374827 65.0545 0.409561V2.69884C65.0545 2.72831 65.0776 2.75146 65.1071 2.75146H67.1332C67.168 2.75146 67.1859 2.76936 67.1859 2.80409V4.29028C67.1859 4.33449 67.1638 4.35659 67.1206 4.35659H65.2165C65.1776 4.35659 65.1587 4.37659 65.1587 4.41553Z" fill="#1D2633"/>
<path d="M1.45567 0.926345C2.6882 1.71575 3.95125 2.45463 5.15535 3.2672C5.32902 3.38403 5.4006 3.60296 5.4006 3.8061C5.4027 5.33544 5.4027 6.96793 5.4006 8.70252C5.4006 8.93934 5.26376 9.18248 5.06378 9.30773C3.82073 10.0877 2.52611 10.9002 1.17991 11.7454C1.15359 11.7612 1.12623 11.7696 1.0957 11.7707C0.948347 11.7738 0.805201 11.7854 0.665213 11.8033C0.265248 11.8549 7.54158e-06 11.5517 7.54158e-06 11.1813C0.0136906 7.73207 0.0136906 4.50814 7.54158e-06 1.5084C-0.00209754 1.01371 0.436812 0.687418 0.913613 0.718995C1.0757 0.72952 1.25674 0.798988 1.45567 0.926345Z" fill="#F23F57"/>
<path d="M8.86533 1.91789C9.1632 1.33794 9.79893 1.28848 10.262 1.69055C10.8715 2.21997 11.4956 2.76309 12.1366 3.31988C12.3229 3.48092 12.4555 3.69037 12.4545 3.94088C12.4534 5.47864 12.4524 7.05956 12.4534 8.68363C12.4534 8.87519 12.3598 9.05728 12.2156 9.18253C11.4777 9.81827 10.7978 10.4077 10.1736 10.9508C9.97471 11.1224 9.73052 11.1813 9.44001 11.1255C9.23687 11.0866 9.11899 10.9108 8.9569 10.7961C8.87269 10.7361 8.82217 10.6382 8.82217 10.535C8.82323 7.83423 8.82323 5.02605 8.82007 2.11156C8.82007 2.04104 8.8348 1.97684 8.86533 1.91789Z" fill="#F23F57"/>
<path d="M16.8972 2.28942C16.9551 2.31152 17.0067 2.34731 17.0477 2.39362C17.4129 2.80306 17.7782 3.20408 18.1424 3.59457C18.2823 3.74403 18.3476 3.87876 18.3476 4.09769V8.90885C18.3476 9.04884 18.2929 9.18356 18.1939 9.28356C17.8855 9.59616 17.5666 9.94139 17.2361 10.3203C17.0888 10.4898 16.9267 10.5971 16.7498 10.6434C16.1078 10.8129 15.7678 10.1961 15.7678 9.65194C15.7689 7.37109 15.7699 5.1618 15.7689 3.02409C15.7689 2.42309 16.3478 2.07891 16.8972 2.28942Z" fill="#F23F57"/>
<path d="M57.7044 3.47147C58.3475 2.55576 59.2737 2.27789 60.4852 2.63681C60.541 2.6526 60.5652 2.68943 60.5599 2.74732L60.3957 4.38297C60.3915 4.42823 60.3673 4.44402 60.3242 4.43139C60.0726 4.35876 59.74 4.25141 59.4926 4.26614C58.3296 4.3335 57.7454 4.9524 57.7423 6.12388C57.7391 7.43008 57.7381 8.68155 57.7391 9.87829C57.7391 9.89829 57.7296 9.90881 57.7096 9.90987L55.8635 9.99512C55.8161 9.99723 55.793 9.97512 55.793 9.92776V2.69891C55.793 2.66417 55.8098 2.64733 55.8445 2.64733H57.6075C57.6423 2.64733 57.6602 2.66417 57.6602 2.69891V3.45779C57.6591 3.51042 57.6739 3.51463 57.7044 3.47147Z" fill="#1D2633"/>
<path d="M80.7832 3.4977C81.4158 2.49463 82.5241 2.29359 83.6061 2.65146C83.6388 2.66198 83.6524 2.68409 83.6493 2.71777L83.484 4.38499C83.4798 4.42078 83.4451 4.44393 83.4114 4.43341C83.1451 4.35026 82.8746 4.27342 82.5957 4.27342C81.7905 4.27448 81.2548 4.60287 80.9895 5.2565C80.8769 5.53331 80.8243 5.9417 80.8316 6.48271C80.8485 7.73839 80.8506 8.86355 80.8369 9.85821C80.8359 9.89083 80.819 9.90873 80.7864 9.90978L78.9402 9.99504C78.9013 9.99714 78.8687 9.96557 78.8687 9.92662V2.7125C78.8687 2.6683 78.8908 2.64619 78.935 2.64619H80.6843C80.7138 2.64619 80.7369 2.66935 80.7369 2.69882V3.48402C80.7369 3.54296 80.7516 3.54717 80.7832 3.4977Z" fill="#1D2633"/>
<path d="M26.7458 4.38608C26.4027 4.55238 26.3511 4.95235 26.7037 5.1618C26.869 5.26074 27.0542 5.33337 27.2594 5.37863C27.7741 5.49441 28.3204 5.61755 28.9004 5.74702C29.7413 5.93542 30.5129 6.46906 30.6497 7.3774C30.8381 8.62677 30.3592 9.47301 29.2151 9.91613C28.5878 10.1593 27.8889 10.1803 27.2247 10.1908C26.4595 10.2035 25.6733 10.0403 24.867 9.70141C24.8039 9.67405 24.766 9.60879 24.7733 9.54037L24.9344 8.09208C24.9396 8.04892 24.9617 8.03524 25.0017 8.05313C25.9722 8.48362 27.071 8.65098 28.0531 8.52362C28.3646 8.48362 28.7056 8.36574 28.7225 7.99103C28.7404 7.59738 28.3067 7.39003 27.9825 7.3332C27.3773 7.22584 26.8269 7.11532 26.3311 7.00165C25.3375 6.7743 24.6491 6.11225 24.5891 5.04708C24.506 3.55984 25.7512 2.77675 27.0921 2.61044C28.0488 2.49151 29.0803 2.61886 30.1845 2.99146C30.2245 3.00515 30.2508 3.04514 30.2455 3.0883L30.0803 4.56501C30.076 4.60922 30.0529 4.62395 30.0118 4.60817C29.1435 4.2903 28.3088 4.11874 27.3752 4.20715C27.1595 4.22715 26.95 4.28714 26.7458 4.38608Z" fill="#1D2633"/>
<path d="M34.1885 3.42406C34.6442 2.90515 35.2926 2.62202 36.1336 2.5736C37.1556 2.51466 38.2492 2.85779 38.7449 3.80192C38.7639 3.83771 38.8123 3.84297 38.8386 3.81244C39.4901 3.0262 40.2827 2.6136 41.2184 2.57255C41.9531 2.54098 42.5846 2.71359 43.113 3.08935C43.9234 3.66614 44.1729 4.54291 44.1803 5.55966C44.1897 6.9648 44.1918 8.42363 44.1855 9.93508C44.1845 9.96981 44.1666 9.9877 44.1318 9.9877H42.272C42.2404 9.98665 42.2141 9.96034 42.2141 9.92876C42.2183 8.4731 42.2173 7.15637 42.2099 5.98068C42.2046 5.14601 41.8552 4.62501 41.1605 4.41766C40.4637 4.20925 39.5764 4.53238 39.2691 5.25548C39.1912 5.43967 39.1533 5.6565 39.1544 5.9049C39.1649 7.28057 39.166 8.63203 39.1575 9.96139C39.1575 9.97928 39.1491 9.9877 39.1312 9.9877H37.2451C37.2061 9.9877 37.1861 9.9677 37.1861 9.92876C37.1893 8.391 37.1893 7.03954 37.1861 5.87437C37.1861 5.38284 36.9588 4.84604 36.5304 4.57448C35.801 4.11137 34.6979 4.40713 34.359 5.20285C34.2527 5.4523 34.2011 5.80701 34.2053 6.26592C34.2169 7.51107 34.218 8.73413 34.2106 9.93508C34.2106 9.96981 34.1927 9.9877 34.158 9.9877H32.2929C32.2581 9.9877 32.2402 9.96981 32.2402 9.93508V2.69886C32.2402 2.66412 32.2581 2.64623 32.2929 2.64623H34.0822C34.1117 2.64623 34.1348 2.66939 34.1348 2.69886V3.40406C34.1348 3.45774 34.1516 3.46511 34.1874 3.42406H34.1885Z" fill="#1D2633"/>
<path d="M51.763 9.31083C51.2998 9.84447 50.6988 10.1508 49.961 10.2297C48.6506 10.3697 47.6012 9.96867 46.815 9.02665C46.3276 8.44249 46.0382 7.74465 45.9487 6.93314C45.6498 4.24706 47.5433 2.07883 50.3304 2.66825C50.8936 2.78719 51.3683 3.06716 51.7566 3.51028C51.7998 3.55765 51.8208 3.55028 51.8198 3.48607L51.8177 2.80403C51.8177 2.76929 51.8356 2.7514 51.8714 2.7514H53.7628C53.7786 2.75245 53.7912 2.76508 53.7912 2.78087V10.0402C53.7923 10.075 53.7744 10.0929 53.7396 10.0929H51.8714C51.8366 10.0929 51.8187 10.075 51.8187 10.0402V9.33188C51.8187 9.27505 51.7998 9.26768 51.763 9.31083ZM49.8315 8.47406C50.9262 8.47933 51.8177 7.5573 51.824 6.41424C51.8303 5.27118 50.9472 4.33863 49.8526 4.33337C48.758 4.32811 47.8664 5.25013 47.8601 6.39319C47.8538 7.53625 48.7369 8.4688 49.8315 8.47406Z" fill="#1D2633"/>
<path d="M71.3078 3.49039C71.7299 3.00517 72.3045 2.71046 73.0308 2.60415C74.7549 2.35365 76.2242 3.23673 76.8473 4.80607C77.1683 5.61547 77.2231 6.4775 77.0126 7.39427C76.5484 9.41936 74.7496 10.5014 72.735 10.0898C72.1803 9.97615 71.7004 9.74038 71.2973 9.38252C71.2583 9.34778 71.2383 9.3562 71.2383 9.40883V13.0401C71.2383 13.0748 71.2204 13.0927 71.1857 13.0927H69.3964C69.3616 13.0927 69.3438 13.0748 69.3438 13.0401V2.77782C69.3438 2.76309 69.3553 2.75151 69.3701 2.75151H71.1857C71.2204 2.75151 71.2383 2.7694 71.2383 2.80414V3.46408C71.2383 3.5346 71.2615 3.54302 71.3078 3.49039ZM73.0603 8.4005C74.1212 8.49838 75.0654 7.66056 75.1706 6.52908C75.2759 5.3976 74.5012 4.39979 73.4413 4.30085C72.3803 4.20296 71.4362 5.04079 71.3309 6.17227C71.2257 7.30375 72.0004 8.30156 73.0603 8.4005Z" fill="#1D2633"/>
<path d="M91.8067 4.50284C92.6698 6.09533 92.3667 8.05621 90.9679 9.25611C90.2027 9.91184 89.2406 10.2181 88.0807 10.1729C85.6652 10.0792 84.1727 7.94149 84.5747 5.648C84.7821 4.47021 85.5883 3.43451 86.6756 2.94297C88.486 2.12304 90.8152 2.67457 91.8067 4.50284ZM88.2744 8.39618C89.3406 8.46355 90.2627 7.61309 90.3321 6.4974C90.4026 5.38171 89.5953 4.4239 88.5281 4.35548C87.4618 4.28812 86.5398 5.13857 86.4703 6.25426C86.3998 7.36996 87.2071 8.32777 88.2744 8.39618Z" fill="#1D2633"/>
<path d="M105.965 7.82267L107.758 2.70206C107.772 2.66522 107.798 2.64627 107.837 2.64627H109.97C109.991 2.64627 110.006 2.66837 109.998 2.68837C108.841 5.4755 107.685 8.25947 106.532 11.0403C106.09 12.1065 105.247 13.0022 104.045 13.1233C103.835 13.1443 103.635 13.1696 103.444 13.199C102.957 13.2738 102.6 13.1254 102.183 12.9191C102.148 12.9012 102.133 12.8738 102.139 12.8349L102.386 11.3571C102.393 11.3171 102.434 11.2929 102.473 11.3066C103.107 11.5339 103.787 11.5581 104.296 11.0887C104.592 10.8161 104.776 10.4614 104.851 10.0235C104.856 9.99511 104.852 9.96459 104.841 9.93827L101.872 2.69258C101.863 2.67048 101.879 2.64627 101.903 2.64627H103.958C103.985 2.64627 104.009 2.66311 104.018 2.68837L105.901 7.82267C105.923 7.88266 105.944 7.88266 105.965 7.82267Z" fill="#1D2633"/>
<path d="M97.0614 4.89547L98.5939 2.76618C98.6002 2.75776 98.6107 2.7525 98.6212 2.7525L100.872 2.7504C100.899 2.7504 100.915 2.78197 100.899 2.80408L98.3034 6.26273C98.295 6.2743 98.295 6.29114 98.3034 6.30272L100.985 9.93504C101.002 9.95714 100.986 9.98872 100.959 9.98872L98.7949 9.98662C98.7833 9.98662 98.7728 9.98135 98.7665 9.97188L97.1498 7.67313C97.1361 7.65419 97.1087 7.65419 97.0951 7.67313L95.4773 9.97188C95.471 9.98135 95.4605 9.98662 95.4489 9.98662L93.2849 9.98872C93.2575 9.98872 93.2417 9.9582 93.2575 9.93504L95.8531 6.30272C95.8615 6.29114 95.8615 6.2743 95.8531 6.26273L93.2575 2.80408C93.2417 2.78197 93.2575 2.7504 93.2849 2.7504L95.4478 2.7525C95.4584 2.7525 95.4689 2.75776 95.4752 2.76618L97.0066 4.89547C97.0203 4.91442 97.0477 4.91442 97.0614 4.89547Z" fill="#1D2633"/>
</g>
<defs>
<clipPath id="clip0_2322_2234">
<rect width="110" height="12.8621" fill="white" transform="translate(0 0.356903)"/>
</clipPath>
</defs>
</svg>
