<svg width="110" height="20" viewBox="0 0 110 20" fill="none" xmlns="http://www.w3.org/2000/svg">
<g clip-path="url(#clip0_2322_1180)">
<path d="M65.1587 7.41553C65.1597 8.44071 65.1597 9.43641 65.1587 10.4016C65.1576 11.672 66.5164 11.4362 67.3764 11.2057C67.4164 11.1942 67.4385 11.2099 67.4437 11.251L67.61 12.7498C67.6153 12.793 67.5879 12.834 67.5458 12.8456C66.9606 13.0108 66.3091 13.0982 65.5902 13.1066C64.0851 13.1256 63.1904 12.1604 63.1883 10.7121C63.1862 9.61113 63.1851 8.51017 63.1851 7.41027C63.1851 7.37448 63.1672 7.35659 63.1304 7.35659H62.0284C61.9758 7.35659 61.9495 7.33028 61.9495 7.27765V5.8304C61.9495 5.77778 61.9758 5.75146 62.0284 5.75146H63.1336C63.1683 5.75146 63.1862 5.73357 63.1862 5.69884V3.40956C63.1862 3.38009 63.2094 3.35693 63.2388 3.35693H65.0018C65.0366 3.35693 65.0545 3.37483 65.0545 3.40956V5.69884C65.0545 5.72831 65.0776 5.75146 65.1071 5.75146H67.1332C67.168 5.75146 67.1859 5.76936 67.1859 5.80409V7.29028C67.1859 7.33449 67.1638 7.35659 67.1206 7.35659H65.2165C65.1776 7.35659 65.1587 7.37659 65.1587 7.41553Z" fill="white"/>
<path d="M1.45567 3.92635C2.6882 4.71575 3.95125 5.45463 5.15535 6.2672C5.32902 6.38403 5.4006 6.60296 5.4006 6.8061C5.4027 8.33544 5.4027 9.96793 5.4006 11.7025C5.4006 11.9393 5.26376 12.1825 5.06378 12.3077C3.82073 13.0877 2.52611 13.9002 1.17991 14.7454C1.15359 14.7612 1.12623 14.7696 1.0957 14.7707C0.948347 14.7738 0.805201 14.7854 0.665213 14.8033C0.265248 14.8549 7.54158e-06 14.5517 7.54158e-06 14.1813C0.0136906 10.7321 0.0136906 7.50814 7.54158e-06 4.5084C-0.00209754 4.01371 0.436812 3.68742 0.913613 3.71899C1.0757 3.72952 1.25674 3.79899 1.45567 3.92635Z" fill="#F23F57"/>
<path d="M8.86533 4.91789C9.1632 4.33794 9.79893 4.28848 10.262 4.69055C10.8715 5.21997 11.4956 5.76309 12.1366 6.31988C12.3229 6.48092 12.4555 6.69037 12.4545 6.94088C12.4534 8.47864 12.4524 10.0596 12.4534 11.6836C12.4534 11.8752 12.3598 12.0573 12.2156 12.1825C11.4777 12.8183 10.7978 13.4077 10.1736 13.9508C9.97471 14.1224 9.73052 14.1813 9.44001 14.1255C9.23687 14.0866 9.11899 13.9108 8.9569 13.7961C8.87269 13.7361 8.82217 13.6382 8.82217 13.535C8.82323 10.8342 8.82323 8.02605 8.82007 5.11156C8.82007 5.04104 8.8348 4.97684 8.86533 4.91789Z" fill="#F23F57"/>
<path d="M16.8971 5.28942C16.955 5.31152 17.0065 5.34731 17.0476 5.39362C17.4128 5.80306 17.7781 6.20408 18.1422 6.59457C18.2822 6.74403 18.3475 6.87876 18.3475 7.09769V11.9089C18.3475 12.0488 18.2927 12.1836 18.1938 12.2836C17.8854 12.5962 17.5665 12.9414 17.236 13.3203C17.0886 13.4898 16.9265 13.5971 16.7497 13.6434C16.1077 13.8129 15.7677 13.1961 15.7677 12.6519C15.7688 10.3711 15.7698 8.1618 15.7688 6.02409C15.7688 5.42309 16.3476 5.07891 16.8971 5.28942Z" fill="#F23F57"/>
<path d="M57.7043 6.47147C58.3474 5.55576 59.2736 5.27789 60.4851 5.63681C60.5409 5.6526 60.5651 5.68943 60.5598 5.74732L60.3956 7.38297C60.3914 7.42823 60.3672 7.44402 60.324 7.43139C60.0725 7.35876 59.7399 7.25141 59.4925 7.26614C58.3295 7.3335 57.7453 7.9524 57.7421 9.12388C57.739 10.4301 57.7379 11.6815 57.739 12.8783C57.739 12.8983 57.7295 12.9088 57.7095 12.9099L55.8634 12.9951C55.816 12.9972 55.7928 12.9751 55.7928 12.9278V5.69891C55.7928 5.66417 55.8097 5.64733 55.8444 5.64733H57.6074C57.6422 5.64733 57.6601 5.66417 57.6601 5.69891V6.45779C57.659 6.51042 57.6737 6.51463 57.7043 6.47147Z" fill="white"/>
<path d="M80.7832 6.4977C81.4158 5.49463 82.5241 5.29359 83.6061 5.65146C83.6388 5.66198 83.6524 5.68409 83.6493 5.71777L83.484 7.38499C83.4798 7.42078 83.4451 7.44393 83.4114 7.43341C83.1451 7.35026 82.8746 7.27342 82.5957 7.27342C81.7905 7.27448 81.2548 7.60287 80.9895 8.2565C80.8769 8.53331 80.8243 8.9417 80.8316 9.48271C80.8485 10.7384 80.8506 11.8636 80.8369 12.8582C80.8359 12.8908 80.819 12.9087 80.7864 12.9098L78.9402 12.995C78.9013 12.9971 78.8687 12.9656 78.8687 12.9266V5.7125C78.8687 5.6683 78.8908 5.64619 78.935 5.64619H80.6843C80.7138 5.64619 80.7369 5.66935 80.7369 5.69882V6.48402C80.7369 6.54296 80.7516 6.54717 80.7832 6.4977Z" fill="white"/>
<path d="M26.7458 7.38608C26.4027 7.55238 26.3511 7.95235 26.7037 8.1618C26.869 8.26074 27.0542 8.33337 27.2594 8.37863C27.7741 8.49441 28.3204 8.61755 28.9004 8.74702C29.7413 8.93542 30.5129 9.46906 30.6497 10.3774C30.8381 11.6268 30.3592 12.473 29.2151 12.9161C28.5878 13.1593 27.8889 13.1803 27.2247 13.1908C26.4595 13.2035 25.6733 13.0403 24.867 12.7014C24.8039 12.674 24.766 12.6088 24.7733 12.5404L24.9344 11.0921C24.9396 11.0489 24.9617 11.0352 25.0017 11.0531C25.9722 11.4836 27.071 11.651 28.0531 11.5236C28.3646 11.4836 28.7056 11.3657 28.7225 10.991C28.7404 10.5974 28.3067 10.39 27.9825 10.3332C27.3773 10.2258 26.8269 10.1153 26.3311 10.0016C25.3375 9.7743 24.6491 9.11225 24.5891 8.04708C24.506 6.55984 25.7512 5.77675 27.0921 5.61044C28.0488 5.49151 29.0803 5.61886 30.1845 5.99146C30.2245 6.00515 30.2508 6.04514 30.2455 6.0883L30.0803 7.56501C30.076 7.60922 30.0529 7.62395 30.0118 7.60817C29.1435 7.2903 28.3088 7.11874 27.3752 7.20715C27.1595 7.22715 26.95 7.28714 26.7458 7.38608Z" fill="white"/>
<path d="M34.1884 6.42406C34.6441 5.90515 35.2925 5.62202 36.1335 5.5736C37.1555 5.51466 38.2491 5.85779 38.7448 6.80192C38.7638 6.83771 38.8122 6.84297 38.8385 6.81244C39.49 6.0262 40.2826 5.6136 41.2183 5.57255C41.953 5.54098 42.5845 5.71359 43.1129 6.08935C43.9233 6.66614 44.1728 7.54291 44.1801 8.55966C44.1896 9.9648 44.1917 11.4236 44.1854 12.9351C44.1843 12.9698 44.1665 12.9877 44.1317 12.9877H42.2719C42.2403 12.9866 42.214 12.9603 42.214 12.9288C42.2182 11.4731 42.2171 10.1564 42.2098 8.98068C42.2045 8.14601 41.8551 7.62501 41.1604 7.41766C40.4636 7.20925 39.5763 7.53238 39.269 8.25548C39.1911 8.43967 39.1532 8.6565 39.1543 8.9049C39.1648 10.2806 39.1658 11.632 39.1574 12.9614C39.1574 12.9793 39.149 12.9877 39.1311 12.9877H37.2449C37.206 12.9877 37.186 12.9677 37.186 12.9288C37.1892 11.391 37.1892 10.0395 37.186 8.87437C37.186 8.38284 36.9587 7.84604 36.5303 7.57448C35.8009 7.11137 34.6978 7.40713 34.3589 8.20285C34.2526 8.4523 34.201 8.80701 34.2052 9.26592C34.2168 10.5111 34.2178 11.7341 34.2105 12.9351C34.2105 12.9698 34.1926 12.9877 34.1578 12.9877H32.2927C32.258 12.9877 32.2401 12.9698 32.2401 12.9351V5.69886C32.2401 5.66412 32.258 5.64623 32.2927 5.64623H34.0821C34.1115 5.64623 34.1347 5.66939 34.1347 5.69886V6.40406C34.1347 6.45774 34.1515 6.46511 34.1873 6.42406H34.1884Z" fill="white"/>
<path d="M51.7628 12.3108C51.2997 12.8445 50.6987 13.1508 49.9609 13.2297C48.6505 13.3697 47.6011 12.9687 46.8148 12.0266C46.3275 11.4425 46.0381 10.7447 45.9486 9.93314C45.6497 7.24706 47.5432 5.07883 50.3303 5.66825C50.8934 5.78719 51.3681 6.06716 51.7565 6.51028C51.7997 6.55765 51.8207 6.55028 51.8197 6.48607L51.8176 5.80403C51.8176 5.76929 51.8355 5.7514 51.8712 5.7514H53.7627C53.7784 5.75245 53.7911 5.76508 53.7911 5.78087V13.0402C53.7921 13.075 53.7742 13.0929 53.7395 13.0929H51.8712C51.8365 13.0929 51.8186 13.075 51.8186 13.0402V12.3319C51.8186 12.275 51.7997 12.2677 51.7628 12.3108ZM49.8314 11.4741C50.9261 11.4793 51.8176 10.5573 51.8239 9.41424C51.8302 8.27118 50.9471 7.33863 49.8525 7.33337C48.7578 7.32811 47.8663 8.25013 47.86 9.39319C47.8537 10.5362 48.7368 11.4688 49.8314 11.4741Z" fill="white"/>
<path d="M71.3079 6.49039C71.73 6.00517 72.3047 5.71046 73.0309 5.60415C74.755 5.35365 76.2243 6.23673 76.8474 7.80607C77.1685 8.61547 77.2232 9.4775 77.0127 10.3943C76.5485 12.4194 74.7497 13.5014 72.7352 13.0898C72.1805 12.9761 71.7005 12.7404 71.2974 12.3825C71.2584 12.3478 71.2384 12.3562 71.2384 12.4088V16.0401C71.2384 16.0748 71.2206 16.0927 71.1858 16.0927H69.3965C69.3618 16.0927 69.3439 16.0748 69.3439 16.0401V5.77782C69.3439 5.76309 69.3555 5.75151 69.3702 5.75151H71.1858C71.2206 5.75151 71.2384 5.7694 71.2384 5.80414V6.46408C71.2384 6.5346 71.2616 6.54302 71.3079 6.49039ZM73.0604 11.4005C74.1214 11.4984 75.0655 10.6606 75.1707 9.52908C75.276 8.3976 74.5013 7.39979 73.4414 7.30085C72.3805 7.20296 71.4363 8.04079 71.3311 9.17227C71.2258 10.3037 72.0005 11.3016 73.0604 11.4005Z" fill="white"/>
<path d="M91.8067 7.50284C92.6698 9.09533 92.3667 11.0562 90.9679 12.2561C90.2027 12.9118 89.2406 13.2181 88.0807 13.1729C85.6652 13.0792 84.1727 10.9415 84.5747 8.648C84.7821 7.47021 85.5883 6.43451 86.6756 5.94297C88.486 5.12304 90.8152 5.67457 91.8067 7.50284ZM88.2744 11.3962C89.3406 11.4635 90.2627 10.6131 90.3321 9.4974C90.4026 8.38171 89.5953 7.4239 88.5281 7.35548C87.4618 7.28812 86.5398 8.13857 86.4703 9.25426C86.3998 10.37 87.2071 11.3278 88.2744 11.3962Z" fill="white"/>
<path d="M105.965 10.8227L107.758 5.70206C107.772 5.66522 107.798 5.64627 107.837 5.64627H109.97C109.991 5.64627 110.006 5.66837 109.998 5.68837C108.841 8.4755 107.685 11.2595 106.532 14.0403C106.09 15.1065 105.247 16.0022 104.045 16.1233C103.835 16.1443 103.635 16.1696 103.444 16.199C102.957 16.2738 102.6 16.1254 102.183 15.9191C102.148 15.9012 102.133 15.8738 102.139 15.8349L102.386 14.3571C102.393 14.3171 102.434 14.2929 102.473 14.3066C103.107 14.5339 103.787 14.5581 104.296 14.0887C104.592 13.8161 104.776 13.4614 104.851 13.0235C104.856 12.9951 104.852 12.9646 104.841 12.9383L101.872 5.69258C101.863 5.67048 101.879 5.64627 101.903 5.64627H103.958C103.985 5.64627 104.009 5.66311 104.018 5.68837L105.901 10.8227C105.923 10.8827 105.944 10.8827 105.965 10.8227Z" fill="white"/>
<path d="M97.0614 7.89547L98.5939 5.76618C98.6002 5.75776 98.6107 5.7525 98.6212 5.7525L100.872 5.7504C100.899 5.7504 100.915 5.78197 100.899 5.80408L98.3034 9.26273C98.295 9.2743 98.295 9.29114 98.3034 9.30272L100.985 12.935C101.002 12.9571 100.986 12.9887 100.959 12.9887L98.7949 12.9866C98.7833 12.9866 98.7728 12.9814 98.7665 12.9719L97.1498 10.6731C97.1361 10.6542 97.1087 10.6542 97.0951 10.6731L95.4773 12.9719C95.471 12.9814 95.4605 12.9866 95.4489 12.9866L93.2849 12.9887C93.2575 12.9887 93.2417 12.9582 93.2575 12.935L95.8531 9.30272C95.8615 9.29114 95.8615 9.2743 95.8531 9.26273L93.2575 5.80408C93.2417 5.78197 93.2575 5.7504 93.2849 5.7504L95.4478 5.7525C95.4584 5.7525 95.4689 5.75776 95.4752 5.76618L97.0066 7.89547C97.0203 7.91442 97.0477 7.91442 97.0614 7.89547Z" fill="white"/>
</g>
<defs>
<clipPath id="clip0_2322_1180">
<rect width="110" height="12.8621" fill="white" transform="translate(0 3.3569)"/>
</clipPath>
</defs>
</svg>
