<svg width="98" height="20" viewBox="0 0 98 20" fill="none" xmlns="http://www.w3.org/2000/svg">
<mask id="mask0_2322_1079" style="mask-type:luminance" maskUnits="userSpaceOnUse" x="23" y="5" width="53" height="11">
<path d="M76 5H23V15.6891H76V5Z" fill="white"/>
</mask>
<g mask="url(#mask0_2322_1079)">
<path fill-rule="evenodd" clip-rule="evenodd" d="M75.5003 5.27816L71.5453 10.0863L76 15.411H72.1697L69.5189 11.9274L66.8266 15.411H63.0102L67.4512 10.0863L63.5098 5.27816H67.3263L69.505 8.36435L71.6839 5.27816H75.5003ZM52.9625 12.2188C52.9625 11.4638 53.4622 10.6823 55.5577 10.6161C56.6402 10.6558 57.9448 10.881 58.7636 11.2121C58.4721 12.3512 57.3896 13.7022 55.2246 13.8215C53.5038 13.7287 52.9625 12.9605 52.9625 12.2188ZM56.321 5C56.2239 5 56.1129 5 56.0157 5C55.9602 5 55.8908 5 55.8353 5C55.7937 5 55.7521 5 55.7104 5C51.436 5 50.3813 6.98682 50.1592 8.57627H53.3095C53.4066 7.66233 54.1005 6.81463 55.9463 6.72191C57.9864 6.80138 58.8329 7.75506 58.8468 9.2253V9.45047C57.6811 9.15907 56.4737 9.01337 55.2524 9.00013C55.1553 9.00013 55.0582 9.00013 54.961 9.00013C54.9055 9.00013 54.8361 9.00013 54.7806 9.00013C54.7389 9.00013 54.6973 9.00013 54.6557 9.00013C50.8947 9.00013 49.7706 10.5763 49.7706 12.2982C49.7706 13.8082 50.6033 15.6758 54.2532 15.6758C54.3087 15.6758 54.3781 15.6758 54.4337 15.6758C54.4475 15.6758 54.4753 15.6758 54.4891 15.6758C54.614 15.6758 54.725 15.6758 54.85 15.6758C56.5292 15.6758 57.9448 15.0665 58.8607 14.0201V14.0731V15.3977H62.0665V9.78162C62.0665 7.1855 61.095 5 56.321 5ZM38.6266 10.3114V10.3644C38.6266 12.5764 39.9728 13.636 41.999 13.7287C44.0252 13.636 45.3713 12.5764 45.3713 10.3644V10.3114C45.3713 8.11268 44.0252 7.06629 41.999 6.97357C39.9728 7.06629 38.6266 8.11268 38.6266 10.3114ZM42.3042 5C46.2179 5 48.6049 6.90735 48.6049 10.2717V10.3909C48.6049 13.7685 46.2179 15.6758 42.3042 15.6758C42.2627 15.6758 42.221 15.6758 42.1793 15.6758C42.1239 15.6758 42.0545 15.6758 41.999 15.6758C41.9018 15.6758 41.8047 15.6758 41.6936 15.6758C37.7939 15.6758 35.393 13.7685 35.393 10.3909V10.2717C35.393 6.90735 37.7801 5 41.6936 5C41.7353 5 41.7769 5 41.8185 5C41.8741 5 41.9434 5 41.999 5C42.0961 5 42.2071 5 42.3042 5ZM26.525 7.95374C26.525 8.89416 27.4132 9.15907 29.4116 9.38424C33.0615 9.74185 34.5465 10.6558 34.5465 12.5102C34.5465 14.5235 32.7979 15.6891 29.1896 15.6891H28.5789C24.6376 15.6891 23 14.0864 23 12.0863H26.0948C26.1919 13.2784 27.3022 13.8082 28.9675 13.8612C30.6884 13.8082 31.2851 13.3447 31.2851 12.6427C31.2851 11.7155 30.3692 11.4373 28.1487 11.1459C24.7903 10.722 23.2637 9.92731 23.2637 8.03321C23.2637 6.40402 24.4433 5 28.2042 5C28.2459 5 28.3014 5 28.343 5C28.3847 5 28.4402 5 28.4818 5C28.5928 5 28.69 5 28.801 5C32.7285 5 34.2967 6.69542 34.3245 8.31136H31.1464C31.0492 7.51663 30.1888 6.8941 28.4263 6.82787C27.0385 6.88085 26.525 7.31796 26.525 7.95374Z" fill="white"/>
</g>
</svg>
