<svg width="26" height="26" viewBox="0 0 26 26" fill="none" xmlns="http://www.w3.org/2000/svg">
<path fill-rule="evenodd" clip-rule="evenodd" d="M0 25C0 24.7899 0.0648133 24.5949 0.17552 24.434C0.699053 23.6487 1.06831 23.0937 1.33003 22.6473C1.59195 22.2005 1.70461 21.9299 1.75317 21.7203C1.78717 21.5736 1.79912 21.5121 1.80643 21.46C1.81373 21.4079 1.81915 21.3456 1.82679 21.1952C1.83631 21.0079 1.78603 20.6433 1.58491 19.9089C1.39084 19.2001 1.09032 18.2596 0.676227 16.9647C0.292493 15.7645 0 14.3963 0 13C0 5.82029 5.82029 0 13 0C20.1797 0 26 5.82029 26 13C26 20.1797 20.1797 26 13 26H1C0.44772 26 0 25.5523 0 25ZM7.66667 9.33333C7.11439 9.33333 6.66667 9.78105 6.66667 10.3333C6.66667 10.8856 7.11439 11.3333 7.66667 11.3333H18.3333C18.8856 11.3333 19.3333 10.8856 19.3333 10.3333C19.3333 9.78105 18.8856 9.33333 18.3333 9.33333H7.66667ZM6.66667 15.6667C6.66667 15.1144 7.11439 14.6667 7.66667 14.6667H13C13.5523 14.6667 14 15.1144 14 15.6667C14 16.2189 13.5523 16.6667 13 16.6667H7.66667C7.11439 16.6667 6.66667 16.2189 6.66667 15.6667Z" fill="#62FCC1"/>
</svg>
