<svg width="28" height="28" viewBox="0 0 28 28" fill="none" xmlns="http://www.w3.org/2000/svg">
<path fill-rule="evenodd" clip-rule="evenodd" d="M27.3334 14.0001C27.3334 21.3638 21.3638 27.3334 14 27.3334C6.63622 27.3334 0.666687 21.3638 0.666687 14.0001C0.666687 6.63628 6.63622 0.666748 14 0.666748C21.3638 0.666748 27.3334 6.63628 27.3334 14.0001ZM12.6667 4.66675C12.6667 3.93037 13.2636 3.33341 14 3.33341C19.8911 3.33341 24.6667 8.10904 24.6667 14.0001C24.6667 19.8911 19.8911 24.6667 14 24.6667C8.10898 24.6667 3.33335 19.8911 3.33335 14.0001C3.33335 11.7355 4.04051 9.63223 5.24602 7.90395C5.6673 7.29999 6.49843 7.15188 7.10241 7.57316C7.70637 7.99445 7.85447 8.82557 7.43318 9.42955C6.5297 10.7248 6.00002 12.2986 6.00002 14.0001C6.00002 18.4183 9.58174 22.0001 14 22.0001C18.4183 22.0001 22 18.4183 22 14.0001C22 9.5818 18.4183 6.00008 14 6.00008C13.2636 6.00008 12.6667 5.40312 12.6667 4.66675ZM14 8.66675C13.2636 8.66675 12.6667 9.26371 12.6667 10.0001C12.6667 10.7365 13.2636 11.3334 14 11.3334C15.4728 11.3334 16.6667 12.5273 16.6667 14.0001C16.6667 14.7365 17.2636 15.3334 18 15.3334C18.7364 15.3334 19.3334 14.7365 19.3334 14.0001C19.3334 11.0546 16.9455 8.66675 14 8.66675Z" fill="#62FCC1"/>
</svg>
