<svg width="13" height="13" viewBox="0 0 13 13" fill="none" xmlns="http://www.w3.org/2000/svg">
<path d="M3.72333 12.1666C4.77074 12.2016 5.81455 12.0263 6.79307 11.6511C7.77158 11.2759 8.66496 10.7083 9.42038 9.98193C10.1758 9.25556 10.778 8.38512 11.1913 7.42207C11.6046 6.45901 11.8206 5.42288 11.8267 4.3749C12.3067 3.7809 12.6631 3.09695 12.875 2.36323C12.8908 2.30526 12.8895 2.24396 12.8713 2.1867C12.8531 2.12944 12.8187 2.07866 12.7723 2.04049C12.7259 2.00232 12.6695 1.97838 12.6098 1.97154C12.5501 1.96471 12.4897 1.97528 12.4358 2.00198C12.1847 2.12286 11.902 2.16191 11.6275 2.11362C11.353 2.06533 11.1006 1.93214 10.9058 1.73282C10.6572 1.46052 10.3564 1.2409 10.0213 1.08698C9.68621 0.933054 9.32363 0.847956 8.95505 0.836727C8.58647 0.825498 8.21938 0.888365 7.87554 1.0216C7.5317 1.15484 7.21811 1.35574 6.95333 1.6124C6.5908 1.96349 6.32527 2.4024 6.18253 2.88646C6.03979 3.37052 6.02471 3.88328 6.13875 4.3749C3.76583 4.51657 2.13667 3.39032 0.833332 1.84615C0.794178 1.80181 0.742959 1.76983 0.68593 1.75411C0.628901 1.7384 0.568531 1.73963 0.512192 1.75766C0.455852 1.77569 0.405981 1.80974 0.36867 1.85564C0.331358 1.90154 0.30822 1.95731 0.302082 2.01615C0.0537897 3.39345 0.232899 4.81375 0.815353 6.08628C1.39781 7.35882 2.35571 8.42265 3.56042 9.1349C2.75266 10.0613 1.61831 10.6399 0.394166 10.7499C0.328582 10.7608 0.268041 10.7919 0.221014 10.8389C0.173988 10.8859 0.14283 10.9464 0.131901 11.012C0.120972 11.0775 0.130819 11.1449 0.160064 11.2046C0.189309 11.2643 0.236488 11.3133 0.294999 11.3449C1.35999 11.8771 2.53279 12.1582 3.72333 12.1666Z" fill="#A4A9BB"/>
</svg>
