<svg width="616" height="356" viewBox="0 0 616 356" fill="none" xmlns="http://www.w3.org/2000/svg">
  <g clip-path="url(#clip0_1787_145)">
    <rect width="616" height="356" rx="18" fill="url(#paint0_linear_1787_145)"/>
    <g style="mix-blend-mode:soft-light">
      <circle cx="308" cy="178" r="259" fill="url(#paint1_linear_1787_145)" fill-opacity="0.3"/>
    </g>
    <g style="mix-blend-mode:soft-light">
      <circle cx="308" cy="178" r="198" fill="url(#paint2_linear_1787_145)" fill-opacity="0.3"/>
    </g>
    <g style="mix-blend-mode:soft-light">
      <circle cx="308" cy="178" r="140" fill="url(#paint3_linear_1787_145)" fill-opacity="0.3"/>
    </g>
    <circle cx="308" cy="178" r="71" transform="rotate(-90 308 178)" fill="#62FCC1" fill-opacity="0.15"/>
    <circle cx="308" cy="178" r="72" transform="rotate(-90 308 178)" stroke="url(#paint4_linear_1787_145)" stroke-opacity="0.5" stroke-width="2"/>
    <path fill-rule="evenodd" clip-rule="evenodd" d="M298.276 184.222L283.782 169.728L273.196 180.314L298.276 205.394L308.862 194.808L341.535 162.135L330.949 151.549L298.276 184.222Z" fill="#62FCC1"/>
  </g>
  <rect x="1" y="1" width="614" height="354" rx="17" stroke="#0D0F17" stroke-opacity="0.1" stroke-width="2"/>
  <defs>
    <linearGradient id="paint0_linear_1787_145" x1="439" y1="509" x2="163" y2="-26" gradientUnits="userSpaceOnUse">
      <stop stop-color="#0A0C15"/>
      <stop offset="1" stop-color="#545E84"/>
    </linearGradient>
    <linearGradient id="paint1_linear_1787_145" x1="459.248" y1="-81" x2="31.2062" y2="402.401" gradientUnits="userSpaceOnUse">
      <stop stop-color="#62FCC1"/>
      <stop offset="1" stop-color="#0099A5"/>
    </linearGradient>
    <linearGradient id="paint2_linear_1787_145" x1="423.626" y1="-20" x2="96.397" y2="349.55" gradientUnits="userSpaceOnUse">
      <stop stop-color="#62FCC1"/>
      <stop offset="1" stop-color="#0099A5"/>
    </linearGradient>
    <linearGradient id="paint3_linear_1787_145" x1="389.756" y1="38" x2="158.382" y2="299.298" gradientUnits="userSpaceOnUse">
      <stop stop-color="#62FCC1"/>
      <stop offset="1" stop-color="#0099A5"/>
    </linearGradient>
    <linearGradient id="paint4_linear_1787_145" x1="395" y1="249" x2="224.5" y2="95" gradientUnits="userSpaceOnUse">
      <stop stop-color="white"/>
      <stop offset="1" stop-color="white" stop-opacity="0.22"/>
    </linearGradient>
    <clipPath id="clip0_1787_145">
      <rect width="616" height="356" rx="18" fill="white"/>
    </clipPath>
  </defs>
</svg>
