<svg width="616" height="356" viewBox="0 0 616 356" fill="none" xmlns="http://www.w3.org/2000/svg">
  <g clip-path="url(#clip0_1787_213)">
    <rect width="616" height="356" rx="18" fill="url(#paint0_linear_1787_213)"/>
    <g style="mix-blend-mode:soft-light">
      <circle cx="308" cy="178" r="259" fill="url(#paint1_linear_1787_213)" fill-opacity="0.3"/>
    </g>
    <g style="mix-blend-mode:soft-light">
      <circle cx="308" cy="178" r="198" fill="url(#paint2_linear_1787_213)" fill-opacity="0.3"/>
    </g>
    <g style="mix-blend-mode:soft-light">
      <circle cx="308" cy="178" r="140" fill="url(#paint3_linear_1787_213)" fill-opacity="0.3"/>
    </g>
    <circle cx="308" cy="178" r="71" transform="rotate(-90 308 178)" fill="#62FCC1" fill-opacity="0.15"/>
    <circle cx="308" cy="178" r="72" transform="rotate(-90 308 178)" stroke="url(#paint4_linear_1787_213)" stroke-opacity="0.5" stroke-width="2"/>
    <path fill-rule="evenodd" clip-rule="evenodd" d="M283.7 151H332.3C333.65 151 335 152.08 335 153.7V202.3C335 203.65 333.65 205 332.3 205H283.7C282.08 205 281 203.65 281 202.3V153.7C281 152.08 282.08 151 283.7 151ZM286.4 199.6H329.6V167.2H286.4V199.6ZM289.71 163.193C291.634 163.193 293.194 161.634 293.194 159.71C293.194 157.785 291.634 156.226 289.71 156.226C287.786 156.226 286.226 157.785 286.226 159.71C286.226 161.634 287.786 163.193 289.71 163.193ZM303.645 159.71C303.645 161.634 302.085 163.193 300.161 163.193C298.237 163.193 296.677 161.634 296.677 159.71C296.677 157.785 298.237 156.226 300.161 156.226C302.085 156.226 303.645 157.785 303.645 159.71ZM310.613 163.193C312.537 163.193 314.097 161.634 314.097 159.71C314.097 157.785 312.537 156.226 310.613 156.226C308.689 156.226 307.129 157.785 307.129 159.71C307.129 161.634 308.689 163.193 310.613 163.193Z" fill="#62FCC1"/>
    <rect x="291" y="172" width="14" height="9" fill="#62FCC1"/>
    <rect x="311" y="172" width="14" height="9" fill="#62FCC1"/>
    <rect x="291" y="185" width="14" height="9" fill="#62FCC1"/>
    <rect x="311" y="185" width="14" height="9" fill="#62FCC1"/>
  </g>
  <rect x="1" y="1" width="614" height="354" rx="17" stroke="#0D0F17" stroke-opacity="0.1" stroke-width="2"/>
  <defs>
    <linearGradient id="paint0_linear_1787_213" x1="439" y1="509" x2="163" y2="-26" gradientUnits="userSpaceOnUse">
      <stop stop-color="#0A0C15"/>
      <stop offset="1" stop-color="#545E84"/>
    </linearGradient>
    <linearGradient id="paint1_linear_1787_213" x1="459.248" y1="-81" x2="31.2062" y2="402.401" gradientUnits="userSpaceOnUse">
      <stop stop-color="#62FCC1"/>
      <stop offset="1" stop-color="#0099A5"/>
    </linearGradient>
    <linearGradient id="paint2_linear_1787_213" x1="423.626" y1="-20" x2="96.397" y2="349.55" gradientUnits="userSpaceOnUse">
      <stop stop-color="#62FCC1"/>
      <stop offset="1" stop-color="#0099A5"/>
    </linearGradient>
    <linearGradient id="paint3_linear_1787_213" x1="389.756" y1="38" x2="158.382" y2="299.298" gradientUnits="userSpaceOnUse">
      <stop stop-color="#62FCC1"/>
      <stop offset="1" stop-color="#0099A5"/>
    </linearGradient>
    <linearGradient id="paint4_linear_1787_213" x1="395" y1="249" x2="224.5" y2="95" gradientUnits="userSpaceOnUse">
      <stop stop-color="white"/>
      <stop offset="1" stop-color="white" stop-opacity="0.22"/>
    </linearGradient>
    <clipPath id="clip0_1787_213">
      <rect width="616" height="356" rx="18" fill="white"/>
    </clipPath>
  </defs>
</svg>
