<svg width="616" height="356" viewBox="0 0 616 356" fill="none" xmlns="http://www.w3.org/2000/svg">
  <g clip-path="url(#clip0_1787_169)">
    <rect width="616" height="356" rx="18" fill="url(#paint0_linear_1787_169)"/>
    <g style="mix-blend-mode:soft-light">
      <circle cx="308" cy="178" r="259" fill="url(#paint1_linear_1787_169)" fill-opacity="0.3"/>
    </g>
    <g style="mix-blend-mode:soft-light">
      <circle cx="308" cy="178" r="198" fill="url(#paint2_linear_1787_169)" fill-opacity="0.3"/>
    </g>
    <g style="mix-blend-mode:soft-light">
      <circle cx="308" cy="178" r="140" fill="url(#paint3_linear_1787_169)" fill-opacity="0.3"/>
    </g>
    <circle cx="308" cy="178" r="71" transform="rotate(-90 308 178)" fill="#62FCC1" fill-opacity="0.15"/>
    <circle cx="308" cy="178" r="72" transform="rotate(-90 308 178)" stroke="url(#paint4_linear_1787_169)" stroke-opacity="0.5" stroke-width="2"/>
    <path d="M312.728 215V205.787C323.297 204.08 329 197.476 329 189.324C329 181.173 324.675 176.267 313.732 172.502C305.84 169.724 302.621 167.764 302.621 164.898C302.621 162.396 304.541 159.796 310.517 159.796C317.061 159.796 321.347 161.802 323.667 162.888L323.755 162.929L326.516 152.822C323.293 151.391 319.162 150.049 313.084 149.871V142H304.087V150.498C294.262 152.284 288.546 158.453 288.546 166.422C288.546 175.098 295.258 179.569 305.1 182.796C311.983 185.036 314.925 187.071 314.925 190.573C314.925 194.076 311.349 196.124 306.021 196.124C300.036 196.124 294.628 194.244 290.766 192.187L288 202.653C291.497 204.533 297.468 206.236 303.629 206.502V215H312.728Z" fill="#62FCC1"/>
  </g>
  <rect x="1" y="1" width="614" height="354" rx="17" stroke="#0D0F17" stroke-opacity="0.1" stroke-width="2"/>
  <defs>
    <linearGradient id="paint0_linear_1787_169" x1="439" y1="509" x2="163" y2="-26" gradientUnits="userSpaceOnUse">
      <stop stop-color="#0A0C15"/>
      <stop offset="1" stop-color="#545E84"/>
    </linearGradient>
    <linearGradient id="paint1_linear_1787_169" x1="459.248" y1="-81" x2="31.2062" y2="402.401" gradientUnits="userSpaceOnUse">
      <stop stop-color="#62FCC1"/>
      <stop offset="1" stop-color="#0099A5"/>
    </linearGradient>
    <linearGradient id="paint2_linear_1787_169" x1="423.626" y1="-20" x2="96.397" y2="349.55" gradientUnits="userSpaceOnUse">
      <stop stop-color="#62FCC1"/>
      <stop offset="1" stop-color="#0099A5"/>
    </linearGradient>
    <linearGradient id="paint3_linear_1787_169" x1="389.756" y1="38" x2="158.382" y2="299.298" gradientUnits="userSpaceOnUse">
      <stop stop-color="#62FCC1"/>
      <stop offset="1" stop-color="#0099A5"/>
    </linearGradient>
    <linearGradient id="paint4_linear_1787_169" x1="395" y1="249" x2="224.5" y2="95" gradientUnits="userSpaceOnUse">
      <stop stop-color="white"/>
      <stop offset="1" stop-color="white" stop-opacity="0.22"/>
    </linearGradient>
    <clipPath id="clip0_1787_169">
      <rect width="616" height="356" rx="18" fill="white"/>
    </clipPath>
  </defs>
</svg>
