<svg width="65" height="65" viewBox="0 0 65 65" fill="none" xmlns="http://www.w3.org/2000/svg">
<rect width="65" height="65" rx="11" fill="#202435"/>
<path d="M34.6667 24C33.9303 24 33.3333 24.597 33.3333 25.3333C33.3333 26.0697 33.9303 26.6667 34.6667 26.6667H42.6667C43.4031 26.6667 44 26.0697 44 25.3333C44 24.597 43.4031 24 42.6667 24H34.6667Z" fill="#62FCC1"/>
<path d="M34.6667 37.3333C33.9303 37.3333 33.3333 37.9303 33.3333 38.6667C33.3333 39.4031 33.9303 40 34.6667 40H42.6667C43.4031 40 44 39.4031 44 38.6667C44 37.9303 43.4031 37.3333 42.6667 37.3333H34.6667Z" fill="#62FCC1"/>
<path d="M20.2907 21.456C20 22.0265 20 22.7732 20 24.2667V26.4C20 27.8935 20 28.6402 20.2907 29.2106C20.5463 29.7124 20.9543 30.1204 21.456 30.376C22.0265 30.6667 22.7732 30.6667 24.2667 30.6667H26.4C27.8935 30.6667 28.6402 30.6667 29.2106 30.376C29.7124 30.1204 30.1204 29.7124 30.376 29.2106C30.6667 28.6402 30.6667 27.8935 30.6667 26.4V24.2667C30.6667 22.7732 30.6667 22.0265 30.376 21.456C30.1204 20.9543 29.7124 20.5463 29.2106 20.2907C28.6402 20 27.8935 20 26.4 20H24.2667C22.7732 20 22.0265 20 21.456 20.2907C20.9543 20.5463 20.5463 20.9543 20.2907 21.456Z" fill="#62FCC1"/>
<path d="M20.2907 34.7893C20 35.3597 20 36.1065 20 37.6V39.7333C20 41.2268 20 41.9736 20.2907 42.544C20.5463 43.0457 20.9543 43.4537 21.456 43.7093C22.0265 44 22.7732 44 24.2667 44H26.4C27.8935 44 28.6402 44 29.2106 43.7093C29.7124 43.4537 30.1204 43.0457 30.376 42.544C30.6667 41.9736 30.6667 41.2268 30.6667 39.7333V37.6C30.6667 36.1065 30.6667 35.3597 30.376 34.7893C30.1204 34.2876 29.7124 33.8796 29.2106 33.624C28.6402 33.3333 27.8935 33.3333 26.4 33.3333H24.2667C22.7732 33.3333 22.0265 33.3333 21.456 33.624C20.9543 33.8796 20.5463 34.2876 20.2907 34.7893Z" fill="#62FCC1"/>
</svg>
