<svg width="98" height="20" viewBox="0 0 98 20" fill="none" xmlns="http://www.w3.org/2000/svg">
<path d="M6.2447 14.6099C6.24291 14.6117 6.24019 14.6142 6.23839 14.6159C6.23382 14.6202 6.23017 14.6236 6.22657 14.6279C6.18661 14.6673 6.14758 14.7042 6.10669 14.7411C6.10489 14.7428 6.10124 14.7454 6.09945 14.7471C6.06678 14.7762 6.03406 14.8053 6.00047 14.8319C5.99415 14.8379 5.98778 14.8431 5.98141 14.8474C5.96873 14.8585 5.95511 14.8688 5.94145 14.8799C5.91243 14.9039 5.88243 14.9262 5.85156 14.9485C5.84884 14.9502 5.84525 14.9528 5.84339 14.9554C5.82614 14.9674 5.80893 14.9802 5.79167 14.9931C5.74447 15.0256 5.69634 15.0582 5.64728 15.0908C5.6101 15.1148 5.57101 15.1379 5.53197 15.1602C5.45118 15.2082 5.36856 15.2528 5.28322 15.2931C5.2578 15.3059 5.23328 15.3179 5.20695 15.3291C5.18153 15.3411 5.1561 15.3514 5.12977 15.3625C5.12523 15.3642 5.1216 15.3668 5.11706 15.3685C5.09527 15.3771 5.07348 15.3874 5.0517 15.3951C5.02536 15.4062 4.99903 15.4157 4.9727 15.4259C4.79474 15.4919 4.61134 15.5451 4.42068 15.5828C4.39525 15.5879 4.36983 15.5922 4.34532 15.5965C4.24726 15.6145 4.1492 15.6282 4.04933 15.6376C4.02119 15.6402 3.99304 15.6428 3.96489 15.6445C3.95945 15.6454 3.95309 15.6454 3.94764 15.6454C3.89771 15.6497 3.84777 15.6522 3.79693 15.6531C3.76061 15.6539 3.72338 15.6548 3.68525 15.6548C3.6344 15.6548 3.58356 15.6539 3.53363 15.6522C3.49368 15.6505 3.45463 15.6479 3.41559 15.6454C3.3711 15.6428 3.32571 15.6385 3.28213 15.6334C3.24399 15.6291 3.20495 15.6248 3.16682 15.6188C3.10327 15.6102 3.04062 15.5999 2.97797 15.5879C2.93711 15.5802 2.89716 15.5708 2.85721 15.5614C2.84087 15.5588 2.82362 15.5545 2.80818 15.5502C2.76642 15.5408 2.72556 15.5297 2.68561 15.5176C2.64294 15.5057 2.60117 15.4928 2.55941 15.4799C2.55306 15.4782 2.54761 15.4756 2.54216 15.4739C2.49767 15.4593 2.45409 15.4448 2.41051 15.4285C2.40325 15.4259 2.39598 15.4225 2.38872 15.4199C2.34605 15.4045 2.30428 15.3874 2.26251 15.3702C2.21712 15.3514 2.17172 15.3317 2.12723 15.3102C2.08002 15.2888 2.03462 15.2657 1.98832 15.2425C1.94656 15.2211 1.90569 15.1979 1.86665 15.1757C1.7459 15.1071 1.62968 15.03 1.51801 14.9477C1.5053 14.9391 1.4935 14.9288 1.47987 14.9193C1.45899 14.9039 1.43902 14.8876 1.41995 14.8722C1.39998 14.8559 1.37909 14.8396 1.36093 14.8234C1.3337 14.802 1.30828 14.7788 1.28195 14.7556C1.15393 14.6416 1.03408 14.5191 0.926032 14.3879C0.904244 14.3622 0.882455 14.3357 0.86157 14.3082C0.798921 14.2285 0.740818 14.1454 0.685431 14.0605C0.480237 13.7408 0.330428 13.3868 0.247806 13.0096C0.242358 12.9831 0.236003 12.9557 0.231463 12.9291C0.194238 12.7388 0.175171 12.5425 0.175171 12.3419L0.177895 5.52507V5.48221C0.177895 5.42135 0.179711 5.36135 0.185158 5.30135C0.186974 5.27306 0.190606 5.24564 0.19333 5.21649C0.19333 5.20878 0.194238 5.20192 0.195145 5.19507C0.197869 5.17107 0.201501 5.14878 0.205133 5.12564C0.211489 5.08449 0.21966 5.04421 0.227831 5.00478C0.236911 4.96535 0.246898 4.92592 0.257793 4.88649C0.26778 4.84707 0.280492 4.80849 0.293203 4.77078C0.305914 4.73306 0.319533 4.69706 0.33406 4.66192C0.335876 4.65507 0.3386 4.64906 0.341323 4.64307C0.350403 4.61821 0.361298 4.59421 0.372193 4.56935C0.384904 4.54192 0.397615 4.51535 0.410326 4.48878C0.419406 4.46821 0.430301 4.44849 0.441196 4.42878C0.452999 4.40478 0.464803 4.38249 0.478422 4.36021C0.495672 4.32935 0.514739 4.29935 0.533806 4.26849C0.971428 3.58878 1.76224 3.13449 2.66473 3.13449C4.03844 3.13449 5.15247 4.18621 5.15247 5.48221L5.15066 9.32733V9.33165L5.14975 11.7745C5.14975 12.1131 5.1216 12.4662 5.14067 12.8039C5.13976 12.8108 5.13977 12.8185 5.13977 12.8254C5.13977 12.8631 5.14067 12.9008 5.1443 12.9376C5.14612 12.972 5.14884 13.0062 5.15247 13.0405C5.15974 13.1091 5.17063 13.176 5.18516 13.2428C5.19061 13.2668 5.19515 13.2899 5.20241 13.3139C5.21421 13.3593 5.22602 13.4031 5.24236 13.4477C5.24417 13.4562 5.24781 13.4656 5.25144 13.4751C5.27868 13.5514 5.31045 13.6268 5.34677 13.6988C5.35585 13.7185 5.36675 13.7382 5.37673 13.7571C5.37946 13.764 5.38309 13.7699 5.38854 13.7768C5.40034 13.7982 5.41124 13.8188 5.42485 13.8394C5.43212 13.8531 5.44029 13.8668 5.45025 13.8805C5.46392 13.9011 5.47753 13.9216 5.49114 13.9414C5.49386 13.9457 5.49751 13.9499 5.50023 13.9551C5.51471 13.9757 5.52838 13.9945 5.54379 14.0142C5.5538 14.0288 5.56469 14.0425 5.57645 14.0562C5.63732 14.1317 5.70271 14.2028 5.77349 14.2697C5.78895 14.2842 5.80436 14.2988 5.82162 14.3125C5.83615 14.3262 5.85069 14.3391 5.86523 14.3511C5.87154 14.3579 5.87884 14.3639 5.88608 14.3691C5.90241 14.3828 5.91875 14.3956 5.936 14.4094C5.95599 14.4248 5.97689 14.4402 5.99774 14.4548C6.02317 14.4737 6.0486 14.4908 6.07495 14.508C6.12852 14.5448 6.18569 14.5782 6.2447 14.6099Z" fill="#1BB394"/>
<path d="M12.8742 14.61C12.8724 14.6117 12.8697 14.6143 12.8679 14.616C12.8633 14.6203 12.8597 14.6237 12.8561 14.628C12.8161 14.6674 12.7771 14.7043 12.7362 14.7411C12.7344 14.7428 12.7308 14.7455 12.729 14.7471C12.6963 14.7763 12.6636 14.8054 12.63 14.832C12.6237 14.838 12.6173 14.8432 12.6109 14.8474C12.5982 14.8586 12.5846 14.8689 12.571 14.88C12.5419 14.904 12.512 14.9263 12.4811 14.9486C12.4784 14.9503 12.4748 14.9528 12.4729 14.9554C12.4557 14.9674 12.4384 14.9803 12.4212 14.9931C12.374 15.0257 12.3258 15.0583 12.2768 15.0908C12.2396 15.1149 12.2006 15.138 12.1615 15.1603C12.0807 15.2083 11.9981 15.2529 11.9127 15.2932C11.8873 15.306 11.8628 15.318 11.8364 15.3291C11.811 15.3412 11.7856 15.3514 11.7593 15.3626C11.7547 15.3643 11.7511 15.3669 11.7466 15.3686C11.7248 15.3771 11.703 15.3874 11.6812 15.3951C11.6549 15.4063 11.6285 15.4157 11.6022 15.426C11.4242 15.492 11.2409 15.5452 11.0502 15.5828C11.0248 15.588 10.9994 15.5923 10.9748 15.5966C10.8768 15.6145 10.7787 15.6283 10.6788 15.6377C10.6507 15.6403 10.6226 15.6429 10.5944 15.6446C10.589 15.6454 10.5826 15.6454 10.5771 15.6454C10.5272 15.6497 10.4773 15.6523 10.4264 15.6531C10.3901 15.654 10.3529 15.6548 10.3148 15.6548C10.2639 15.6548 10.2131 15.654 10.1631 15.6523C10.1232 15.6506 10.0841 15.648 10.0451 15.6454C10.0006 15.6429 9.95522 15.6386 9.91161 15.6334C9.8735 15.6291 9.83447 15.6248 9.79636 15.6189C9.73276 15.6103 9.67015 15.6 9.60749 15.588C9.5666 15.5803 9.52669 15.5709 9.48673 15.5614C9.4704 15.5588 9.45314 15.5546 9.43768 15.5503C9.39592 15.5408 9.35508 15.5297 9.31512 15.5177C9.27244 15.5057 9.23068 15.4928 9.18892 15.48C9.18255 15.4783 9.1771 15.4757 9.17166 15.474C9.12718 15.4594 9.08362 15.4448 9.04001 15.4286C9.03277 15.426 9.02548 15.4226 9.01824 15.42C8.97555 15.4046 8.93379 15.3874 8.89203 15.3703C8.84663 15.3514 8.80122 15.3317 8.75674 15.3103C8.70954 15.2888 8.66413 15.2657 8.61785 15.2426C8.57604 15.2211 8.5352 15.198 8.49617 15.1757C8.37541 15.1071 8.25917 15.03 8.14751 14.9477C8.13482 14.9391 8.12301 14.9288 8.10939 14.9194C8.08849 14.904 8.06851 14.8877 8.04945 14.8723C8.02947 14.856 8.00862 14.8397 7.99043 14.8234C7.96321 14.802 7.93779 14.7789 7.91143 14.7557C7.78344 14.6417 7.6636 14.5191 7.55553 14.388C7.53375 14.3623 7.51198 14.3357 7.49107 14.3083C7.42846 14.2286 7.37031 14.1454 7.31494 14.0606C7.10974 13.7409 6.95996 13.3868 6.87732 13.0097C6.87187 12.9831 6.8655 12.9557 6.86098 12.9291C6.82374 12.7388 6.80469 12.5426 6.80469 12.342L6.80741 5.52512V5.48227C6.80741 5.42141 6.80921 5.36141 6.81465 5.30141C6.8165 5.27313 6.8201 5.24569 6.82282 5.21655C6.82282 5.20884 6.82374 5.20198 6.82467 5.19512C6.82739 5.17113 6.83104 5.14884 6.83463 5.12569C6.841 5.08455 6.84917 5.04427 6.85734 5.00484C6.86643 4.96541 6.87639 4.92598 6.88728 4.88655C6.8973 4.84712 6.90998 4.80855 6.92272 4.77084C6.93541 4.73312 6.94902 4.69712 6.96356 4.66198C6.96541 4.65512 6.96813 4.64912 6.97085 4.64312C6.97989 4.61827 6.99083 4.59427 7.00172 4.56941C7.01441 4.54198 7.02715 4.51541 7.03983 4.48884C7.04893 4.46826 7.05981 4.44855 7.0707 4.42884C7.08252 4.40484 7.09433 4.38255 7.10794 4.36027C7.1252 4.32941 7.14426 4.29941 7.16331 4.26855C7.59822 3.58969 8.38902 3.13541 9.29149 3.13541C10.6652 3.13541 11.7793 4.18712 11.7793 5.48312L11.7774 9.3283V9.33256L11.7766 11.7754C11.7766 12.114 11.7484 12.4672 11.7675 12.8048C11.7665 12.8117 11.7665 12.8194 11.7665 12.8263C11.7665 12.864 11.7675 12.9017 11.7711 12.9386C11.7729 12.9729 11.7756 13.0072 11.7793 13.0414C11.7865 13.11 11.7974 13.1769 11.8119 13.2437C11.8174 13.2677 11.8219 13.2909 11.8292 13.3149C11.841 13.3603 11.8528 13.404 11.8692 13.4486C11.871 13.4571 11.8746 13.4666 11.8782 13.476C11.9055 13.5523 11.9372 13.6277 11.9735 13.6997C11.9826 13.7194 11.9935 13.7391 12.0035 13.758C12.0063 13.7649 12.0098 13.7708 12.0153 13.7777C12.0271 13.7992 12.038 13.8197 12.0517 13.8403C12.0589 13.854 12.0671 13.8677 12.0771 13.8814C12.0907 13.902 12.1043 13.9226 12.1179 13.9423C12.1206 13.9466 12.1243 13.9508 12.127 13.956C12.1416 13.9766 12.1552 13.9954 12.1706 14.0151C12.1806 14.0297 12.1915 14.0434 12.2033 14.0571C12.2641 14.1326 12.3295 14.2037 12.4003 14.2706C12.4157 14.2851 12.4311 14.2997 12.4484 14.3134C12.4629 14.3271 12.4775 14.34 12.492 14.352C12.4983 14.3588 12.5056 14.3648 12.5129 14.37C12.5292 14.3837 12.5456 14.3966 12.5628 14.4103C12.5828 14.4257 12.6037 14.4411 12.6245 14.4557C12.65 14.4746 12.6754 14.4917 12.7017 14.5089C12.758 14.5448 12.8152 14.5783 12.8742 14.61Z" fill="#1BB394"/>
<path d="M15.9216 14.0811C14.5488 14.0811 13.4357 13.0302 13.4357 11.7342V5.48135C13.4357 4.18535 14.5488 3.13449 15.9216 3.13449C17.2944 3.13449 18.4075 4.18535 18.4075 5.48135V11.7334C18.4075 13.0302 17.2944 14.0811 15.9216 14.0811Z" fill="#1BB394"/>
<path d="M57.9977 13.4895C55.937 13.4895 54.4567 12.3178 54.4567 10.7056H56.1766C56.1766 11.5336 56.9622 12.1241 58.0549 12.1241C58.9886 12.1241 59.5695 11.6835 59.5695 11.0707C59.5695 10.3507 58.6924 10.2427 57.6912 10.1244C56.0856 9.93069 54.5367 9.60842 54.5367 7.82385C54.5367 6.32985 55.8913 5.29785 57.8496 5.29785C59.8194 5.29785 61.2432 6.41556 61.2432 7.95242H59.5804C59.5924 7.19985 58.8748 6.66242 57.8954 6.66242C56.9954 6.66242 56.4036 7.06013 56.4036 7.61899C56.4036 8.33898 57.2116 8.44697 58.2367 8.57557C59.8075 8.74785 61.4364 9.07012 61.4364 10.8324C61.4364 12.4044 60.059 13.4895 57.9977 13.4895Z" fill="white"/>
<path d="M32.204 11.8911L34.029 5.29968H36.1091L33.7494 13.476H30.8049L29.3332 7.69968L27.8614 13.476H24.9051L22.5454 5.29968H24.6255L26.4741 11.8911L28.2137 5.29968H30.4762L32.204 11.8911Z" fill="white"/>
<path d="M39.468 11.9263H43.7017V13.4768H37.4978V5.29968H43.5801V6.85026H39.468V8.59539H43.0934V9.9737H39.468V11.9263Z" fill="white"/>
<path d="M45.2578 13.476V5.29968H49.4543C51.2547 5.29968 52.5194 6.24169 52.5194 7.51626C52.5194 8.35454 52.0083 9.03254 51.2665 9.22713C52.1545 9.4337 52.7628 10.2265 52.7628 11.202C52.7628 12.5682 51.4608 13.476 49.6005 13.476H45.2578ZM47.3015 6.75854V8.58424H49.0902C49.8683 8.58424 50.4285 8.21653 50.4285 7.6774C50.4285 7.13826 49.8692 6.75854 49.0902 6.75854H47.3015ZM49.1864 9.8931H47.3006V12.018H49.1864C50.0499 12.018 50.6709 11.5817 50.6709 10.9731C50.6709 10.3414 50.0499 9.8931 49.1864 9.8931Z" fill="white"/>
<path d="M63.1511 13.476V5.29968H65.195V8.45739H68.7709V5.29968H70.8147V13.476H68.7709V10.02H65.195V13.4768H63.1511V13.476Z" fill="white"/>
<path d="M74.1604 13.476H72.0077L74.915 5.29968H77.8828L80.7781 13.476H78.6374L78.1626 12.1208H74.6352L74.1604 13.476ZM75.0364 10.7434H77.7614L76.3981 6.95397L75.0364 10.7434Z" fill="white"/>
<path d="M84.0268 13.476H81.9835V5.29968H86.1796C88.1875 5.29968 89.5856 6.42511 89.5856 8.05626C89.5856 9.15857 88.819 10.0774 87.6877 10.422L89.78 13.4768H87.4928L85.7892 10.6748H84.0252V13.476H84.0268ZM84.0268 6.75854V9.3197H85.8518C86.8127 9.3197 87.5428 8.81399 87.5428 8.05626C87.5428 7.22911 86.8127 6.75854 85.8518 6.75854H84.0268Z" fill="white"/>
<path d="M93.3192 11.9263H97.5533V13.4768H91.3494V5.29968H97.4313V6.85026H93.3192V8.59539H96.9446V9.9737H93.3192V11.9263Z" fill="white"/>
</svg>
