<svg width="98" height="14" viewBox="0 0 98 14" fill="none" xmlns="http://www.w3.org/2000/svg">
<path d="M6.24483 11.6099C6.24303 11.6117 6.24031 11.6142 6.23851 11.6159C6.23394 11.6202 6.23029 11.6236 6.2267 11.6279C6.18673 11.6673 6.1477 11.7042 6.10681 11.7411C6.10501 11.7428 6.10137 11.7454 6.09957 11.7471C6.0669 11.7762 6.03418 11.8053 6.00059 11.8319C5.99427 11.8379 5.9879 11.8431 5.98153 11.8474C5.96885 11.8585 5.95524 11.8688 5.94157 11.8799C5.91255 11.9039 5.88255 11.9262 5.85168 11.9485C5.84896 11.9502 5.84537 11.9528 5.84352 11.9554C5.82626 11.9674 5.80905 11.9802 5.79179 11.9931C5.74459 12.0256 5.69646 12.0582 5.64741 12.0908C5.61022 12.1148 5.57113 12.1379 5.53209 12.1602C5.4513 12.2082 5.36868 12.2528 5.28334 12.2931C5.25792 12.3059 5.2334 12.3179 5.20707 12.3291C5.18165 12.3411 5.15623 12.3514 5.1299 12.3625C5.12536 12.3642 5.12172 12.3668 5.11718 12.3685C5.0954 12.3771 5.07361 12.3874 5.05182 12.3951C5.02548 12.4062 4.99915 12.4157 4.97282 12.4259C4.79487 12.4919 4.61147 12.5451 4.4208 12.5828C4.39538 12.5879 4.36996 12.5922 4.34544 12.5965C4.24739 12.6145 4.14933 12.6282 4.04945 12.6376C4.02131 12.6402 3.99316 12.6428 3.96501 12.6445C3.95957 12.6454 3.95321 12.6454 3.94777 12.6454C3.89783 12.6497 3.84789 12.6522 3.79705 12.6531C3.76073 12.6539 3.7235 12.6548 3.68537 12.6548C3.63453 12.6548 3.58369 12.6539 3.53375 12.6522C3.4938 12.6505 3.45476 12.6479 3.41571 12.6454C3.37123 12.6428 3.32583 12.6385 3.28225 12.6334C3.24412 12.6291 3.20507 12.6248 3.16694 12.6188C3.10339 12.6102 3.04074 12.5999 2.97809 12.5879C2.93723 12.5802 2.89728 12.5708 2.85734 12.5614C2.84099 12.5588 2.82374 12.5545 2.8083 12.5502C2.76654 12.5408 2.72568 12.5297 2.68573 12.5176C2.64306 12.5057 2.6013 12.4928 2.55953 12.4799C2.55318 12.4782 2.54773 12.4756 2.54228 12.4739C2.49779 12.4593 2.45421 12.4448 2.41063 12.4285C2.40337 12.4259 2.39611 12.4225 2.38884 12.4199C2.34617 12.4045 2.3044 12.3874 2.26263 12.3702C2.21724 12.3514 2.17184 12.3317 2.12736 12.3102C2.08014 12.2888 2.03475 12.2657 1.98844 12.2425C1.94668 12.2211 1.90582 12.1979 1.86677 12.1757C1.74602 12.1071 1.62981 12.03 1.51813 11.9477C1.50542 11.9391 1.49362 11.9288 1.48 11.9193C1.45912 11.9039 1.43914 11.8876 1.42007 11.8722C1.4001 11.8559 1.37921 11.8396 1.36106 11.8234C1.33382 11.802 1.3084 11.7788 1.28207 11.7556C1.15405 11.6416 1.0342 11.5191 0.926154 11.3879C0.904366 11.3622 0.882577 11.3357 0.861692 11.3082C0.799043 11.2285 0.74094 11.1454 0.685553 11.0605C0.480359 10.7408 0.33055 10.3868 0.247928 10.0096C0.24248 9.98306 0.236125 9.95566 0.231585 9.92909C0.19436 9.73881 0.175293 9.54252 0.175293 9.34191L0.178017 2.52507V2.48221C0.178017 2.42135 0.179833 2.36135 0.18528 2.30135C0.187097 2.27306 0.190728 2.24564 0.193452 2.21649C0.193452 2.20878 0.19436 2.20192 0.195268 2.19507C0.197991 2.17107 0.201623 2.14878 0.205255 2.12564C0.211611 2.08449 0.219782 2.04421 0.227953 2.00478C0.237033 1.96535 0.24702 1.92592 0.257915 1.88649C0.267902 1.84707 0.280614 1.80849 0.293325 1.77078C0.306036 1.73306 0.319655 1.69706 0.334182 1.66192C0.335998 1.65507 0.338722 1.64906 0.341445 1.64307C0.350525 1.61821 0.36142 1.59421 0.372315 1.56935C0.385026 1.54192 0.397737 1.51535 0.410448 1.48878C0.419528 1.46821 0.430423 1.44849 0.441318 1.42878C0.453121 1.40478 0.464925 1.38249 0.478544 1.36021C0.495794 1.32935 0.514861 1.29935 0.533928 1.26849C0.97155 0.588777 1.76237 0.134491 2.66485 0.134491C4.03856 0.134491 5.1526 1.18621 5.1526 2.48221L5.15078 6.32733V6.33165L5.14987 8.77452C5.14987 9.11308 5.12172 9.46619 5.14079 9.80393C5.13989 9.81077 5.13989 9.81848 5.13989 9.82537C5.13989 9.86309 5.14079 9.90077 5.14442 9.93762C5.14624 9.97196 5.14896 10.0062 5.1526 10.0405C5.15986 10.1091 5.17075 10.176 5.18528 10.2428C5.19073 10.2668 5.19527 10.2899 5.20253 10.3139C5.21433 10.3593 5.22614 10.4031 5.24248 10.4477C5.2443 10.4562 5.24793 10.4656 5.25156 10.4751C5.2788 10.5514 5.31058 10.6268 5.3469 10.6988C5.35597 10.7185 5.36687 10.7382 5.37686 10.7571C5.37958 10.764 5.38321 10.7699 5.38866 10.7768C5.40046 10.7982 5.41136 10.8188 5.42497 10.8394C5.43224 10.8531 5.44041 10.8668 5.45037 10.8805C5.46404 10.9011 5.47765 10.9216 5.49126 10.9414C5.49398 10.9457 5.49763 10.9499 5.50035 10.9551C5.51484 10.9757 5.5285 10.9945 5.54391 11.0142C5.55393 11.0288 5.56482 11.0425 5.57658 11.0562C5.63744 11.1317 5.70283 11.2028 5.77361 11.2697C5.78907 11.2842 5.80448 11.2988 5.82174 11.3125C5.83628 11.3262 5.85081 11.3391 5.86535 11.3511C5.87166 11.3579 5.87896 11.3639 5.8862 11.3691C5.90253 11.3828 5.91887 11.3956 5.93613 11.4094C5.95611 11.4248 5.97701 11.4402 5.99787 11.4548C6.02329 11.4737 6.04872 11.4908 6.07507 11.508C6.12864 11.5448 6.18581 11.5782 6.24483 11.6099Z" fill="#1BB394"/>
<path d="M12.8742 11.61C12.8724 11.6117 12.8697 11.6143 12.8679 11.616C12.8633 11.6203 12.8597 11.6237 12.8561 11.628C12.8161 11.6674 12.7771 11.7043 12.7362 11.7411C12.7344 11.7428 12.7308 11.7455 12.729 11.7471C12.6963 11.7763 12.6636 11.8054 12.63 11.832C12.6237 11.838 12.6173 11.8432 12.6109 11.8474C12.5982 11.8586 12.5846 11.8689 12.571 11.88C12.5419 11.904 12.512 11.9263 12.4811 11.9486C12.4784 11.9503 12.4748 11.9528 12.4729 11.9554C12.4557 11.9674 12.4384 11.9803 12.4212 11.9931C12.374 12.0257 12.3258 12.0583 12.2768 12.0908C12.2396 12.1149 12.2006 12.138 12.1615 12.1603C12.0807 12.2083 11.9981 12.2529 11.9127 12.2932C11.8873 12.306 11.8628 12.318 11.8364 12.3291C11.811 12.3412 11.7856 12.3514 11.7593 12.3626C11.7547 12.3643 11.7511 12.3669 11.7466 12.3686C11.7248 12.3771 11.703 12.3874 11.6812 12.3951C11.6549 12.4063 11.6285 12.4157 11.6022 12.426C11.4242 12.492 11.2409 12.5452 11.0502 12.5828C11.0248 12.588 10.9994 12.5923 10.9748 12.5966C10.8768 12.6145 10.7787 12.6283 10.6788 12.6377C10.6507 12.6403 10.6226 12.6429 10.5944 12.6446C10.589 12.6454 10.5826 12.6454 10.5771 12.6454C10.5272 12.6497 10.4773 12.6523 10.4264 12.6531C10.3901 12.654 10.3529 12.6548 10.3148 12.6548C10.2639 12.6548 10.2131 12.654 10.1631 12.6523C10.1232 12.6506 10.0841 12.648 10.0451 12.6454C10.0006 12.6429 9.95522 12.6386 9.91161 12.6334C9.8735 12.6291 9.83447 12.6248 9.79636 12.6189C9.73276 12.6103 9.67015 12.6 9.60749 12.588C9.5666 12.5803 9.52669 12.5709 9.48673 12.5614C9.4704 12.5588 9.45314 12.5546 9.43768 12.5503C9.39592 12.5408 9.35508 12.5297 9.31512 12.5177C9.27244 12.5057 9.23068 12.4928 9.18892 12.48C9.18255 12.4783 9.1771 12.4757 9.17166 12.474C9.12718 12.4594 9.08362 12.4448 9.04001 12.4286C9.03277 12.426 9.02548 12.4226 9.01824 12.42C8.97555 12.4046 8.93379 12.3874 8.89203 12.3703C8.84663 12.3514 8.80122 12.3317 8.75674 12.3103C8.70954 12.2888 8.66413 12.2657 8.61785 12.2426C8.57604 12.2211 8.5352 12.198 8.49617 12.1757C8.37541 12.1071 8.25917 12.03 8.14751 11.9477C8.13482 11.9391 8.12301 11.9288 8.10939 11.9194C8.08849 11.904 8.06851 11.8877 8.04945 11.8723C8.02947 11.856 8.00862 11.8397 7.99043 11.8234C7.96321 11.802 7.93779 11.7789 7.91143 11.7557C7.78344 11.6417 7.6636 11.5191 7.55553 11.388C7.53375 11.3623 7.51198 11.3357 7.49107 11.3083C7.42846 11.2286 7.37031 11.1454 7.31494 11.0606C7.10974 10.7409 6.95996 10.3868 6.87732 10.0097C6.87187 9.98315 6.8655 9.9557 6.86098 9.92913C6.82374 9.73885 6.80469 9.54256 6.80469 9.342L6.80741 2.52512V2.48227C6.80741 2.42141 6.80921 2.36141 6.81465 2.30141C6.8165 2.27313 6.8201 2.24569 6.82282 2.21655C6.82282 2.20884 6.82374 2.20198 6.82467 2.19512C6.82739 2.17113 6.83104 2.14884 6.83463 2.12569C6.841 2.08455 6.84917 2.04427 6.85734 2.00484C6.86643 1.96541 6.87639 1.92598 6.88728 1.88655C6.8973 1.84712 6.90998 1.80855 6.92272 1.77084C6.93541 1.73312 6.94902 1.69712 6.96356 1.66198C6.96541 1.65512 6.96813 1.64912 6.97085 1.64312C6.97989 1.61827 6.99083 1.59427 7.00172 1.56941C7.01441 1.54198 7.02715 1.51541 7.03983 1.48884C7.04893 1.46826 7.05981 1.44855 7.0707 1.42884C7.08252 1.40484 7.09433 1.38255 7.10794 1.36027C7.1252 1.32941 7.14426 1.29941 7.16331 1.26855C7.59822 0.589693 8.38902 0.135406 9.29149 0.135406C10.6652 0.135406 11.7793 1.18712 11.7793 2.48312L11.7774 6.3283V6.33256L11.7766 8.77543C11.7766 9.114 11.7484 9.46716 11.7675 9.80485C11.7665 9.81173 11.7665 9.81944 11.7665 9.82628C11.7665 9.86401 11.7675 9.90173 11.7711 9.93858C11.7729 9.97287 11.7756 10.0072 11.7793 10.0414C11.7865 10.11 11.7974 10.1769 11.8119 10.2437C11.8174 10.2677 11.8219 10.2909 11.8292 10.3149C11.841 10.3603 11.8528 10.404 11.8692 10.4486C11.871 10.4571 11.8746 10.4666 11.8782 10.476C11.9055 10.5523 11.9372 10.6277 11.9735 10.6997C11.9826 10.7194 11.9935 10.7391 12.0035 10.758C12.0063 10.7649 12.0098 10.7708 12.0153 10.7777C12.0271 10.7992 12.038 10.8197 12.0517 10.8403C12.0589 10.854 12.0671 10.8677 12.0771 10.8814C12.0907 10.902 12.1043 10.9226 12.1179 10.9423C12.1206 10.9466 12.1243 10.9508 12.127 10.956C12.1416 10.9766 12.1552 10.9954 12.1706 11.0151C12.1806 11.0297 12.1915 11.0434 12.2033 11.0571C12.2641 11.1326 12.3295 11.2037 12.4003 11.2706C12.4157 11.2851 12.4311 11.2997 12.4484 11.3134C12.4629 11.3271 12.4775 11.34 12.492 11.352C12.4983 11.3588 12.5056 11.3648 12.5129 11.37C12.5292 11.3837 12.5456 11.3966 12.5628 11.4103C12.5828 11.4257 12.6037 11.4411 12.6245 11.4557C12.65 11.4746 12.6754 11.4917 12.7017 11.5089C12.758 11.5448 12.8152 11.5783 12.8742 11.61Z" fill="#1BB394"/>
<path d="M15.9217 11.0811C14.549 11.0811 13.4358 10.0302 13.4358 8.73423V2.48135C13.4358 1.18535 14.549 0.134491 15.9217 0.134491C17.2945 0.134491 18.4077 1.18535 18.4077 2.48135V8.73335C18.4077 10.0302 17.2945 11.0811 15.9217 11.0811Z" fill="#1BB394"/>
<path d="M57.9979 10.4895C55.9371 10.4895 54.4568 9.31785 54.4568 7.70557H56.1767C56.1767 8.53356 56.9623 9.12413 58.055 9.12413C58.9887 9.12413 59.5697 8.68354 59.5697 8.07071C59.5697 7.35072 58.6926 7.24268 57.6913 7.12441C56.0858 6.93069 54.5368 6.60842 54.5368 4.82385C54.5368 3.32985 55.8914 2.29785 57.8498 2.29785C59.8196 2.29785 61.2433 3.41556 61.2433 4.95242H59.5806C59.5925 4.19985 58.875 3.66242 57.8955 3.66242C56.9955 3.66242 56.4037 4.06013 56.4037 4.61899C56.4037 5.33898 57.2117 5.44697 58.2369 5.57557C59.8076 5.74785 61.4366 6.07012 61.4366 7.83243C61.4366 9.4044 60.0591 10.4895 57.9979 10.4895Z" fill="#041E39"/>
<path d="M32.204 8.89112L34.029 2.29968H36.1091L33.7494 10.476H30.8049L29.3332 4.69968L27.8614 10.476H24.9051L22.5454 2.29968H24.6255L26.4741 8.89112L28.2137 2.29968H30.4762L32.204 8.89112Z" fill="#041E39"/>
<path d="M39.468 8.92628H43.7017V10.4768H37.4978V2.29968H43.5801V3.85026H39.468V5.59539H43.0934V6.9737H39.468V8.92628Z" fill="#041E39"/>
<path d="M45.2578 10.476V2.29968H49.4543C51.2547 2.29968 52.5194 3.24169 52.5194 4.51626C52.5194 5.35454 52.0083 6.03254 51.2665 6.22713C52.1545 6.4337 52.7628 7.22653 52.7628 8.20197C52.7628 9.56825 51.4608 10.476 49.6005 10.476H45.2578ZM47.3015 3.75854V5.58424H49.0902C49.8683 5.58424 50.4285 5.21653 50.4285 4.6774C50.4285 4.13826 49.8692 3.75854 49.0902 3.75854H47.3015ZM49.1864 6.8931H47.3006V9.01797H49.1864C50.0499 9.01797 50.6709 8.5817 50.6709 7.97309C50.6709 7.3414 50.0499 6.8931 49.1864 6.8931Z" fill="#041E39"/>
<path d="M63.1511 10.476V2.29968H65.195V5.45739H68.7709V2.29968H70.8147V10.476H68.7709V7.01996H65.195V10.4768H63.1511V10.476Z" fill="#041E39"/>
<path d="M74.1605 10.476H72.0078L74.9151 2.29968H77.8829L80.7783 10.476H78.6375L78.1628 9.12082H74.6353L74.1605 10.476ZM75.0366 7.74339H77.7615L76.3982 3.95397L75.0366 7.74339Z" fill="#041E39"/>
<path d="M84.0267 10.476H81.9834V2.29968H86.1794C88.1873 2.29968 89.5855 3.42511 89.5855 5.05626C89.5855 6.15857 88.8189 7.07742 87.6875 7.422L89.7798 10.4768H87.4926L85.7891 7.67482H84.0251V10.476H84.0267ZM84.0267 3.75854V6.3197H85.8517C86.8126 6.3197 87.5427 5.81399 87.5427 5.05626C87.5427 4.22911 86.8126 3.75854 85.8517 3.75854H84.0267Z" fill="#041E39"/>
<path d="M93.3192 8.92628H97.5533V10.4768H91.3494V2.29968H97.4313V3.85026H93.3192V5.59539H96.9446V6.9737H93.3192V8.92628Z" fill="#041E39"/>
</svg>
