<svg xmlns="http://www.w3.org/2000/svg" xmlns:xlink="http://www.w3.org/1999/xlink" viewBox="0 0 280 39.24"><defs><style>.cls-1{isolation:isolate;}.cls-2{fill:#fff;}.cls-3{fill:url(#linear-gradient);}.cls-4,.cls-7{mix-blend-mode:multiply;}.cls-4{fill:url(#linear-gradient-2);}.cls-5{fill:url(#linear-gradient-3);}.cls-6{fill:url(#linear-gradient-4);}.cls-7{fill:url(#linear-gradient-5);}.cls-8{fill:url(#linear-gradient-6);}.cls-9{fill:url(#linear-gradient-7);}.cls-10{fill:url(#linear-gradient-8);}.cls-11{fill:url(#linear-gradient-9);}.cls-12{fill:url(#linear-gradient-10);}.cls-13{fill:url(#linear-gradient-11);}.cls-14{fill:url(#linear-gradient-12);}.cls-15{fill-rule:evenodd;fill:url(#linear-gradient-13);}.cls-16{fill:url(#linear-gradient-14);}.cls-17{fill:url(#linear-gradient-15);}.cls-18{fill:url(#linear-gradient-16);}.cls-19{fill:url(#linear-gradient-17);}.cls-20{fill:url(#linear-gradient-18);}</style><linearGradient id="linear-gradient" x1="-0.55" y1="25.63" x2="52.95" y2="25.63" gradientUnits="userSpaceOnUse"><stop offset="0" stop-color="#41b787"/><stop offset="1" stop-color="#0099a5"/></linearGradient><linearGradient id="linear-gradient-2" x1="-0.55" y1="25.63" x2="52.95" y2="25.63" xlink:href="#linear-gradient"/><linearGradient id="linear-gradient-3" x1="-0.55" y1="13.57" x2="52.95" y2="13.57" xlink:href="#linear-gradient"/><linearGradient id="linear-gradient-4" x1="-0.55" y1="7.54" x2="52.95" y2="7.54" xlink:href="#linear-gradient"/><linearGradient id="linear-gradient-5" x1="-0.55" y1="7.54" x2="52.95" y2="7.54" xlink:href="#linear-gradient"/><linearGradient id="linear-gradient-6" x1="-0.55" y1="1.51" x2="52.95" y2="1.51" xlink:href="#linear-gradient"/><linearGradient id="linear-gradient-7" x1="-0.55" y1="13.57" x2="52.95" y2="13.57" xlink:href="#linear-gradient"/><linearGradient id="linear-gradient-8" x1="-0.55" y1="19.6" x2="52.95" y2="19.6" xlink:href="#linear-gradient"/><linearGradient id="linear-gradient-9" x1="-0.55" y1="31.66" x2="52.95" y2="31.66" xlink:href="#linear-gradient"/><linearGradient id="linear-gradient-10" x1="-0.55" y1="1.51" x2="52.95" y2="1.51" xlink:href="#linear-gradient"/><linearGradient id="linear-gradient-11" x1="-0.55" y1="19.6" x2="52.95" y2="19.6" xlink:href="#linear-gradient"/><linearGradient id="linear-gradient-12" x1="-0.55" y1="31.66" x2="52.95" y2="31.66" xlink:href="#linear-gradient"/><linearGradient id="linear-gradient-13" x1="-0.55" y1="19.63" x2="52.95" y2="19.63" xlink:href="#linear-gradient"/><linearGradient id="linear-gradient-14" x1="-0.55" y1="37.71" x2="52.95" y2="37.71" xlink:href="#linear-gradient"/><linearGradient id="linear-gradient-15" x1="-0.55" y1="37.71" x2="52.95" y2="37.71" xlink:href="#linear-gradient"/><linearGradient id="linear-gradient-16" x1="168.7" y1="20.88" x2="216.97" y2="20.88" xlink:href="#linear-gradient"/><linearGradient id="linear-gradient-17" x1="168.7" y1="22.57" x2="216.97" y2="22.57" xlink:href="#linear-gradient"/><linearGradient id="linear-gradient-18" x1="168.7" y1="22.57" x2="216.97" y2="22.57" xlink:href="#linear-gradient"/></defs><title>Asset 1</title><g class="cls-1"><g id="Layer_2" data-name="Layer 2"><g id="Layer_1-2" data-name="Layer 1"><path class="cls-2" d="M63.79,29.13a12.77,12.77,0,0,1-3-.3,4.41,4.41,0,0,1-1.94-1,3.65,3.65,0,0,1-1-1.75,10,10,0,0,1-.3-2.66v-5.2a10,10,0,0,1,.3-2.65,3.66,3.66,0,0,1,1-1.76,4.4,4.4,0,0,1,1.94-1,12.81,12.81,0,0,1,3-.3h6.3a12.93,12.93,0,0,1,3.06.3,4.4,4.4,0,0,1,1.95,1,3.66,3.66,0,0,1,1,1.76,10,10,0,0,1,.3,2.65v5.2a10,10,0,0,1-.3,2.66,3.66,3.66,0,0,1-1,1.75,4.41,4.41,0,0,1-1.95,1,12.9,12.9,0,0,1-3.06.3Zm8.95-10.72a5.22,5.22,0,0,0-.13-1.29,1.78,1.78,0,0,0-.45-.83,1.72,1.72,0,0,0-.86-.44,6.33,6.33,0,0,0-1.35-.12H64a6.76,6.76,0,0,0-1.42.12,1.72,1.72,0,0,0-.86.44,1.62,1.62,0,0,0-.43.83,6.31,6.31,0,0,0-.11,1.29v4.89a6.64,6.64,0,0,0,.11,1.32,1.55,1.55,0,0,0,.43.83,1.69,1.69,0,0,0,.86.41A7.52,7.52,0,0,0,64,26h6a7,7,0,0,0,1.35-.11,1.54,1.54,0,0,0,1.31-1.24,5.49,5.49,0,0,0,.13-1.32Z"/><path class="cls-2" d="M85.37,29.13a12.77,12.77,0,0,1-3-.3,4.41,4.41,0,0,1-1.94-1,3.65,3.65,0,0,1-1-1.75,10,10,0,0,1-.3-2.66V21.66a10.11,10.11,0,0,1,.3-2.67,3.65,3.65,0,0,1,1-1.76,4.4,4.4,0,0,1,1.94-1,12.8,12.8,0,0,1,3-.3H94.9v3.11H85.5a6.62,6.62,0,0,0-1.4.12,1.76,1.76,0,0,0-.86.43,1.63,1.63,0,0,0-.44.84,6.17,6.17,0,0,0-.12,1.34v1.56a5.86,5.86,0,0,0,.12,1.3,1.69,1.69,0,0,0,.44.84,1.79,1.79,0,0,0,.86.45,6,6,0,0,0,1.4.13h9.43v3.06Z"/><path class="cls-2" d="M103.8,29.13a12.77,12.77,0,0,1-3-.3,4.41,4.41,0,0,1-1.94-1,3.66,3.66,0,0,1-1-1.75,10,10,0,0,1-.3-2.66V16h3.65v7.39a4.89,4.89,0,0,0,.16,1.37,1.67,1.67,0,0,0,.5.81,1.93,1.93,0,0,0,.91.4,7.64,7.64,0,0,0,1.4.11h3.79a8.17,8.17,0,0,0,1.46-.11,1.86,1.86,0,0,0,.91-.4,1.57,1.57,0,0,0,.46-.81,5.72,5.72,0,0,0,.13-1.37V16h3.6v7.49a10,10,0,0,1-.3,2.66,3.65,3.65,0,0,1-1,1.75,4.42,4.42,0,0,1-2,1,13.05,13.05,0,0,1-3.07.3Z"/><path class="cls-2" d="M117.24,29.13V11.7h3.7V29.13Z"/><path class="cls-2" d="M130.05,29.13a12.77,12.77,0,0,1-3-.3,4.41,4.41,0,0,1-1.94-1,3.64,3.64,0,0,1-1-1.75,10,10,0,0,1-.3-2.66V16h3.65v7.39a4.88,4.88,0,0,0,.16,1.37,1.67,1.67,0,0,0,.5.81,1.93,1.93,0,0,0,.91.4,7.63,7.63,0,0,0,1.4.11h3.79a8.17,8.17,0,0,0,1.46-.11,1.86,1.86,0,0,0,.91-.4,1.57,1.57,0,0,0,.46-.81,5.74,5.74,0,0,0,.13-1.37V16h3.6v7.49a10,10,0,0,1-.3,2.66,3.65,3.65,0,0,1-1,1.75,4.41,4.41,0,0,1-2,1,13.06,13.06,0,0,1-3.07.3Z"/><path class="cls-2" d="M159,25.63a6.79,6.79,0,0,1-.17,1.64,2,2,0,0,1-.67,1.08,3.11,3.11,0,0,1-1.36.59,11.22,11.22,0,0,1-2.25.18H143.21V26.28h10.87a1.62,1.62,0,0,0,1-.24,1.17,1.17,0,0,0,.29-.92v-.44q0-.73-.28-.91a1.79,1.79,0,0,0-.94-.18h-7.39a6.2,6.2,0,0,1-1.81-.22,2.35,2.35,0,0,1-1.08-.66,2.29,2.29,0,0,1-.52-1.08,7.54,7.54,0,0,1-.13-1.52v-1a5.11,5.11,0,0,1,.18-1.46,2.12,2.12,0,0,1,.6-1,2.49,2.49,0,0,1,1.12-.55A7.75,7.75,0,0,1,146.9,16H159V18.7H147.78a1.19,1.19,0,0,0-.77.19.88.88,0,0,0-.23.7v.61A1,1,0,0,0,147,21a1,1,0,0,0,.7.19h7.15a8.55,8.55,0,0,1,2.07.21,2.76,2.76,0,0,1,1.26.66,2.34,2.34,0,0,1,.63,1.17,7.83,7.83,0,0,1,.17,1.76Z"/><path class="cls-3" d="M21.82,25.63a1.51,1.51,0,0,1-1.51,1.51H10.87a1.51,1.51,0,0,1-1.51-1.51h0a1.51,1.51,0,0,1,1.51-1.51h9.44a1.51,1.51,0,0,1,1.51,1.51Z"/><path class="cls-4" d="M8.32,25.63a1.51,1.51,0,0,1-1.51,1.51H3.2a1.51,1.51,0,0,1-1.51-1.51h0A1.51,1.51,0,0,1,3.2,24.12h3.6a1.51,1.51,0,0,1,1.51,1.51Z"/><path class="cls-5" d="M11.91,13.57a1.51,1.51,0,0,1-1.51,1.51H8.17a1.51,1.51,0,0,1-1.51-1.51h0a1.51,1.51,0,0,1,1.51-1.51H10.4a1.51,1.51,0,0,1,1.51,1.51Z"/><path class="cls-6" d="M19.55,7.54A1.51,1.51,0,0,1,18,9h-4.6a1.51,1.51,0,0,1-1.51-1.51h0A1.51,1.51,0,0,1,13.44,6H18a1.51,1.51,0,0,1,1.51,1.51Z"/><path class="cls-7" d="M10.77,7.54A1.51,1.51,0,0,1,9.26,9H3.1A1.51,1.51,0,0,1,1.6,7.54h0A1.51,1.51,0,0,1,3.1,6H9.26a1.51,1.51,0,0,1,1.51,1.51Z"/><path class="cls-8" d="M24.45,1.51A1.51,1.51,0,0,1,22.94,3H21.12a1.51,1.51,0,0,1-1.51-1.51h0A1.51,1.51,0,0,1,21.12,0h1.82a1.51,1.51,0,0,1,1.51,1.51Z"/><path class="cls-9" d="M18.26,13.57a1.51,1.51,0,0,1-1.51,1.51H14.52A1.51,1.51,0,0,1,13,13.57h0a1.51,1.51,0,0,1,1.51-1.51h2.23a1.51,1.51,0,0,1,1.51,1.51Z"/><path class="cls-10" d="M18.57,19.6a1.51,1.51,0,0,1-1.51,1.51H12.62a1.51,1.51,0,0,1-1.51-1.51h0a1.51,1.51,0,0,1,1.51-1.51h4.44a1.51,1.51,0,0,1,1.51,1.51Z"/><path class="cls-11" d="M24,31.66a1.51,1.51,0,0,1-1.51,1.51h-4.6a1.51,1.51,0,0,1-1.51-1.51h0a1.51,1.51,0,0,1,1.51-1.51h4.6A1.51,1.51,0,0,1,24,31.66Z"/><path class="cls-12" d="M18.54,1.51A1.51,1.51,0,0,1,17,3H11.72a1.51,1.51,0,0,1-1.51-1.51h0A1.51,1.51,0,0,1,11.72,0H17a1.51,1.51,0,0,1,1.51,1.51Z"/><path class="cls-13" d="M9.79,19.6a1.51,1.51,0,0,1-1.51,1.51H1.51A1.51,1.51,0,0,1,0,19.6H0a1.51,1.51,0,0,1,1.51-1.51H8.28A1.51,1.51,0,0,1,9.79,19.6Z"/><path class="cls-14" d="M15.19,31.66a1.51,1.51,0,0,1-1.51,1.51H6.36a1.51,1.51,0,0,1-1.51-1.51h0a1.51,1.51,0,0,1,1.51-1.51h7.32a1.51,1.51,0,0,1,1.51,1.51Z"/><path class="cls-15" d="M30,39.21a1.51,1.51,0,0,0,0-3H23.74a12.46,12.46,0,0,0,.48-3h0v0H36.3a1.51,1.51,0,1,0,0-3H24.07a14.91,14.91,0,0,0-.77-3l0,0H28.6a1.51,1.51,0,1,0,0-3H21.86c-.6-1.07-1.21-2-1.73-3H34.52a1.51,1.51,0,1,0,0-3H19a16,16,0,0,1-.37-2.95s0,0,0-.07h8.92a1.51,1.51,0,1,0,0-3H18.87a14.89,14.89,0,0,1,.85-3H34a1.51,1.51,0,1,0,0-3H21.34a11.2,11.2,0,0,1,2.89-2.92L24.35,3H36a1.5,1.5,0,0,0,.24-3l1,.06a13.86,13.86,0,0,1,1.54.16A14.42,14.42,0,0,1,41.51,1a16,16,0,0,1,2.65,1.32,12.12,12.12,0,0,1,2.37,1.85,8.19,8.19,0,0,1,1.6,2.21,27.12,27.12,0,0,1,1,2.63c.34,1,.63,2,.94,3A4,4,0,0,1,50,15.22a1.5,1.5,0,0,0,0,1.39,7.61,7.61,0,0,0,.64.93c.32.46.65.91,1,1.37s.48.78.74,1.16.61.83.89,1.25a1.63,1.63,0,0,1,.22.56,1.31,1.31,0,0,1-.63,1.34,3.38,3.38,0,0,1-1.36.59c-.37.08-.5.23-.47.6a3.44,3.44,0,0,0,.15.61,2.14,2.14,0,0,1,.16.56,1.21,1.21,0,0,1-.46,1c-.16.12-.3.25-.45.37a1,1,0,0,1,.14,1.4c-.1.15-.23.28-.32.44A1.22,1.22,0,0,0,50,29.92a3.79,3.79,0,0,1,.17,1.82,2.62,2.62,0,0,1-1.41,2,3.61,3.61,0,0,1-1.54.42c-.83.06-1.67.08-2.5.14a3.85,3.85,0,0,0-2.53.82,1.43,1.43,0,0,0-.53,1.19A6.07,6.07,0,0,1,41.53,38c-.09.4-.15.8-.22,1.19H22.68v0Z"/><path class="cls-16" d="M22.57,37.71a1.51,1.51,0,0,1-1.51,1.51h-4.6A1.51,1.51,0,0,1,15,37.71h0a1.51,1.51,0,0,1,1.51-1.51h4.6a1.51,1.51,0,0,1,1.51,1.51Z"/><path class="cls-17" d="M13.79,37.71a1.51,1.51,0,0,1-1.51,1.51H5a1.51,1.51,0,0,1-1.51-1.51h0A1.51,1.51,0,0,1,5,36.2h7.32a1.51,1.51,0,0,1,1.51,1.51Z"/><path class="cls-18" d="M173.09,24.41v4.72h-3.68V12.62h13.21a13.16,13.16,0,0,1,3,.28,4.33,4.33,0,0,1,1.91.92,3.49,3.49,0,0,1,1,1.66,8.75,8.75,0,0,1,.3,2.47v1.43a8.66,8.66,0,0,1-.29,2.44,3.08,3.08,0,0,1-1,1.55,4.24,4.24,0,0,1-1.9.81,16.21,16.21,0,0,1-3,.23Zm12.05-6.32a2.32,2.32,0,0,0-.57-1.81,3.23,3.23,0,0,0-2-.48h-9.44v5.64h9.49a3.32,3.32,0,0,0,2-.45,2.18,2.18,0,0,0,.56-1.75Z"/><path class="cls-19" d="M191.12,29.13v-7.6a8.17,8.17,0,0,1,.34-2.52,3.85,3.85,0,0,1,1.08-1.71,4.58,4.58,0,0,1,1.9-1,11,11,0,0,1,2.83-.31h2.35v2.93h-2.25a5.5,5.5,0,0,0-1.26.12,1.71,1.71,0,0,0-.81.41,1.65,1.65,0,0,0-.44.8,5.14,5.14,0,0,0-.13,1.28v7.58Z"/><path class="cls-20" d="M207.57,29.13a12.71,12.71,0,0,1-3-.3,4.38,4.38,0,0,1-1.94-1,3.63,3.63,0,0,1-1-1.74,9.9,9.9,0,0,1-.3-2.65V21.7a10,10,0,0,1,.3-2.66,3.63,3.63,0,0,1,1-1.75,4.39,4.39,0,0,1,1.94-1,12.73,12.73,0,0,1,3-.3H212a12.84,12.84,0,0,1,3,.3,4.31,4.31,0,0,1,1.94,1,3.72,3.72,0,0,1,1,1.77,10.08,10.08,0,0,1,.3,2.66v1.74a9.94,9.94,0,0,1-.3,2.65,3.64,3.64,0,0,1-1,1.74,4.38,4.38,0,0,1-1.94,1,12.83,12.83,0,0,1-3,.3Zm7.09-7.31a5.72,5.72,0,0,0-.13-1.35,1.57,1.57,0,0,0-.48-.84,2,2,0,0,0-1-.41,9.67,9.67,0,0,0-1.6-.11h-3.41a9.42,9.42,0,0,0-1.58.11,2,2,0,0,0-1,.41,1.57,1.57,0,0,0-.48.84,5.74,5.74,0,0,0-.13,1.35v1.55a5.59,5.59,0,0,0,.13,1.34,1.57,1.57,0,0,0,.48.82,2.05,2.05,0,0,0,1,.42,8.41,8.41,0,0,0,1.58.12h3.41a8.63,8.63,0,0,0,1.6-.12,2.07,2.07,0,0,0,1-.42,1.56,1.56,0,0,0,.48-.82,5.57,5.57,0,0,0,.13-1.34Z"/><path class="cls-2" d="M232.35,29.13l-4.43-4.74-4.5,4.74H219l6.8-6.82L219.48,16h4.33l4.26,4.43L232.42,16h4.36l-6.56,6.41,6.63,6.7Z"/><path class="cls-2" d="M239.71,15.26a1.36,1.36,0,0,1-1-.27,1.13,1.13,0,0,1-.28-.85v-1.4a1.08,1.08,0,0,1,.28-.83,1.41,1.41,0,0,1,1-.25h1.19a1.46,1.46,0,0,1,1,.25,1.08,1.08,0,0,1,.28.83v1.4a1.13,1.13,0,0,1-.28.85,1.41,1.41,0,0,1-1,.27Zm-1.23,13.87V16.35h3.68V29.13Z"/><path class="cls-2" d="M248.49,23.9v.6a3.88,3.88,0,0,0,.1,1,1.05,1.05,0,0,0,.35.57,1.44,1.44,0,0,0,.68.28,6.42,6.42,0,0,0,1.05.07H262v2.74h-11.3q-3.12,0-4.45-1.19a4.85,4.85,0,0,1-1.33-3.8v-3a8.93,8.93,0,0,1,.28-2.41,3.14,3.14,0,0,1,1-1.57,4.24,4.24,0,0,1,1.83-.86,13,13,0,0,1,2.88-.27h6.34a8.66,8.66,0,0,1,2.34.27A3.85,3.85,0,0,1,261,17a2.52,2.52,0,0,1,.76,1.14,4.6,4.6,0,0,1,.22,1.44V23.9Zm9.87-4A1,1,0,0,0,258,19a2.2,2.2,0,0,0-1.15-.22h-6a8.86,8.86,0,0,0-1.14.06,1.49,1.49,0,0,0-.74.28,1.2,1.2,0,0,0-.4.63,4.08,4.08,0,0,0-.12,1.11v.7h9.87Z"/><path class="cls-2" d="M280,25.64a6.76,6.76,0,0,1-.17,1.63,2,2,0,0,1-.67,1.08,3.1,3.1,0,0,1-1.36.59,11.2,11.2,0,0,1-2.24.18H264.29V26.3h10.82a1.62,1.62,0,0,0,1-.24,1.16,1.16,0,0,0,.29-.92V24.7q0-.73-.28-.91a1.77,1.77,0,0,0-.93-.18h-7.36a6.12,6.12,0,0,1-1.8-.22,2.34,2.34,0,0,1-1.08-.65,2.28,2.28,0,0,1-.52-1.08,7.5,7.5,0,0,1-.13-1.51v-1a5.12,5.12,0,0,1,.18-1.45,2.11,2.11,0,0,1,.59-1,2.49,2.49,0,0,1,1.11-.54A7.71,7.71,0,0,1,268,16h12v2.73H268.84a1.19,1.19,0,0,0-.76.19.88.88,0,0,0-.23.7v.6a1,1,0,0,0,.22.75,1,1,0,0,0,.7.19h7.11a8.51,8.51,0,0,1,2.06.21,2.75,2.75,0,0,1,1.26.65,2.35,2.35,0,0,1,.63,1.16A7.79,7.79,0,0,1,280,25Z"/></g></g></g></svg>